# Blender v2.79 (sub 0) OBJ File: 'LED marquee.blend'
# www.blender.org
o Cube_Cube_LEDs
v 0.500000 -0.453125 -0.468750
v -0.500000 -0.453125 -0.468750
v -0.500000 -0.453125 0.468750
v 0.500000 -0.453125 0.468750
v 0.500000 -0.437500 -0.500000
v 0.500000 -0.437500 -0.484375
v 0.500000 -0.453125 -0.468750
v 0.500000 -0.453125 0.468750
v 0.500000 -0.437500 0.484375
v 0.500000 -0.437500 0.500000
v 0.500000 -0.500000 0.500000
v 0.500000 -0.500000 -0.500000
v -0.500000 -0.500000 0.500000
v -0.500000 -0.500000 -0.500000
v -0.500000 -0.437500 0.500000
v -0.500000 -0.437500 0.484375
v -0.500000 -0.453125 0.468750
v -0.500000 -0.453125 -0.468750
v -0.500000 -0.437500 -0.484375
v -0.500000 -0.437500 -0.500000
v 0.500000 -0.449125 -0.468750
v -0.500000 -0.449125 -0.468750
v -0.500000 -0.449125 0.468750
v 0.500000 -0.449125 0.468750
vt 0.667843 0.000000
vt 0.667843 0.015513
vt 0.681855 0.031026
vt 0.681855 0.961799
vt 0.667843 0.977312
vt 0.667843 0.992824
vt 0.723891 0.992824
vt 0.723891 0.000000
vt 1.000000 0.007175
vt 1.000000 1.000000
vt 0.103234 1.000000
vt 0.103234 0.007175
vt 0.723891 0.000000
vt 0.723891 0.992824
vt 0.667843 0.992824
vt 0.667843 0.977312
vt 0.681855 0.961799
vt 0.681855 0.031026
vt 0.667843 0.015513
vt 0.667843 0.000000
vt 0.003280 0.226388
vt 0.900045 0.226388
vt 0.900045 0.164337
vt 0.003280 0.164337
vt 0.900045 0.226388
vt 0.003280 0.226388
vt 0.003280 0.164337
vt 0.900045 0.164337
vt 1.000000 -0.000000
vt 1.000000 0.017400
vt 0.000000 0.017400
vt 0.000000 -0.000000
vt 1.000000 0.982506
vt 1.000000 1.000000
vt 0.000000 1.000000
vt 0.000000 0.982506
vt 0.000000 0.965011
vt 1.000000 0.965011
vt 1.000000 0.034801
vt 0.000000 0.034801
vt 0.000000 0.000000
vt 1.000000 0.000000
vt 1.000000 1.000000
vt 0.000000 1.000000
vt 0.000000 0.000000
vt 1.000000 0.000000
vt 1.000000 1.000000
vt 0.000000 1.000000
vn 1.0000 0.0000 -0.0000
vn 0.0000 -1.0000 0.0000
vn -1.0000 0.0000 0.0000
vn -0.0000 -0.0000 -1.0000
vn 0.0000 0.0000 1.0000
vn -0.0000 1.0000 0.0000
vn -0.0000 0.7071 -0.7071
vn -0.0000 0.7071 0.7071
g Cube_Cube_LEDs_Cube_Cube_LEDs_base
s off
f 5/1/1 6/2/1 7/3/1 8/4/1 9/5/1 10/6/1 11/7/1 12/8/1
f 12/9/2 11/10/2 13/11/2 14/12/2
f 14/13/3 13/14/3 15/15/3 16/16/3 17/17/3 18/18/3 19/19/3 20/20/3
f 12/21/4 14/22/4 20/23/4 5/24/4
f 13/25/5 11/26/5 10/27/5 15/28/5
f 20/29/6 19/30/6 6/31/6 5/32/6
f 16/33/6 15/34/6 10/35/6 9/36/6
f 9/36/7 8/37/7 17/38/7 16/33/7
f 18/39/8 7/40/8 6/31/8 19/30/8
g Cube_Cube_LEDs_Cube_Cube_LEDs_leds_off
f 1/41/6 2/42/6 3/43/6 4/44/6
g Cube_Cube_LEDs_Cube_Cube_LEDs_leds_on
f 21/45/6 22/46/6 23/47/6 24/48/6
