# Blender v2.79 (sub 0) OBJ File: 'basic_signs wooden wall sign.blend'
# www.blender.org
o Cube.003_Cube
v 0.437500 -0.812500 -0.312500
v 0.437500 -0.750000 -0.312500
v 0.437500 -0.812500 0.312500
v 0.437500 -0.750000 0.312500
v -0.437500 -0.812500 -0.312500
v -0.437500 -0.750000 -0.312500
v -0.437500 -0.812500 0.312500
v -0.437500 -0.750000 0.312500
v 0.437500 -0.812500 -0.312500
v 0.437500 -0.750000 -0.312500
v 0.437500 -0.812500 0.312500
v 0.437500 -0.750000 0.312500
v -0.437500 -0.812500 -0.312500
v -0.437500 -0.750000 -0.312500
v -0.437500 -0.812500 0.312500
v -0.437500 -0.750000 0.312500
vt 0.468750 0.812500
vt 0.031250 0.812500
vt 0.031250 0.187500
vt 0.468750 0.187500
vt 0.531250 0.812500
vt 0.968750 0.812500
vt 0.968750 0.187500
vt 0.531250 0.187500
vt 0.234375 0.000000
vt 0.234375 1.000000
vt 0.015625 1.000000
vt 0.015625 -0.000000
vt 0.609375 -0.000000
vt 0.609375 1.000000
vt 0.390625 1.000000
vt 0.390625 -0.000000
vt 0.765625 0.000000
vt 0.765625 1.000000
vn 0.0000 1.0000 0.0000
vn 0.0000 -1.0000 0.0000
vn 0.0000 0.0000 -1.0000
vn 0.0000 0.0000 1.0000
vn 1.0000 0.0000 0.0000
vn -1.0000 0.0000 0.0000
g Cube.003_Cube_front-back
s off
f 8/1/1 4/2/1 2/3/1 6/4/1
f 3/5/2 7/6/2 5/7/2 1/8/2
g Cube.003_Cube_edges
f 13/9/3 14/10/3 10/11/3 9/12/3
f 11/13/4 12/14/4 16/15/4 15/16/4
f 11/13/5 9/17/5 10/18/5 12/14/5
f 13/9/6 15/16/6 16/15/6 14/10/6
o Cube.001
v -0.125000 -0.812500 -0.187500
v -0.125000 -0.875000 -0.187500
v -0.125000 -0.812500 0.187500
v -0.125000 -0.875000 0.187500
v 0.125000 -0.812500 0.187500
v 0.125000 -0.812500 -0.187500
v 0.125000 -0.875000 -0.187500
v 0.125000 -0.875000 0.187500
v -0.125000 -1.125000 -0.187500
v -0.125000 -0.812500 -0.187500
v -0.125000 -1.125000 -0.125000
v -0.125000 -0.812500 -0.125000
v -0.164063 -1.125000 -0.187500
v -0.164063 -0.812500 -0.187500
v -0.164063 -1.125000 -0.125000
v -0.164063 -0.812500 -0.125000
v -0.125000 -1.125000 0.125000
v -0.125000 -0.812500 0.125000
v -0.125000 -1.125000 0.187500
v -0.125000 -0.812500 0.187500
v -0.164063 -1.125000 0.125000
v -0.164063 -0.812500 0.125000
v -0.164063 -1.125000 0.187500
v -0.164063 -0.812500 0.187500
v 0.164062 -1.125000 -0.187500
v 0.164062 -0.812500 -0.187500
v 0.164062 -1.125000 -0.125000
v 0.164062 -0.812500 -0.125000
v 0.125000 -1.125000 -0.187500
v 0.125000 -0.812500 -0.187500
v 0.125000 -1.125000 -0.125000
v 0.125000 -0.812500 -0.125000
v 0.164062 -1.125000 0.125000
v 0.164062 -0.812500 0.125000
v 0.164062 -1.125000 0.187500
v 0.164062 -0.812500 0.187500
v 0.125000 -1.125000 0.125000
v 0.125000 -0.812500 0.125000
v 0.125000 -1.125000 0.187500
v 0.125000 -0.812500 0.187500
v -0.164063 -1.164063 -0.187500
v 0.164062 -1.164063 -0.187500
v -0.164063 -1.164063 -0.125000
v 0.164062 -1.164063 -0.125000
v -0.164063 -1.125000 -0.187500
v 0.164062 -1.125000 -0.187500
v -0.164063 -1.125000 -0.125000
v 0.164062 -1.125000 -0.125000
v -0.164063 -1.164063 0.125000
v 0.164062 -1.164063 0.125000
v -0.164063 -1.164063 0.187500
v 0.164062 -1.164063 0.187500
v -0.164063 -1.125000 0.125000
v 0.164062 -1.125000 0.125000
v -0.164063 -1.125000 0.187500
v 0.164062 -1.125000 0.187500
vt 0.843750 0.507812
vt 0.703125 0.507812
vt 0.703125 0.093750
vt 0.843750 0.093750
vt 0.015625 0.507812
vt 0.015625 0.093750
vt 0.156250 0.093750
vt 0.156250 0.507812
vt 0.156250 0.031250
vt 0.703125 0.031250
vt 0.703125 0.578125
vt 0.156250 0.578125
vt 0.312500 0.640625
vt 0.312500 0.992188
vt 0.453125 0.992188
vt 0.453125 0.640625
vt 0.234375 0.640625
vt 0.234375 0.992188
vt 0.312500 0.992188
vt 0.312500 0.640625
vt 0.234375 0.640625
vt 0.234375 0.992188
vt 0.093750 0.992188
vt 0.093750 0.640625
vt 0.015625 0.992188
vt 0.015625 0.640625
vt 0.312500 0.640625
vt 0.312500 0.992188
vt 0.453125 0.992188
vt 0.453125 0.640625
vt 0.234375 0.640625
vt 0.234375 0.992188
vt 0.312500 0.992188
vt 0.312500 0.640625
vt 0.234375 0.640625
vt 0.234375 0.992188
vt 0.093750 0.992188
vt 0.093750 0.640625
vt 0.015625 0.992188
vt 0.015625 0.640625
vt 0.312500 0.640625
vt 0.312500 0.992188
vt 0.453125 0.992188
vt 0.453125 0.640625
vt 0.234375 0.640625
vt 0.234375 0.992188
vt 0.312500 0.992188
vt 0.312500 0.640625
vt 0.234375 0.640625
vt 0.234375 0.992188
vt 0.093750 0.992188
vt 0.093750 0.640625
vt 0.015625 0.992188
vt 0.015625 0.640625
vt 0.312500 0.640625
vt 0.312500 0.992188
vt 0.453125 0.992188
vt 0.453125 0.640625
vt 0.234375 0.640625
vt 0.234375 0.992188
vt 0.312500 0.992188
vt 0.312500 0.640625
vt 0.234375 0.640625
vt 0.234375 0.992188
vt 0.093750 0.992188
vt 0.093750 0.640625
vt 0.015625 0.992188
vt 0.015625 0.640625
vt 0.781250 0.664062
vt 0.781250 0.992188
vt 0.921875 0.992188
vt 0.921875 0.664062
vt 0.484375 0.664062
vt 0.484375 0.992188
vt 0.562500 0.992188
vt 0.562500 0.664062
vt 0.703125 0.992188
vt 0.703125 0.664062
vt 0.234375 0.593750
vt 0.234375 0.640625
vt 0.093750 0.640625
vt 0.093750 0.593750
vt 0.453125 0.640625
vt 0.453125 0.593750
vt 0.312500 0.593750
vt 0.312500 0.640625
vt 0.781250 0.664062
vt 0.781250 0.992188
vt 0.921875 0.992188
vt 0.921875 0.664062
vt 0.484375 0.664062
vt 0.484375 0.992188
vt 0.562500 0.992188
vt 0.562500 0.664062
vt 0.703125 0.992188
vt 0.703125 0.664062
vt 0.234375 0.593750
vt 0.234375 0.640625
vt 0.093750 0.640625
vt 0.093750 0.593750
vt 0.453125 0.640625
vt 0.453125 0.593750
vt 0.312500 0.593750
vt 0.312500 0.640625
vn -1.0000 0.0000 0.0000
vn 1.0000 0.0000 0.0000
vn 0.0000 -0.0000 1.0000
vn 0.0000 0.0000 -1.0000
vn 0.0000 -1.0000 -0.0000
vn 0.0000 1.0000 0.0000
g Cube.001_Cube.001_pole_mount
s off
f 17/19/7 18/20/7 20/21/7 19/22/7
f 22/23/8 21/24/8 24/25/8 23/26/8
f 20/21/9 24/25/9 21/27/9 19/28/9
f 17/29/10 22/30/10 23/26/10 18/20/10
f 18/20/11 23/26/11 24/25/11 20/21/11
f 25/31/8 26/32/8 28/33/8 27/34/8
f 27/35/9 28/36/9 32/37/9 31/38/9
f 31/39/7 32/40/7 30/41/7 29/42/7
f 29/42/10 30/41/10 26/43/10 25/44/10
f 33/45/8 34/46/8 36/47/8 35/48/8
f 35/49/9 36/50/9 40/51/9 39/52/9
f 39/53/7 40/54/7 38/55/7 37/56/7
f 37/56/10 38/55/10 34/57/10 33/58/10
f 41/59/8 42/60/8 44/61/8 43/62/8
f 43/63/9 44/64/9 48/65/9 47/66/9
f 47/67/7 48/68/7 46/69/7 45/70/7
f 45/70/10 46/69/10 42/71/10 41/72/10
f 49/73/8 50/74/8 52/75/8 51/76/8
f 51/77/9 52/78/9 56/79/9 55/80/9
f 55/81/7 56/82/7 54/83/7 53/84/7
f 53/84/10 54/83/10 50/85/10 49/86/10
f 57/87/11 58/88/11 60/89/11 59/90/11
f 59/91/9 60/92/9 64/93/9 63/94/9
f 63/94/12 64/93/12 62/95/12 61/96/12
f 61/96/10 62/95/10 58/88/10 57/87/10
f 59/97/7 63/98/7 61/99/7 57/100/7
f 64/101/8 60/102/8 58/103/8 62/104/8
f 65/105/11 66/106/11 68/107/11 67/108/11
f 67/109/9 68/110/9 72/111/9 71/112/9
f 71/112/12 72/111/12 70/113/12 69/114/12
f 69/114/10 70/113/10 66/106/10 65/105/10
f 67/115/7 71/116/7 69/117/7 65/118/7
f 72/119/8 68/120/8 66/121/8 70/122/8
