# Blender v2.79 (sub 0) OBJ File: ''
# www.blender.org
g node0_Body
v 0.500000 -0.125000 0.375000
v 0.437500 -0.062500 0.375000
v 0.500000 -0.062500 0.375000
v 0.375000 -0.125000 0.375000
v 0.375000 -0.062500 0.375000
v 0.375000 -0.062500 0.437500
v 0.375000 -0.125000 0.500000
v 0.375000 -0.062500 0.500000
v 0.437500 -0.062500 0.437500
v 0.500000 -0.062500 0.437500
v 0.500000 -0.437500 -0.437500
v 0.500000 -0.500000 -0.500000
v 0.500000 -0.437500 -0.500000
v 0.500000 -0.437500 -0.250000
v 0.500000 -0.375000 -0.250000
v 0.500000 -0.375000 -0.437500
v 0.500000 -0.437500 -0.125000
v 0.500000 -0.437500 0.000000
v 0.500000 -0.375000 0.000000
v 0.500000 -0.375000 -0.125000
v 0.500000 -0.375000 0.125000
v 0.500000 -0.437500 0.062500
v 0.500000 -0.375000 0.062500
v 0.500000 -0.500000 0.500000
v 0.500000 -0.301029 0.217358
v 0.500000 -0.260345 0.260345
v 0.500000 -0.339286 0.172197
v 0.500000 -0.217358 0.301029
v 0.500000 -0.172197 0.339286
v 0.500000 -0.125000 0.375000
v 0.500000 -0.062500 0.375000
v 0.500000 0.125000 0.437500
v 0.500000 0.000000 0.437500
v 0.500000 0.000000 0.375000
v 0.500000 0.125000 0.375000
v 0.500000 0.437500 0.437500
v 0.500000 0.250000 0.437500
v 0.500000 0.250000 0.375000
v 0.500000 0.437500 0.375000
v 0.500000 0.500000 0.500000
v 0.500000 0.500000 0.437500
v 0.351934 -0.156094 0.351934
v 0.327763 -0.186337 0.327763
v 0.291904 -0.227419 0.291904
v 0.253671 -0.266961 0.253671
v 0.213121 -0.304804 0.213121
v 0.169980 -0.341057 0.169980
v 0.125000 -0.375000 0.125000
v 0.437500 0.500000 0.500000
v 0.437500 0.437500 0.500000
v 0.375000 0.437500 0.500000
v 0.437500 0.250000 0.500000
v 0.375000 0.250000 0.500000
v 0.437500 0.125000 0.500000
v 0.437500 0.000000 0.500000
v 0.375000 0.125000 0.500000
v 0.375000 0.000000 0.500000
v 0.437500 -0.062500 0.500000
v 0.301029 -0.217358 0.500000
v 0.339286 -0.172197 0.500000
v 0.260345 -0.260345 0.500000
v 0.217358 -0.301029 0.500000
v 0.172197 -0.339286 0.500000
v 0.125000 -0.375000 0.500000
v 0.062500 -0.375000 0.500000
v 0.062500 -0.437500 0.500000
v -0.000000 -0.375000 0.500000
v -0.125000 -0.437500 0.500000
v -0.000000 -0.437500 0.500000
v -0.125000 -0.375000 0.500000
v -0.250000 -0.375000 0.500000
v -0.437500 -0.437500 0.500000
v -0.250000 -0.437500 0.500000
v -0.437500 -0.375000 0.500000
v -0.500000 -0.500000 0.500000
v -0.500000 -0.437500 0.500000
v 0.437500 0.000000 0.437500
v 0.500000 0.000000 0.437500
v 0.437500 0.000000 0.375000
v 0.500000 0.000000 0.375000
v 0.500000 0.125000 0.375000
v 0.437500 0.125000 0.375000
v 0.375000 0.000000 0.375000
v 0.375000 0.125000 0.375000
v 0.500000 0.125000 0.437500
v 0.437500 0.125000 0.437500
v 0.437500 0.250000 0.437500
v 0.437500 0.250000 0.375000
v 0.437500 0.437500 0.375000
v 0.375000 0.250000 0.375000
v 0.375000 0.437500 0.375000
v 0.437500 0.437500 0.437500
v 0.437500 0.500000 0.437500
v -0.500000 -0.500000 -0.500000
v 0.062500 -0.437500 -0.500000
v -0.125000 -0.437500 -0.500000
v -0.250000 -0.437500 -0.500000
v -0.437500 -0.437500 -0.500000
v -0.500000 -0.437500 -0.500000
v 0.000000 -0.437500 -0.500000
v 0.062500 -0.437500 -0.437500
v 0.125000 -0.375000 -0.437500
v 0.500000 -0.375000 -0.437500
v 0.062500 -0.375000 -0.437500
v 0.125000 -0.375000 -0.250000
v 0.500000 -0.437500 -0.250000
v 0.062500 -0.375000 -0.250000
v 0.062500 -0.437500 -0.250000
v 0.062500 -0.437500 -0.125000
v 0.125000 -0.375000 -0.125000
v 0.500000 -0.375000 -0.125000
v 0.062500 -0.375000 -0.125000
v 0.125000 -0.375000 0.000000
v 0.500000 -0.375000 0.000000
v 0.500000 -0.437500 0.000000
v 0.062500 -0.375000 0.000000
v 0.062500 -0.437500 0.000000
v 0.062500 -0.437500 0.062500
v 0.500000 -0.437500 0.062500
v 0.125000 -0.375000 0.062500
v 0.062500 -0.375000 0.062500
v 0.375000 0.437500 0.437500
v 0.375000 0.250000 0.437500
v 0.375000 0.125000 0.437500
v 0.375000 0.000000 0.437500
v 0.062500 -0.375000 0.125000
v -0.000000 -0.437500 0.062500
v -0.000000 -0.375000 0.125000
v -0.000000 -0.375000 0.062500
v -0.125000 -0.375000 0.125000
v -0.125000 -0.437500 0.062500
v -0.125000 -0.375000 0.062500
v -0.250000 -0.437500 0.062500
v -0.250000 -0.375000 0.125000
v -0.250000 -0.375000 0.062500
v -0.437500 -0.375000 0.125000
v -0.437500 -0.437500 0.062500
v -0.437500 -0.375000 0.062500
v -0.500000 -0.437500 0.062500
v -0.500000 -0.437500 -0.437500
v -0.500000 -0.437500 -0.250000
v -0.500000 -0.437500 -0.000000
v -0.500000 -0.437500 -0.125000
v -0.437500 -0.437500 -0.437500
v -0.250000 -0.437500 -0.437500
v 0.000000 -0.437500 -0.437500
v -0.125000 -0.437500 -0.437500
v -0.000000 -0.437500 -0.250000
v -0.000000 -0.437500 -0.125000
v -0.000000 -0.437500 0.000000
v -0.250000 -0.437500 0.000000
v -0.125000 -0.437500 0.000000
v -0.437500 -0.437500 -0.000000
v -0.437500 -0.437500 -0.125000
v -0.437500 -0.437500 -0.250000
v -0.437500 -0.375000 -0.437500
v -0.250000 -0.375000 -0.437500
v -0.125000 -0.437500 -0.250000
v -0.250000 -0.437500 -0.250000
v -0.125000 -0.375000 -0.437500
v 0.000000 -0.375000 -0.437500
v -0.125000 -0.437500 -0.125000
v -0.250000 -0.437500 -0.125000
v -0.437500 -0.375000 -0.000000
v -0.437500 -0.375000 -0.125000
v -0.437500 -0.375000 -0.250000
v -0.250000 -0.375000 -0.250000
v -0.000000 -0.375000 -0.250000
v -0.125000 -0.375000 -0.250000
v -0.000000 -0.375000 -0.125000
v -0.000000 -0.375000 0.000000
v -0.125000 -0.375000 -0.125000
v -0.125000 -0.375000 0.000000
v -0.250000 -0.375000 -0.125000
v -0.250000 -0.375000 -0.000000
vt 1.000000 0.375000
vt 0.937500 0.437500
vt 1.000000 0.437500
vt 0.875000 0.375000
vt 0.875000 0.437500
vt 0.125000 0.375000
vt 0.062500 0.437500
vt 0.125000 0.437500
vt 0.000000 0.375000
vt 0.000000 0.437500
vt 0.875000 0.125000
vt 0.937500 0.062500
vt 0.937500 0.125000
vt 0.875000 0.062500
vt 1.000000 0.062500
vt 1.000000 0.125000
vt 0.937500 0.062500
vt 1.000000 0.000000
vt 1.000000 0.062500
vt 0.750000 0.062500
vt 0.750000 0.125000
vt 0.937500 0.125000
vt 0.625000 0.062500
vt 0.500000 0.062500
vt 0.500000 0.125000
vt 0.625000 0.125000
vt 0.375000 0.125000
vt 0.437500 0.062500
vt 0.437500 0.125000
vt 0.000000 0.000000
vt 0.282642 0.198971
vt 0.239655 0.239655
vt 0.327803 0.160714
vt 0.198971 0.282642
vt 0.160714 0.327803
vt 0.125000 0.375000
vt 0.062500 0.437500
vt 0.125000 0.437500
vt 0.062500 0.625000
vt 0.062500 0.500000
vt 0.125000 0.500000
vt 0.125000 0.625000
vt 0.062500 0.937500
vt 0.062500 0.750000
vt 0.125000 0.750000
vt 0.125000 0.937500
vt 0.000000 1.000000
vt 0.062500 1.000000
vt 0.851934 0.343906
vt 1.000000 0.327803
vt 0.827763 0.313663
vt 1.000000 0.282642
vt 0.791904 0.272581
vt 1.000000 0.239655
vt 0.753671 0.246329
vt 1.000000 0.282642
vt 0.753671 0.233039
vt 0.713120 0.286879
vt 1.000000 0.327803
vt 0.669980 0.330020
vt 1.000000 0.375000
vt 0.625000 0.375000
vt 0.937500 1.000000
vt 0.937500 0.937500
vt 1.000000 1.000000
vt 0.875000 0.937500
vt 0.937500 0.750000
vt 0.875000 0.750000
vt 0.937500 0.625000
vt 0.937500 0.500000
vt 0.875000 0.625000
vt 0.875000 0.500000
vt 0.875000 0.437500
vt 0.875000 0.375000
vt 0.937500 0.437500
vt 1.000000 0.000000
vt 0.801029 0.282642
vt 0.839286 0.327803
vt 0.760345 0.239655
vt 0.717358 0.198971
vt 0.672197 0.160714
vt 0.625000 0.125000
vt 0.562500 0.125000
vt 0.562500 0.062500
vt 0.500000 0.125000
vt 0.375000 0.062500
vt 0.500000 0.062500
vt 0.375000 0.125000
vt 0.250000 0.125000
vt 0.062500 0.062500
vt 0.250000 0.062500
vt 0.062500 0.125000
vt 0.000000 0.000000
vt 0.000000 0.062500
vt 0.625000 0.000000
vt 0.672197 0.000000
vt 0.717358 0.000000
vt 0.246329 0.233039
vt 0.000000 0.239655
vt 0.208096 0.272581
vt 0.760345 0.000000
vt 0.000000 0.282642
vt 0.172237 0.313663
vt 0.000000 0.327803
vt 0.148066 0.343906
vt 0.937500 0.000000
vt 0.875000 0.000000
vt 1.000000 0.437500
vt 0.937500 0.500000
vt 1.000000 0.500000
vt 0.937500 0.437500
vt 1.000000 0.062500
vt 0.937500 0.125000
vt 1.000000 0.125000
vt 0.937500 0.062500
vt 0.937500 0.500000
vt 1.000000 0.625000
vt 1.000000 0.500000
vt 0.937500 0.625000
vt 0.875000 0.500000
vt 0.875000 0.625000
vt 0.937500 0.125000
vt 1.000000 0.062500
vt 1.000000 0.125000
vt 0.937500 0.062500
vt 0.937500 0.625000
vt 1.000000 0.750000
vt 1.000000 0.625000
vt 0.937500 0.750000
vt 0.937500 0.062500
vt 1.000000 0.125000
vt 1.000000 0.062500
vt 0.937500 0.125000
vt 0.937500 0.750000
vt 1.000000 0.937500
vt 1.000000 0.750000
vt 0.937500 0.937500
vt 0.875000 0.750000
vt 0.875000 0.937500
vt 0.937500 0.125000
vt 1.000000 0.062500
vt 1.000000 0.125000
vt 0.937500 0.062500
vt 0.937500 0.937500
vt 1.000000 1.000000
vt 1.000000 0.937500
vt 0.937500 1.000000
vt 0.937500 0.062500
vt 1.000000 0.000000
vt 1.000000 0.062500
vt 0.937500 0.000000
vt 0.000000 1.000000
vt 1.000000 1.000000
vt 0.562500 0.062500
vt 0.375000 0.062500
vt 0.000000 0.000000
vt 0.250000 0.062500
vt 0.062500 0.062500
vt 0.000000 0.062500
vt 0.500000 0.062500
vt 1.000000 1.000000
vt 0.562500 0.937500
vt 1.000000 0.937500
vt 0.562500 1.000000
vt 1.000000 0.062500
vt 0.625000 0.125000
vt 1.000000 0.125000
vt 0.562500 0.062500
vt 0.562500 0.125000
vt 1.000000 0.937500
vt 0.625000 0.750000
vt 1.000000 0.750000
vt 0.625000 0.937500
vt 1.000000 0.125000
vt 0.625000 0.125000
vt 1.000000 0.062500
vt 0.562500 0.125000
vt 0.562500 0.062500
vt 1.000000 0.750000
vt 0.562500 0.625000
vt 1.000000 0.625000
vt 0.562500 0.750000
vt 1.000000 0.062500
vt 0.625000 0.125000
vt 1.000000 0.125000
vt 0.562500 0.062500
vt 0.562500 0.125000
vt 1.000000 0.625000
vt 0.625000 0.500000
vt 1.000000 0.500000
vt 0.625000 0.625000
vt 1.000000 0.125000
vt 0.625000 0.125000
vt 1.000000 0.062500
vt 0.562500 0.125000
vt 0.562500 0.062500
vt 1.000000 0.500000
vt 0.562500 0.437500
vt 1.000000 0.437500
vt 0.562500 0.500000
vt 1.000000 0.062500
vt 0.625000 0.125000
vt 1.000000 0.125000
vt 0.562500 0.062500
vt 0.562500 0.125000
vt 1.000000 0.437500
vt 0.625000 0.437500
vt 0.062500 0.937500
vt 0.000000 1.000000
vt 0.062500 1.000000
vt 0.000000 0.937500
vt 0.875000 0.062500
vt 0.937500 0.000000
vt 0.875000 0.000000
vt 0.125000 0.750000
vt 0.062500 0.937500
vt 0.125000 0.937500
vt 0.062500 0.750000
vt 0.000000 0.750000
vt 0.000000 0.937500
vt 0.937500 0.000000
vt 0.875000 0.062500
vt 0.875000 0.000000
vt 0.062500 0.625000
vt 0.000000 0.750000
vt 0.062500 0.750000
vt 0.000000 0.625000
vt 0.875000 0.062500
vt 0.937500 0.000000
vt 0.875000 0.000000
vt 0.125000 0.500000
vt 0.062500 0.625000
vt 0.125000 0.625000
vt 0.062500 0.500000
vt 0.000000 0.500000
vt 0.000000 0.625000
vt 0.875000 0.000000
vt 0.875000 0.062500
vt 0.937500 0.000000
vt 0.000000 0.437500
vt 0.062500 0.500000
vt 0.062500 0.437500
vt 0.000000 0.500000
vt 0.562500 0.375000
vt 0.562500 0.000000
vt 0.437500 0.062500
vt 0.375000 0.125000
vt 0.437500 0.125000
vt 0.000000 0.062500
vt 0.000000 0.125000
vt 0.500000 0.437500
vt 0.500000 0.000000
vt 0.562500 0.000000
vt 0.375000 0.125000
vt 0.437500 0.062500
vt 0.437500 0.125000
vt 0.000000 0.125000
vt 0.000000 0.062500
vt 0.375000 0.375000
vt 0.500000 0.000000
vt 0.500000 0.375000
vt 0.375000 0.000000
vt 0.437500 0.062500
vt 0.375000 0.125000
vt 0.437500 0.125000
vt 0.000000 0.062500
vt 0.000000 0.125000
vt 0.250000 0.437500
vt 0.375000 0.000000
vt 0.375000 0.437500
vt 0.250000 0.000000
vt 0.375000 0.125000
vt 0.437500 0.062500
vt 0.437500 0.125000
vt 0.000000 0.125000
vt 0.000000 0.062500
vt 0.062500 0.375000
vt 0.062500 0.000000
vt 0.250000 0.375000
vt 0.250000 0.000000
vt 0.437500 0.062500
vt 0.375000 0.125000
vt 0.437500 0.125000
vt 0.000000 0.062500
vt 0.000000 0.125000
vt 0.000000 0.437500
vt 0.062500 0.000000
vt 0.062500 0.437500
vt 0.000000 0.000000
vt 1.000000 0.000000
vt 0.937500 0.062500
vt 1.000000 0.062500
vt 0.750000 0.062500
vt 0.437500 0.062500
vt 0.500000 0.062500
vt 0.625000 0.062500
vt 0.875000 0.125000
vt 0.875000 0.125000
vt 0.875000 0.125000
vt 0.875000 0.125000
vt 0.000000 1.000000
vt 0.000000 0.937500
vt 0.062500 1.000000
vt 0.062500 0.937500
vt 0.250000 1.000000
vt 0.250000 0.937500
vt 0.500000 0.937500
vt 0.500000 1.000000
vt 0.375000 1.000000
vt 0.375000 0.937500
vt 0.937500 0.062500
vt 0.750000 0.125000
vt 0.937500 0.125000
vt 0.750000 0.062500
vt 0.562500 0.937500
vt 0.562500 0.750000
vt 0.500000 0.750000
vt 0.500000 0.625000
vt 0.625000 0.062500
vt 0.500000 0.125000
vt 0.625000 0.125000
vt 0.500000 0.062500
vt 0.562500 0.625000
vt 0.562500 0.500000
vt 0.500000 0.500000
vt 0.562500 0.437500
vt 0.500000 0.062500
vt 0.375000 0.125000
vt 0.500000 0.125000
vt 0.375000 0.062500
vt 0.375000 0.437500
vt 0.500000 0.437500
vt 0.250000 0.500000
vt 0.375000 0.500000
vt 0.250000 0.062500
vt 0.062500 0.062500
vt 0.250000 0.125000
vt 0.062500 0.125000
vt 0.250000 0.437500
vt 0.062500 0.437500
vt 0.000000 0.500000
vt 0.062500 0.500000
vt 0.000000 0.625000
vt 0.062500 0.625000
vt 0.000000 0.750000
vt 0.062500 0.750000
vt 0.250000 0.062500
vt 0.062500 0.125000
vt 0.250000 0.125000
vt 0.062500 0.062500
vt 0.375000 0.750000
vt 0.250000 0.750000
vt 0.500000 0.062500
vt 0.375000 0.125000
vt 0.500000 0.125000
vt 0.375000 0.062500
vt 0.375000 0.625000
vt 0.250000 0.625000
vt 0.625000 0.062500
vt 0.500000 0.125000
vt 0.625000 0.125000
vt 0.500000 0.062500
vt 0.937500 0.062500
vt 0.750000 0.125000
vt 0.937500 0.125000
vt 0.750000 0.062500
vt 0.062500 0.937500
vt 0.062500 0.750000
vt 0.250000 0.937500
vt 0.250000 0.750000
vt 0.937500 0.125000
vt 0.750000 0.125000
vt 0.937500 0.062500
vt 0.750000 0.062500
vt 0.937500 0.125000
vt 0.750000 0.125000
vt 0.937500 0.062500
vt 0.750000 0.062500
vt 0.937500 0.062500
vt 0.750000 0.125000
vt 0.937500 0.125000
vt 0.750000 0.062500
vt 0.375000 0.937500
vt 0.375000 0.750000
vt 0.500000 0.937500
vt 0.500000 0.750000
vt 0.625000 0.125000
vt 0.500000 0.125000
vt 0.625000 0.062500
vt 0.500000 0.062500
vt 0.500000 0.062500
vt 0.375000 0.125000
vt 0.500000 0.125000
vt 0.375000 0.062500
vt 0.500000 0.125000
vt 0.375000 0.062500
vt 0.500000 0.062500
vt 0.375000 0.125000
vt 0.375000 0.062500
vt 0.375000 0.125000
vt 0.625000 0.062500
vt 0.500000 0.125000
vt 0.625000 0.125000
vt 0.500000 0.062500
vt 0.625000 0.125000
vt 0.500000 0.125000
vt 0.625000 0.062500
vt 0.500000 0.062500
vt 0.250000 0.125000
vt 0.062500 0.062500
vt 0.250000 0.062500
vt 0.062500 0.125000
vt 0.062500 0.625000
vt 0.250000 0.500000
vt 0.250000 0.625000
vt 0.062500 0.500000
vt 0.250000 0.062500
vt 0.062500 0.125000
vt 0.250000 0.125000
vt 0.062500 0.062500
vt 0.250000 0.125000
vt 0.062500 0.062500
vt 0.250000 0.062500
vt 0.062500 0.125000
vt 0.375000 0.625000
vt 0.500000 0.500000
vt 0.500000 0.625000
vt 0.375000 0.500000
vn 0.0000 0.0000 -1.0000
vn -1.0000 0.0000 0.0000
vn 0.0000 1.0000 0.0000
vn 1.0000 0.0000 0.0000
vn -0.0025 0.6034 -0.7974
vn 0.0000 0.5958 -0.8031
vn -0.0020 0.6464 -0.7630
vn 0.0011 0.6238 -0.7816
vn -0.0014 0.6874 -0.7263
vn 0.0013 0.6569 -0.7539
vn -0.0009 0.7263 -0.6874
vn 0.0008 0.6947 -0.7193
vn -0.0005 0.7630 -0.6464
vn 0.0005 0.7309 -0.6825
vn -0.0002 0.7974 -0.6034
vn 0.0002 0.7655 -0.6435
vn 0.0000 0.7982 -0.6024
vn 0.0000 0.0000 1.0000
vn -0.6024 0.7982 0.0000
vn -0.6435 0.7655 0.0002
vn -0.6034 0.7974 -0.0002
vn -0.6825 0.7309 0.0005
vn -0.6464 0.7630 -0.0005
vn -0.7193 0.6947 0.0008
vn -0.6874 0.7263 -0.0009
vn -0.7539 0.6569 0.0013
vn -0.7263 0.6874 -0.0014
vn -0.7816 0.6238 0.0011
vn -0.7630 0.6464 -0.0020
vn -0.8031 0.5958 0.0000
vn -0.7974 0.6034 -0.0025
vn 0.0000 -1.0000 0.0000
s off
f 1/1/1 2/2/1 3/3/1
f 4/4/1 2/2/1 1/1/1
f 4/4/1 5/5/1 2/2/1
f 4/6/2 6/7/2 5/8/2
f 7/9/2 8/10/2 6/7/2
f 7/9/2 6/7/2 4/6/2
f 5/11/3 9/12/3 2/13/3
f 6/14/3 9/12/3 5/11/3
f 2/13/3 10/15/3 3/16/3
f 2/13/3 9/12/3 10/15/3
f 11/17/4 12/18/4 13/19/4
f 14/20/4 12/18/4 11/17/4
f 15/21/4 11/17/4 16/22/4
f 15/21/4 14/20/4 11/17/4
f 17/23/4 12/18/4 14/20/4
f 18/24/4 12/18/4 17/23/4
f 19/25/4 17/23/4 20/26/4
f 19/25/4 18/24/4 17/23/4
f 21/27/4 22/28/4 23/29/4
f 24/30/4 25/31/4 26/32/4
f 24/30/4 27/33/4 25/31/4
f 24/30/4 21/27/4 27/33/4
f 24/30/4 22/28/4 21/27/4
f 28/34/4 24/30/4 26/32/4
f 29/35/4 24/30/4 28/34/4
f 30/36/4 24/30/4 29/35/4
f 10/37/4 30/36/4 31/38/4
f 10/37/4 24/30/4 30/36/4
f 32/39/4 33/40/4 34/41/4
f 32/39/4 34/41/4 35/42/4
f 36/43/4 37/44/4 38/45/4
f 36/43/4 38/45/4 39/46/4
f 40/47/4 36/43/4 41/48/4
f 40/47/4 37/44/4 36/43/4
f 40/47/4 24/30/4 10/37/4
f 40/47/4 10/37/4 33/40/4
f 40/47/4 33/40/4 32/39/4
f 40/47/4 32/39/4 37/44/4
f 24/30/4 12/18/4 18/24/4
f 24/30/4 18/24/4 22/28/4
f 42/49/5 1/1/5 29/50/5
f 42/49/6 4/4/6 1/1/6
f 43/51/7 29/50/7 28/52/7
f 43/51/8 42/49/8 29/50/8
f 44/53/9 28/52/9 26/54/9
f 44/53/10 43/51/10 28/52/10
f 45/55/11 26/54/11 25/56/11
f 45/57/12 44/53/12 26/54/12
f 46/58/13 25/56/13 27/59/13
f 46/58/14 45/55/14 25/56/14
f 47/60/15 27/59/15 21/61/15
f 47/60/16 46/58/16 27/59/16
f 48/62/17 47/60/17 21/61/17
f 49/63/18 50/64/18 40/65/18
f 51/66/18 52/67/18 50/64/18
f 50/64/18 52/67/18 40/65/18
f 51/66/18 53/68/18 52/67/18
f 52/67/18 54/69/18 40/65/18
f 54/69/18 55/70/18 40/65/18
f 56/71/18 57/72/18 54/69/18
f 54/69/18 57/72/18 55/70/18
f 8/73/18 7/74/18 58/75/18
f 58/75/18 24/76/18 55/70/18
f 59/77/18 24/76/18 60/78/18
f 60/78/18 24/76/18 7/74/18
f 55/70/18 24/76/18 40/65/18
f 7/74/18 24/76/18 58/75/18
f 59/77/18 61/79/18 24/76/18
f 61/79/18 62/80/18 24/76/18
f 62/80/18 63/81/18 24/76/18
f 63/81/18 64/82/18 24/76/18
f 65/83/18 66/84/18 64/82/18
f 64/82/18 66/84/18 24/76/18
f 67/85/18 68/86/18 69/87/18
f 70/88/18 68/86/18 67/85/18
f 71/89/18 72/90/18 73/91/18
f 74/92/18 72/90/18 71/89/18
f 73/91/18 75/93/18 68/86/18
f 76/94/18 75/93/18 72/90/18
f 68/86/18 75/93/18 69/87/18
f 72/90/18 75/93/18 73/91/18
f 75/93/18 24/76/18 66/84/18
f 75/93/18 66/84/18 69/87/18
f 48/62/19 64/95/19 47/60/19
f 47/60/20 63/96/20 46/58/20
f 64/95/21 63/96/21 47/60/21
f 46/58/22 62/97/22 45/55/22
f 63/96/23 62/97/23 46/58/23
f 45/98/24 61/99/24 44/100/24
f 62/97/25 61/101/25 45/55/25
f 44/100/26 59/102/26 43/103/26
f 61/99/27 59/102/27 44/100/27
f 43/103/28 60/104/28 42/105/28
f 59/102/29 60/104/29 43/103/29
f 42/105/30 7/9/30 4/6/30
f 60/104/31 7/9/31 42/105/31
f 6/14/3 58/106/3 9/12/3
f 8/107/3 58/106/3 6/14/3
f 10/108/1 77/109/1 78/110/1
f 9/111/1 77/109/1 10/108/1
f 78/112/32 79/113/32 80/114/32
f 77/115/32 79/113/32 78/112/32
f 79/116/1 81/117/1 80/118/1
f 79/116/1 82/119/1 81/117/1
f 83/120/1 84/121/1 79/116/1
f 79/116/1 84/121/1 82/119/1
f 82/122/3 85/123/3 81/124/3
f 82/122/3 86/125/3 85/123/3
f 86/126/1 37/127/1 85/128/1
f 86/126/1 87/129/1 37/127/1
f 87/130/32 38/131/32 37/132/32
f 87/130/32 88/133/32 38/131/32
f 88/134/1 39/135/1 38/136/1
f 88/134/1 89/137/1 39/135/1
f 90/138/1 91/139/1 88/134/1
f 88/134/1 91/139/1 89/137/1
f 89/140/3 36/141/3 39/142/3
f 89/140/3 92/143/3 36/141/3
f 92/144/1 41/145/1 36/146/1
f 92/144/1 93/147/1 41/145/1
f 93/148/3 40/149/3 41/150/3
f 93/148/3 49/151/3 40/149/3
f 75/93/32 94/152/32 24/76/32
f 24/76/32 94/152/32 12/153/32
f 12/18/1 95/154/1 13/19/1
f 96/155/1 94/156/1 97/157/1
f 94/156/1 98/158/1 97/157/1
f 94/156/1 99/159/1 98/158/1
f 12/18/1 94/156/1 100/160/1
f 12/18/1 100/160/1 95/154/1
f 100/160/1 94/156/1 96/155/1
f 13/161/3 101/162/3 11/163/3
f 95/164/3 101/162/3 13/161/3
f 11/165/1 102/166/1 103/167/1
f 11/165/1 101/168/1 102/166/1
f 101/168/1 104/169/1 102/166/1
f 103/170/3 105/171/3 15/172/3
f 102/173/3 105/171/3 103/170/3
f 15/174/18 105/175/18 106/176/18
f 107/177/18 108/178/18 105/175/18
f 105/175/18 108/178/18 106/176/18
f 106/179/3 109/180/3 17/181/3
f 108/182/3 109/180/3 106/179/3
f 17/183/1 110/184/1 111/185/1
f 17/183/1 109/186/1 110/184/1
f 109/186/1 112/187/1 110/184/1
f 111/188/3 113/189/3 114/190/3
f 110/191/3 113/189/3 111/188/3
f 114/192/18 113/193/18 115/194/18
f 116/195/18 117/196/18 113/193/18
f 113/193/18 117/196/18 115/194/18
f 115/197/3 118/198/3 119/199/3
f 117/200/3 118/198/3 115/197/3
f 119/201/1 120/202/1 23/203/1
f 119/201/1 118/204/1 120/202/1
f 118/204/1 121/205/1 120/202/1
f 23/206/3 48/62/3 21/61/3
f 120/207/3 48/62/3 23/206/3
f 92/208/2 49/209/2 93/210/2
f 50/211/2 49/209/2 92/208/2
f 122/212/3 50/213/3 92/143/3
f 51/214/3 50/213/3 122/212/3
f 90/215/2 122/216/2 91/217/2
f 123/218/2 122/216/2 90/215/2
f 53/219/2 51/220/2 122/216/2
f 53/219/2 122/216/2 123/218/2
f 52/221/32 123/222/32 87/130/32
f 52/221/32 53/223/32 123/222/32
f 86/224/2 52/225/2 87/226/2
f 54/227/2 52/225/2 86/224/2
f 124/228/3 54/229/3 86/125/3
f 56/230/3 54/229/3 124/228/3
f 83/231/2 124/232/2 84/233/2
f 125/234/2 124/232/2 83/231/2
f 57/235/2 56/236/2 124/232/2
f 57/235/2 124/232/2 125/234/2
f 77/115/32 57/237/32 125/238/32
f 55/239/32 57/237/32 77/115/32
f 58/240/2 77/241/2 9/242/2
f 58/240/2 55/243/2 77/241/2
f 126/244/3 65/245/3 48/62/3
f 65/245/3 64/95/3 48/62/3
f 118/246/2 126/247/2 121/248/2
f 118/246/2 66/249/2 126/247/2
f 66/249/2 65/250/2 126/247/2
f 127/251/3 69/252/3 118/198/3
f 69/252/3 66/253/3 118/198/3
f 128/254/4 127/255/4 129/256/4
f 67/257/4 69/258/4 128/254/4
f 128/254/4 69/258/4 127/255/4
f 130/259/3 67/260/3 128/261/3
f 70/262/3 67/260/3 130/259/3
f 131/263/2 130/264/2 132/265/2
f 131/263/2 68/266/2 130/264/2
f 68/266/2 70/267/2 130/264/2
f 133/268/3 68/269/3 131/270/3
f 73/271/3 68/269/3 133/268/3
f 134/272/4 133/273/4 135/274/4
f 71/275/4 73/276/4 134/272/4
f 134/272/4 73/276/4 133/273/4
f 136/277/3 74/278/3 134/279/3
f 74/278/3 71/280/3 134/279/3
f 137/281/2 136/282/2 138/283/2
f 137/281/2 72/284/2 136/282/2
f 72/284/2 74/285/2 136/282/2
f 139/286/3 72/287/3 137/288/3
f 76/289/3 72/287/3 139/286/3
f 94/290/2 140/291/2 99/292/2
f 94/290/2 141/293/2 140/291/2
f 75/93/2 76/94/2 139/294/2
f 94/290/2 75/93/2 142/295/2
f 94/290/2 142/295/2 143/296/2
f 94/290/2 143/296/2 141/293/2
f 142/295/2 75/93/2 139/294/2
f 77/115/32 83/297/32 79/113/32
f 77/115/32 125/238/32 83/297/32
f 124/228/3 82/122/3 84/298/3
f 124/228/3 86/125/3 82/122/3
f 88/133/32 123/222/32 90/299/32
f 87/130/32 123/222/32 88/133/32
f 91/300/3 92/143/3 89/140/3
f 122/212/3 92/143/3 91/300/3
f 99/301/3 140/302/3 98/303/3
f 140/302/3 144/304/3 98/303/3
f 97/305/3 98/303/3 145/306/3
f 98/303/3 144/304/3 145/306/3
f 146/307/3 95/164/3 100/308/3
f 146/307/3 101/162/3 95/164/3
f 145/306/3 96/309/3 97/305/3
f 145/306/3 147/310/3 96/309/3
f 100/308/3 147/310/3 146/307/3
f 96/309/3 147/310/3 100/308/3
f 101/311/2 107/312/2 104/313/2
f 108/314/2 107/312/2 101/311/2
f 104/315/3 105/171/3 102/173/3
f 107/316/3 105/171/3 104/315/3
f 148/317/3 109/180/3 108/182/3
f 149/318/3 109/180/3 148/317/3
f 109/319/2 116/320/2 112/321/2
f 117/322/2 116/320/2 109/319/2
f 112/323/3 116/324/3 110/191/3
f 116/324/3 113/189/3 110/191/3
f 150/325/3 127/251/3 117/200/3
f 127/251/3 118/198/3 117/200/3
f 126/244/3 120/207/3 121/326/3
f 126/244/3 48/62/3 120/207/3
f 127/327/1 132/328/1 129/329/1
f 131/330/1 132/328/1 127/327/1
f 132/331/3 128/261/3 129/332/3
f 130/259/3 128/261/3 132/331/3
f 151/333/3 131/270/3 152/334/3
f 133/268/3 131/270/3 151/333/3
f 133/335/1 137/336/1 135/337/1
f 137/336/1 138/338/1 135/337/1
f 136/277/3 135/339/3 138/340/3
f 136/277/3 134/279/3 135/339/3
f 142/341/3 137/288/3 153/342/3
f 139/286/3 137/288/3 142/341/3
f 143/343/3 153/342/3 154/344/3
f 142/341/3 153/342/3 143/343/3
f 141/345/3 154/344/3 155/346/3
f 143/343/3 154/344/3 141/345/3
f 140/302/3 155/346/3 144/304/3
f 141/345/3 155/346/3 140/302/3
f 145/347/1 156/348/1 157/349/1
f 144/350/1 156/348/1 145/347/1
f 146/307/3 108/182/3 101/162/3
f 148/317/3 108/182/3 146/307/3
f 145/306/3 158/351/3 147/310/3
f 159/352/3 158/351/3 145/306/3
f 146/353/1 160/354/1 161/355/1
f 147/356/1 160/354/1 146/353/1
f 149/318/3 117/200/3 109/180/3
f 150/325/3 117/200/3 149/318/3
f 148/317/3 162/357/3 149/318/3
f 158/351/3 162/357/3 148/317/3
f 150/325/3 131/270/3 127/251/3
f 152/334/3 131/270/3 150/325/3
f 163/358/3 152/334/3 162/357/3
f 151/333/3 152/334/3 163/358/3
f 151/333/3 137/288/3 133/268/3
f 153/342/3 137/288/3 151/333/3
f 154/359/2 164/360/2 165/361/2
f 153/362/2 164/360/2 154/359/2
f 159/352/3 154/344/3 163/358/3
f 155/346/3 154/344/3 159/352/3
f 144/363/2 166/364/2 156/365/2
f 155/366/2 166/364/2 144/363/2
f 156/367/3 166/368/3 157/369/3
f 166/368/3 167/370/3 157/369/3
f 157/371/4 167/372/4 145/373/4
f 167/372/4 159/374/4 145/373/4
f 161/375/4 168/376/4 146/377/4
f 168/376/4 148/378/4 146/377/4
f 159/352/3 163/358/3 158/351/3
f 163/358/3 162/357/3 158/351/3
f 147/379/2 169/380/2 160/381/2
f 158/382/2 169/380/2 147/379/2
f 160/383/3 169/384/3 161/385/3
f 169/384/3 168/386/3 161/385/3
f 170/387/4 171/388/4 149/389/4
f 171/388/4 150/390/4 149/389/4
f 149/391/1 172/392/1 170/393/1
f 162/394/1 172/392/1 149/391/1
f 168/395/18 158/396/18 148/397/18
f 169/398/18 158/396/18 168/395/18
f 171/388/18 152/399/18 150/390/18
f 173/400/18 152/399/18 171/388/18
f 162/401/2 173/402/2 172/403/2
f 152/404/2 173/402/2 162/401/2
f 174/405/4 175/406/4 163/407/4
f 175/406/4 151/408/4 163/407/4
f 175/409/18 153/410/18 151/411/18
f 164/412/18 153/410/18 175/409/18
f 165/413/3 175/414/3 174/415/3
f 164/416/3 175/414/3 165/413/3
f 163/417/1 165/418/1 174/419/1
f 154/420/1 165/418/1 163/417/1
f 167/421/18 155/422/18 159/423/18
f 166/424/18 155/422/18 167/421/18
f 172/425/3 171/426/3 170/427/3
f 173/428/3 171/426/3 172/425/3
