# Blender v2.79 (sub 0) OBJ File: ''
# www.blender.org
g node0_Body
v 0.400544 -0.500000 -0.000000
v 0.216773 -0.500000 0.076120
v 0.400544 0.500000 -0.000000
v 0.216773 0.500000 0.076120
v 0.500000 0.500000 0.000000
v 0.500000 -0.500000 0.000000
v 0.076120 -0.500000 0.216773
v 0.076120 0.500000 0.216773
v 0.000000 -0.500000 0.400544
v 0.500000 -0.500000 0.500000
v 0.000000 -0.500000 0.500000
v 0.500000 0.500000 0.500000
v 0.000000 0.500000 0.400544
v 0.000000 0.500000 0.500000
vt 0.900544 0.000000
vt 0.716773 0.000000
vt 0.900544 1.000000
vt 0.716773 1.000000
vt 1.000000 1.000000
vt 1.000000 0.000000
vt 0.576120 0.000000
vt 0.576120 1.000000
vt 0.500000 0.099456
vt 1.000000 0.000000
vt 0.500000 0.000000
vt 0.576120 0.283227
vt 0.716773 0.423880
vt 0.900544 0.500000
vt 1.000000 0.500000
vt 1.000000 0.000000
vt 0.500000 0.099456
vt 0.500000 0.000000
vt 0.576120 0.283227
vt 0.716773 0.423880
vt 0.900544 0.500000
vt 1.000000 0.500000
vt 0.500000 1.000000
vt 0.000000 1.000000
vt 0.000000 0.000000
vt 0.500000 0.000000
vt 0.283227 1.000000
vt 0.283227 0.000000
vt 0.099456 1.000000
vt 0.099456 0.000000
vt 1.000000 1.000000
vt 0.500000 1.000000
vt 0.000000 0.000000
vt 0.000000 1.000000
vn -0.3827 0.0000 -0.9239
vn 0.0000 0.0000 -1.0000
vn -0.7071 0.0000 -0.7071
vn 0.0000 -1.0000 0.0000
vn 0.0000 1.0000 0.0000
vn 1.0000 0.0000 0.0000
vn -0.9239 0.0000 -0.3827
vn 0.0000 0.0000 1.0000
vn -1.0000 0.0000 0.0000
s off
f 1/1/1 2/2/1 3/3/1
f 3/3/1 2/2/1 4/4/1
f 5/5/2 1/1/2 3/3/2
f 6/6/2 1/1/2 5/5/2
f 2/2/3 7/7/3 4/4/3
f 4/4/3 7/7/3 8/8/3
f 9/9/4 10/10/4 11/11/4
f 7/12/4 10/10/4 9/9/4
f 7/12/4 2/13/4 10/10/4
f 2/13/4 1/14/4 10/10/4
f 1/14/4 6/15/4 10/10/4
f 12/16/5 13/17/5 14/18/5
f 12/16/5 8/19/5 13/17/5
f 4/20/5 8/19/5 12/16/5
f 3/21/5 4/20/5 12/16/5
f 5/22/5 3/21/5 12/16/5
f 5/23/6 12/24/6 10/25/6
f 5/23/6 10/25/6 6/26/6
f 8/27/7 7/28/7 13/29/7
f 7/28/7 9/30/7 13/29/7
f 12/31/8 14/32/8 11/11/8
f 12/31/8 11/11/8 10/10/8
f 13/29/9 11/33/9 14/34/9
f 9/30/9 11/33/9 13/29/9
