# Blender v2.79 (sub 0) OBJ File: ''
# www.blender.org
g node0_Body
v -0.500000 -0.500000 0.000000
v 0.500000 -0.500000 0.000000
v -0.500000 -0.500000 0.500000
v 0.500000 -0.500000 0.500000
v -0.500000 -0.187500 0.400544
v -0.500000 -0.187500 0.000000
v -0.500000 -0.187500 0.500000
v 0.099456 -0.187500 0.000000
v 0.500000 -0.187500 0.000000
v -0.099456 -0.187500 0.000000
v 0.500000 -0.187500 0.500000
v 0.500000 -0.187500 0.400544
v -0.500000 0.500000 0.500000
v 0.500000 0.500000 0.500000
v -0.500000 0.500000 0.400544
v -0.423880 -0.187500 0.216773
v -0.283227 -0.187500 0.076120
v 0.423880 -0.187500 0.216773
v 0.283227 -0.187500 0.076120
v 0.099456 0.500000 0.000000
v -0.099456 0.500000 0.000000
v 0.500000 0.500000 0.400544
v 0.423880 0.500000 0.216773
v 0.283227 0.500000 0.076120
v -0.283227 0.500000 0.076120
v -0.423880 0.500000 0.216773
vt 0.000000 0.500000
vt 1.000000 0.500000
vt 0.000000 0.000000
vt 1.000000 0.000000
vt 0.500000 0.000000
vt 0.099456 0.312500
vt 0.500000 0.312500
vt 0.000000 0.312500
vt 1.000000 0.000000
vt 0.599456 0.312500
vt 1.000000 0.312500
vt 0.000000 0.000000
vt 0.400544 0.312500
vt 0.000000 0.312500
vt 0.000000 0.312500
vt 0.000000 0.000000
vt 0.099456 0.312500
vt 0.500000 0.000000
vt 0.500000 0.312500
vt 1.000000 0.312500
vt 0.000000 1.000000
vt 1.000000 1.000000
vt 0.099456 1.000000
vt 0.000000 0.500000
vt 0.000000 0.099456
vt 0.076120 0.283227
vt 0.216773 0.423880
vt 0.400544 0.500000
vt 1.000000 0.500000
vt 0.923880 0.283227
vt 1.000000 0.099456
vt 0.783227 0.423880
vt 0.599456 0.500000
vt 0.599456 1.000000
vt 0.400544 1.000000
vt 0.000000 1.000000
vt 0.099456 1.000000
vt 0.923880 0.283227
vt 1.000000 0.000000
vt 1.000000 0.099456
vt 0.783227 0.423880
vt 0.599456 0.500000
vt 0.400544 0.500000
vt 0.000000 0.000000
vt 0.216773 0.423880
vt 0.076120 0.283227
vt 0.000000 0.099456
vt 0.283227 1.000000
vt 0.283227 0.312500
vt 0.216773 1.000000
vt 0.216773 0.312500
vt 0.423880 1.000000
vt 0.423880 0.312500
vt 0.283227 0.312500
vt 0.283227 1.000000
vt 0.423880 1.000000
vt 0.423880 0.312500
vt 0.783227 1.000000
vt 0.783227 0.312500
vn 0.0000 -1.0000 0.0000
vn -1.0000 0.0000 0.0000
vn 0.0000 0.0000 -1.0000
vn 1.0000 0.0000 0.0000
vn 0.0000 0.0000 1.0000
vn 0.0000 1.0000 0.0000
vn -0.9239 0.0000 -0.3827
vn -0.3827 0.0000 -0.9239
vn -0.7071 0.0000 -0.7071
vn 0.9239 0.0000 -0.3827
vn 0.7071 0.0000 -0.7071
vn 0.3827 0.0000 -0.9239
s off
f 1/1/1 2/2/1 3/3/1
f 3/3/1 2/2/1 4/4/1
f 1/5/2 5/6/2 6/7/2
f 5/6/2 3/3/2 7/8/2
f 1/5/2 3/3/2 5/6/2
f 2/9/3 8/10/3 9/11/3
f 8/10/3 1/12/3 10/13/3
f 10/13/3 1/12/3 6/14/3
f 2/9/3 1/12/3 8/10/3
f 11/15/4 4/16/4 12/17/4
f 12/17/4 2/18/4 9/19/4
f 4/16/4 2/18/4 12/17/4
f 11/20/5 13/21/5 7/8/5
f 11/20/5 7/8/5 3/3/5
f 11/20/5 3/3/5 4/4/5
f 14/22/5 13/21/5 11/20/5
f 15/23/2 5/6/2 13/21/2
f 5/6/2 7/8/2 13/21/2
f 6/24/6 5/25/6 16/26/6
f 17/27/6 6/24/6 16/26/6
f 10/28/6 6/24/6 17/27/6
f 9/29/6 18/30/6 12/31/6
f 9/29/6 19/32/6 18/30/6
f 9/29/6 8/33/6 19/32/6
f 20/34/3 8/10/3 21/35/3
f 8/10/3 10/13/3 21/35/3
f 14/36/4 12/17/4 22/37/4
f 11/15/4 12/17/4 14/36/4
f 23/38/6 14/39/6 22/40/6
f 24/41/6 14/39/6 23/38/6
f 20/42/6 14/39/6 24/41/6
f 21/43/6 13/44/6 14/39/6
f 21/43/6 14/39/6 20/42/6
f 25/45/6 13/44/6 21/43/6
f 26/46/6 15/47/6 13/44/6
f 26/46/6 13/44/6 25/45/6
f 26/48/7 16/49/7 15/23/7
f 16/49/7 5/6/7 15/23/7
f 21/35/8 10/13/8 25/50/8
f 10/13/8 17/51/8 25/50/8
f 25/52/9 17/53/9 26/48/9
f 17/53/9 16/49/9 26/48/9
f 12/17/10 18/54/10 22/37/10
f 22/37/10 18/54/10 23/55/10
f 23/55/11 18/54/11 24/56/11
f 18/54/11 19/57/11 24/56/11
f 24/58/12 19/59/12 20/34/12
f 19/59/12 8/10/12 20/34/12
