# Blender v2.79 (sub 0) OBJ File: 'street_signs_generic_sign_42x30_onpole.blend'
# www.blender.org
o Cube_Cube_front-back.004
v -0.530953 -0.762500 0.346451
v -0.512789 -0.762500 0.371451
v -0.498851 -0.762500 0.378553
v -0.483400 -0.762500 0.381000
v 0.483400 -0.762500 0.381000
v 0.498851 -0.762500 0.378553
v 0.523851 -0.762500 0.360389
v 0.533400 -0.762500 0.331000
v 0.533400 -0.762500 -0.331000
v 0.530953 -0.762500 -0.346451
v 0.512789 -0.762500 -0.371451
v -0.483400 -0.762500 -0.381000
v -0.512789 -0.762500 -0.371451
v -0.530953 -0.762500 -0.346451
v -0.533400 -0.762500 -0.331000
v 0.530953 -0.812500 0.346451
v 0.523851 -0.812500 0.360389
v 0.512789 -0.812500 0.371451
v 0.483400 -0.812500 0.381000
v -0.523851 -0.812500 -0.360389
v 0.483400 -0.812500 -0.381000
v 0.498851 -0.812500 -0.378553
v 0.523851 -0.812500 -0.360389
v 0.530953 -0.812500 -0.346451
v 0.533400 -0.812500 -0.331000
v -0.483400 -0.812500 0.381000
v -0.533400 -0.812500 -0.331000
v -0.533400 -0.812500 0.331000
v -0.533400 -0.762500 0.331000
v -0.483400 -0.812500 -0.381000
v 0.483400 -0.762500 -0.381000
v 0.498851 -0.762500 -0.378553
v 0.512789 -0.812500 -0.371451
v 0.523851 -0.762500 -0.360389
v 0.498851 -0.812500 0.378553
v 0.512789 -0.762500 0.371451
v 0.530953 -0.762500 0.346451
v 0.533400 -0.812500 0.331000
v -0.498851 -0.812500 0.378553
v -0.512789 -0.812500 0.371451
v -0.523851 -0.762500 0.360389
v -0.523851 -0.812500 0.360389
v -0.530953 -0.812500 0.346451
v -0.498851 -0.812500 -0.378553
v -0.498851 -0.762500 -0.378553
v -0.512789 -0.812500 -0.371451
v -0.523851 -0.762500 -0.360389
v -0.530953 -0.812500 -0.346451
v -0.125000 -0.875000 -0.187500
v -0.125000 -0.875000 0.187500
v -0.125000 -0.812500 0.187500
v 0.125000 -0.875000 0.187500
v 0.125000 -0.875000 -0.187500
v -0.125000 -1.125000 -0.187500
v -0.125000 -0.812500 -0.187500
v -0.125000 -0.812500 -0.125000
v -0.125000 -1.125000 -0.125000
v -0.164063 -0.812500 -0.125000
v -0.164063 -1.125000 -0.125000
v -0.164063 -0.812500 -0.187500
v -0.125000 -1.125000 0.125000
v -0.125000 -0.812500 0.125000
v -0.125000 -1.125000 0.187500
v -0.164063 -0.812500 0.187500
v -0.164063 -1.125000 0.187500
v -0.164063 -0.812500 0.125000
v 0.164062 -1.125000 -0.187500
v 0.164062 -0.812500 -0.187500
v 0.164062 -0.812500 -0.125000
v 0.164062 -1.125000 -0.125000
v 0.125000 -0.812500 -0.125000
v 0.125000 -1.125000 -0.125000
v 0.125000 -0.812500 -0.187500
v 0.125000 -1.125000 -0.187500
v 0.164062 -1.125000 0.125000
v 0.164062 -0.812500 0.125000
v 0.164062 -0.812500 0.187500
v 0.125000 -0.812500 0.187500
v 0.125000 -1.125000 0.187500
v 0.125000 -0.812500 0.125000
v 0.125000 -1.125000 0.125000
v -0.164063 -1.164063 -0.187500
v 0.164062 -1.164063 -0.187500
v 0.164062 -1.164063 -0.125000
v -0.164063 -1.164063 -0.125000
v -0.164063 -1.125000 -0.187500
v -0.164063 -1.164063 0.125000
v 0.164062 -1.164063 0.125000
v 0.164062 -1.164063 0.187500
v -0.164063 -1.164063 0.187500
v 0.164062 -1.125000 0.187500
v -0.164063 -1.125000 0.125000
v -0.187500 -0.875000 0.125000
v 0.187500 -0.875000 0.125000
v 0.187500 -0.812500 0.125000
v 0.187500 -0.875000 -0.125000
v -0.187500 -0.875000 -0.125000
v -0.187500 -1.125000 0.125000
v -0.187500 -0.812500 0.125000
v -0.125000 -0.812500 0.125000
v -0.125000 -1.125000 0.125000
v -0.125000 -0.812500 0.164063
v -0.125000 -1.125000 0.164063
v -0.187500 -0.812500 0.164063
v 0.125000 -1.125000 0.125000
v 0.125000 -0.812500 0.125000
v 0.187500 -1.125000 0.125000
v 0.187500 -0.812500 0.164063
v 0.187500 -1.125000 0.164063
v 0.125000 -0.812500 0.164063
v -0.187500 -1.125000 -0.164062
v -0.187500 -0.812500 -0.164062
v -0.125000 -0.812500 -0.164062
v -0.125000 -1.125000 -0.164062
v -0.125000 -0.812500 -0.125000
v -0.125000 -1.125000 -0.125000
v -0.187500 -0.812500 -0.125000
v -0.187500 -1.125000 -0.125000
v 0.125000 -1.125000 -0.164062
v 0.125000 -0.812500 -0.164062
v 0.187500 -0.812500 -0.164062
v 0.187500 -0.812500 -0.125000
v 0.187500 -1.125000 -0.125000
v 0.125000 -0.812500 -0.125000
v 0.125000 -1.125000 -0.125000
v -0.187500 -1.164063 0.164063
v -0.187500 -1.164063 -0.164062
v -0.125000 -1.164063 -0.164062
v -0.125000 -1.164063 0.164063
v -0.187500 -1.125000 0.164063
v 0.125000 -1.164063 0.164063
v 0.125000 -1.164063 -0.164062
v 0.187500 -1.164063 -0.164062
v 0.187500 -1.164063 0.164063
v 0.187500 -1.125000 -0.164062
v 0.125000 -1.125000 0.164063
vt 0.500000 0.934383
vt 0.498853 0.954660
vt 0.495524 0.972952
vt 0.490340 0.987468
vt 0.483807 0.996788
vt 0.476565 1.000000
vt 0.023435 1.000000
vt 0.016193 0.996789
vt 0.009660 0.987468
vt 0.004476 0.972952
vt 0.001147 0.954660
vt 0.000000 0.934383
vt 0.000000 0.065617
vt 0.001147 0.045340
vt 0.004476 0.027048
vt 0.009660 0.012532
vt 0.016193 0.003212
vt 0.023435 0.000000
vt 0.476565 0.000000
vt 0.483807 0.003212
vt 0.490340 0.012532
vt 0.495524 0.027048
vt 0.498853 0.045340
vt 0.500000 0.065617
vt 0.500000 0.934383
vt 0.501147 0.954660
vt 0.504476 0.972952
vt 0.509660 0.987468
vt 0.516193 0.996788
vt 0.523435 1.000000
vt 0.976565 1.000000
vt 0.983807 0.996789
vt 0.990340 0.987468
vt 0.995524 0.972952
vt 0.998853 0.954660
vt 1.000000 0.934383
vt 1.000000 0.065617
vt 0.998853 0.045340
vt 0.995524 0.027048
vt 0.990340 0.012532
vt 0.983807 0.003212
vt 0.976565 0.000000
vt 0.523435 0.000000
vt 0.516193 0.003212
vt 0.509660 0.012532
vt 0.504476 0.027048
vt 0.501147 0.045340
vt 0.500000 0.065617
vt 0.046869 0.000000
vt 0.046869 0.999997
vt 0.953131 0.999997
vt 0.953131 0.000000
vt 0.065617 0.000000
vt 0.934383 0.000000
vt 0.934383 1.000000
vt 0.065617 1.000000
vt 0.953131 0.000003
vt 0.953131 1.000000
vt 0.046869 1.000000
vt 0.046869 0.000003
vt 0.032386 1.000000
vt 0.032386 0.000003
vt 0.019320 1.000000
vt 0.019320 0.000003
vt 0.027048 1.000000
vt 0.027048 0.000000
vt 0.045340 1.000000
vt 0.045340 0.000000
vt 0.065617 1.000000
vt 0.065617 0.000000
vt 0.032386 0.000000
vt 0.032386 0.999997
vt 0.019320 0.000000
vt 0.019320 0.999997
vt 0.000000 0.000000
vt 0.000000 0.999997
vt 0.972952 1.000000
vt 0.972952 0.000000
vt 0.954660 0.000000
vt 0.954660 1.000000
vt 0.934383 0.000000
vt 0.934383 1.000000
vt 0.967614 0.999997
vt 0.967614 0.000000
vt 0.980680 0.999997
vt 0.980680 0.000000
vt 0.972952 1.000000
vt 0.972952 0.000000
vt 0.954660 1.000000
vt 0.954660 0.000000
vt 0.967614 0.000003
vt 0.967614 1.000000
vt 0.980680 0.000003
vt 0.980680 1.000000
vt 1.000000 0.000003
vt 1.000000 1.000000
vt 0.027048 1.000000
vt 0.027048 0.000000
vt 0.045340 0.000000
vt 0.045340 1.000000
vt 0.843750 0.507812
vt 0.703125 0.507812
vt 0.703125 0.093750
vt 0.843750 0.093750
vt 0.015625 0.507812
vt 0.015625 0.093750
vt 0.156250 0.093750
vt 0.156250 0.507812
vt 0.156250 0.031250
vt 0.703125 0.031250
vt 0.703125 0.578125
vt 0.156250 0.578125
vt 0.312500 0.640625
vt 0.312500 0.992188
vt 0.453125 0.992188
vt 0.453125 0.640625
vt 0.234375 0.640625
vt 0.234375 0.992188
vt 0.312500 0.992188
vt 0.312500 0.640625
vt 0.234375 0.640625
vt 0.234375 0.992188
vt 0.093750 0.992188
vt 0.093750 0.640625
vt 0.015625 0.992188
vt 0.015625 0.640625
vt 0.312500 0.640625
vt 0.312500 0.992188
vt 0.453125 0.992188
vt 0.453125 0.640625
vt 0.234375 0.640625
vt 0.234375 0.992188
vt 0.312500 0.992188
vt 0.312500 0.640625
vt 0.234375 0.640625
vt 0.234375 0.992188
vt 0.093750 0.992188
vt 0.093750 0.640625
vt 0.015625 0.992188
vt 0.015625 0.640625
vt 0.312500 0.640625
vt 0.312500 0.992188
vt 0.453125 0.992188
vt 0.453125 0.640625
vt 0.234375 0.640625
vt 0.234375 0.992188
vt 0.312500 0.992188
vt 0.312500 0.640625
vt 0.234375 0.640625
vt 0.234375 0.992188
vt 0.093750 0.992188
vt 0.093750 0.640625
vt 0.015625 0.992188
vt 0.015625 0.640625
vt 0.312500 0.640625
vt 0.312500 0.992188
vt 0.453125 0.992188
vt 0.453125 0.640625
vt 0.234375 0.640625
vt 0.234375 0.992188
vt 0.312500 0.992188
vt 0.312500 0.640625
vt 0.234375 0.640625
vt 0.234375 0.992188
vt 0.093750 0.992188
vt 0.093750 0.640625
vt 0.015625 0.992188
vt 0.015625 0.640625
vt 0.781250 0.664062
vt 0.781250 0.992188
vt 0.921875 0.992188
vt 0.921875 0.664062
vt 0.484375 0.664062
vt 0.484375 0.992188
vt 0.562500 0.992188
vt 0.562500 0.664062
vt 0.703125 0.992188
vt 0.703125 0.664062
vt 0.234375 0.593750
vt 0.093750 0.593750
vt 0.453125 0.593750
vt 0.312500 0.593750
vt 0.781250 0.664062
vt 0.781250 0.992188
vt 0.921875 0.992188
vt 0.921875 0.664062
vt 0.484375 0.664062
vt 0.484375 0.992188
vt 0.562500 0.992188
vt 0.562500 0.664062
vt 0.703125 0.992188
vt 0.703125 0.664062
vt 0.234375 0.593750
vt 0.093750 0.593750
vt 0.453125 0.593750
vt 0.312500 0.593750
vt 0.843750 0.507812
vt 0.703125 0.507812
vt 0.703125 0.093750
vt 0.843750 0.093750
vt 0.015625 0.507812
vt 0.015625 0.093750
vt 0.156250 0.093750
vt 0.156250 0.507812
vt 0.156250 0.031250
vt 0.703125 0.031250
vt 0.703125 0.578125
vt 0.156250 0.578125
vt 0.312500 0.640625
vt 0.312500 0.992188
vt 0.453125 0.992188
vt 0.453125 0.640625
vt 0.234375 0.640625
vt 0.234375 0.992188
vt 0.312500 0.992188
vt 0.312500 0.640625
vt 0.234375 0.640625
vt 0.234375 0.992188
vt 0.093750 0.992188
vt 0.093750 0.640625
vt 0.015625 0.992188
vt 0.015625 0.640625
vt 0.312500 0.640625
vt 0.312500 0.992188
vt 0.453125 0.992188
vt 0.453125 0.640625
vt 0.234375 0.640625
vt 0.234375 0.992188
vt 0.312500 0.992188
vt 0.312500 0.640625
vt 0.234375 0.640625
vt 0.234375 0.992188
vt 0.093750 0.992188
vt 0.093750 0.640625
vt 0.015625 0.992188
vt 0.015625 0.640625
vt 0.312500 0.640625
vt 0.312500 0.992188
vt 0.453125 0.992188
vt 0.453125 0.640625
vt 0.234375 0.640625
vt 0.234375 0.992188
vt 0.312500 0.992188
vt 0.312500 0.640625
vt 0.234375 0.640625
vt 0.234375 0.992188
vt 0.093750 0.992188
vt 0.093750 0.640625
vt 0.015625 0.992188
vt 0.015625 0.640625
vt 0.312500 0.640625
vt 0.312500 0.992188
vt 0.453125 0.992188
vt 0.453125 0.640625
vt 0.234375 0.640625
vt 0.234375 0.992188
vt 0.312500 0.992188
vt 0.312500 0.640625
vt 0.234375 0.640625
vt 0.234375 0.992188
vt 0.093750 0.992188
vt 0.093750 0.640625
vt 0.015625 0.992188
vt 0.015625 0.640625
vt 0.781250 0.664062
vt 0.781250 0.992188
vt 0.921875 0.992188
vt 0.921875 0.664062
vt 0.484375 0.664062
vt 0.484375 0.992188
vt 0.562500 0.992188
vt 0.562500 0.664062
vt 0.703125 0.992188
vt 0.703125 0.664062
vt 0.234375 0.593750
vt 0.093750 0.593750
vt 0.453125 0.593750
vt 0.312500 0.593750
vt 0.781250 0.664062
vt 0.781250 0.992188
vt 0.921875 0.992188
vt 0.921875 0.664062
vt 0.484375 0.664062
vt 0.484375 0.992188
vt 0.562500 0.992188
vt 0.562500 0.664062
vt 0.703125 0.992188
vt 0.703125 0.664062
vt 0.234375 0.593750
vt 0.093750 0.593750
vt 0.453125 0.593750
vt 0.312500 0.593750
vn 0.0000 1.0000 0.0000
vn 0.0000 -1.0000 0.0000
vn 0.0785 0.0000 0.9969
vn -0.0785 0.0000 0.9969
vn -0.9969 0.0000 -0.0785
vn -0.9969 0.0000 0.0785
vn -0.0785 0.0000 -0.9969
vn 0.0785 0.0000 -0.9969
vn 0.3090 0.0000 -0.9511
vn 0.5878 0.0000 -0.8090
vn 0.8090 0.0000 -0.5878
vn 0.9511 0.0000 -0.3090
vn 0.9969 0.0000 -0.0785
vn 0.3090 0.0000 0.9511
vn 0.5878 0.0000 0.8090
vn 0.8090 0.0000 0.5878
vn 0.9511 0.0000 0.3090
vn 0.9969 0.0000 0.0785
vn -0.3090 0.0000 0.9511
vn -0.5878 0.0000 0.8090
vn -0.8090 0.0000 0.5878
vn -0.9511 0.0000 0.3090
vn -0.3090 0.0000 -0.9511
vn -0.5878 0.0000 -0.8090
vn -0.8090 0.0000 -0.5878
vn -0.9511 0.0000 -0.3090
vn -1.0000 0.0000 0.0000
vn 1.0000 0.0000 -0.0000
vn 0.0000 0.0000 1.0000
vn -0.0000 0.0000 -1.0000
g Cube_Cube_front-back.004_Cube_Cube_front-back.004_front-back
s off
f 29/1/1 1/2/1 41/3/1 2/4/1 3/5/1 4/6/1 5/7/1 6/8/1 36/9/1 7/10/1 37/11/1 8/12/1 9/13/1 10/14/1 34/15/1 11/16/1 32/17/1 31/18/1 12/19/1 45/20/1 13/21/1 47/22/1 14/23/1 15/24/1
f 38/25/2 16/26/2 17/27/2 18/28/2 35/29/2 19/30/2 26/31/2 39/32/2 40/33/2 42/34/2 43/35/2 28/36/2 27/37/2 48/38/2 20/39/2 46/40/2 44/41/2 30/42/2 21/43/2 22/44/2 33/45/2 23/46/2 24/47/2 25/48/2
g Cube_Cube_front-back.004_Cube_Cube_front-back.004_edges
s 1
f 19/49/3 5/50/3 4/51/4 26/52/4
f 27/53/5 28/54/6 29/55/6 15/56/5
f 30/57/7 12/58/7 31/59/8 21/60/8
f 21/60/8 31/59/8 32/61/9 22/62/9
f 22/62/9 32/61/9 11/63/10 33/64/10
f 33/64/10 11/63/10 34/65/11 23/66/11
f 23/66/11 34/65/11 10/67/12 24/68/12
f 24/68/12 10/67/12 9/69/13 25/70/13
f 5/50/3 19/49/3 35/71/14 6/72/14
f 6/72/14 35/71/14 18/73/15 36/74/15
f 36/74/15 18/73/15 17/75/16 7/76/16
f 7/77/16 17/78/16 16/79/17 37/80/17
f 37/80/17 16/79/17 38/81/18 8/82/18
f 26/52/4 4/51/4 3/83/19 39/84/19
f 39/84/19 3/83/19 2/85/20 40/86/20
f 40/86/20 2/85/20 41/87/21 42/88/21
f 42/88/21 41/87/21 1/89/22 43/90/22
f 43/90/22 1/89/22 29/55/6 28/54/6
f 12/58/7 30/57/7 44/91/23 45/92/23
f 45/92/23 44/91/23 46/93/24 13/94/24
f 13/94/24 46/93/24 20/95/25 47/96/25
f 47/97/25 20/98/25 48/99/26 14/100/26
f 14/100/26 48/99/26 27/53/5 15/56/5
f 38/81/18 25/70/13 9/69/13 8/82/18
g Cube_Cube_front-back.004_Cube_Cube_front-back.004_pole_mount
f 55/101/27 49/102/27 50/103/27 51/104/27
f 73/105/28 78/106/28 52/107/28 53/108/28
f 50/103/29 52/107/29 78/109/29 51/110/29
f 55/111/30 73/112/30 53/108/30 49/102/30
f 49/102/2 53/108/2 52/107/2 50/103/2
f 54/113/28 55/114/28 56/115/28 57/116/28
f 57/117/29 56/118/29 58/119/29 59/120/29
f 59/121/27 58/122/27 60/123/27 86/124/27
f 86/124/30 60/123/30 55/125/30 54/126/30
f 61/127/28 62/128/28 51/129/28 63/130/28
f 63/131/29 51/132/29 64/133/29 65/134/29
f 65/135/27 64/136/27 66/137/27 92/138/27
f 92/138/30 66/137/30 62/139/30 61/140/30
f 67/141/28 68/142/28 69/143/28 70/144/28
f 70/145/29 69/146/29 71/147/29 72/148/29
f 72/149/27 71/150/27 73/151/27 74/152/27
f 74/152/30 73/151/30 68/153/30 67/154/30
f 75/155/28 76/156/28 77/157/28 91/158/28
f 91/159/29 77/160/29 78/161/29 79/162/29
f 79/163/27 78/164/27 80/165/27 81/166/27
f 81/166/30 80/165/30 76/167/30 75/168/30
f 82/169/2 83/170/2 84/171/2 85/172/2
f 85/173/29 84/174/29 70/175/29 59/176/29
f 59/176/1 70/175/1 67/177/1 86/178/1
f 86/178/30 67/177/30 83/170/30 82/169/30
f 85/179/27 59/121/27 86/124/27 82/180/27
f 70/144/28 84/181/28 83/182/28 67/141/28
f 87/183/2 88/184/2 89/185/2 90/186/2
f 90/187/29 89/188/29 91/189/29 65/190/29
f 65/190/1 91/189/1 75/191/1 92/192/1
f 92/192/30 75/191/30 88/184/30 87/183/30
f 90/193/27 65/135/27 92/138/27 87/194/27
f 91/158/28 89/195/28 88/196/28 75/155/28
g Cube_Cube_front-back.004_Cube_Cube_front-back.004_pole_mount_horiz
f 99/197/29 93/198/29 94/199/29 95/200/29
f 117/201/30 122/202/30 96/203/30 97/204/30
f 94/199/28 96/203/28 122/205/28 95/206/28
f 99/207/27 117/208/27 97/204/27 93/198/27
f 93/198/2 97/204/2 96/203/2 94/199/2
f 98/209/30 99/210/30 100/211/30 101/212/30
f 101/213/28 100/214/28 102/215/28 103/216/28
f 103/217/29 102/218/29 104/219/29 130/220/29
f 130/220/27 104/219/27 99/221/27 98/222/27
f 105/223/30 106/224/30 95/225/30 107/226/30
f 107/227/28 95/228/28 108/229/28 109/230/28
f 109/231/29 108/232/29 110/233/29 136/234/29
f 136/234/27 110/233/27 106/235/27 105/236/27
f 111/237/30 112/238/30 113/239/30 114/240/30
f 114/241/28 113/242/28 115/243/28 116/244/28
f 116/245/29 115/246/29 117/247/29 118/248/29
f 118/248/27 117/247/27 112/249/27 111/250/27
f 119/251/30 120/252/30 121/253/30 135/254/30
f 135/255/28 121/256/28 122/257/28 123/258/28
f 123/259/29 122/260/29 124/261/29 125/262/29
f 125/262/27 124/261/27 120/263/27 119/264/27
f 126/265/2 127/266/2 128/267/2 129/268/2
f 129/269/28 128/270/28 114/271/28 103/272/28
f 103/272/1 114/271/1 111/273/1 130/274/1
f 130/274/27 111/273/27 127/266/27 126/265/27
f 129/275/29 103/217/29 130/220/29 126/276/29
f 114/240/30 128/277/30 127/278/30 111/237/30
f 131/279/2 132/280/2 133/281/2 134/282/2
f 134/283/28 133/284/28 135/285/28 109/286/28
f 109/286/1 135/285/1 119/287/1 136/288/1
f 136/288/27 119/287/27 132/280/27 131/279/27
f 134/289/29 109/231/29 136/234/29 131/290/29
f 135/254/30 133/291/30 132/292/30 119/251/30
