# Blender v2.79 (sub 0) OBJ File: 'US interstate sign entity.blend'
# www.blender.org
o Cube
v -0.164979 -0.369053 0.421875
v -0.194976 -0.350305 0.421875
v -0.131234 -0.387800 0.421875
v -0.104987 -0.399049 0.421875
v -0.044994 -0.421546 0.421875
v -0.078740 -0.410297 0.421875
v -0.018748 -0.429045 0.421875
v 0.000000 -0.432795 0.421875
v 0.018748 -0.429045 0.421875
v 0.044994 -0.421546 0.421875
v 0.078740 -0.410297 0.421875
v 0.104987 -0.399049 0.421875
v 0.131234 -0.387800 0.421875
v 0.164979 -0.369053 0.421875
v 0.228721 -0.324058 0.421875
v 0.194976 -0.350305 0.421875
v -0.389951 -0.110335 0.421875
v -0.378702 -0.136582 0.421875
v -0.367454 -0.159079 0.421875
v -0.356205 -0.177827 0.421875
v -0.344957 -0.196574 0.421875
v -0.299962 -0.256567 0.421875
v -0.258718 -0.297811 0.421875
v -0.326209 -0.222821 0.421875
v -0.228721 -0.324058 0.421875
v 0.258718 -0.297811 0.421875
v 0.299962 -0.256567 0.421875
v 0.326209 -0.222821 0.421875
v 0.367454 -0.159079 0.421875
v 0.356205 -0.177827 0.421875
v 0.344957 -0.196574 0.421875
v 0.378703 -0.136582 0.421875
v -0.434945 0.080891 0.421875
v -0.434945 0.097888 0.421875
v -0.434945 0.122136 0.421875
v -0.431196 0.043396 0.421875
v -0.423697 -0.005348 0.421875
v -0.427446 0.013400 0.421875
v -0.416198 -0.035344 0.421875
v -0.408699 -0.065341 0.421875
v -0.401200 -0.084088 0.421875
v 0.389951 -0.110335 0.421875
v 0.401200 -0.084088 0.421875
v 0.408699 -0.065341 0.421875
v 0.423697 -0.005348 0.421875
v 0.416198 -0.035344 0.421875
v 0.427446 0.013400 0.421875
v 0.431196 0.043396 0.421875
v 0.434946 0.122136 0.421875
v 0.431196 0.163381 0.421875
v 0.434946 0.080891 0.421875
v -0.416198 0.242121 0.421875
v -0.423697 0.212125 0.421875
v -0.431196 0.163381 0.421875
v 0.423697 0.212125 0.421875
v 0.416198 0.242121 0.421875
v -0.415758 0.243660 0.421875
v 0.415758 0.243660 0.421875
vt 0.063269 0.583319
vt 0.067025 0.545822
vt 0.070787 0.515828
vt 0.074544 0.497079
vt 0.082062 0.467082
vt 0.089581 0.437087
vt 0.097099 0.418339
vt 0.108376 0.392092
vt 0.119652 0.365845
vt 0.130930 0.343349
vt 0.142207 0.324602
vt 0.153483 0.305853
vt 0.172278 0.279606
vt 0.198591 0.245861
vt 0.239940 0.204616
vt 0.270012 0.178368
vt 0.303842 0.152123
vt 0.333914 0.133376
vt 0.367746 0.114627
vt 0.394058 0.103378
vt 0.420371 0.092130
vt 0.454202 0.080882
vt 0.480514 0.073383
vt 0.499309 0.069632
vt 0.518104 0.073382
vt 0.544417 0.080882
vt 0.578248 0.092130
vt 0.604561 0.103378
vt 0.630873 0.114627
vt 0.664704 0.133377
vt 0.694776 0.152123
vt 0.728607 0.178368
vt 0.758678 0.204615
vt 0.800027 0.245861
vt 0.826340 0.279607
vt 0.845135 0.305853
vt 0.856412 0.324601
vt 0.867688 0.343349
vt 0.878965 0.365845
vt 0.890243 0.392092
vt 0.901520 0.418338
vt 0.909037 0.437088
vt 0.916555 0.467083
vt 0.924072 0.497079
vt 0.927831 0.515828
vt 0.931589 0.545825
vt 0.935337 0.583325
vt 0.935354 0.600314
vt 0.935349 0.624563
vt 0.931592 0.665807
vt 0.924074 0.714551
vt 0.916557 0.744547
vt 0.916116 0.746086
vt 0.082504 0.746087
vt 0.082063 0.744548
vt 0.074546 0.714553
vt 0.067030 0.665809
vt 0.063270 0.624563
vn 0.0000 -0.0000 -1.0000
g Cube_Cube_front
s off
f 51/1/1 48/2/1 47/3/1 45/4/1 46/5/1 44/6/1 43/7/1 42/8/1 32/9/1 29/10/1 30/11/1 31/12/1 28/13/1 27/14/1 26/15/1 15/16/1 16/17/1 14/18/1 13/19/1 12/20/1 11/21/1 10/22/1 9/23/1 8/24/1 7/25/1 5/26/1 6/27/1 4/28/1 3/29/1 1/30/1 2/31/1 25/32/1 23/33/1 22/34/1 24/35/1 21/36/1 20/37/1 19/38/1 18/39/1 17/40/1 41/41/1 40/42/1 39/43/1 37/44/1 38/45/1 36/46/1 33/47/1 34/48/1 35/49/1 54/50/1 53/51/1 52/52/1 57/53/1 58/54/1 56/55/1 55/56/1 50/57/1 49/58/1
