# Blender v2.79 (sub 0) OBJ File: 'street signs yield onpole.blend'
# www.blender.org
o yield.001
v -0.594021 -0.450000 0.397044
v -0.602721 -0.450000 0.414928
v -0.607957 -0.450000 0.432371
v -0.609598 -0.450000 0.448945
v -0.607606 -0.450000 0.464240
v -0.602029 -0.450000 0.477881
v -0.580754 -0.450000 0.498905
v -0.547856 -0.450000 0.509958
v -0.528018 -0.450000 0.511365
v 0.528016 -0.450000 0.511365
v 0.580752 -0.450000 0.498905
v 0.593002 -0.450000 0.489532
v 0.602027 -0.450000 0.477881
v 0.609596 -0.450000 0.448945
v 0.607955 -0.450000 0.432371
v 0.602719 -0.450000 0.414928
v 0.594019 -0.450000 0.397044
v 0.054865 -0.450000 -0.533985
v 0.014601 -0.450000 -0.562871
v -0.014603 -0.450000 -0.562871
v -0.042378 -0.450000 -0.547240
v 0.609597 -0.500000 0.448945
v 0.607604 -0.500000 0.464240
v -0.565580 -0.500000 0.505770
v -0.580754 -0.500000 0.498905
v -0.593004 -0.500000 0.489532
v -0.602029 -0.500000 0.477881
v -0.607606 -0.500000 0.464240
v -0.609598 -0.500000 0.448945
v -0.607957 -0.500000 0.432371
v -0.602721 -0.500000 0.414928
v -0.066005 -0.500000 -0.517508
v -0.054867 -0.500000 -0.533985
v -0.014603 -0.500000 -0.562871
v -0.000001 -0.500000 -0.564862
v 0.014601 -0.500000 -0.562871
v 0.028844 -0.500000 -0.556949
v 0.042376 -0.500000 -0.547240
v 0.054865 -0.500000 -0.533985
v 0.066002 -0.500000 -0.517508
v -0.594021 -0.500000 0.397044
v -0.066005 -0.450000 -0.517508
v -0.528018 -0.500000 0.511365
v 0.528016 -0.500000 0.511365
v -0.593004 -0.450000 0.489532
v -0.565580 -0.450000 0.505770
v -0.547856 -0.500000 0.509958
v 0.547854 -0.500000 0.509958
v 0.547854 -0.450000 0.509958
v 0.565578 -0.500000 0.505770
v 0.565578 -0.450000 0.505770
v 0.580752 -0.500000 0.498905
v 0.593002 -0.500000 0.489532
v 0.602027 -0.500000 0.477881
v 0.607604 -0.450000 0.464240
v 0.607955 -0.500000 0.432371
v 0.602719 -0.500000 0.414928
v 0.594019 -0.500000 0.397044
v -0.054867 -0.450000 -0.533985
v -0.042378 -0.500000 -0.547240
v -0.028846 -0.450000 -0.556949
v -0.028846 -0.500000 -0.556949
v -0.000001 -0.450000 -0.564862
v 0.028843 -0.450000 -0.556949
v 0.042376 -0.450000 -0.547240
v 0.066002 -0.450000 -0.517508
vt 0.491401 0.889822
vt 0.494930 0.906298
vt 0.497054 0.922369
vt 0.497720 0.937638
vt 0.496912 0.951730
vt 0.494649 0.964298
vt 0.490988 0.975031
vt 0.486019 0.983667
vt 0.479864 0.989991
vt 0.472674 0.993850
vt 0.464626 0.995146
vt 0.036243 0.995146
vt 0.028195 0.993850
vt 0.021005 0.989991
vt 0.014850 0.983667
vt 0.009881 0.975031
vt 0.006220 0.964297
vt 0.003957 0.951730
vt 0.003149 0.937638
vt 0.003815 0.922369
vt 0.005939 0.906298
vt 0.009468 0.889822
vt 0.223660 0.047240
vt 0.228178 0.032060
vt 0.233244 0.019847
vt 0.238734 0.010903
vt 0.244511 0.005447
vt 0.250435 0.003613
vt 0.256358 0.005447
vt 0.262135 0.010903
vt 0.267625 0.019847
vt 0.272691 0.032060
vt 0.277209 0.047240
vt 0.509468 0.889822
vt 0.505939 0.906298
vt 0.503815 0.922369
vt 0.503149 0.937638
vt 0.503957 0.951730
vt 0.506220 0.964298
vt 0.509881 0.975031
vt 0.514850 0.983667
vt 0.521005 0.989991
vt 0.528195 0.993850
vt 0.536243 0.995146
vt 0.964627 0.995146
vt 0.972674 0.993850
vt 0.979864 0.989991
vt 0.986019 0.983667
vt 0.990988 0.975031
vt 0.994649 0.964298
vt 0.996912 0.951730
vt 0.997720 0.937638
vt 0.997054 0.922369
vt 0.994930 0.906298
vt 0.991401 0.889822
vt 0.777209 0.047240
vt 0.772691 0.032060
vt 0.767625 0.019848
vt 0.762135 0.010903
vt 0.756358 0.005447
vt 0.750435 0.003613
vt 0.744511 0.005447
vt 0.738734 0.010903
vt 0.733244 0.019848
vt 0.728178 0.032060
vt 0.723660 0.047240
vt 0.000000 0.000000
vt 0.000000 0.000000
vt 0.000000 0.000000
vt 0.000000 0.000000
vt 0.000000 0.000000
vt 0.000000 0.000000
vt 0.000000 0.000000
vt 0.000000 0.000000
vt 0.000000 0.000000
vt 0.000000 0.000000
vt 0.000000 0.000000
vt 0.000000 0.000000
vt 0.000000 0.000000
vt 0.000000 0.000000
vt 0.000000 0.000000
vt 0.000000 0.000000
vt 0.000000 0.000000
vt 0.000000 0.000000
vt 0.000000 0.000000
vt 0.000000 0.000000
vt 0.000000 0.000000
vt 0.000000 0.000000
vt 0.000000 0.000000
vt 0.000000 0.000000
vt 0.000000 0.000000
vt 0.000000 0.000000
vt 0.000000 0.000000
vt 0.000000 0.000000
vt 0.000000 0.000000
vt 0.000000 0.000000
vt 0.000000 0.000000
vt 0.000000 0.000000
vt 0.000000 0.000000
vt 0.000000 0.000000
vt 0.000000 0.000000
vt 0.000000 0.000000
vt 0.000000 0.000000
vt 0.000000 0.000000
vt 0.000000 0.000000
vt 0.000000 0.000000
vt 0.000000 0.000000
vt 0.000000 0.000000
vt 0.000000 0.000000
vt 0.000000 0.000000
vt 0.000000 0.000000
vt 0.000000 0.000000
vt 0.000000 0.000000
vt 0.000000 0.000000
vt 0.000000 0.000000
vt 0.000000 0.000000
vt 0.000000 0.000000
vt 0.000000 0.000000
vt 0.000000 0.000000
vt 0.000000 0.000000
vt 0.000000 0.000000
vt 0.000000 0.000000
vt 0.000000 0.000000
vt 0.000000 0.000000
vt 0.000000 0.000000
vt 0.000000 0.000000
vt 0.000000 0.000000
vt 0.000000 0.000000
vt 0.000000 0.000000
vt 0.000000 0.000000
vt 0.000000 0.000000
vt 0.000000 0.000000
vn 0.0000 1.0000 -0.0000
vn -0.0000 -1.0000 -0.0000
vn -0.8478 0.0000 -0.5303
vn -0.8832 0.0000 -0.4690
vn -0.0354 0.0000 0.9994
vn 0.0354 0.0000 0.9994
vn -0.9315 0.0000 -0.3637
vn -0.9810 0.0000 -0.1939
vn -0.9999 0.0000 0.0154
vn -0.9667 0.0000 0.2559
vn -0.8660 0.0000 0.5000
vn -0.7050 0.0000 0.7092
vn -0.5133 0.0000 0.8582
vn -0.3226 0.0000 0.9465
vn -0.1508 0.0000 0.9886
vn 0.1508 0.0000 0.9886
vn 0.3226 0.0000 0.9465
vn 0.5133 0.0000 0.8582
vn 0.7050 0.0000 0.7092
vn 0.8660 0.0000 0.5000
vn 0.9667 0.0000 0.2559
vn 0.9999 0.0000 0.0154
vn 0.9810 0.0000 -0.1939
vn 0.9315 0.0000 -0.3637
vn 0.8832 0.0000 -0.4690
vn -0.7807 0.0000 -0.6249
vn -0.6584 0.0000 -0.7526
vn -0.4866 0.0000 -0.8736
vn -0.2617 0.0000 -0.9652
vn 0.0000 0.0000 -1.0000
vn 0.2617 0.0000 -0.9651
vn 0.4866 0.0000 -0.8736
vn 0.6584 0.0000 -0.7526
vn 0.7807 0.0000 -0.6249
vn 0.8478 0.0000 -0.5303
g yield.001_yield.001_front-back
s off
f 1/1/1 2/2/1 3/3/1 4/4/1 5/5/1 6/6/1 45/7/1 7/8/1 46/9/1 8/10/1 9/11/1 10/12/1 49/13/1 51/14/1 11/15/1 12/16/1 13/17/1 55/18/1 14/19/1 15/20/1 16/21/1 17/22/1 66/23/1 18/24/1 65/25/1 64/26/1 19/27/1 63/28/1 20/29/1 61/30/1 21/31/1 59/32/1 42/33/1
f 58/34/2 57/35/2 56/36/2 22/37/2 23/38/2 54/39/2 53/40/2 52/41/2 50/42/2 48/43/2 44/44/2 43/45/2 47/46/2 24/47/2 25/48/2 26/49/2 27/50/2 28/51/2 29/52/2 30/53/2 31/54/2 41/55/2 32/56/2 33/57/2 60/58/2 62/59/2 34/60/2 35/61/2 36/62/2 37/63/2 38/64/2 39/65/2 40/66/2
g yield.001_yield.001_edges
s 1
f 32/67/3 41/68/4 1/69/4 42/70/3
f 43/71/5 44/72/6 10/73/6 9/74/5
f 1/69/4 41/68/4 31/75/7 2/76/7
f 2/76/7 31/75/7 30/77/8 3/78/8
f 3/78/8 30/77/8 29/79/9 4/80/9
f 4/80/9 29/79/9 28/81/10 5/82/10
f 5/82/10 28/81/10 27/83/11 6/84/11
f 6/84/11 27/83/11 26/85/12 45/86/12
f 45/86/12 26/85/12 25/87/13 7/88/13
f 7/88/13 25/87/13 24/89/14 46/90/14
f 46/90/14 24/89/14 47/91/15 8/92/15
f 8/92/15 47/91/15 43/71/5 9/74/5
f 10/73/6 44/72/6 48/93/16 49/94/16
f 49/94/16 48/93/16 50/95/17 51/96/17
f 51/96/17 50/95/17 52/97/18 11/98/18
f 11/98/18 52/97/18 53/99/19 12/100/19
f 12/100/19 53/99/19 54/101/20 13/102/20
f 13/102/20 54/101/20 23/103/21 55/104/21
f 55/104/21 23/103/21 22/105/22 14/106/22
f 14/106/22 22/105/22 56/107/23 15/108/23
f 15/108/23 56/107/23 57/109/24 16/110/24
f 16/110/24 57/109/24 58/111/25 17/112/25
f 32/67/3 42/70/3 59/113/26 33/114/26
f 33/114/26 59/113/26 21/115/27 60/116/27
f 60/116/27 21/115/27 61/117/28 62/118/28
f 62/118/28 61/117/28 20/119/29 34/120/29
f 34/120/29 20/119/29 63/121/30 35/122/30
f 35/122/30 63/121/30 19/123/31 36/124/31
f 36/124/31 19/123/31 64/125/32 37/126/32
f 37/126/32 64/125/32 65/127/33 38/128/33
f 38/128/33 65/127/33 18/129/34 39/130/34
f 39/130/34 18/129/34 66/131/35 40/132/35
f 58/111/25 40/132/35 66/131/35 17/112/25
