# Blender v2.79 (sub 0) OBJ File: '000 Basic square 100x100x5 cm sign entity, offset for post mount.blend'
# www.blender.org
o Cube
v 0.411480 -0.457200 0.731250
v 0.457200 -0.411480 0.731250
v 0.425608 -0.454962 0.731250
v 0.438354 -0.448468 0.731250
v 0.448468 -0.438354 0.731250
v 0.454962 -0.425608 0.731250
v 0.411480 0.457200 0.731250
v 0.457200 0.411480 0.731250
v 0.425608 0.454962 0.731250
v 0.438354 0.448468 0.731250
v 0.448468 0.438354 0.731250
v 0.454962 0.425608 0.731250
v -0.411480 -0.457200 0.731250
v -0.457200 -0.411480 0.731250
v -0.425608 -0.454962 0.731250
v -0.438354 -0.448468 0.731250
v -0.448468 -0.438354 0.731250
v -0.454962 -0.425608 0.731250
v -0.457200 0.411480 0.731250
v -0.411480 0.457200 0.731250
v -0.454962 0.425608 0.731250
v -0.448468 0.438354 0.731250
v -0.438354 0.448468 0.731250
v -0.425608 0.454962 0.731250
vt 1.000000 0.950000
vt 0.997553 0.965451
vt 0.990451 0.979389
vt 0.979389 0.990451
vt 0.965451 0.997553
vt 0.950000 1.000000
vt 0.050000 1.000000
vt 0.034549 0.997553
vt 0.020611 0.990451
vt 0.009549 0.979389
vt 0.002447 0.965451
vt 0.000000 0.950000
vt 0.000000 0.050000
vt 0.002447 0.034549
vt 0.009549 0.020611
vt 0.020611 0.009549
vt 0.034549 0.002447
vt 0.050000 0.000000
vt 0.950000 0.000000
vt 0.965451 0.002447
vt 0.979389 0.009549
vt 0.990451 0.020611
vt 0.997553 0.034549
vt 1.000000 0.050000
vn 0.0000 0.0000 -1.0000
g Cube_Cube_None
s off
f 19/1/1 21/2/1 22/3/1 23/4/1 24/5/1 20/6/1 7/7/1 9/8/1 10/9/1 11/10/1 12/11/1 8/12/1 2/13/1 6/14/1 5/15/1 4/16/1 3/17/1 1/18/1 13/19/1 15/20/1 16/21/1 17/22/1 18/23/1 14/24/1
