# Blender v2.79 (sub 0) OBJ File: 'US route sign entity_onpole.blend'
# www.blender.org
o Cube
v -0.365067 -0.319627 0.734375
v -0.418123 -0.259417 0.734375
v -0.313203 -0.352713 0.734375
v -0.244349 -0.372981 0.734375
v -0.130487 -0.376260 0.734375
v -0.064912 -0.403086 0.734375
v -0.023480 -0.431999 0.734375
v -0.002033 -0.451030 0.734375
v 0.019414 -0.431999 0.734375
v 0.060846 -0.403086 0.734375
v 0.126421 -0.376260 0.734375
v 0.240283 -0.372981 0.734375
v 0.309137 -0.352713 0.734375
v 0.361001 -0.319627 0.734375
v 0.442125 -0.198562 0.734375
v 0.414057 -0.259417 0.734375
v -0.455129 0.281568 0.734375
v -0.456276 -0.129012 0.734375
v -0.452401 -0.090562 0.734375
v -0.446191 -0.198562 0.734375
v -0.439748 0.261180 0.734375
v -0.440707 -0.043579 0.734375
v -0.422222 0.221835 0.734375
v -0.408273 0.170329 0.734375
v -0.403623 0.067674 0.734375
v -0.417014 0.019259 0.734375
v -0.402550 0.119181 0.734375
v 0.412948 0.019259 0.734375
v 0.399557 0.067674 0.734375
v 0.398484 0.119181 0.734375
v 0.404207 0.170329 0.734375
v 0.418156 0.221835 0.734375
v 0.435683 0.261180 0.734375
v 0.436641 -0.043579 0.734375
v 0.448335 -0.090562 0.734375
v 0.452210 -0.129012 0.734375
v -0.034928 0.428896 0.734375
v -0.002032 0.451014 0.734375
v 0.030862 0.428896 0.734375
v -0.279592 0.447675 0.734375
v -0.255747 0.432771 0.734375
v 0.251681 0.432771 0.734375
v 0.275526 0.447675 0.734375
v 0.451063 0.281568 0.734375
v -0.212527 0.412801 0.734375
v 0.208461 0.412801 0.734375
v -0.073925 0.409522 0.734375
v 0.069859 0.409522 0.734375
v 0.158087 0.399686 0.734375
v -0.162153 0.399686 0.734375
v -0.124299 0.399686 0.734375
v 0.120233 0.399686 0.734375
vt 0.934694 0.378452
vt 0.930988 0.415249
vt 0.919797 0.460207
vt 0.897121 0.520341
vt 0.884307 0.566670
vt 0.883280 0.615964
vt 0.888756 0.664905
vt 0.902107 0.714200
vt 0.918877 0.751847
vt 0.933599 0.771358
vt 0.765610 0.930314
vt 0.742787 0.916051
vt 0.701425 0.896939
vt 0.653219 0.884393
vt 0.616991 0.884391
vt 0.568784 0.893802
vt 0.531463 0.912344
vt 0.499980 0.933510
vt 0.468501 0.912345
vt 0.431182 0.893800
vt 0.382974 0.884394
vt 0.346745 0.884393
vt 0.298537 0.896942
vt 0.257176 0.916050
vt 0.234356 0.930312
vt 0.066364 0.771356
vt 0.081085 0.751845
vt 0.097858 0.714196
vt 0.111206 0.664905
vt 0.116686 0.615963
vt 0.115654 0.566671
vt 0.102842 0.520340
vt 0.080166 0.460206
vt 0.068975 0.415250
vt 0.065271 0.378454
vt 0.074920 0.311899
vt 0.101782 0.253662
vt 0.152555 0.196046
vt 0.202192 0.164381
vt 0.268081 0.144987
vt 0.377052 0.141848
vt 0.439809 0.116181
vt 0.479455 0.088514
vt 0.499980 0.070299
vt 0.520505 0.088511
vt 0.560155 0.116180
vt 0.622915 0.141852
vt 0.731882 0.144982
vt 0.797771 0.164382
vt 0.847410 0.196045
vt 0.898185 0.253664
vt 0.925043 0.311899
vn 0.0000 0.0000 -1.0000
g Cube_Cube_front
s off
f 18/1/1 19/2/1 22/3/1 26/4/1 25/5/1 27/6/1 24/7/1 23/8/1 21/9/1 17/10/1 40/11/1 41/12/1 45/13/1 50/14/1 51/15/1 47/16/1 37/17/1 38/18/1 39/19/1 48/20/1 52/21/1 49/22/1 46/23/1 42/24/1 43/25/1 44/26/1 33/27/1 32/28/1 31/29/1 30/30/1 29/31/1 28/32/1 34/33/1 35/34/1 36/35/1 15/36/1 16/37/1 14/38/1 13/39/1 12/40/1 11/41/1 10/42/1 9/43/1 8/44/1 7/45/1 6/46/1 5/47/1 4/48/1 3/49/1 1/50/1 2/51/1 20/52/1
