# Blender v2.79 (sub 0) OBJ File: '000 Basic square 100x100x5 cm sign.blend'
# www.blender.org
o Cube
v -0.066004 -0.500000 -0.455008
v 0.066003 -0.500000 -0.455008
v -0.054866 -0.500000 -0.471485
v -0.042377 -0.500000 -0.484740
v -0.028845 -0.500000 -0.494449
v -0.014602 -0.500000 -0.500371
v -0.000000 -0.500000 -0.502362
v 0.014602 -0.500000 -0.500371
v 0.028844 -0.500000 -0.494449
v 0.042377 -0.500000 -0.484740
v 0.054866 -0.500000 -0.471485
v 0.066003 -0.450000 -0.455008
v -0.066004 -0.450000 -0.455008
v 0.054866 -0.450000 -0.471485
v 0.042377 -0.450000 -0.484740
v 0.028844 -0.450000 -0.494449
v 0.014602 -0.450000 -0.500371
v -0.000000 -0.450000 -0.502362
v -0.014602 -0.450000 -0.500371
v -0.028845 -0.450000 -0.494449
v -0.042377 -0.450000 -0.484740
v -0.054866 -0.450000 -0.471485
v 0.594020 -0.500000 0.459544
v 0.528017 -0.500000 0.573865
v 0.602720 -0.500000 0.477428
v 0.607956 -0.500000 0.494871
v 0.609598 -0.500000 0.511445
v 0.607605 -0.500000 0.526740
v 0.602028 -0.500000 0.540381
v 0.593003 -0.500000 0.552032
v 0.580753 -0.500000 0.561405
v 0.565579 -0.500000 0.568270
v 0.547855 -0.500000 0.572458
v 0.528017 -0.450000 0.573865
v 0.594020 -0.450000 0.459544
v 0.547855 -0.450000 0.572458
v 0.565579 -0.450000 0.568270
v 0.580753 -0.450000 0.561405
v 0.593003 -0.450000 0.552032
v 0.602028 -0.450000 0.540381
v 0.607605 -0.450000 0.526740
v 0.609597 -0.450000 0.511445
v 0.607956 -0.450000 0.494871
v 0.602720 -0.450000 0.477428
v -0.528017 -0.500000 0.573865
v -0.594020 -0.500000 0.459544
v -0.547855 -0.500000 0.572458
v -0.565579 -0.500000 0.568270
v -0.580753 -0.500000 0.561405
v -0.593003 -0.500000 0.552032
v -0.602028 -0.500000 0.540381
v -0.607605 -0.500000 0.526740
v -0.609597 -0.500000 0.511445
v -0.607956 -0.500000 0.494871
v -0.602720 -0.500000 0.477428
v -0.594020 -0.450000 0.459544
v -0.528017 -0.450000 0.573865
v -0.602720 -0.450000 0.477428
v -0.607956 -0.450000 0.494871
v -0.609597 -0.450000 0.511445
v -0.607605 -0.450000 0.526740
v -0.602028 -0.450000 0.540381
v -0.593003 -0.450000 0.552032
v -0.580753 -0.450000 0.561405
v -0.565579 -0.450000 0.568270
v -0.547855 -0.450000 0.572458
v -0.066004 -0.500000 -0.455008
v 0.066003 -0.500000 -0.455008
v -0.054866 -0.500000 -0.471485
v -0.042377 -0.500000 -0.484740
v -0.028845 -0.500000 -0.494449
v -0.014602 -0.500000 -0.500371
v -0.000000 -0.500000 -0.502362
v 0.014602 -0.500000 -0.500371
v 0.028845 -0.500000 -0.494449
v 0.042377 -0.500000 -0.484740
v 0.054866 -0.500000 -0.471485
v -0.066004 -0.450000 -0.455008
v 0.066003 -0.450000 -0.455008
v -0.054866 -0.450000 -0.471485
v -0.042377 -0.450000 -0.484740
v -0.028845 -0.450000 -0.494449
v -0.014602 -0.450000 -0.500371
v -0.000000 -0.450000 -0.502362
v 0.014602 -0.450000 -0.500371
v 0.028844 -0.450000 -0.494449
v 0.042377 -0.450000 -0.484740
v 0.054866 -0.450000 -0.471485
v 0.528017 -0.500000 0.573865
v 0.594020 -0.500000 0.459544
v 0.547855 -0.500000 0.572458
v 0.565579 -0.500000 0.568270
v 0.580753 -0.500000 0.561405
v 0.593003 -0.500000 0.552032
v 0.602028 -0.500000 0.540381
v 0.607605 -0.500000 0.526740
v 0.609598 -0.500000 0.511445
v 0.607956 -0.500000 0.494871
v 0.602720 -0.500000 0.477428
v 0.528017 -0.450000 0.573865
v 0.594020 -0.450000 0.459544
v 0.547855 -0.450000 0.572458
v 0.565579 -0.450000 0.568270
v 0.580753 -0.450000 0.561405
v 0.593003 -0.450000 0.552032
v 0.602028 -0.450000 0.540381
v 0.607605 -0.450000 0.526740
v 0.609597 -0.450000 0.511445
v 0.607956 -0.450000 0.494871
v 0.602720 -0.450000 0.477428
v -0.528017 -0.500000 0.573865
v -0.594020 -0.500000 0.459544
v -0.547855 -0.500000 0.572458
v -0.565579 -0.500000 0.568270
v -0.580753 -0.500000 0.561405
v -0.593003 -0.500000 0.552032
v -0.602028 -0.500000 0.540381
v -0.607605 -0.500000 0.526740
v -0.609597 -0.500000 0.511445
v -0.607956 -0.500000 0.494871
v -0.602720 -0.500000 0.477428
v -0.528017 -0.450000 0.573865
v -0.594020 -0.450000 0.459544
v -0.547855 -0.450000 0.572458
v -0.565579 -0.450000 0.568270
v -0.580753 -0.450000 0.561405
v -0.593003 -0.450000 0.552032
v -0.602028 -0.450000 0.540381
v -0.607605 -0.450000 0.526740
v -0.609597 -0.450000 0.511445
v -0.607956 -0.450000 0.494871
v -0.602720 -0.450000 0.477428
vt 0.491401 0.889822
vt 0.494930 0.906298
vt 0.497054 0.922369
vt 0.497720 0.937638
vt 0.496912 0.951730
vt 0.494649 0.964298
vt 0.490988 0.975031
vt 0.486019 0.983667
vt 0.479864 0.989991
vt 0.472674 0.993850
vt 0.464626 0.995146
vt 0.036243 0.995146
vt 0.028195 0.993850
vt 0.021005 0.989991
vt 0.014850 0.983667
vt 0.009881 0.975031
vt 0.006220 0.964297
vt 0.003957 0.951730
vt 0.003149 0.937638
vt 0.003815 0.922369
vt 0.005939 0.906298
vt 0.009468 0.889822
vt 0.223660 0.047240
vt 0.228178 0.032060
vt 0.233244 0.019847
vt 0.238734 0.010903
vt 0.244511 0.005447
vt 0.250435 0.003613
vt 0.256358 0.005447
vt 0.262135 0.010903
vt 0.267625 0.019847
vt 0.272691 0.032060
vt 0.277209 0.047240
vt 0.509468 0.889822
vt 0.505939 0.906298
vt 0.503815 0.922369
vt 0.503149 0.937638
vt 0.503957 0.951730
vt 0.506220 0.964298
vt 0.509881 0.975031
vt 0.514850 0.983667
vt 0.521005 0.989991
vt 0.528195 0.993850
vt 0.536243 0.995146
vt 0.964627 0.995146
vt 0.972674 0.993850
vt 0.979864 0.989991
vt 0.986019 0.983667
vt 0.990988 0.975031
vt 0.994649 0.964298
vt 0.996912 0.951730
vt 0.997720 0.937638
vt 0.997054 0.922369
vt 0.994930 0.906298
vt 0.991401 0.889822
vt 0.777209 0.047240
vt 0.772691 0.032060
vt 0.767625 0.019848
vt 0.762135 0.010903
vt 0.756358 0.005447
vt 0.750435 0.003613
vt 0.744511 0.005447
vt 0.738734 0.010903
vt 0.733244 0.019848
vt 0.728178 0.032060
vt 0.723660 0.047240
vt 0.000000 0.000000
vt 0.000000 0.000000
vt 0.000000 0.000000
vt 0.000000 0.000000
vt 0.000000 0.000000
vt 0.000000 0.000000
vt 0.000000 0.000000
vt 0.000000 0.000000
vt 0.000000 0.000000
vt 0.000000 0.000000
vt 0.000000 0.000000
vt 0.000000 0.000000
vt 0.000000 0.000000
vt 0.000000 0.000000
vt 0.000000 0.000000
vt 0.000000 0.000000
vt 0.000000 0.000000
vt 0.000000 0.000000
vt 0.000000 0.000000
vt 0.000000 0.000000
vt 0.000000 0.000000
vt 0.000000 0.000000
vt 0.000000 0.000000
vt 0.000000 0.000000
vt 0.000000 0.000000
vt 0.000000 0.000000
vt 0.000000 0.000000
vt 0.000000 0.000000
vt 0.000000 0.000000
vt 0.000000 0.000000
vt 0.000000 0.000000
vt 0.000000 0.000000
vt 0.000000 0.000000
vt 0.000000 0.000000
vt 0.000000 0.000000
vt 0.000000 0.000000
vt 0.000000 0.000000
vt 0.000000 0.000000
vt 0.000000 0.000000
vt 0.000000 0.000000
vt 0.000000 0.000000
vt 0.000000 0.000000
vt 0.000000 0.000000
vt 0.000000 0.000000
vt 0.000000 0.000000
vt 0.000000 0.000000
vt 0.000000 0.000000
vt 0.000000 0.000000
vt 0.000000 0.000000
vt 0.000000 0.000000
vt 0.000000 0.000000
vt 0.000000 0.000000
vt 0.000000 0.000000
vt 0.000000 0.000000
vt 0.000000 0.000000
vt 0.000000 0.000000
vt 0.000000 0.000000
vt 0.000000 0.000000
vt 0.000000 0.000000
vt 0.000000 0.000000
vt 0.000000 0.000000
vt 0.000000 0.000000
vt 0.000000 0.000000
vt 0.000000 0.000000
vt 0.000000 0.000000
vt 0.000000 0.000000
vn 0.0000 1.0000 0.0000
vn 0.0000 -1.0000 0.0000
vn -0.8660 0.0000 -0.5000
vn -0.0000 -0.0000 1.0000
vn -0.8992 0.0000 -0.4375
vn -0.9578 0.0000 -0.2875
vn -0.9951 0.0000 -0.0986
vn -0.9916 -0.0000 0.1292
vn -0.9256 0.0000 0.3784
vn -0.7906 0.0000 0.6124
vn -0.6077 0.0000 0.7942
vn -0.4122 0.0000 0.9111
vn -0.2299 0.0000 0.9732
vn -0.0708 0.0000 0.9975
vn 0.0708 0.0000 0.9975
vn 0.2300 0.0000 0.9732
vn 0.4122 0.0000 0.9111
vn 0.6077 0.0000 0.7942
vn 0.7906 0.0000 0.6124
vn 0.9256 0.0000 0.3784
vn 0.9916 0.0000 0.1292
vn 0.9951 0.0000 -0.0986
vn 0.9578 0.0000 -0.2875
vn 0.8992 0.0000 -0.4375
vn -0.8285 0.0000 -0.5600
vn -0.7278 -0.0000 -0.6857
vn -0.5829 -0.0000 -0.8125
vn -0.3840 -0.0000 -0.9234
vn -0.1351 -0.0000 -0.9908
vn 0.1351 -0.0000 -0.9908
vn 0.3840 0.0000 -0.9234
vn 0.5829 0.0000 -0.8125
vn 0.7278 0.0000 -0.6857
vn 0.8285 0.0000 -0.5600
vn 0.8660 0.0000 -0.5000
g Cube_Cube_front-back
s off
f 123/1/1 132/2/1 131/3/1 130/4/1 129/5/1 128/6/1 127/7/1 126/8/1 125/9/1 124/10/1 122/11/1 100/12/1 102/13/1 103/14/1 104/15/1 105/16/1 106/17/1 107/18/1 108/19/1 109/20/1 110/21/1 101/22/1 79/23/1 88/24/1 87/25/1 86/26/1 85/27/1 84/28/1 83/29/1 82/30/1 81/31/1 80/32/1 78/33/1
f 90/34/2 99/35/2 98/36/2 97/37/2 96/38/2 95/39/2 94/40/2 93/41/2 92/42/2 91/43/2 89/44/2 111/45/2 113/46/2 114/47/2 115/48/2 116/49/2 117/50/2 118/51/2 119/52/2 120/53/2 121/54/2 112/55/2 67/56/2 69/57/2 70/58/2 71/59/2 72/60/2 73/61/2 74/62/2 75/63/2 76/64/2 77/65/2 68/66/2
g Cube_Cube_front-back_NONE
f 1/67/3 46/68/3 56/69/3 13/70/3
f 45/71/4 24/72/4 34/73/4 57/74/4
f 56/69/5 46/68/5 55/75/5 58/76/5
f 58/76/6 55/75/6 54/77/6 59/78/6
f 59/78/7 54/77/7 53/79/7 60/80/7
f 60/80/8 53/79/8 52/81/8 61/82/8
f 61/82/9 52/81/9 51/83/9 62/84/9
f 62/84/10 51/83/10 50/85/10 63/86/10
f 63/86/11 50/85/11 49/87/11 64/88/11
f 64/88/12 49/87/12 48/89/12 65/90/12
f 65/90/13 48/89/13 47/91/13 66/92/13
f 66/92/14 47/91/14 45/71/14 57/74/14
f 34/73/15 24/72/15 33/93/15 36/94/15
f 36/94/16 33/93/16 32/95/16 37/96/16
f 37/96/17 32/95/17 31/97/17 38/98/17
f 38/98/18 31/97/18 30/99/18 39/100/18
f 39/100/19 30/99/19 29/101/19 40/102/19
f 40/102/20 29/101/20 28/103/20 41/104/20
f 41/104/21 28/103/21 27/105/21 42/106/21
f 42/106/22 27/105/22 26/107/22 43/108/22
f 43/108/23 26/107/23 25/109/23 44/110/23
f 44/110/24 25/109/24 23/111/24 35/112/24
f 1/67/25 13/70/25 22/113/25 3/114/25
f 3/114/26 22/113/26 21/115/26 4/116/26
f 4/116/27 21/115/27 20/117/27 5/118/27
f 5/118/28 20/117/28 19/119/28 6/120/28
f 6/120/29 19/119/29 18/121/29 7/122/29
f 7/122/30 18/121/30 17/123/30 8/124/30
f 8/124/31 17/123/31 16/125/31 9/126/31
f 9/126/32 16/125/32 15/127/32 10/128/32
f 10/128/33 15/127/33 14/129/33 11/130/33
f 11/130/34 14/129/34 12/131/34 2/132/34
f 23/111/35 2/132/35 12/131/35 35/112/35
