# Blender v2.79 (sub 0) OBJ File: 'street signs regulatory 36x48.blend'
# www.blender.org
o Cube
v 0.373808 -0.500000 -0.609600
v 0.457200 -0.500000 -0.526208
v 0.388289 -0.500000 -0.608333
v 0.402330 -0.500000 -0.604571
v 0.415504 -0.500000 -0.598428
v 0.427411 -0.500000 -0.590090
v 0.437690 -0.500000 -0.579811
v 0.446028 -0.500000 -0.567904
v 0.452171 -0.500000 -0.554730
v 0.455933 -0.500000 -0.540689
v 0.457200 -0.437500 -0.526208
v 0.373808 -0.437500 -0.609600
v 0.455933 -0.437500 -0.540689
v 0.452171 -0.437500 -0.554730
v 0.446028 -0.437500 -0.567904
v 0.437690 -0.437500 -0.579811
v 0.427411 -0.437500 -0.590090
v 0.415504 -0.437500 -0.598428
v 0.402330 -0.437500 -0.604571
v 0.388289 -0.437500 -0.608333
v 0.457200 -0.500000 0.526208
v 0.373808 -0.500000 0.609600
v 0.455933 -0.500000 0.540689
v 0.452171 -0.500000 0.554730
v 0.446028 -0.500000 0.567904
v 0.437690 -0.500000 0.579811
v 0.427411 -0.500000 0.590090
v 0.415504 -0.500000 0.598428
v 0.402330 -0.500000 0.604571
v 0.388289 -0.500000 0.608333
v 0.373808 -0.437500 0.609600
v 0.457200 -0.437500 0.526208
v 0.388289 -0.437500 0.608333
v 0.402330 -0.437500 0.604571
v 0.415504 -0.437500 0.598428
v 0.427411 -0.437500 0.590090
v 0.437690 -0.437500 0.579811
v 0.446028 -0.437500 0.567904
v 0.452171 -0.437500 0.554730
v 0.455933 -0.437500 0.540689
v -0.457200 -0.500000 -0.526208
v -0.373808 -0.500000 -0.609600
v -0.455933 -0.500000 -0.540689
v -0.452171 -0.500000 -0.554730
v -0.446028 -0.500000 -0.567904
v -0.437690 -0.500000 -0.579811
v -0.427411 -0.500000 -0.590090
v -0.415504 -0.500000 -0.598428
v -0.402330 -0.500000 -0.604571
v -0.388289 -0.500000 -0.608333
v -0.373808 -0.437500 -0.609600
v -0.457200 -0.437500 -0.526208
v -0.388289 -0.437500 -0.608333
v -0.402330 -0.437500 -0.604571
v -0.415504 -0.437500 -0.598428
v -0.427411 -0.437500 -0.590090
v -0.437690 -0.437500 -0.579811
v -0.446028 -0.437500 -0.567904
v -0.452171 -0.437500 -0.554730
v -0.455933 -0.437500 -0.540689
v -0.373808 -0.500000 0.609600
v -0.457200 -0.500000 0.526208
v -0.388289 -0.500000 0.608333
v -0.402330 -0.500000 0.604571
v -0.415504 -0.500000 0.598428
v -0.427411 -0.500000 0.590090
v -0.437690 -0.500000 0.579811
v -0.446028 -0.500000 0.567904
v -0.452171 -0.500000 0.554730
v -0.455933 -0.500000 0.540689
v -0.457200 -0.437500 0.526208
v -0.373808 -0.437500 0.609600
v -0.455933 -0.437500 0.540689
v -0.452171 -0.437500 0.554730
v -0.446028 -0.437500 0.567904
v -0.437690 -0.437500 0.579811
v -0.427411 -0.437500 0.590090
v -0.415504 -0.437500 0.598428
v -0.402330 -0.437500 0.604571
v -0.388289 -0.437500 0.608333
vt 0.479482 0.928501
vt 0.478820 0.940293
vt 0.476856 0.951727
vt 0.473650 0.962455
vt 0.469297 0.972152
vt 0.463932 0.980522
vt 0.457716 0.987311
vt 0.450839 0.992314
vt 0.443509 0.995378
vt 0.435950 0.996409
vt 0.045691 0.996409
vt 0.038132 0.995378
vt 0.030803 0.992314
vt 0.023925 0.987311
vt 0.017710 0.980522
vt 0.012344 0.972152
vt 0.007992 0.962455
vt 0.004785 0.951727
vt 0.002821 0.940293
vt 0.002160 0.928501
vt 0.002160 0.071499
vt 0.002821 0.059707
vt 0.004785 0.048273
vt 0.007992 0.037545
vt 0.012344 0.027848
vt 0.017710 0.019478
vt 0.023925 0.012689
vt 0.030803 0.007686
vt 0.038132 0.004622
vt 0.045691 0.003591
vt 0.435950 0.003591
vt 0.443509 0.004622
vt 0.450839 0.007686
vt 0.457716 0.012689
vt 0.463932 0.019478
vt 0.469297 0.027848
vt 0.473650 0.037545
vt 0.476856 0.048273
vt 0.478820 0.059707
vt 0.479482 0.071499
vt 0.483801 0.071499
vt 0.484463 0.059707
vt 0.486427 0.048273
vt 0.489633 0.037545
vt 0.493986 0.027848
vt 0.499351 0.019478
vt 0.505567 0.012689
vt 0.512444 0.007686
vt 0.519773 0.004622
vt 0.527333 0.003591
vt 0.917592 0.003591
vt 0.925151 0.004622
vt 0.932480 0.007686
vt 0.939357 0.012689
vt 0.945573 0.019478
vt 0.950939 0.027848
vt 0.955291 0.037545
vt 0.958498 0.048273
vt 0.960462 0.059707
vt 0.961123 0.071499
vt 0.961123 0.928501
vt 0.960462 0.940293
vt 0.958498 0.951727
vt 0.955291 0.962455
vt 0.950939 0.972152
vt 0.945573 0.980522
vt 0.939358 0.987311
vt 0.932480 0.992314
vt 0.925151 0.995378
vt 0.917592 0.996409
vt 0.527333 0.996409
vt 0.519774 0.995378
vt 0.512444 0.992314
vt 0.505567 0.987311
vt 0.499351 0.980522
vt 0.493986 0.972152
vt 0.489633 0.962455
vt 0.486427 0.951727
vt 0.484463 0.940293
vt 0.483801 0.928501
vt 0.971922 0.712747
vt 0.997840 0.712747
vt 0.997840 0.967684
vt 0.971922 0.967684
vt 0.971922 0.709156
vt 0.997840 0.709156
vt 0.971922 0.705566
vt 0.997840 0.705566
vt 0.971922 0.701975
vt 0.997840 0.701975
vt 0.971922 0.698384
vt 0.997840 0.698384
vt 0.971922 0.694794
vt 0.997840 0.694794
vt 0.997840 0.982047
vt 0.971922 0.982047
vt 0.971922 0.978456
vt 0.997840 0.978456
vt 0.971922 0.974865
vt 0.997840 0.974865
vt 0.971922 0.971275
vt 0.997840 0.971275
vt 0.971922 0.211849
vt 0.997840 0.211849
vt 0.997840 0.468582
vt 0.971922 0.468582
vt 0.971922 0.197487
vt 0.997840 0.197487
vt 0.997840 0.201077
vt 0.971922 0.201077
vt 0.997840 0.204668
vt 0.971922 0.204668
vt 0.997840 0.208259
vt 0.971922 0.208259
vt 0.997840 0.482944
vt 0.971922 0.482944
vt 0.971922 0.479354
vt 0.997840 0.479354
vt 0.971922 0.475763
vt 0.997840 0.475763
vt 0.971922 0.472172
vt 0.997840 0.472172
vt 0.971922 0.499102
vt 0.997840 0.499102
vt 0.997840 0.680431
vt 0.971922 0.680431
vt 0.971922 0.495512
vt 0.997840 0.495512
vt 0.971922 0.491921
vt 0.997840 0.491921
vt 0.971922 0.490126
vt 0.997840 0.490126
vt 0.971922 0.486535
vt 0.997840 0.486535
vt 0.971922 0.691203
vt 0.997840 0.691203
vt 0.971922 0.687612
vt 0.997840 0.687612
vt 0.971922 0.684022
vt 0.997840 0.684022
vt 0.971922 -0.000000
vt 0.997840 -0.000000
vt 0.997840 0.181329
vt 0.971922 0.181329
vt 0.997840 0.184919
vt 0.971922 0.184919
vt 0.997840 0.188510
vt 0.971922 0.188510
vt 0.997840 0.192101
vt 0.971922 0.192101
vt 0.997840 0.195691
vt 0.971922 0.195691
vt 0.997840 1.000000
vt 0.971922 1.000000
vt 0.971922 0.996409
vt 0.997840 0.996409
vt 0.971922 0.992819
vt 0.997840 0.992819
vt 0.971922 0.989228
vt 0.997840 0.989228
vt 0.971922 0.985637
vt 0.997840 0.985637
vn 0.0000 1.0000 0.0000
vn 0.0000 -1.0000 -0.0000
vn -1.0000 0.0000 0.0000
vn -0.9962 0.0000 0.0872
vn -0.9659 0.0000 0.2588
vn -0.9063 0.0000 0.4226
vn -0.8192 -0.0000 0.5736
vn -0.7071 -0.0000 0.7071
vn -0.8192 0.0000 -0.5736
vn -0.9063 0.0000 -0.4226
vn -0.9659 0.0000 -0.2588
vn -0.9962 0.0000 -0.0872
vn 1.0000 0.0000 0.0000
vn 0.8192 -0.0000 -0.5736
vn 0.9063 0.0000 -0.4226
vn 0.9659 0.0000 -0.2588
vn 0.9962 0.0000 -0.0872
vn 0.8192 0.0000 0.5736
vn 0.9063 0.0000 0.4226
vn 0.9659 0.0000 0.2588
vn 0.9962 0.0000 0.0872
vn 0.0000 0.0000 1.0000
vn 0.0872 0.0000 0.9962
vn 0.2588 0.0000 0.9659
vn 0.4226 0.0000 0.9063
vn 0.5736 0.0000 0.8192
vn 0.7071 0.0000 0.7071
vn -0.5736 0.0000 0.8192
vn -0.4226 -0.0000 0.9063
vn -0.2588 -0.0000 0.9659
vn -0.0872 0.0000 0.9962
vn 0.0000 0.0000 -1.0000
vn 0.0872 0.0000 -0.9962
vn 0.2588 -0.0000 -0.9659
vn 0.4226 -0.0000 -0.9063
vn 0.5736 0.0000 -0.8192
vn 0.7071 -0.0000 -0.7071
vn -0.0872 0.0000 -0.9962
vn -0.2588 0.0000 -0.9659
vn -0.4226 0.0000 -0.9063
vn -0.5736 0.0000 -0.8192
vn -0.7071 0.0000 -0.7071
g Cube_Cube_top
s off
f 71/1/1 73/2/1 74/3/1 75/4/1 76/5/1 77/6/1 78/7/1 79/8/1 80/9/1 72/10/1 31/11/1 33/12/1 34/13/1 35/14/1 36/15/1 37/16/1 38/17/1 39/18/1 40/19/1 32/20/1 11/21/1 13/22/1 14/23/1 15/24/1 16/25/1 17/26/1 18/27/1 19/28/1 20/29/1 12/30/1 51/31/1 53/32/1 54/33/1 55/34/1 56/35/1 57/36/1 58/37/1 59/38/1 60/39/1 52/40/1
g Cube_Cube_bottom
f 21/41/2 23/42/2 24/43/2 25/44/2 26/45/2 27/46/2 28/47/2 29/48/2 30/49/2 22/50/2 61/51/2 63/52/2 64/53/2 65/54/2 66/55/2 67/56/2 68/57/2 69/58/2 70/59/2 62/60/2 41/61/2 43/62/2 44/63/2 45/64/2 46/65/2 47/66/2 48/67/2 49/68/2 50/69/2 42/70/2 1/71/2 3/72/2 4/73/2 5/74/2 6/75/2 7/76/2 8/77/2 9/78/2 10/79/2 2/80/2
g Cube_Cube_right
f 62/81/3 71/82/3 52/83/3 41/84/3
f 71/82/4 62/81/4 70/85/4 73/86/4
f 73/86/5 70/85/5 69/87/5 74/88/5
f 74/88/6 69/87/6 68/89/6 75/90/6
f 75/90/7 68/89/7 67/91/7 76/92/7
f 76/92/8 67/91/8 66/93/8 77/94/8
f 57/95/9 46/96/9 45/97/9 58/98/9
f 58/98/10 45/97/10 44/99/10 59/100/10
f 59/100/11 44/99/11 43/101/11 60/102/11
f 60/102/12 43/101/12 41/84/12 52/83/12
g Cube_Cube_left
f 2/103/13 11/104/13 32/105/13 21/106/13
f 7/107/14 16/108/14 15/109/14 8/110/14
f 8/110/15 15/109/15 14/111/15 9/112/15
f 9/112/16 14/111/16 13/113/16 10/114/16
f 10/114/17 13/113/17 11/104/17 2/103/17
f 37/115/18 26/116/18 25/117/18 38/118/18
f 38/118/19 25/117/19 24/119/19 39/120/19
f 39/120/20 24/119/20 23/121/20 40/122/20
f 40/122/21 23/121/21 21/106/21 32/105/21
g Cube_Cube_back
f 22/123/22 31/124/22 72/125/22 61/126/22
f 31/124/23 22/123/23 30/127/23 33/128/23
f 33/128/24 30/127/24 29/129/24 34/130/24
f 34/130/25 29/129/25 28/131/25 35/132/25
f 35/132/26 28/131/26 27/133/26 36/134/26
f 36/134/27 27/133/27 26/116/27 37/115/27
f 77/94/28 66/93/28 65/135/28 78/136/28
f 78/136/29 65/135/29 64/137/29 79/138/29
f 79/138/30 64/137/30 63/139/30 80/140/30
f 80/140/31 63/139/31 61/126/31 72/125/31
g Cube_Cube_front
f 42/141/32 51/142/32 12/143/32 1/144/32
f 1/144/33 12/143/33 20/145/33 3/146/33
f 3/146/34 20/145/34 19/147/34 4/148/34
f 4/148/35 19/147/35 18/149/35 5/150/35
f 5/150/36 18/149/36 17/151/36 6/152/36
f 6/152/37 17/151/37 16/108/37 7/107/37
f 51/153/38 42/154/38 50/155/38 53/156/38
f 53/156/39 50/155/39 49/157/39 54/158/39
f 54/158/40 49/157/40 48/159/40 55/160/40
f 55/160/41 48/159/41 47/161/41 56/162/41
f 56/162/42 47/161/42 46/96/42 57/95/42
