# Blender v2.79 (sub 0) OBJ File: 'street signs stop.blend'
# www.blender.org
o sign_sign_Cube_Cube_front-back_main_front-back
v 0.457199 -0.500000 0.189378
v 0.189378 -0.500000 0.457198
v -0.189378 -0.500000 0.457198
v -0.457198 -0.500000 0.189378
v -0.457198 -0.500000 -0.189378
v -0.189378 -0.500000 -0.457198
v 0.189378 -0.500000 -0.457198
v 0.457198 -0.500000 -0.189378
v 0.457198 -0.450000 -0.189378
v 0.189378 -0.450000 -0.457198
v -0.189378 -0.450000 -0.457199
v -0.457199 -0.450000 -0.189378
v -0.457198 -0.450000 0.189378
v -0.189378 -0.450000 0.457199
v 0.189378 -0.450000 0.457198
v 0.457199 -0.450000 0.189378
v 0.457199 -0.500000 0.189378
v 0.457198 -0.500000 -0.189378
v 0.457198 -0.450000 -0.189378
v 0.457199 -0.450000 0.189378
v -0.457198 -0.500000 0.189378
v -0.189378 -0.500000 0.457198
v -0.189378 -0.450000 0.457199
v -0.457198 -0.450000 0.189378
v 0.189378 -0.500000 -0.457198
v 0.189378 -0.450000 -0.457198
v -0.457198 -0.500000 -0.189378
v -0.457199 -0.450000 -0.189378
v -0.189378 -0.500000 -0.457198
v -0.189378 -0.450000 -0.457199
v 0.189378 -0.500000 0.457198
v 0.189378 -0.450000 0.457198
vt 0.500000 0.755763
vt 0.646447 1.000000
vt 0.853553 1.000000
vt 1.000000 0.755763
vt 1.000000 0.410360
vt 0.853553 0.166124
vt 0.646447 0.166124
vt 0.500000 0.410360
vt 0.000000 0.410360
vt 0.146447 0.166124
vt 0.353553 0.166124
vt 0.500000 0.410360
vt 0.500000 0.755763
vt 0.353553 1.000000
vt 0.146447 1.000000
vt 0.000000 0.755763
vt 0.625000 0.000000
vt 0.750000 0.000000
vt 0.750000 1.000000
vt 0.625000 1.000000
vt 0.250000 0.000000
vt 0.375000 0.000000
vt 0.375000 1.000000
vt 0.250000 1.000000
vt 0.875000 0.000000
vt 0.875000 1.000000
vt 0.125000 0.000000
vt 0.125000 1.000000
vt 0.000000 0.000000
vt 0.000000 1.000000
vt 0.500000 0.000000
vt 0.500000 1.000000
vt 1.000000 0.000000
vt 1.000000 1.000000
vn 0.0000 -1.0000 -0.0000
vn 0.0000 1.0000 0.0000
vn 0.9239 0.0000 0.3827
vn 0.9239 0.0000 -0.3827
vn -0.9239 -0.0000 0.3827
vn -0.3827 -0.0000 0.9239
vn 0.3827 -0.0000 -0.9239
vn -0.9239 -0.0000 -0.3827
vn -0.3827 -0.0000 -0.9239
vn 0.3827 -0.0000 0.9239
g sign_sign_Cube_Cube_front-back_main_front-back_front-back
s 1
f 1/1/1 2/2/1 3/3/1 4/4/1 5/5/1 6/6/1 7/7/1 8/8/1
f 9/9/2 10/10/2 11/11/2 12/12/2 13/13/2 14/14/2 15/15/2 16/16/2
g sign_sign_Cube_Cube_front-back_main_front-back_edges
f 17/17/3 18/18/4 19/19/4 20/20/3
f 21/21/5 22/22/6 23/23/6 24/24/5
f 18/18/4 25/25/7 26/26/7 19/19/4
f 27/27/8 21/21/5 24/24/5 28/28/8
f 29/29/9 27/27/8 28/28/8 30/30/9
f 31/31/10 17/17/3 20/20/3 32/32/10
f 22/22/6 31/31/10 32/32/10 23/23/6
f 25/25/7 29/33/9 30/34/9 26/26/7
