# Blender v2.79 (sub 0) OBJ File: 'street signs stop.blend'
# www.blender.org
o sign_sign_Cube_Cube_front-back_main_front-back
v 0.457199 -0.500000 0.189378
v 0.189378 -0.500000 0.457198
v -0.189378 -0.500000 0.457198
v -0.457198 -0.500000 0.189378
v -0.457198 -0.500000 -0.189378
v -0.189378 -0.500000 -0.457198
v 0.189378 -0.500000 -0.457198
v 0.457198 -0.500000 -0.189378
v 0.457198 -0.450000 -0.189378
v 0.189378 -0.450000 -0.457198
v -0.189378 -0.450000 -0.457199
v -0.457199 -0.450000 -0.189378
v -0.457198 -0.450000 0.189378
v -0.189378 -0.450000 0.457199
v 0.189378 -0.450000 0.457198
v 0.457199 -0.450000 0.189378
v 0.457199 -0.500000 0.189378
v 0.457198 -0.500000 -0.189378
v 0.457198 -0.450000 -0.189378
v 0.457199 -0.450000 0.189378
v -0.457198 -0.500000 0.189378
v -0.189378 -0.500000 0.457198
v -0.189378 -0.450000 0.457199
v -0.457198 -0.450000 0.189378
v 0.189378 -0.500000 -0.457198
v 0.189378 -0.450000 -0.457198
v -0.457198 -0.500000 -0.189378
v -0.457199 -0.450000 -0.189378
v -0.189378 -0.500000 -0.457198
v -0.189378 -0.450000 -0.457199
v 0.189378 -0.500000 0.457198
v 0.189378 -0.450000 0.457198
v 0.203600 -0.500000 -0.486300
v 0.203600 -0.450000 -0.486300
v -0.203600 -0.450000 -0.486300
v -0.203600 -0.500000 -0.486300
v -0.228600 -0.500000 -0.613700
v -0.228600 -0.500000 -0.511300
v -0.228600 -0.450000 -0.511300
v -0.228600 -0.450000 -0.613700
v -0.203600 -0.500000 -0.638700
v -0.203600 -0.450000 -0.638700
v 0.203600 -0.450000 -0.638700
v 0.203600 -0.500000 -0.638700
v 0.211325 -0.450000 -0.637476
v 0.211325 -0.500000 -0.637476
v 0.218295 -0.450000 -0.633925
v 0.218295 -0.500000 -0.633925
v 0.223825 -0.450000 -0.628395
v 0.223825 -0.500000 -0.628395
v 0.227376 -0.450000 -0.621425
v 0.227376 -0.500000 -0.621425
v 0.228600 -0.450000 -0.613700
v 0.228600 -0.500000 -0.613700
v 0.211325 -0.500000 -0.487524
v 0.211325 -0.450000 -0.487524
v 0.218295 -0.500000 -0.491075
v 0.218295 -0.450000 -0.491075
v 0.223825 -0.500000 -0.496605
v 0.223825 -0.450000 -0.496605
v 0.227376 -0.500000 -0.503575
v 0.227376 -0.450000 -0.503575
v 0.228600 -0.500000 -0.511300
v 0.228600 -0.450000 -0.511300
v -0.211325 -0.450000 -0.487524
v -0.211325 -0.500000 -0.487524
v -0.218295 -0.450000 -0.491075
v -0.218295 -0.500000 -0.491075
v -0.223825 -0.450000 -0.496605
v -0.223825 -0.500000 -0.496605
v -0.227376 -0.450000 -0.503575
v -0.227376 -0.500000 -0.503575
v -0.211325 -0.500000 -0.637476
v -0.211325 -0.450000 -0.637476
v -0.218295 -0.500000 -0.633925
v -0.218295 -0.450000 -0.633925
v -0.223825 -0.500000 -0.628395
v -0.223825 -0.450000 -0.628395
v -0.227376 -0.500000 -0.621425
v -0.227376 -0.450000 -0.621425
v -0.228600 -0.450000 -0.511300
v -0.227376 -0.450000 -0.503575
v -0.223825 -0.450000 -0.496605
v -0.218295 -0.450000 -0.491075
v -0.211325 -0.450000 -0.487524
v -0.203600 -0.450000 -0.486300
v 0.203600 -0.450000 -0.486300
v 0.211325 -0.450000 -0.487524
v 0.218295 -0.450000 -0.491075
v 0.223825 -0.450000 -0.496605
v 0.227376 -0.450000 -0.503575
v 0.228600 -0.450000 -0.511300
v 0.228600 -0.450000 -0.613700
v 0.227376 -0.450000 -0.621425
v 0.223825 -0.450000 -0.628395
v 0.218295 -0.450000 -0.633925
v 0.211325 -0.450000 -0.637476
v 0.203600 -0.450000 -0.638700
v -0.203600 -0.450000 -0.638700
v -0.211325 -0.450000 -0.637476
v -0.218295 -0.450000 -0.633925
v -0.223825 -0.450000 -0.628395
v -0.227376 -0.450000 -0.621425
v -0.228600 -0.450000 -0.613700
v 0.228600 -0.500000 -0.511300
v 0.227376 -0.500000 -0.503575
v 0.223825 -0.500000 -0.496605
v 0.218295 -0.500000 -0.491075
v 0.211325 -0.500000 -0.487524
v 0.203600 -0.500000 -0.486300
v -0.203600 -0.500000 -0.486300
v -0.211325 -0.500000 -0.487524
v -0.218295 -0.500000 -0.491075
v -0.223825 -0.500000 -0.496605
v -0.227376 -0.500000 -0.503575
v -0.228600 -0.500000 -0.511300
v -0.228600 -0.500000 -0.613700
v -0.227376 -0.500000 -0.621425
v -0.223825 -0.500000 -0.628395
v -0.218295 -0.500000 -0.633925
v -0.211325 -0.500000 -0.637476
v -0.203600 -0.500000 -0.638700
v 0.203600 -0.500000 -0.638700
v 0.211325 -0.500000 -0.637476
v 0.218295 -0.500000 -0.633925
v 0.223825 -0.500000 -0.628395
v 0.227376 -0.500000 -0.621425
v 0.228600 -0.500000 -0.613700
vt 0.500000 0.755763
vt 0.646447 1.000000
vt 0.853553 1.000000
vt 1.000000 0.755763
vt 1.000000 0.410360
vt 0.853553 0.166124
vt 0.646447 0.166124
vt 0.500000 0.410360
vt 0.000000 0.410360
vt 0.146447 0.166124
vt 0.353553 0.166124
vt 0.500000 0.410360
vt 0.500000 0.755763
vt 0.353553 1.000000
vt 0.146447 1.000000
vt 0.000000 0.755763
vt 0.375000 0.136684
vt 0.374331 0.144775
vt 0.372389 0.152074
vt 0.369365 0.157866
vt 0.365554 0.161585
vt 0.361330 0.162865
vt 0.138670 0.162865
vt 0.134446 0.161585
vt 0.130635 0.157866
vt 0.127611 0.152074
vt 0.125669 0.144775
vt 0.125000 0.136684
vt 0.125000 0.029440
vt 0.125669 0.021349
vt 0.127611 0.014050
vt 0.130635 0.008258
vt 0.134446 0.004539
vt 0.138670 0.003257
vt 0.361330 0.003257
vt 0.365554 0.004539
vt 0.369365 0.008258
vt 0.372389 0.014050
vt 0.374331 0.021349
vt 0.375000 0.029440
vt 0.625000 0.136684
vt 0.625669 0.144775
vt 0.627611 0.152074
vt 0.630635 0.157866
vt 0.634446 0.161585
vt 0.638670 0.162866
vt 0.861330 0.162866
vt 0.865554 0.161585
vt 0.869365 0.157866
vt 0.872389 0.152074
vt 0.874331 0.144775
vt 0.875000 0.136684
vt 0.875000 0.029440
vt 0.874331 0.021349
vt 0.872389 0.014050
vt 0.869365 0.008258
vt 0.865554 0.004539
vt 0.861330 0.003258
vt 0.638670 0.003258
vt 0.634446 0.004539
vt 0.630635 0.008258
vt 0.627611 0.014050
vt 0.625669 0.021349
vt 0.625000 0.029440
vt 0.625000 0.000000
vt 0.750000 0.000000
vt 0.750000 1.000000
vt 0.625000 1.000000
vt 0.250000 0.000000
vt 0.375000 0.000000
vt 0.375000 1.000000
vt 0.250000 1.000000
vt 0.875000 0.000000
vt 0.875000 1.000000
vt 0.125000 0.000000
vt 0.125000 1.000000
vt 0.000000 0.000000
vt 0.000000 1.000000
vt 0.500000 0.000000
vt 0.500000 1.000000
vt 1.000000 0.000000
vt 1.000000 1.000000
vt 0.054681 0.000000
vt 0.054681 0.999996
vt 0.945319 0.999996
vt 0.945319 0.000000
vt 0.164042 0.000000
vt 0.835958 0.000000
vt 0.835958 1.000000
vt 0.164042 1.000000
vt 0.945319 0.000003
vt 0.945319 1.000000
vt 0.054681 1.000000
vt 0.054681 0.000003
vt 0.037783 1.000000
vt 0.037783 0.000003
vt 0.022540 1.000000
vt 0.022540 0.000003
vt 0.067621 1.000000
vt 0.067621 0.000000
vt 0.113350 1.000000
vt 0.113350 0.000000
vt 0.164042 1.000000
vt 0.164042 0.000000
vt 0.037783 0.000000
vt 0.037783 0.999996
vt 0.022540 0.000000
vt 0.022540 0.999996
vt 0.000000 0.000000
vt 0.000000 0.999996
vt 0.932379 1.000000
vt 0.932379 0.000000
vt 0.886650 0.000000
vt 0.886650 1.000000
vt 0.835958 0.000000
vt 0.835958 1.000000
vt 0.962217 0.999996
vt 0.962217 0.000000
vt 0.977460 0.999996
vt 0.977460 0.000000
vt 0.932379 1.000000
vt 0.932379 0.000000
vt 0.886650 1.000000
vt 0.886650 0.000000
vt 0.962217 0.000003
vt 0.962217 1.000000
vt 0.977460 0.000003
vt 0.977460 1.000000
vt 1.000000 0.000003
vt 1.000000 1.000000
vt 0.067621 1.000000
vt 0.067621 0.000000
vt 0.113350 0.000000
vt 0.113350 1.000000
vn 0.0000 -1.0000 -0.0000
vn 0.0000 1.0000 0.0000
vn 0.9239 0.0000 0.3827
vn 0.9239 0.0000 -0.3827
vn -0.9239 -0.0000 0.3827
vn -0.3827 -0.0000 0.9239
vn 0.3827 -0.0000 -0.9239
vn -0.9239 -0.0000 -0.3827
vn -0.3827 -0.0000 -0.9239
vn 0.3827 -0.0000 0.9239
vn 0.0785 -0.0000 0.9969
vn -0.0785 0.0000 0.9969
vn -0.9969 0.0000 -0.0785
vn -0.9969 0.0000 0.0785
vn -0.0785 0.0000 -0.9969
vn 0.0785 0.0000 -0.9969
vn 0.3090 0.0000 -0.9511
vn 0.5878 0.0000 -0.8090
vn 0.8090 0.0000 -0.5878
vn 0.9511 0.0000 -0.3090
vn 0.9969 0.0000 -0.0785
vn 0.3090 -0.0000 0.9511
vn 0.5878 -0.0000 0.8090
vn 0.8090 0.0000 0.5878
vn 0.9511 0.0000 0.3090
vn 0.9969 0.0000 0.0785
vn -0.3090 0.0000 0.9511
vn -0.5878 0.0000 0.8090
vn -0.8090 0.0000 0.5878
vn -0.9511 0.0000 0.3090
vn -0.3090 0.0000 -0.9511
vn -0.5878 0.0000 -0.8090
vn -0.8090 0.0000 -0.5878
vn -0.9511 0.0000 -0.3090
g sign_sign_Cube_Cube_front-back_main_front-back_front-back
s 1
f 1/1/1 2/2/1 3/3/1 4/4/1 5/5/1 6/6/1 7/7/1 8/8/1
f 9/9/2 10/10/2 11/11/2 12/12/2 13/13/2 14/14/2 15/15/2 16/16/2
f 81/17/2 82/18/2 83/19/2 84/20/2 85/21/2 86/22/2 87/23/2 88/24/2 89/25/2 90/26/2 91/27/2 92/28/2 93/29/2 94/30/2 95/31/2 96/32/2 97/33/2 98/34/2 99/35/2 100/36/2 101/37/2 102/38/2 103/39/2 104/40/2
f 105/41/1 106/42/1 107/43/1 108/44/1 109/45/1 110/46/1 111/47/1 112/48/1 113/49/1 114/50/1 115/51/1 116/52/1 117/53/1 118/54/1 119/55/1 120/56/1 121/57/1 122/58/1 123/59/1 124/60/1 125/61/1 126/62/1 127/63/1 128/64/1
g sign_sign_Cube_Cube_front-back_main_front-back_edges
f 17/65/3 18/66/4 19/67/4 20/68/3
f 21/69/5 22/70/6 23/71/6 24/72/5
f 18/66/4 25/73/7 26/74/7 19/67/4
f 27/75/8 21/69/5 24/72/5 28/76/8
f 29/77/9 27/75/8 28/76/8 30/78/9
f 31/79/10 17/65/3 20/68/3 32/80/10
f 22/70/6 31/79/10 32/80/10 23/71/6
f 25/73/7 29/81/9 30/82/9 26/74/7
f 33/83/11 34/84/11 35/85/12 36/86/12
f 37/87/13 38/88/14 39/89/14 40/90/13
f 41/91/15 42/92/15 43/93/16 44/94/16
f 44/94/16 43/93/16 45/95/17 46/96/17
f 46/96/17 45/95/17 47/97/18 48/98/18
f 48/98/18 47/97/18 49/99/19 50/100/19
f 50/100/19 49/99/19 51/101/20 52/102/20
f 52/102/20 51/101/20 53/103/21 54/104/21
f 34/84/11 33/83/11 55/105/22 56/106/22
f 56/106/22 55/105/22 57/107/23 58/108/23
f 58/108/23 57/107/23 59/109/24 60/110/24
f 60/111/24 59/112/24 61/113/25 62/114/25
f 62/114/25 61/113/25 63/115/26 64/116/26
f 36/86/12 35/85/12 65/117/27 66/118/27
f 66/118/27 65/117/27 67/119/28 68/120/28
f 68/120/28 67/119/28 69/121/29 70/122/29
f 70/122/29 69/121/29 71/123/30 72/124/30
f 72/124/30 71/123/30 39/89/14 38/88/14
f 42/92/15 41/91/15 73/125/31 74/126/31
f 74/126/31 73/125/31 75/127/32 76/128/32
f 76/128/32 75/127/32 77/129/33 78/130/33
f 78/131/33 77/132/33 79/133/34 80/134/34
f 80/134/34 79/133/34 37/87/13 40/90/13
f 63/115/26 54/104/21 53/103/21 64/116/26
