# Blender v2.79 (sub 0) OBJ File: 'street signs stop.blend'
# www.blender.org
o sign.001_sign_Cube_Cube_front-back_main_front-back.001
v 0.457199 -0.812500 0.189378
v 0.189378 -0.812500 0.457198
v -0.189378 -0.812500 0.457198
v -0.457198 -0.812500 0.189378
v -0.457198 -0.812500 -0.189378
v -0.189378 -0.812500 -0.457198
v 0.189378 -0.812500 -0.457198
v 0.457198 -0.812500 -0.189378
v 0.457198 -0.762500 -0.189378
v 0.189378 -0.762500 -0.457198
v -0.189378 -0.762500 -0.457199
v -0.457199 -0.762500 -0.189378
v -0.457198 -0.762500 0.189378
v -0.189378 -0.762500 0.457199
v 0.189378 -0.762500 0.457198
v 0.457199 -0.762500 0.189378
v 0.457199 -0.812500 0.189378
v 0.457198 -0.812500 -0.189378
v 0.457198 -0.762500 -0.189378
v 0.457199 -0.762500 0.189378
v -0.457198 -0.812500 0.189378
v -0.189378 -0.812500 0.457198
v -0.189378 -0.762500 0.457199
v -0.457198 -0.762500 0.189378
v 0.189378 -0.812500 -0.457198
v 0.189378 -0.762500 -0.457198
v -0.457198 -0.812500 -0.189378
v -0.457199 -0.762500 -0.189378
v -0.189378 -0.812500 -0.457198
v -0.189378 -0.762500 -0.457199
v 0.189378 -0.812500 0.457198
v 0.189378 -0.762500 0.457198
v -0.125000 -0.812500 -0.187500
v -0.125000 -0.812500 0.187500
v 0.125000 -0.812500 -0.187500
v 0.125000 -0.812500 0.187500
v -0.125000 -1.125000 -0.187500
v -0.125000 -0.812500 -0.125000
v -0.125000 -1.125000 -0.125000
v -0.164063 -0.812500 -0.125000
v -0.164063 -1.125000 -0.125000
v -0.164063 -0.812500 -0.187500
v -0.164063 -1.125000 -0.187500
v -0.125000 -1.125000 0.125000
v -0.125000 -0.812500 0.125000
v -0.125000 -1.125000 0.187500
v -0.164063 -0.812500 0.187500
v -0.164063 -1.125000 0.187500
v -0.164063 -0.812500 0.125000
v -0.164063 -1.125000 0.125000
v 0.164062 -1.125000 -0.187500
v 0.164062 -0.812500 -0.187500
v 0.164062 -0.812500 -0.125000
v 0.164062 -1.125000 -0.125000
v 0.125000 -0.812500 -0.125000
v 0.125000 -1.125000 -0.125000
v 0.125000 -1.125000 -0.187500
v 0.164062 -1.125000 0.125000
v 0.164062 -0.812500 0.125000
v 0.164062 -0.812500 0.187500
v 0.164062 -1.125000 0.187500
v 0.125000 -1.125000 0.187500
v 0.125000 -0.812500 0.125000
v 0.125000 -1.125000 0.125000
v -0.164063 -1.164063 -0.187500
v 0.164062 -1.164063 -0.187500
v 0.164062 -1.164063 -0.125000
v -0.164063 -1.164063 -0.125000
v -0.164063 -1.164063 0.125000
v 0.164062 -1.164063 0.125000
v 0.164062 -1.164063 0.187500
v -0.164063 -1.164063 0.187500
v -0.125000 -0.812500 -0.187500
v -0.125000 -0.875000 -0.187500
v -0.125000 -0.875000 0.187500
v -0.125000 -0.812500 0.187500
v 0.125000 -0.812500 -0.187500
v 0.125000 -0.812500 0.187500
v 0.125000 -0.875000 0.187500
v 0.125000 -0.875000 -0.187500
vt 0.500000 0.755763
vt 0.646447 1.000000
vt 0.853553 1.000000
vt 1.000000 0.755763
vt 1.000000 0.410360
vt 0.853553 0.166124
vt 0.646447 0.166124
vt 0.500000 0.410360
vt 0.000000 0.410360
vt 0.146447 0.166124
vt 0.353553 0.166124
vt 0.500000 0.410360
vt 0.500000 0.755763
vt 0.353553 1.000000
vt 0.146447 1.000000
vt 0.000000 0.755763
vt 0.625000 0.000000
vt 0.750000 0.000000
vt 0.750000 1.000000
vt 0.625000 1.000000
vt 0.250000 0.000000
vt 0.375000 0.000000
vt 0.375000 1.000000
vt 0.250000 1.000000
vt 0.875000 0.000000
vt 0.875000 1.000000
vt 0.125000 0.000000
vt 0.125000 1.000000
vt 0.000000 0.000000
vt 0.000000 1.000000
vt 0.500000 0.000000
vt 0.500000 1.000000
vt 1.000000 0.000000
vt 1.000000 1.000000
vt 0.312500 0.640625
vt 0.312500 0.992188
vt 0.453125 0.992188
vt 0.453125 0.640625
vt 0.234375 0.640625
vt 0.234375 0.992188
vt 0.312500 0.992188
vt 0.312500 0.640625
vt 0.234375 0.640625
vt 0.234375 0.992188
vt 0.093750 0.992188
vt 0.093750 0.640625
vt 0.015625 0.992188
vt 0.015625 0.640625
vt 0.312500 0.640625
vt 0.312500 0.992188
vt 0.453125 0.992188
vt 0.453125 0.640625
vt 0.234375 0.640625
vt 0.234375 0.992188
vt 0.312500 0.992188
vt 0.312500 0.640625
vt 0.234375 0.640625
vt 0.234375 0.992188
vt 0.093750 0.992188
vt 0.093750 0.640625
vt 0.015625 0.992188
vt 0.015625 0.640625
vt 0.312500 0.640625
vt 0.312500 0.992188
vt 0.453125 0.992188
vt 0.453125 0.640625
vt 0.234375 0.640625
vt 0.234375 0.992188
vt 0.312500 0.992188
vt 0.312500 0.640625
vt 0.234375 0.640625
vt 0.234375 0.992188
vt 0.093750 0.992188
vt 0.093750 0.640625
vt 0.015625 0.992188
vt 0.015625 0.640625
vt 0.312500 0.640625
vt 0.312500 0.992188
vt 0.453125 0.992188
vt 0.453125 0.640625
vt 0.234375 0.640625
vt 0.234375 0.992188
vt 0.312500 0.992188
vt 0.312500 0.640625
vt 0.234375 0.640625
vt 0.234375 0.992188
vt 0.093750 0.992188
vt 0.093750 0.640625
vt 0.015625 0.992188
vt 0.015625 0.640625
vt 0.781250 0.664062
vt 0.781250 0.992188
vt 0.921875 0.992188
vt 0.921875 0.664062
vt 0.484375 0.664062
vt 0.484375 0.992188
vt 0.562500 0.992188
vt 0.562500 0.664062
vt 0.703125 0.992188
vt 0.703125 0.664062
vt 0.234375 0.593750
vt 0.093750 0.593750
vt 0.453125 0.593750
vt 0.312500 0.593750
vt 0.781250 0.664062
vt 0.781250 0.992188
vt 0.921875 0.992188
vt 0.921875 0.664062
vt 0.484375 0.664062
vt 0.484375 0.992188
vt 0.562500 0.992188
vt 0.562500 0.664062
vt 0.703125 0.992188
vt 0.703125 0.664062
vt 0.234375 0.593750
vt 0.093750 0.593750
vt 0.453125 0.593750
vt 0.312500 0.593750
vt 0.843750 0.507812
vt 0.703125 0.507812
vt 0.703125 0.093750
vt 0.843750 0.093750
vt 0.015625 0.507812
vt 0.015625 0.093750
vt 0.156250 0.093750
vt 0.156250 0.507812
vt 0.156250 0.031250
vt 0.703125 0.031250
vt 0.703125 0.578125
vt 0.156250 0.578125
vn 0.0000 -1.0000 -0.0000
vn 0.0000 1.0000 -0.0000
vn 0.9239 0.0000 0.3827
vn 0.9239 0.0000 -0.3827
vn -0.9239 -0.0000 0.3827
vn -0.3827 -0.0000 0.9239
vn 0.3827 -0.0000 -0.9239
vn -0.9239 -0.0000 -0.3827
vn -0.3827 -0.0000 -0.9239
vn 0.3827 -0.0000 0.9239
vn 1.0000 -0.0000 -0.0000
vn 0.0000 -0.0000 1.0000
vn -1.0000 -0.0000 0.0000
vn 0.0000 0.0000 -1.0000
g sign.001_sign_Cube_Cube_front-back_main_front-back.001_front-back
s 1
f 1/1/1 2/2/1 3/3/1 4/4/1 5/5/1 6/6/1 7/7/1 8/8/1
f 9/9/2 10/10/2 11/11/2 12/12/2 13/13/2 14/14/2 15/15/2 16/16/2
g sign.001_sign_Cube_Cube_front-back_main_front-back.001_edges
f 17/17/3 18/18/4 19/19/4 20/20/3
f 21/21/5 22/22/6 23/23/6 24/24/5
f 18/18/4 25/25/7 26/26/7 19/19/4
f 27/27/8 21/21/5 24/24/5 28/28/8
f 29/29/9 27/27/8 28/28/8 30/30/9
f 31/31/10 17/17/3 20/20/3 32/32/10
f 22/22/6 31/31/10 32/32/10 23/23/6
f 25/25/7 29/33/9 30/34/9 26/26/7
g sign.001_sign_Cube_Cube_front-back_main_front-back.001_pole-mount
f 37/35/11 33/36/11 38/37/11 39/38/11
f 39/39/12 38/40/12 40/41/12 41/42/12
f 41/43/13 40/44/13 42/45/13 43/46/13
f 43/46/14 42/45/14 33/47/14 37/48/14
f 44/49/11 45/50/11 34/51/11 46/52/11
f 46/53/12 34/54/12 47/55/12 48/56/12
f 48/57/13 47/58/13 49/59/13 50/60/13
f 50/60/14 49/59/14 45/61/14 44/62/14
f 51/63/11 52/64/11 53/65/11 54/66/11
f 54/67/12 53/68/12 55/69/12 56/70/12
f 56/71/13 55/72/13 35/73/13 57/74/13
f 57/74/14 35/73/14 52/75/14 51/76/14
f 58/77/11 59/78/11 60/79/11 61/80/11
f 61/81/12 60/82/12 36/83/12 62/84/12
f 62/85/13 36/86/13 63/87/13 64/88/13
f 64/88/14 63/87/14 59/89/14 58/90/14
f 65/91/1 66/92/1 67/93/1 68/94/1
f 68/95/12 67/96/12 54/97/12 41/98/12
f 41/98/2 54/97/2 51/99/2 43/100/2
f 43/100/14 51/99/14 66/92/14 65/91/14
f 68/101/13 41/43/13 43/46/13 65/102/13
f 54/66/11 67/103/11 66/104/11 51/63/11
f 69/105/1 70/106/1 71/107/1 72/108/1
f 72/109/12 71/110/12 61/111/12 48/112/12
f 48/112/2 61/111/2 58/113/2 50/114/2
f 50/114/14 58/113/14 70/106/14 69/105/14
f 72/115/13 48/57/13 50/60/13 69/116/13
f 61/80/11 71/117/11 70/118/11 58/77/11
f 73/119/13 74/120/13 75/121/13 76/122/13
f 77/123/11 78/124/11 79/125/11 80/126/11
f 75/121/12 79/125/12 78/127/12 76/128/12
f 73/129/14 77/130/14 80/126/14 74/120/14
f 74/120/1 80/126/1 79/125/1 75/121/1
