# Blender v2.79 (sub 0) OBJ File: '000 Basic square 100x100x5 cm sign.blend'
# www.blender.org
o Cube_Cube_None.004
v -0.304800 0.428600 0.434375
v -0.302353 0.444051 0.434375
v -0.295251 0.457989 0.434375
v -0.284189 0.469051 0.434375
v -0.270251 0.476153 0.434375
v -0.254800 0.478600 0.434375
v 0.254800 0.478600 0.434375
v 0.270251 0.476153 0.434375
v 0.284189 0.469051 0.434375
v 0.295251 0.457989 0.434375
v 0.302353 0.444051 0.434375
v 0.304800 0.428600 0.434375
v 0.304800 0.071400 0.434375
v 0.302353 0.055949 0.434375
v 0.295251 0.042011 0.434375
v 0.284189 0.030949 0.434375
v 0.270251 0.023847 0.434375
v 0.254800 0.021400 0.434375
v -0.254800 0.021400 0.434375
v -0.270251 0.023847 0.434375
v -0.284189 0.030949 0.434375
v -0.295251 0.042011 0.434375
v -0.302353 0.055949 0.434375
v -0.304800 0.071400 0.434375
vt 1.000000 0.890639
vt 0.995986 0.924433
vt 0.984335 0.954920
vt 0.966190 0.979114
vt 0.943325 0.994648
vt 0.917979 1.000000
vt 0.082021 1.000000
vt 0.056675 0.994648
vt 0.033810 0.979114
vt 0.015665 0.954920
vt 0.004014 0.924433
vt 0.000000 0.890639
vt 0.000000 0.109361
vt 0.004014 0.075567
vt 0.015665 0.045080
vt 0.033810 0.020886
vt 0.056675 0.005353
vt 0.082021 0.000000
vt 0.917979 0.000000
vt 0.943325 0.005353
vt 0.966190 0.020886
vt 0.984335 0.045080
vt 0.995986 0.075567
vt 1.000000 0.109361
vn -0.0000 0.0000 -1.0000
g Cube_Cube_None.004_Cube_Cube_None.004_None
s 1
f 1/1/1 2/2/1 3/3/1 4/4/1 5/5/1 6/6/1 7/7/1 8/8/1 9/9/1 10/10/1 11/11/1 12/12/1 13/13/1 14/14/1 15/15/1 16/16/1 17/17/1 18/18/1 19/19/1 20/20/1 21/21/1 22/22/1 23/23/1 24/24/1
