# Blender v2.79 (sub 0) OBJ File: 'street signs warning_onpole.blend'
# www.blender.org
o Cube
v 0.448100 -0.750000 0.029396
v 0.448100 -0.750000 -0.029396
v 0.452202 -0.750000 0.024436
v 0.455502 -0.750000 0.018873
v 0.457919 -0.750000 0.012847
v 0.459394 -0.750000 0.006503
v 0.459889 -0.750000 0.000000
v 0.459394 -0.750000 -0.006503
v 0.457919 -0.750000 -0.012847
v 0.455502 -0.750000 -0.018873
v 0.452202 -0.750000 -0.024436
v 0.448100 -0.812500 -0.029396
v 0.448100 -0.812500 0.029396
v 0.452202 -0.812500 -0.024436
v 0.455502 -0.812500 -0.018873
v 0.457919 -0.812500 -0.012847
v 0.459394 -0.812500 -0.006503
v 0.459889 -0.812500 0.000000
v 0.459394 -0.812500 0.006503
v 0.457919 -0.812500 0.012847
v 0.455502 -0.812500 0.018873
v 0.452202 -0.812500 0.024436
v 0.028463 -0.750000 -0.462792
v -0.028463 -0.750000 -0.462792
v 0.023660 -0.750000 -0.467028
v 0.018274 -0.750000 -0.470437
v 0.012439 -0.750000 -0.472933
v 0.006297 -0.750000 -0.474456
v -0.000000 -0.750000 -0.474968
v -0.006297 -0.750000 -0.474456
v -0.012439 -0.750000 -0.472933
v -0.018274 -0.750000 -0.470437
v -0.023660 -0.750000 -0.467028
v -0.448100 -0.750000 -0.029396
v -0.448100 -0.750000 0.029396
v -0.452202 -0.750000 -0.024436
v -0.455502 -0.750000 -0.018873
v -0.457919 -0.750000 -0.012847
v -0.459394 -0.750000 -0.006503
v -0.459889 -0.750000 0.000000
v -0.459394 -0.750000 0.006503
v -0.457919 -0.750000 0.012847
v -0.455502 -0.750000 0.018873
v -0.452202 -0.750000 0.024436
v -0.028463 -0.750000 0.462792
v 0.028463 -0.750000 0.462792
v -0.023660 -0.750000 0.467028
v -0.018274 -0.750000 0.470437
v -0.012439 -0.750000 0.472933
v -0.006297 -0.750000 0.474456
v 0.000000 -0.750000 0.474968
v 0.006297 -0.750000 0.474456
v 0.012439 -0.750000 0.472933
v 0.018274 -0.750000 0.470437
v 0.023660 -0.750000 0.467028
v -0.448100 -0.812500 0.029396
v -0.448100 -0.812500 -0.029396
v -0.452202 -0.812500 0.024436
v -0.455502 -0.812500 0.018873
v -0.457919 -0.812500 0.012847
v -0.459394 -0.812500 0.006503
v -0.459889 -0.812500 0.000000
v -0.459394 -0.812500 -0.006503
v -0.457919 -0.812500 -0.012847
v -0.455502 -0.812500 -0.018873
v -0.452202 -0.812500 -0.024436
v -0.028463 -0.812500 -0.462792
v 0.028463 -0.812500 -0.462792
v -0.023660 -0.812500 -0.467028
v -0.018274 -0.812500 -0.470437
v -0.012439 -0.812500 -0.472933
v -0.006297 -0.812500 -0.474456
v -0.000000 -0.812500 -0.474968
v 0.006297 -0.812500 -0.474456
v 0.012439 -0.812500 -0.472933
v 0.018274 -0.812500 -0.470437
v 0.023660 -0.812500 -0.467028
v 0.028463 -0.812500 0.462792
v -0.028463 -0.812500 0.462792
v 0.023660 -0.812500 0.467028
v 0.018274 -0.812500 0.470437
v 0.012439 -0.812500 0.472933
v 0.006297 -0.812500 0.474456
v -0.000000 -0.812500 0.474968
v -0.006297 -0.812500 0.474456
v -0.012439 -0.812500 0.472933
v -0.018274 -0.812500 0.470437
v -0.023660 -0.812500 0.467028
v -0.125000 -0.812500 -0.187500
v -0.125000 -0.875000 -0.187500
v -0.125000 -0.812500 0.187500
v -0.125000 -0.875000 0.187500
v 0.125000 -0.812500 0.187500
v 0.125000 -0.812500 -0.187500
v 0.125000 -0.875000 -0.187500
v 0.125000 -0.875000 0.187500
v -0.125000 -1.125000 -0.187500
v -0.125000 -0.812500 -0.187500
v -0.125000 -1.125000 -0.125000
v -0.125000 -0.812500 -0.125000
v -0.164063 -1.125000 -0.187500
v -0.164063 -0.812500 -0.187500
v -0.164063 -1.125000 -0.125000
v -0.164063 -0.812500 -0.125000
v -0.125000 -1.125000 0.125000
v -0.125000 -0.812500 0.125000
v -0.125000 -1.125000 0.187500
v -0.125000 -0.812500 0.187500
v -0.164063 -1.125000 0.125000
v -0.164063 -0.812500 0.125000
v -0.164063 -1.125000 0.187500
v -0.164063 -0.812500 0.187500
v 0.164062 -1.125000 -0.187500
v 0.164062 -0.812500 -0.187500
v 0.164062 -1.125000 -0.125000
v 0.164062 -0.812500 -0.125000
v 0.125000 -1.125000 -0.187500
v 0.125000 -0.812500 -0.187500
v 0.125000 -1.125000 -0.125000
v 0.125000 -0.812500 -0.125000
v 0.164062 -1.125000 0.125000
v 0.164062 -0.812500 0.125000
v 0.164062 -1.125000 0.187500
v 0.164062 -0.812500 0.187500
v 0.125000 -1.125000 0.125000
v 0.125000 -0.812500 0.125000
v 0.125000 -1.125000 0.187500
v 0.125000 -0.812500 0.187500
v -0.164063 -1.164063 -0.187500
v 0.164062 -1.164063 -0.187500
v -0.164063 -1.164063 -0.125000
v 0.164062 -1.164063 -0.125000
v -0.164063 -1.125000 -0.187500
v 0.164062 -1.125000 -0.187500
v -0.164063 -1.125000 -0.125000
v 0.164062 -1.125000 -0.125000
v -0.164063 -1.164063 0.125000
v 0.164062 -1.164063 0.125000
v -0.164063 -1.164063 0.187500
v 0.164062 -1.164063 0.187500
v -0.164063 -1.125000 0.125000
v 0.164062 -1.125000 0.125000
v -0.164063 -1.125000 0.187500
v 0.164062 -1.125000 0.187500
vt 0.920146 0.499300
vt 0.988043 0.499300
vt 0.988043 0.721828
vt 0.920146 0.721828
vt 0.988043 0.724203
vt 0.920146 0.724203
vt 0.988043 0.726588
vt 0.920146 0.726588
vt 0.988043 0.728984
vt 0.920146 0.728984
vt 0.988043 0.731386
vt 0.920146 0.731386
vt 0.988043 0.733792
vt 0.920146 0.733792
vt 0.988043 0.253333
vt 0.920146 0.253333
vt 0.920146 0.250959
vt 0.988043 0.250959
vt 0.920146 0.248573
vt 0.988043 0.248573
vt 0.920146 0.246178
vt 0.988043 0.246178
vt 0.920146 0.243776
vt 0.988043 0.243776
vt 0.920146 0.241370
vt 0.988043 0.241370
vt 0.920146 0.475861
vt 0.988043 0.475861
vt 0.988043 0.478224
vt 0.920146 0.478224
vt 0.988043 0.480575
vt 0.920146 0.480575
vt 0.988043 0.482916
vt 0.920146 0.482916
vt 0.988043 0.485250
vt 0.920146 0.485250
vt 0.988043 0.487581
vt 0.920146 0.487581
vt 0.988043 0.489911
vt 0.920146 0.489911
vt 0.988043 0.492245
vt 0.920146 0.492245
vt 0.988043 0.494587
vt 0.920146 0.494587
vt 0.988043 0.496938
vt 0.920146 0.496938
vt 0.920146 0.006878
vt 0.988043 0.006876
vt 0.988043 0.229406
vt 0.920146 0.229406
vt 0.988043 0.968284
vt 0.920146 0.968287
vt 0.920146 0.745755
vt 0.988043 0.745755
vt 0.988043 0.736198
vt 0.920146 0.736198
vt 0.988043 0.738600
vt 0.920146 0.738600
vt 0.988043 0.740995
vt 0.920146 0.740995
vt 0.988043 0.743381
vt 0.920146 0.743381
vt 0.920146 0.238964
vt 0.988043 0.238964
vt 0.920146 0.236562
vt 0.988043 0.236562
vt 0.920146 0.234166
vt 0.988043 0.234166
vt 0.920146 0.231781
vt 0.988043 0.231781
vt 0.988043 0.991723
vt 0.920146 0.991726
vt 0.920146 0.989363
vt 0.988043 0.989360
vt 0.920146 0.987013
vt 0.988043 0.987009
vt 0.920146 0.984671
vt 0.988043 0.984668
vt 0.920146 0.982337
vt 0.988043 0.982334
vt 0.920146 0.980006
vt 0.988043 0.980003
vt 0.920146 0.977676
vt 0.988043 0.977673
vt 0.920146 0.975342
vt 0.988043 0.975339
vt 0.920146 0.973000
vt 0.988043 0.972997
vt 0.920146 0.970649
vt 0.988043 0.970646
vt 0.482509 0.016768
vt 0.477954 0.014632
vt 0.472847 0.012913
vt 0.467313 0.011653
vt 0.461488 0.010884
vt 0.455516 0.010626
vt 0.449544 0.010884
vt 0.443720 0.011653
vt 0.438185 0.012913
vt 0.433078 0.014632
vt 0.428523 0.016768
vt 0.030552 0.235185
vt 0.026662 0.237684
vt 0.023532 0.240484
vt 0.021239 0.243517
vt 0.019841 0.246706
vt 0.019371 0.249972
vt 0.019841 0.253235
vt 0.021239 0.256414
vt 0.023532 0.259433
vt 0.026662 0.262217
vt 0.030552 0.264698
vt 0.428523 0.481396
vt 0.433078 0.483514
vt 0.438185 0.485217
vt 0.443720 0.486463
vt 0.449544 0.487223
vt 0.455516 0.487478
vt 0.461488 0.487223
vt 0.467313 0.486463
vt 0.472847 0.485217
vt 0.477954 0.483514
vt 0.482509 0.481396
vt 0.880480 0.264698
vt 0.884370 0.262217
vt 0.887500 0.259433
vt 0.889793 0.256414
vt 0.891191 0.253235
vt 0.891661 0.249972
vt 0.891191 0.246706
vt 0.889793 0.243517
vt 0.887500 0.240484
vt 0.884370 0.237684
vt 0.880480 0.235185
vt 0.428523 0.516768
vt 0.433078 0.514633
vt 0.438185 0.512915
vt 0.443720 0.511657
vt 0.449544 0.510889
vt 0.455516 0.510631
vt 0.461488 0.510889
vt 0.467313 0.511657
vt 0.472847 0.512915
vt 0.477954 0.514633
vt 0.482509 0.516768
vt 0.880480 0.735185
vt 0.884370 0.737685
vt 0.887500 0.740488
vt 0.889793 0.743526
vt 0.891191 0.746722
vt 0.891661 0.750000
vt 0.891191 0.753278
vt 0.889793 0.756474
vt 0.887500 0.759512
vt 0.884370 0.762315
vt 0.880480 0.764815
vt 0.482509 0.983232
vt 0.477954 0.985367
vt 0.472847 0.987085
vt 0.467313 0.988343
vt 0.461488 0.989111
vt 0.455516 0.989369
vt 0.449544 0.989111
vt 0.443720 0.988343
vt 0.438185 0.987085
vt 0.433078 0.985367
vt 0.428523 0.983232
vt 0.030552 0.764815
vt 0.026662 0.762315
vt 0.023532 0.759512
vt 0.021239 0.756474
vt 0.019841 0.753277
vt 0.019371 0.750000
vt 0.019841 0.746723
vt 0.021239 0.743526
vt 0.023532 0.740488
vt 0.026662 0.737685
vt 0.030552 0.735185
vt 0.921708 0.500000
vt 0.932384 0.500000
vt 0.932384 0.925197
vt 0.921708 0.925197
vt 0.989324 0.500000
vt 0.989324 0.925197
vt 0.978648 0.925197
vt 0.978648 0.500000
vt 0.978648 0.996063
vt 0.932384 0.996063
vt 0.932384 0.429134
vt 0.978648 0.429134
vt 0.992883 0.742126
vt 0.967972 0.742126
vt 0.967972 0.496063
vt 0.992883 0.496063
vt 0.967972 0.246063
vt 0.943061 0.496063
vt 0.943061 0.246063
vt 0.918149 0.496063
vt 0.943061 0.742126
vt 0.918149 0.742126
vt 0.943061 0.996063
vt 0.967972 0.996063
vt 0.992883 0.742126
vt 0.967972 0.742126
vt 0.967972 0.496063
vt 0.992883 0.496063
vt 0.967972 0.246063
vt 0.943061 0.496063
vt 0.943061 0.246063
vt 0.918149 0.496063
vt 0.943061 0.742126
vt 0.918149 0.742126
vt 0.943061 0.996063
vt 0.967972 0.996063
vt 0.992883 0.742126
vt 0.967972 0.742126
vt 0.967972 0.496063
vt 0.992883 0.496063
vt 0.967972 0.246063
vt 0.943061 0.496063
vt 0.943061 0.246063
vt 0.918149 0.496063
vt 0.943061 0.742126
vt 0.918149 0.742126
vt 0.943061 0.996063
vt 0.967972 0.996063
vt 0.992883 0.742126
vt 0.967972 0.742126
vt 0.967972 0.496063
vt 0.992883 0.496063
vt 0.967972 0.246063
vt 0.943061 0.496063
vt 0.943061 0.246063
vt 0.918149 0.496063
vt 0.943061 0.742126
vt 0.918149 0.742126
vt 0.943061 0.996063
vt 0.967972 0.996063
vt 0.992883 0.742126
vt 0.967972 0.742126
vt 0.967972 0.496063
vt 0.992883 0.496063
vt 0.967972 0.246063
vt 0.943061 0.496063
vt 0.943061 0.246063
vt 0.918149 0.496063
vt 0.943061 0.742126
vt 0.918149 0.742126
vt 0.943061 0.996063
vt 0.967972 0.996063
vt 0.943061 0.003937
vt 0.967972 0.003937
vt 0.992883 0.742126
vt 0.967972 0.742126
vt 0.967972 0.496063
vt 0.992883 0.496063
vt 0.967972 0.246063
vt 0.943061 0.496063
vt 0.943061 0.246063
vt 0.918149 0.496063
vt 0.943061 0.742126
vt 0.918149 0.742126
vt 0.943061 0.996063
vt 0.967972 0.996063
vt 0.943061 0.003937
vt 0.967972 0.003937
vn -0.7184 0.0000 0.6956
vn -0.7706 0.0000 0.6373
vn -0.8600 0.0000 0.5103
vn -0.9281 -0.0000 0.3722
vn -0.9740 0.0000 0.2264
vn -0.9971 -0.0000 0.0760
vn 0.7706 0.0000 0.6373
vn 0.8600 0.0000 0.5103
vn 0.9281 0.0000 0.3722
vn 0.9740 0.0000 0.2264
vn 0.9971 0.0000 0.0760
vn 0.6615 0.0000 0.7499
vn 0.5348 -0.0000 0.8450
vn 0.3933 0.0000 0.9194
vn 0.2407 -0.0000 0.9706
vn 0.0810 -0.0000 0.9967
vn -0.0810 0.0000 0.9967
vn -0.2407 0.0000 0.9706
vn -0.3933 0.0000 0.9194
vn -0.5348 0.0000 0.8450
vn -0.6615 0.0000 0.7499
vn 0.7184 0.0000 0.6956
vn 0.7184 -0.0000 -0.6956
vn -0.7184 -0.0000 -0.6956
vn -0.9971 0.0000 -0.0760
vn -0.9740 -0.0000 -0.2264
vn -0.9281 0.0000 -0.3722
vn -0.8600 -0.0000 -0.5103
vn -0.7706 0.0000 -0.6373
vn 0.9971 -0.0000 -0.0760
vn 0.9740 0.0000 -0.2264
vn 0.9281 -0.0000 -0.3722
vn 0.8600 -0.0000 -0.5103
vn 0.7706 -0.0000 -0.6373
vn 0.6615 0.0000 -0.7499
vn 0.5348 0.0000 -0.8450
vn 0.3933 0.0000 -0.9194
vn 0.2407 0.0000 -0.9706
vn 0.0810 0.0000 -0.9967
vn -0.0810 -0.0000 -0.9967
vn -0.2407 -0.0000 -0.9706
vn -0.3933 0.0000 -0.9194
vn -0.5348 -0.0000 -0.8450
vn -0.6615 0.0000 -0.7499
vn 0.0000 -1.0000 0.0000
vn 0.0000 1.0000 -0.0000
vn -1.0000 0.0000 0.0000
vn 1.0000 0.0000 0.0000
vn 0.0000 -0.0000 1.0000
vn 0.0000 0.0000 -1.0000
g Cube_Cube_top
s off
f 79/1/1 45/2/1 35/3/1 56/4/1
f 56/4/2 35/3/2 44/5/2 58/6/2
f 58/6/3 44/5/3 43/7/3 59/8/3
f 59/8/4 43/7/4 42/9/4 60/10/4
f 60/10/5 42/9/5 41/11/5 61/12/5
f 61/12/6 41/11/6 40/13/6 62/14/6
f 1/15/7 13/16/7 22/17/7 3/18/7
f 3/18/8 22/17/8 21/19/8 4/20/8
f 4/20/9 21/19/9 20/21/9 5/22/9
f 5/22/10 20/21/10 19/23/10 6/24/10
f 6/24/11 19/23/11 18/25/11 7/26/11
f 78/27/12 46/28/12 55/29/12 80/30/12
f 80/30/13 55/29/13 54/31/13 81/32/13
f 81/32/14 54/31/14 53/33/14 82/34/14
f 82/34/15 53/33/15 52/35/15 83/36/15
f 83/36/16 52/35/16 51/37/16 84/38/16
f 84/38/17 51/37/17 50/39/17 85/40/17
f 85/40/18 50/39/18 49/41/18 86/42/18
f 86/42/19 49/41/19 48/43/19 87/44/19
f 87/44/20 48/43/20 47/45/20 88/46/20
f 88/46/21 47/45/21 45/2/21 79/1/21
f 46/28/22 78/27/22 13/16/22 1/15/22
g Cube_Cube_bottom
f 68/47/23 23/48/23 2/49/23 12/50/23
f 24/51/24 67/52/24 57/53/24 34/54/24
f 62/14/25 40/13/25 39/55/25 63/56/25
f 63/56/26 39/55/26 38/57/26 64/58/26
f 64/58/27 38/57/27 37/59/27 65/60/27
f 65/60/28 37/59/28 36/61/28 66/62/28
f 66/62/29 36/61/29 34/54/29 57/53/29
f 7/26/30 18/25/30 17/63/30 8/64/30
f 8/64/31 17/63/31 16/65/31 9/66/31
f 9/66/32 16/65/32 15/67/32 10/68/32
f 10/68/33 15/67/33 14/69/33 11/70/33
f 11/70/34 14/69/34 12/50/34 2/49/34
f 23/71/35 68/72/35 77/73/35 25/74/35
f 25/74/36 77/73/36 76/75/36 26/76/36
f 26/76/37 76/75/37 75/77/37 27/78/37
f 27/78/38 75/77/38 74/79/38 28/80/38
f 28/80/39 74/79/39 73/81/39 29/82/39
f 29/82/40 73/81/40 72/83/40 30/84/40
f 30/84/41 72/83/41 71/85/41 31/86/41
f 31/86/42 71/85/42 70/87/42 32/88/42
f 32/88/43 70/87/43 69/89/43 33/90/43
f 33/90/44 69/89/44 67/52/44 24/51/44
g Cube_Cube_back
f 67/91/45 69/92/45 70/93/45 71/94/45 72/95/45 73/96/45 74/97/45 75/98/45 76/99/45 77/100/45 68/101/45 12/102/45 14/103/45 15/104/45 16/105/45 17/106/45 18/107/45 19/108/45 20/109/45 21/110/45 22/111/45 13/112/45 78/113/45 80/114/45 81/115/45 82/116/45 83/117/45 84/118/45 85/119/45 86/120/45 87/121/45 88/122/45 79/123/45 56/124/45 58/125/45 59/126/45 60/127/45 61/128/45 62/129/45 63/130/45 64/131/45 65/132/45 66/133/45 57/134/45
g Cube_Cube_front
f 23/135/46 25/136/46 26/137/46 27/138/46 28/139/46 29/140/46 30/141/46 31/142/46 32/143/46 33/144/46 24/145/46 34/146/46 36/147/46 37/148/46 38/149/46 39/150/46 40/151/46 41/152/46 42/153/46 43/154/46 44/155/46 35/156/46 45/157/46 47/158/46 48/159/46 49/160/46 50/161/46 51/162/46 52/163/46 53/164/46 54/165/46 55/166/46 46/167/46 1/168/46 3/169/46 4/170/46 5/171/46 6/172/46 7/173/46 8/174/46 9/175/46 10/176/46 11/177/46 2/178/46
g Cube_Cube_top.001
f 89/179/47 90/180/47 92/181/47 91/182/47
f 94/183/48 93/184/48 96/185/48 95/186/48
f 92/181/49 96/185/49 93/187/49 91/188/49
f 89/189/50 94/190/50 95/186/50 90/180/50
f 90/180/45 95/186/45 96/185/45 92/181/45
f 97/191/48 98/192/48 100/193/48 99/194/48
f 99/195/49 100/193/49 104/196/49 103/197/49
f 103/198/47 104/196/47 102/199/47 101/200/47
f 101/201/50 102/199/50 98/192/50 97/202/50
f 105/203/48 106/204/48 108/205/48 107/206/48
f 107/207/49 108/205/49 112/208/49 111/209/49
f 111/210/47 112/208/47 110/211/47 109/212/47
f 109/213/50 110/211/50 106/204/50 105/214/50
f 113/215/48 114/216/48 116/217/48 115/218/48
f 115/219/49 116/217/49 120/220/49 119/221/49
f 119/222/47 120/220/47 118/223/47 117/224/47
f 117/225/50 118/223/50 114/216/50 113/226/50
f 121/227/48 122/228/48 124/229/48 123/230/48
f 123/231/49 124/229/49 128/232/49 127/233/49
f 127/234/47 128/232/47 126/235/47 125/236/47
f 125/237/50 126/235/50 122/228/50 121/238/50
f 129/239/45 130/240/45 132/241/45 131/242/45
f 131/243/49 132/241/49 136/244/49 135/245/49
f 135/246/46 136/244/46 134/247/46 133/248/46
f 133/249/50 134/247/50 130/240/50 129/250/50
f 131/243/47 135/245/47 133/251/47 129/252/47
f 136/244/48 132/241/48 130/240/48 134/247/48
f 137/253/45 138/254/45 140/255/45 139/256/45
f 139/257/49 140/255/49 144/258/49 143/259/49
f 143/260/46 144/258/46 142/261/46 141/262/46
f 141/263/50 142/261/50 138/254/50 137/264/50
f 139/257/47 143/259/47 141/265/47 137/266/47
f 144/258/48 140/255/48 138/254/48 142/261/48
