# Blender v2.79 (sub 0) OBJ File: 'street signs regulatory 36x36 onpole.blend'
# www.blender.org
o Cube
v 0.399741 -0.812500 -0.457200
v 0.457200 -0.812500 -0.399741
v 0.410951 -0.812500 -0.456096
v 0.421730 -0.812500 -0.452826
v 0.431664 -0.812500 -0.447517
v 0.440371 -0.812500 -0.440371
v 0.447517 -0.812500 -0.431664
v 0.452826 -0.812500 -0.421730
v 0.456096 -0.812500 -0.410951
v 0.457200 -0.750000 -0.399741
v 0.399741 -0.750000 -0.457200
v 0.456096 -0.750000 -0.410951
v 0.452826 -0.750000 -0.421730
v 0.447517 -0.750000 -0.431664
v 0.440371 -0.750000 -0.440371
v 0.431664 -0.750000 -0.447517
v 0.421730 -0.750000 -0.452826
v 0.410951 -0.750000 -0.456096
v 0.457200 -0.812500 0.399741
v 0.399741 -0.812500 0.457200
v 0.456096 -0.812500 0.410951
v 0.452826 -0.812500 0.421730
v 0.447517 -0.812500 0.431664
v 0.440371 -0.812500 0.440371
v 0.431664 -0.812500 0.447517
v 0.421730 -0.812500 0.452826
v 0.410951 -0.812500 0.456096
v 0.399741 -0.750000 0.457200
v 0.457200 -0.750000 0.399741
v 0.410951 -0.750000 0.456096
v 0.421730 -0.750000 0.452826
v 0.431664 -0.750000 0.447517
v 0.440371 -0.750000 0.440371
v 0.447517 -0.750000 0.431664
v 0.452826 -0.750000 0.421730
v 0.456096 -0.750000 0.410951
v -0.457200 -0.812500 -0.399741
v -0.399741 -0.812500 -0.457200
v -0.456096 -0.812500 -0.410951
v -0.452826 -0.812500 -0.421730
v -0.447517 -0.812500 -0.431664
v -0.440371 -0.812500 -0.440371
v -0.431664 -0.812500 -0.447517
v -0.421730 -0.812500 -0.452826
v -0.410951 -0.812500 -0.456096
v -0.399741 -0.750000 -0.457200
v -0.457200 -0.750000 -0.399741
v -0.410951 -0.750000 -0.456096
v -0.421730 -0.750000 -0.452826
v -0.431664 -0.750000 -0.447517
v -0.440371 -0.750000 -0.440371
v -0.447517 -0.750000 -0.431664
v -0.452826 -0.750000 -0.421730
v -0.456096 -0.750000 -0.410951
v -0.399741 -0.812500 0.457200
v -0.457200 -0.812500 0.399741
v -0.410951 -0.812500 0.456096
v -0.421730 -0.812500 0.452826
v -0.431664 -0.812500 0.447517
v -0.440371 -0.812500 0.440371
v -0.447517 -0.812500 0.431664
v -0.452826 -0.812500 0.421730
v -0.456096 -0.812500 0.410951
v -0.457200 -0.750000 0.399741
v -0.399741 -0.750000 0.457200
v -0.456096 -0.750000 0.410951
v -0.452826 -0.750000 0.421730
v -0.447517 -0.750000 0.431664
v -0.440371 -0.750000 0.440371
v -0.431664 -0.750000 0.447517
v -0.421730 -0.750000 0.452826
v -0.410951 -0.750000 0.456096
v -0.125000 -0.812500 -0.187500
v -0.125000 -0.875000 -0.187500
v -0.125000 -0.812500 0.187500
v -0.125000 -0.875000 0.187500
v 0.125000 -0.812500 0.187500
v 0.125000 -0.812500 -0.187500
v 0.125000 -0.875000 -0.187500
v 0.125000 -0.875000 0.187500
v -0.125000 -1.125000 -0.187500
v -0.125000 -0.812500 -0.187500
v -0.125000 -1.125000 -0.125000
v -0.125000 -0.812500 -0.125000
v -0.164063 -1.125000 -0.187500
v -0.164063 -0.812500 -0.187500
v -0.164063 -1.125000 -0.125000
v -0.164063 -0.812500 -0.125000
v -0.125000 -1.125000 0.125000
v -0.125000 -0.812500 0.125000
v -0.125000 -1.125000 0.187500
v -0.125000 -0.812500 0.187500
v -0.164063 -1.125000 0.125000
v -0.164063 -0.812500 0.125000
v -0.164063 -1.125000 0.187500
v -0.164063 -0.812500 0.187500
v 0.164062 -1.125000 -0.187500
v 0.164062 -0.812500 -0.187500
v 0.164062 -1.125000 -0.125000
v 0.164062 -0.812500 -0.125000
v 0.125000 -1.125000 -0.187500
v 0.125000 -0.812500 -0.187500
v 0.125000 -1.125000 -0.125000
v 0.125000 -0.812500 -0.125000
v 0.164062 -1.125000 0.125000
v 0.164062 -0.812500 0.125000
v 0.164062 -1.125000 0.187500
v 0.164062 -0.812500 0.187500
v 0.125000 -1.125000 0.125000
v 0.125000 -0.812500 0.125000
v 0.125000 -1.125000 0.187500
v 0.125000 -0.812500 0.187500
v -0.164063 -1.164063 -0.187500
v 0.164062 -1.164063 -0.187500
v -0.164063 -1.164063 -0.125000
v 0.164062 -1.164063 -0.125000
v -0.164063 -1.125000 -0.187500
v 0.164062 -1.125000 -0.187500
v -0.164063 -1.125000 -0.125000
v 0.164062 -1.125000 -0.125000
v -0.164063 -1.164063 0.125000
v 0.164062 -1.164063 0.125000
v -0.164063 -1.164063 0.187500
v 0.164062 -1.164063 0.187500
v -0.164063 -1.125000 0.125000
v 0.164062 -1.125000 0.125000
v -0.164063 -1.125000 0.187500
v 0.164062 -1.125000 0.187500
vt 0.997323 0.250068
vt 0.962634 0.250068
vt 0.962634 0.025412
vt 0.997323 0.025412
vt 0.997323 0.500046
vt 0.962634 0.500046
vt 0.962634 0.275390
vt 0.997323 0.275390
vt 0.943838 0.967141
vt 0.942702 0.973230
vt 0.939338 0.979085
vt 0.933875 0.984481
vt 0.926524 0.989211
vt 0.917566 0.993092
vt 0.907346 0.995977
vt 0.896257 0.997753
vt 0.884725 0.998353
vt 0.062233 0.998353
vt 0.050701 0.997753
vt 0.039611 0.995977
vt 0.029392 0.993092
vt 0.020434 0.989211
vt 0.013082 0.984481
vt 0.007620 0.979085
vt 0.004256 0.973230
vt 0.003120 0.967141
vt 0.003120 0.532859
vt 0.004256 0.526770
vt 0.007620 0.520915
vt 0.013082 0.515519
vt 0.020434 0.510789
vt 0.029392 0.506908
vt 0.039611 0.504023
vt 0.050701 0.502247
vt 0.062233 0.501647
vt 0.884725 0.501647
vt 0.896257 0.502247
vt 0.907347 0.504023
vt 0.917566 0.506908
vt 0.926524 0.510789
vt 0.933876 0.515519
vt 0.939338 0.520915
vt 0.942702 0.526770
vt 0.943838 0.532859
vt 0.997323 1.000000
vt 0.962634 1.000000
vt 0.962634 0.775344
vt 0.997323 0.775344
vt 0.997323 0.750023
vt 0.962634 0.750023
vt 0.962634 0.525367
vt 0.997323 0.525367
vt 0.962634 0.022247
vt 0.997323 0.022247
vt 0.962634 0.019082
vt 0.997323 0.019082
vt 0.962634 0.015916
vt 0.997323 0.015916
vt 0.962634 0.012751
vt 0.997323 0.012751
vt 0.962634 0.009586
vt 0.997323 0.009586
vt 0.962634 0.006420
vt 0.997323 0.006420
vt 0.962634 0.003256
vt 0.997323 0.003256
vt 0.962634 0.000091
vt 0.997323 0.000091
vt 0.997323 0.753188
vt 0.962634 0.753188
vt 0.997323 0.756354
vt 0.962634 0.756354
vt 0.997323 0.759519
vt 0.962634 0.759519
vt 0.997323 0.762684
vt 0.962634 0.762684
vt 0.997323 0.765849
vt 0.962634 0.765849
vt 0.997323 0.769015
vt 0.962634 0.769015
vt 0.997323 0.772180
vt 0.962634 0.772180
vt 0.997323 0.503211
vt 0.962634 0.503211
vt 0.997323 0.506376
vt 0.962634 0.506376
vt 0.997323 0.509541
vt 0.962634 0.509541
vt 0.997323 0.512706
vt 0.962634 0.512706
vt 0.997323 0.515872
vt 0.962634 0.515872
vt 0.997323 0.519037
vt 0.962634 0.519037
vt 0.997323 0.522202
vt 0.962634 0.522202
vt 0.997323 0.253233
vt 0.962634 0.253233
vt 0.997323 0.256398
vt 0.962634 0.256398
vt 0.997323 0.259564
vt 0.962634 0.259564
vt 0.997323 0.262729
vt 0.962634 0.262729
vt 0.997323 0.265894
vt 0.962634 0.265894
vt 0.997323 0.269059
vt 0.962634 0.269059
vt 0.997323 0.272224
vt 0.962634 0.272224
vt 0.003120 0.467141
vt 0.004256 0.473230
vt 0.007620 0.479085
vt 0.013082 0.484481
vt 0.020434 0.489211
vt 0.029392 0.493092
vt 0.039611 0.495977
vt 0.050701 0.497753
vt 0.062233 0.498353
vt 0.884725 0.498353
vt 0.896257 0.497753
vt 0.907347 0.495977
vt 0.917566 0.493092
vt 0.926524 0.489211
vt 0.933875 0.484481
vt 0.939338 0.479085
vt 0.942702 0.473230
vt 0.943838 0.467141
vt 0.943838 0.032859
vt 0.942702 0.026770
vt 0.939338 0.020915
vt 0.933875 0.015519
vt 0.926524 0.010789
vt 0.917566 0.006908
vt 0.907346 0.004023
vt 0.896257 0.002247
vt 0.884725 0.001647
vt 0.062233 0.001647
vt 0.050701 0.002247
vt 0.039611 0.004023
vt 0.029392 0.006908
vt 0.020434 0.010789
vt 0.013082 0.015519
vt 0.007620 0.020915
vt 0.004256 0.026770
vt 0.003120 0.032859
vt 0.964999 0.500000
vt 0.969757 0.500000
vt 0.969757 0.927840
vt 0.964999 0.927840
vt 0.995132 0.500000
vt 0.995132 0.927840
vt 0.990374 0.927840
vt 0.990374 0.500000
vt 0.990374 0.999146
vt 0.969757 0.999146
vt 0.969757 0.428693
vt 0.990374 0.428693
vt 0.996718 0.743631
vt 0.985616 0.743631
vt 0.985616 0.496039
vt 0.996718 0.496039
vt 0.985616 0.244485
vt 0.974515 0.496039
vt 0.974515 0.244485
vt 0.963413 0.496039
vt 0.974515 0.743631
vt 0.963413 0.743631
vt 0.974515 0.999146
vt 0.985616 0.999146
vt 0.996718 0.743631
vt 0.985616 0.743631
vt 0.985616 0.496039
vt 0.996718 0.496039
vt 0.985616 0.244485
vt 0.974515 0.496039
vt 0.974515 0.244485
vt 0.963413 0.496039
vt 0.974515 0.743631
vt 0.963413 0.743631
vt 0.974515 0.999146
vt 0.985616 0.999146
vt 0.996718 0.743631
vt 0.985616 0.743631
vt 0.985616 0.496039
vt 0.996718 0.496039
vt 0.985616 0.244485
vt 0.974515 0.496039
vt 0.974515 0.244485
vt 0.963413 0.496039
vt 0.974515 0.743631
vt 0.963413 0.743631
vt 0.974515 0.999146
vt 0.985616 0.999146
vt 0.996718 0.743631
vt 0.985616 0.743631
vt 0.985616 0.496039
vt 0.996718 0.496039
vt 0.985616 0.244485
vt 0.974515 0.496039
vt 0.974515 0.244485
vt 0.963413 0.496039
vt 0.974515 0.743631
vt 0.963413 0.743631
vt 0.974515 0.999146
vt 0.985616 0.999146
vt 0.996718 0.743631
vt 0.985616 0.743631
vt 0.985616 0.496039
vt 0.996718 0.496039
vt 0.985616 0.244485
vt 0.974515 0.496039
vt 0.974515 0.244485
vt 0.963413 0.496039
vt 0.974515 0.743631
vt 0.963413 0.743631
vt 0.974515 0.999146
vt 0.985616 0.999146
vt 0.974515 0.000854
vt 0.985616 0.000854
vt 0.996718 0.743631
vt 0.985616 0.743631
vt 0.985616 0.496039
vt 0.996718 0.496039
vt 0.985616 0.244485
vt 0.974515 0.496039
vt 0.974515 0.244485
vt 0.963413 0.496039
vt 0.974515 0.743631
vt 0.963413 0.743631
vt 0.974515 0.999146
vt 0.985616 0.999146
vt 0.974515 0.000854
vt 0.985616 0.000854
vn 0.0000 0.0000 -1.0000
vn -1.0000 0.0000 0.0000
vn 0.0000 1.0000 -0.0000
vn 1.0000 0.0000 0.0000
vn 0.0000 0.0000 1.0000
vn 0.0980 0.0000 -0.9952
vn 0.2903 0.0000 -0.9569
vn 0.4714 0.0000 -0.8819
vn 0.6344 0.0000 -0.7730
vn 0.7730 0.0000 -0.6344
vn 0.8819 0.0000 -0.4714
vn 0.9569 0.0000 -0.2903
vn 0.9952 0.0000 -0.0980
vn 0.0980 0.0000 0.9952
vn 0.2903 0.0000 0.9569
vn 0.4714 -0.0000 0.8819
vn 0.6344 0.0000 0.7730
vn 0.7730 0.0000 0.6344
vn 0.8819 -0.0000 0.4714
vn 0.9569 0.0000 0.2903
vn 0.9952 0.0000 0.0980
vn -0.9952 0.0000 0.0980
vn -0.9569 -0.0000 0.2903
vn -0.8819 0.0000 0.4714
vn -0.7730 0.0000 0.6344
vn -0.6344 0.0000 0.7730
vn -0.4714 0.0000 0.8819
vn -0.2903 0.0000 0.9569
vn -0.0980 0.0000 0.9952
vn -0.0980 0.0000 -0.9952
vn -0.2903 0.0000 -0.9569
vn -0.4714 -0.0000 -0.8819
vn -0.6344 0.0000 -0.7730
vn -0.7730 0.0000 -0.6344
vn -0.8819 -0.0000 -0.4714
vn -0.9569 0.0000 -0.2903
vn -0.9952 0.0000 -0.0980
vn 0.0000 -1.0000 0.0000
g Cube_Cube_None
s off
f 38/1/1 46/2/1 11/3/1 1/4/1
f 56/5/2 64/6/2 47/7/2 37/8/2
f 64/9/3 66/10/3 67/11/3 68/12/3 69/13/3 70/14/3 71/15/3 72/16/3 65/17/3 28/18/3 30/19/3 31/20/3 32/21/3 33/22/3 34/23/3 35/24/3 36/25/3 29/26/3 10/27/3 12/28/3 13/29/3 14/30/3 15/31/3 16/32/3 17/33/3 18/34/3 11/35/3 46/36/3 48/37/3 49/38/3 50/39/3 51/40/3 52/41/3 53/42/3 54/43/3 47/44/3
f 2/45/4 10/46/4 29/47/4 19/48/4
f 20/49/5 28/50/5 65/51/5 55/52/5
f 1/4/6 11/3/6 18/53/6 3/54/6
f 3/54/7 18/53/7 17/55/7 4/56/7
f 4/56/8 17/55/8 16/57/8 5/58/8
f 5/58/9 16/57/9 15/59/9 6/60/9
f 6/60/10 15/59/10 14/61/10 7/62/10
f 7/62/11 14/61/11 13/63/11 8/64/11
f 8/64/12 13/63/12 12/65/12 9/66/12
f 9/66/13 12/65/13 10/67/13 2/68/13
f 28/50/14 20/49/14 27/69/14 30/70/14
f 30/70/15 27/69/15 26/71/15 31/72/15
f 31/72/16 26/71/16 25/73/16 32/74/16
f 32/74/17 25/73/17 24/75/17 33/76/17
f 33/76/18 24/75/18 23/77/18 34/78/18
f 34/78/19 23/77/19 22/79/19 35/80/19
f 35/80/20 22/79/20 21/81/20 36/82/20
f 36/82/21 21/81/21 19/48/21 29/47/21
f 64/6/22 56/5/22 63/83/22 66/84/22
f 66/84/23 63/83/23 62/85/23 67/86/23
f 67/86/24 62/85/24 61/87/24 68/88/24
f 68/88/25 61/87/25 60/89/25 69/90/25
f 69/90/26 60/89/26 59/91/26 70/92/26
f 70/92/27 59/91/27 58/93/27 71/94/27
f 71/94/28 58/93/28 57/95/28 72/96/28
f 72/96/29 57/95/29 55/52/29 65/51/29
f 46/2/30 38/1/30 45/97/30 48/98/30
f 48/98/31 45/97/31 44/99/31 49/100/31
f 49/100/32 44/99/32 43/101/32 50/102/32
f 50/102/33 43/101/33 42/103/33 51/104/33
f 51/104/34 42/103/34 41/105/34 52/106/34
f 52/106/35 41/105/35 40/107/35 53/108/35
f 53/108/36 40/107/36 39/109/36 54/110/36
f 54/110/37 39/109/37 37/8/37 47/7/37
f 19/111/38 21/112/38 22/113/38 23/114/38 24/115/38 25/116/38 26/117/38 27/118/38 20/119/38 55/120/38 57/121/38 58/122/38 59/123/38 60/124/38 61/125/38 62/126/38 63/127/38 56/128/38 37/129/38 39/130/38 40/131/38 41/132/38 42/133/38 43/134/38 44/135/38 45/136/38 38/137/38 1/138/38 3/139/38 4/140/38 5/141/38 6/142/38 7/143/38 8/144/38 9/145/38 2/146/38
f 73/147/2 74/148/2 76/149/2 75/150/2
f 78/151/4 77/152/4 80/153/4 79/154/4
f 76/149/5 80/153/5 77/155/5 75/156/5
f 73/157/1 78/158/1 79/154/1 74/148/1
f 74/148/38 79/154/38 80/153/38 76/149/38
f 81/159/4 82/160/4 84/161/4 83/162/4
f 83/163/5 84/161/5 88/164/5 87/165/5
f 87/166/2 88/164/2 86/167/2 85/168/2
f 85/169/1 86/167/1 82/160/1 81/170/1
f 89/171/4 90/172/4 92/173/4 91/174/4
f 91/175/5 92/173/5 96/176/5 95/177/5
f 95/178/2 96/176/2 94/179/2 93/180/2
f 93/181/1 94/179/1 90/172/1 89/182/1
f 97/183/4 98/184/4 100/185/4 99/186/4
f 99/187/5 100/185/5 104/188/5 103/189/5
f 103/190/2 104/188/2 102/191/2 101/192/2
f 101/193/1 102/191/1 98/184/1 97/194/1
f 105/195/4 106/196/4 108/197/4 107/198/4
f 107/199/5 108/197/5 112/200/5 111/201/5
f 111/202/2 112/200/2 110/203/2 109/204/2
f 109/205/1 110/203/1 106/196/1 105/206/1
f 113/207/38 114/208/38 116/209/38 115/210/38
f 115/211/5 116/209/5 120/212/5 119/213/5
f 119/214/3 120/212/3 118/215/3 117/216/3
f 117/217/1 118/215/1 114/208/1 113/218/1
f 115/211/2 119/213/2 117/219/2 113/220/2
f 120/212/4 116/209/4 114/208/4 118/215/4
f 121/221/38 122/222/38 124/223/38 123/224/38
f 123/225/5 124/223/5 128/226/5 127/227/5
f 127/228/3 128/226/3 126/229/3 125/230/3
f 125/231/1 126/229/1 122/222/1 121/232/1
f 123/225/2 127/227/2 125/233/2 121/234/2
f 128/226/4 124/223/4 122/222/4 126/229/4
