# Blender v2.79 (sub 0) OBJ File: 'street_signs_large_highway_sign.blend'
# www.blender.org
o Cube
v 0.437500 -0.375000 -0.437500
v 0.437500 -0.375000 1.437500
v 0.437500 -0.500000 -0.437500
v 0.437500 -0.500000 1.437500
v -2.437500 -0.375000 -0.437500
v -2.437500 -0.375000 1.437500
v -2.437500 -0.500000 -0.437500
v -2.437500 -0.500000 1.437500
vt 0.019048 0.485507
vt 0.914286 0.485507
vt 0.914286 0.514493
vt 0.019048 0.514493
vt 0.019048 0.485507
vt 0.914286 0.485507
vt 0.914286 0.514493
vt 0.019048 0.514493
vt 0.942857 0.014493
vt 0.980952 0.014493
vt 0.980952 0.463768
vt 0.942857 0.463768
vt 0.942857 0.014493
vt 0.980952 0.014493
vt 0.980952 0.463768
vt 0.942857 0.463768
vt 0.914286 0.014493
vt 0.914286 0.463768
vt 0.019048 0.463768
vt 0.019048 0.014493
vt 0.914286 0.536232
vt 0.914286 0.985507
vt 0.019048 0.985507
vt 0.019048 0.536232
vn 0.0000 0.0000 1.0000
vn 0.0000 0.0000 -1.0000
vn -1.0000 0.0000 0.0000
vn 1.0000 0.0000 0.0000
vn 0.0000 -1.0000 0.0000
vn 0.0000 1.0000 -0.0000
g Cube_Cube_top
s off
f 8/1/1 4/2/1 2/3/1 6/4/1
g Cube_Cube_bottom
f 3/5/2 7/6/2 5/7/2 1/8/2
g Cube_Cube_right
f 7/9/3 8/10/3 6/11/3 5/12/3
g Cube_Cube_left
f 1/13/4 2/14/4 4/15/4 3/16/4
g Cube_Cube_back
f 3/17/5 4/18/5 8/19/5 7/20/5
g Cube_Cube_front
f 5/21/6 6/22/6 2/23/6 1/24/6
