# Blender v2.79 (sub 0) OBJ File: 'street signs RR crossbuck onpole.blend'
# www.blender.org
o sign.001
v 0.511875 -0.450000 0.350230
v 0.350230 -0.450000 0.511875
v -0.000000 -0.500000 -0.161645
v -0.350230 -0.450000 -0.511875
v 0.511875 -0.500000 -0.350230
v 0.511875 -0.450000 -0.350230
v -0.350230 -0.500000 0.511875
v -0.350230 -0.450000 0.511875
v -0.511875 -0.450000 0.350230
v 0.161645 -0.450000 -0.000000
v 0.161645 -0.500000 -0.000000
v -0.161645 -0.450000 0.000000
v 0.350230 -0.500000 0.511875
v -0.511875 -0.500000 -0.350230
v -0.350230 -0.500000 -0.511875
v 0.511875 -0.500000 0.350230
v -0.511875 -0.450000 -0.350230
v -0.511875 -0.500000 0.350230
v -0.161645 -0.500000 0.000000
v 0.000000 -0.500000 0.161645
v 0.000000 -0.450000 0.161645
v 0.350230 -0.500000 -0.511875
v -0.000000 -0.450000 -0.161645
v 0.350230 -0.450000 -0.511875
vt 0.578947 1.000000
vt 1.000000 0.157895
vt 0.921053 0.000000
vt 0.500000 0.842105
vt 0.500000 0.157895
vt 0.078947 1.000000
vt 0.000000 0.842105
vt 0.421053 0.000000
vt 0.921053 1.000000
vt 1.000000 0.842105
vt 0.828947 0.500000
vt 0.750000 0.657895
vt 0.421053 1.000000
vt 0.250000 0.657895
vt 0.328947 0.500000
vt 0.500000 0.842105
vt 0.671053 0.500000
vt 0.750000 0.342105
vt 0.578947 0.000000
vt 0.500000 0.157895
vt 0.250000 0.342105
vt 0.171053 0.500000
vt 0.000000 0.157895
vt 0.078947 0.000000
vt 0.703125 0.000000
vt 0.750000 0.000000
vt 0.750000 1.000000
vt 0.703125 1.000000
vt 0.101562 0.000000
vt 0.203125 0.000000
vt 0.203125 1.000000
vt 0.101562 1.000000
vt 0.250000 0.000000
vt 0.250000 1.000000
vt 0.601562 0.000000
vt 0.601562 1.000000
vt 0.953125 0.000000
vt 1.000001 0.000000
vt 1.000001 1.000000
vt 0.953125 1.000000
vt 0.000000 0.000000
vt 0.000000 1.000000
vt 0.453125 0.000000
vt 0.500000 0.000000
vt 0.500000 1.000000
vt 0.453125 1.000000
vt 0.851562 1.000000
vt 0.851562 0.000000
vt 0.351563 1.000000
vt 0.351563 0.000000
vn -0.0000 -1.0000 -0.0000
vn 0.0000 1.0000 0.0000
vn 0.7071 0.0000 0.7071
vn 0.7071 0.0000 -0.7071
vn -0.7071 0.0000 -0.7071
vn -0.7071 0.0000 0.7071
g sign.001_sign.001_front-back
s off
f 13/1/1 14/2/1 15/3/1 16/4/1
f 17/5/2 2/6/2 1/7/2 4/8/2
f 7/9/1 18/10/1 19/11/1 20/12/1
f 8/13/2 21/14/2 12/15/2 9/16/2
f 11/17/1 3/18/1 22/19/1 5/20/1
f 23/21/2 10/22/2 6/23/2 24/24/2
g sign.001_sign.001_edges
f 13/25/3 16/26/3 1/27/3 2/28/3
f 3/29/4 15/30/4 4/31/4 23/32/4
f 15/30/5 14/33/5 17/34/5 4/31/5
f 20/35/6 13/25/6 2/28/6 21/36/6
f 5/37/4 22/38/4 24/39/4 6/40/4
f 22/41/5 3/29/5 23/32/5 24/42/5
f 18/43/6 7/44/6 8/45/6 9/46/6
f 7/44/3 20/35/3 21/36/3 8/45/3
f 10/47/3 11/48/3 5/37/3 6/40/3
f 12/49/5 19/50/5 18/43/5 9/46/5
f 14/33/6 19/50/6 12/49/6 17/34/6
f 16/26/4 11/48/4 10/47/4 1/27/4
