# Blender v2.79 (sub 0) OBJ File: 'street signs regulatory 24x36.blend'
# www.blender.org
o Cube
v 0.261284 -0.500000 -0.457200
v 0.304800 -0.500000 -0.413684
v 0.268840 -0.500000 -0.456539
v 0.276167 -0.500000 -0.454576
v 0.283042 -0.500000 -0.451370
v 0.289256 -0.500000 -0.447019
v 0.294619 -0.500000 -0.441656
v 0.298970 -0.500000 -0.435442
v 0.302176 -0.500000 -0.428567
v 0.304139 -0.500000 -0.421240
v 0.304800 -0.437500 -0.413684
v 0.261284 -0.437500 -0.457200
v 0.304139 -0.437500 -0.421240
v 0.302176 -0.437500 -0.428567
v 0.298970 -0.437500 -0.435442
v 0.294619 -0.437500 -0.441656
v 0.289256 -0.437500 -0.447019
v 0.283042 -0.437500 -0.451370
v 0.276167 -0.437500 -0.454576
v 0.268840 -0.437500 -0.456539
v 0.304800 -0.500000 0.413684
v 0.261284 -0.500000 0.457200
v 0.304139 -0.500000 0.421240
v 0.302176 -0.500000 0.428567
v 0.298970 -0.500000 0.435442
v 0.294619 -0.500000 0.441656
v 0.289256 -0.500000 0.447019
v 0.283042 -0.500000 0.451370
v 0.276167 -0.500000 0.454576
v 0.268840 -0.500000 0.456539
v 0.261284 -0.437500 0.457200
v 0.304800 -0.437500 0.413684
v 0.268840 -0.437500 0.456539
v 0.276167 -0.437500 0.454576
v 0.283042 -0.437500 0.451370
v 0.289256 -0.437500 0.447019
v 0.294619 -0.437500 0.441656
v 0.298970 -0.437500 0.435442
v 0.302176 -0.437500 0.428567
v 0.304139 -0.437500 0.421240
v -0.304800 -0.500000 -0.413684
v -0.261284 -0.500000 -0.457200
v -0.304139 -0.500000 -0.421240
v -0.302176 -0.500000 -0.428567
v -0.298970 -0.500000 -0.435442
v -0.294619 -0.500000 -0.441656
v -0.289256 -0.500000 -0.447019
v -0.283042 -0.500000 -0.451370
v -0.276167 -0.500000 -0.454576
v -0.268840 -0.500000 -0.456539
v -0.261284 -0.437500 -0.457200
v -0.304800 -0.437500 -0.413684
v -0.268840 -0.437500 -0.456539
v -0.276167 -0.437500 -0.454576
v -0.283042 -0.437500 -0.451370
v -0.289256 -0.437500 -0.447019
v -0.294619 -0.437500 -0.441656
v -0.298970 -0.437500 -0.435442
v -0.302176 -0.437500 -0.428567
v -0.304139 -0.437500 -0.421240
v -0.261284 -0.500000 0.457200
v -0.304800 -0.500000 0.413684
v -0.268840 -0.500000 0.456539
v -0.276167 -0.500000 0.454576
v -0.283042 -0.500000 0.451370
v -0.289256 -0.500000 0.447019
v -0.294619 -0.500000 0.441656
v -0.298970 -0.500000 0.435442
v -0.302176 -0.500000 0.428567
v -0.304139 -0.500000 0.421240
v -0.304800 -0.437500 0.413684
v -0.261284 -0.437500 0.457200
v -0.304139 -0.437500 0.421240
v -0.302176 -0.437500 0.428567
v -0.298970 -0.437500 0.435442
v -0.294619 -0.437500 0.441656
v -0.289256 -0.437500 0.447019
v -0.283042 -0.437500 0.451370
v -0.276167 -0.437500 0.454576
v -0.268840 -0.437500 0.456539
vt 0.975739 0.000624
vt 0.997592 0.000624
vt 0.997592 0.175458
vt 0.975739 0.175458
vt 0.975739 0.695623
vt 0.997592 0.695623
vt 0.997592 0.972433
vt 0.975739 0.972433
vt 0.483402 0.949821
vt 0.482881 0.958038
vt 0.481330 0.966005
vt 0.478799 0.973480
vt 0.475364 0.980236
vt 0.471129 0.986068
vt 0.466223 0.990799
vt 0.460795 0.994285
vt 0.455009 0.996420
vt 0.449043 0.997139
vt 0.036434 0.997139
vt 0.030468 0.996420
vt 0.024683 0.994285
vt 0.019254 0.990799
vt 0.014348 0.986069
vt 0.010113 0.980236
vt 0.006678 0.973480
vt 0.004147 0.966005
vt 0.002597 0.958038
vt 0.002075 0.949821
vt 0.002075 0.050179
vt 0.002597 0.041962
vt 0.004147 0.033995
vt 0.006678 0.026520
vt 0.010113 0.019764
vt 0.014348 0.013931
vt 0.019254 0.009201
vt 0.024683 0.005715
vt 0.030468 0.003580
vt 0.036434 0.002861
vt 0.449043 0.002861
vt 0.455009 0.003580
vt 0.460795 0.005715
vt 0.466223 0.009201
vt 0.471129 0.013931
vt 0.475364 0.019764
vt 0.478799 0.026520
vt 0.481330 0.033995
vt 0.482880 0.041962
vt 0.483402 0.050179
vt 0.975739 0.198299
vt 0.997592 0.198299
vt 0.997592 0.475108
vt 0.975739 0.475108
vt 0.975739 0.497949
vt 0.997592 0.497949
vt 0.997592 0.672783
vt 0.975739 0.672783
vt 0.997592 0.177996
vt 0.975739 0.177996
vt 0.997592 0.180534
vt 0.975739 0.180534
vt 0.997592 0.183072
vt 0.975739 0.183072
vt 0.997592 0.185609
vt 0.975739 0.185609
vt 0.997592 0.188147
vt 0.975739 0.188147
vt 0.997592 0.190685
vt 0.975739 0.190685
vt 0.997592 0.193223
vt 0.975739 0.193223
vt 0.997592 0.195761
vt 0.975739 0.195761
vt 0.975739 0.495411
vt 0.997592 0.495411
vt 0.975739 0.492873
vt 0.997592 0.492873
vt 0.975739 0.490335
vt 0.997592 0.490335
vt 0.975739 0.487797
vt 0.997592 0.487797
vt 0.975739 0.485260
vt 0.997592 0.485260
vt 0.975739 0.482722
vt 0.997592 0.482722
vt 0.975739 0.480184
vt 0.997592 0.480184
vt 0.975739 0.477646
vt 0.997592 0.477646
vt 0.975739 0.693085
vt 0.997592 0.693085
vt 0.975739 0.690547
vt 0.997592 0.690547
vt 0.975739 0.688010
vt 0.997592 0.688010
vt 0.975739 0.685472
vt 0.997592 0.685472
vt 0.975739 0.682934
vt 0.997592 0.682934
vt 0.975739 0.680396
vt 0.997592 0.680396
vt 0.975739 0.677858
vt 0.997592 0.677858
vt 0.975739 0.675320
vt 0.997592 0.675320
vt 0.997592 0.995274
vt 0.975739 0.995274
vt 0.975739 0.992736
vt 0.997592 0.992736
vt 0.975739 0.990198
vt 0.997592 0.990198
vt 0.975739 0.987660
vt 0.997592 0.987660
vt 0.975739 0.985122
vt 0.997592 0.985122
vt 0.975739 0.982585
vt 0.997592 0.982585
vt 0.975739 0.980047
vt 0.997592 0.980047
vt 0.975739 0.977509
vt 0.997592 0.977509
vt 0.975739 0.974971
vt 0.997592 0.974971
vt 0.487552 0.050179
vt 0.488074 0.041962
vt 0.489624 0.033995
vt 0.492155 0.026520
vt 0.495590 0.019764
vt 0.499826 0.013931
vt 0.504732 0.009201
vt 0.510160 0.005715
vt 0.515945 0.003580
vt 0.521911 0.002861
vt 0.934520 0.002861
vt 0.940487 0.003580
vt 0.946272 0.005715
vt 0.951700 0.009201
vt 0.956606 0.013931
vt 0.960841 0.019764
vt 0.964276 0.026520
vt 0.966807 0.033995
vt 0.968358 0.041962
vt 0.968880 0.050179
vt 0.968880 0.949821
vt 0.968358 0.958038
vt 0.966807 0.966005
vt 0.964276 0.973480
vt 0.960841 0.980236
vt 0.956606 0.986068
vt 0.951700 0.990799
vt 0.946272 0.994285
vt 0.940487 0.996420
vt 0.934520 0.997139
vt 0.521912 0.997139
vt 0.515945 0.996420
vt 0.510160 0.994285
vt 0.504732 0.990799
vt 0.499826 0.986068
vt 0.495590 0.980236
vt 0.492155 0.973480
vt 0.489624 0.966005
vt 0.488074 0.958038
vt 0.487552 0.949821
vn 0.0000 0.0000 -1.0000
vn -1.0000 0.0000 0.0000
vn 0.0000 1.0000 0.0000
vn 1.0000 0.0000 0.0000
vn 0.0000 0.0000 1.0000
vn 0.0872 0.0000 -0.9962
vn 0.2588 0.0000 -0.9659
vn 0.4226 0.0000 -0.9063
vn 0.5736 -0.0000 -0.8191
vn 0.7071 0.0000 -0.7071
vn 0.8192 0.0000 -0.5736
vn 0.9063 0.0000 -0.4226
vn 0.9659 0.0000 -0.2588
vn 0.9962 0.0000 -0.0872
vn 0.0872 0.0000 0.9962
vn 0.2588 0.0000 0.9659
vn 0.4226 0.0000 0.9063
vn 0.5736 0.0000 0.8191
vn 0.7071 -0.0000 0.7071
vn 0.8192 -0.0000 0.5736
vn 0.9063 -0.0000 0.4226
vn 0.9659 0.0000 0.2588
vn 0.9962 0.0000 0.0872
vn -0.9962 0.0000 0.0872
vn -0.9659 -0.0000 0.2588
vn -0.9063 0.0000 0.4226
vn -0.8192 0.0000 0.5736
vn -0.7071 0.0000 0.7071
vn -0.5736 -0.0000 0.8191
vn -0.4226 0.0000 0.9063
vn -0.2588 0.0000 0.9659
vn -0.0872 0.0000 0.9962
vn -0.0872 0.0000 -0.9962
vn -0.2588 0.0000 -0.9659
vn -0.4226 0.0000 -0.9063
vn -0.5736 0.0000 -0.8191
vn -0.7071 -0.0000 -0.7071
vn -0.8192 -0.0000 -0.5736
vn -0.9063 -0.0000 -0.4226
vn -0.9659 0.0000 -0.2588
vn -0.9962 0.0000 -0.0872
vn 0.0000 -1.0000 0.0000
g Cube_Cube_None
s off
f 42/1/1 51/2/1 12/3/1 1/4/1
f 62/5/2 71/6/2 52/7/2 41/8/2
f 71/9/3 73/10/3 74/11/3 75/12/3 76/13/3 77/14/3 78/15/3 79/16/3 80/17/3 72/18/3 31/19/3 33/20/3 34/21/3 35/22/3 36/23/3 37/24/3 38/25/3 39/26/3 40/27/3 32/28/3 11/29/3 13/30/3 14/31/3 15/32/3 16/33/3 17/34/3 18/35/3 19/36/3 20/37/3 12/38/3 51/39/3 53/40/3 54/41/3 55/42/3 56/43/3 57/44/3 58/45/3 59/46/3 60/47/3 52/48/3
f 2/49/4 11/50/4 32/51/4 21/52/4
f 22/53/5 31/54/5 72/55/5 61/56/5
f 1/4/6 12/3/6 20/57/6 3/58/6
f 3/58/7 20/57/7 19/59/7 4/60/7
f 4/60/8 19/59/8 18/61/8 5/62/8
f 5/62/9 18/61/9 17/63/9 6/64/9
f 6/64/10 17/63/10 16/65/10 7/66/10
f 7/66/11 16/65/11 15/67/11 8/68/11
f 8/68/12 15/67/12 14/69/12 9/70/12
f 9/70/13 14/69/13 13/71/13 10/72/13
f 10/72/14 13/71/14 11/50/14 2/49/14
f 31/54/15 22/53/15 30/73/15 33/74/15
f 33/74/16 30/73/16 29/75/16 34/76/16
f 34/76/17 29/75/17 28/77/17 35/78/17
f 35/78/18 28/77/18 27/79/18 36/80/18
f 36/80/19 27/79/19 26/81/19 37/82/19
f 37/82/20 26/81/20 25/83/20 38/84/20
f 38/84/21 25/83/21 24/85/21 39/86/21
f 39/86/22 24/85/22 23/87/22 40/88/22
f 40/88/23 23/87/23 21/52/23 32/51/23
f 71/6/24 62/5/24 70/89/24 73/90/24
f 73/90/25 70/89/25 69/91/25 74/92/25
f 74/92/26 69/91/26 68/93/26 75/94/26
f 75/94/27 68/93/27 67/95/27 76/96/27
f 76/96/28 67/95/28 66/97/28 77/98/28
f 77/98/29 66/97/29 65/99/29 78/100/29
f 78/100/30 65/99/30 64/101/30 79/102/30
f 79/102/31 64/101/31 63/103/31 80/104/31
f 80/104/32 63/103/32 61/56/32 72/55/32
f 51/105/33 42/106/33 50/107/33 53/108/33
f 53/108/34 50/107/34 49/109/34 54/110/34
f 54/110/35 49/109/35 48/111/35 55/112/35
f 55/112/36 48/111/36 47/113/36 56/114/36
f 56/114/37 47/113/37 46/115/37 57/116/37
f 57/116/38 46/115/38 45/117/38 58/118/38
f 58/118/39 45/117/39 44/119/39 59/120/39
f 59/120/40 44/119/40 43/121/40 60/122/40
f 60/122/41 43/121/41 41/8/41 52/7/41
f 21/123/42 23/124/42 24/125/42 25/126/42 26/127/42 27/128/42 28/129/42 29/130/42 30/131/42 22/132/42 61/133/42 63/134/42 64/135/42 65/136/42 66/137/42 67/138/42 68/139/42 69/140/42 70/141/42 62/142/42 41/143/42 43/144/42 44/145/42 45/146/42 46/147/42 47/148/42 48/149/42 49/150/42 50/151/42 42/152/42 1/153/42 3/154/42 4/155/42 5/156/42 6/157/42 7/158/42 8/159/42 9/160/42 10/161/42 2/162/42
