# Blender v2.79 (sub 0) OBJ File: 'generic highway sign, small.blend'
# www.blender.org
o Cube
v 0.500000 -0.500000 -0.500000
v 0.500000 -0.400000 -0.500000
v 0.500000 -0.500000 0.500000
v 0.500000 -0.400000 0.500000
v -1.500000 -0.500000 -0.500000
v -1.500000 -0.400000 -0.500000
v -1.500000 -0.500000 0.500000
v -1.500000 -0.400000 0.500000
v 0.500000 -0.500000 -0.500000
v 0.500000 -0.400000 -0.500000
v 0.500000 -0.500000 0.500000
v 0.500000 -0.400000 0.500000
v -1.500000 -0.500000 -0.500000
v -1.500000 -0.400000 -0.500000
v -1.500000 -0.500000 0.500000
v -1.500000 -0.400000 0.500000
vt 1.000000 1.000000
vt 0.000000 1.000000
vt 0.000000 0.000000
vt 1.000000 0.000000
vt 0.000000 1.000000
vt 1.000000 1.000000
vt 1.000000 0.000000
vt 0.000000 0.000000
vt 0.999999 0.000000
vt 1.000000 1.000000
vt 0.666667 1.000000
vt 0.666666 0.000000
vt 0.500000 0.000000
vt 0.500000 1.000000
vt 0.166667 1.000000
vt 0.166667 0.000000
vt 0.000000 0.000000
vt 0.000000 1.000000
vn 0.0000 1.0000 0.0000
vn 0.0000 -1.0000 0.0000
vn 0.0000 0.0000 -1.0000
vn 0.0000 0.0000 1.0000
vn 1.0000 0.0000 0.0000
vn -1.0000 0.0000 0.0000
g Cube_Cube_front
s off
f 8/1/1 4/2/1 2/3/1 6/4/1
g Cube_Cube_back
f 3/5/2 7/6/2 5/7/2 1/8/2
g Cube_Cube_edges
f 13/9/3 14/10/3 10/11/3 9/12/3
f 11/13/4 12/14/4 16/15/4 15/16/4
f 11/13/5 9/12/5 10/11/5 12/14/5
f 13/17/6 15/16/6 16/15/6 14/18/6
