# Blender v2.79 (sub 0) OBJ File: 'stop all way.blend'
# www.blender.org
o sign_Cube_Cube_front-back
v 0.228600 -0.500000 -0.613700
v 0.211325 -0.500000 -0.637476
v 0.228600 -0.450000 -0.613700
v 0.203600 -0.450000 -0.638700
v 0.218295 -0.450000 -0.633925
v 0.211325 -0.450000 -0.637476
v 0.228600 -0.500000 -0.511300
v 0.227376 -0.500000 -0.503575
v 0.218295 -0.500000 -0.491075
v 0.211325 -0.500000 -0.487524
v 0.203600 -0.450000 -0.486300
v 0.228600 -0.450000 -0.511300
v 0.227376 -0.450000 -0.503575
v -0.228600 -0.500000 -0.613700
v -0.223825 -0.500000 -0.628395
v -0.211325 -0.500000 -0.637476
v -0.203600 -0.450000 -0.638700
v -0.218295 -0.450000 -0.633925
v -0.227376 -0.450000 -0.621425
v -0.211325 -0.500000 -0.487524
v -0.218295 -0.500000 -0.491075
v -0.227376 -0.500000 -0.503575
v -0.228600 -0.450000 -0.511300
v -0.223825 -0.450000 -0.496605
v 0.203600 -0.500000 -0.638700
v 0.218295 -0.500000 -0.633925
v 0.223825 -0.500000 -0.628395
v 0.227376 -0.500000 -0.621425
v 0.223825 -0.450000 -0.628395
v 0.227376 -0.450000 -0.621425
v 0.203600 -0.500000 -0.486300
v 0.223825 -0.500000 -0.496605
v 0.211325 -0.450000 -0.487524
v 0.218295 -0.450000 -0.491075
v 0.223825 -0.450000 -0.496605
v -0.203600 -0.500000 -0.638700
v -0.218295 -0.500000 -0.633925
v -0.227376 -0.500000 -0.621425
v -0.228600 -0.450000 -0.613700
v -0.223825 -0.450000 -0.628395
v -0.211325 -0.450000 -0.637476
v -0.203600 -0.500000 -0.486300
v -0.228600 -0.500000 -0.511300
v -0.223825 -0.500000 -0.496605
v -0.203600 -0.450000 -0.486300
v -0.211325 -0.450000 -0.487524
v -0.218295 -0.450000 -0.491075
v -0.227376 -0.450000 -0.503575
v 0.457198 -0.500000 -0.189378
v 0.457199 -0.450000 0.189378
v 0.189378 -0.450000 -0.457198
v 0.189378 -0.500000 0.457198
v 0.189378 -0.450000 0.457198
v -0.189378 -0.500000 -0.457198
v 0.189378 -0.500000 -0.457198
v 0.457198 -0.450000 -0.189378
v -0.457198 -0.450000 0.189378
v -0.189378 -0.450000 0.457199
v 0.457199 -0.500000 0.189378
v -0.457198 -0.500000 0.189378
v -0.189378 -0.500000 0.457198
v -0.457198 -0.500000 -0.189378
v -0.457199 -0.450000 -0.189378
v -0.189378 -0.450000 -0.457199
vt 0.500000 0.707107
vt 0.646447 1.000000
vt 0.853553 1.000000
vt 1.000000 0.707107
vt 1.000000 0.292893
vt 0.853553 0.000000
vt 0.646447 0.000000
vt 0.500000 0.292893
vt 0.000000 0.292893
vt 0.146447 0.000000
vt 0.353553 0.000000
vt 0.500000 0.292893
vt 0.500000 0.707107
vt 0.353553 1.000000
vt 0.146447 1.000000
vt 0.000000 0.707107
vt 0.054681 0.000000
vt 0.054681 0.999996
vt 0.945319 0.999996
vt 0.945319 0.000000
vt 0.164042 0.000000
vt 0.835958 0.000000
vt 0.835958 1.000000
vt 0.164042 1.000000
vt 0.945319 0.000003
vt 0.945319 1.000000
vt 0.054681 1.000000
vt 0.054681 0.000003
vt 0.037783 1.000000
vt 0.037783 0.000003
vt 0.022540 1.000000
vt 0.022540 0.000003
vt 0.067621 1.000000
vt 0.067621 0.000000
vt 0.113350 1.000000
vt 0.113350 0.000000
vt 0.164042 1.000000
vt 0.164042 0.000000
vt 0.037783 0.000000
vt 0.037783 0.999996
vt 0.022540 0.000000
vt 0.022540 0.999996
vt 0.000000 0.000000
vt 0.000000 0.999996
vt 0.932379 1.000000
vt 0.932379 0.000000
vt 0.886650 0.000000
vt 0.886650 1.000000
vt 0.835958 0.000000
vt 0.835958 1.000000
vt 0.962217 0.999996
vt 0.962217 0.000000
vt 0.977460 0.999996
vt 0.977460 0.000000
vt 0.932379 1.000000
vt 0.932379 0.000000
vt 0.886650 1.000000
vt 0.886650 0.000000
vt 0.962217 0.000003
vt 0.962217 1.000000
vt 0.977460 0.000003
vt 0.977460 1.000000
vt 1.000000 0.000003
vt 1.000000 1.000000
vt 0.067621 1.000000
vt 0.067621 0.000000
vt 0.113350 0.000000
vt 0.113350 1.000000
vt 0.625000 0.000000
vt 0.750000 0.000000
vt 0.750000 1.000000
vt 0.625000 1.000000
vt 0.250000 0.000000
vt 0.375000 0.000000
vt 0.375000 1.000000
vt 0.250000 1.000000
vt 0.875000 0.000000
vt 0.875000 1.000000
vt 0.125000 0.000000
vt 0.125000 1.000000
vt 0.000000 0.000000
vt 0.000000 1.000000
vt 0.500000 0.000000
vt 0.500000 1.000000
vt 1.000000 0.000000
vt 1.000000 1.000000
vt 1.000000 0.917979
vt 0.997324 0.943325
vt 0.989557 0.966190
vt 0.977460 0.984335
vt 0.962217 0.995986
vt 0.037783 0.995986
vt 0.022540 0.984335
vt 0.010443 0.966190
vt 0.002676 0.943325
vt 0.000000 0.917979
vt 0.000000 0.582021
vt 0.002676 0.556675
vt 0.010443 0.533810
vt 0.022540 0.515665
vt 0.037783 0.504014
vt 0.054681 0.500000
vt 0.945319 0.500000
vt 0.962217 0.504014
vt 0.977460 0.515665
vt 0.989557 0.533810
vt 0.997324 0.556675
vt 1.000000 0.582021
vt 0.000000 0.417979
vt 0.002676 0.443325
vt 0.010443 0.466190
vt 0.022540 0.484335
vt 0.037783 0.495986
vt 0.054681 0.500000
vt 0.945319 0.500000
vt 0.962217 0.495986
vt 0.977460 0.484335
vt 0.989557 0.466190
vt 0.997324 0.443325
vt 1.000000 0.417979
vt 1.000000 0.082021
vt 0.997324 0.056675
vt 0.989557 0.033810
vt 0.977460 0.015665
vt 0.962217 0.004014
vt 0.037783 0.004014
vt 0.022540 0.015665
vt 0.010443 0.033810
vt 0.002676 0.056675
vt 0.000000 0.082021
vn -0.0000 -1.0000 -0.0000
vn 0.0000 1.0000 -0.0000
vn 0.0000 0.0000 1.0000
vn -1.0000 0.0000 0.0000
vn 0.0000 0.0000 -1.0000
vn 0.1564 0.0000 -0.9877
vn 0.4540 0.0000 -0.8910
vn 0.7071 0.0000 -0.7071
vn 0.8910 0.0000 -0.4540
vn 0.9877 0.0000 -0.1564
vn 0.1564 0.0000 0.9877
vn 0.4540 0.0000 0.8910
vn 0.7071 0.0000 0.7071
vn 0.8910 0.0000 0.4540
vn 0.9877 0.0000 0.1564
vn -0.1564 0.0000 0.9877
vn -0.4540 0.0000 0.8910
vn -0.7071 0.0000 0.7071
vn -0.8910 0.0000 0.4540
vn -0.9877 0.0000 0.1564
vn -0.1564 0.0000 -0.9877
vn -0.4540 0.0000 -0.8910
vn -0.7071 0.0000 -0.7071
vn -0.8910 0.0000 -0.4540
vn -0.9877 0.0000 -0.1564
vn 1.0000 0.0000 -0.0000
g sign_Cube_Cube_front-back_main_front-back
s off
f 59/1/1 52/2/1 61/3/1 60/4/1 62/5/1 54/6/1 55/7/1 49/8/1
f 56/9/2 51/10/2 64/11/2 63/12/2 57/13/2 58/14/2 53/15/2 50/16/2
g sign_Cube_Cube_front-back_signs_edges
f 31/17/3 11/18/3 45/19/3 42/20/3
f 14/21/4 43/22/4 23/23/4 39/24/4
f 36/25/5 17/26/5 4/27/5 25/28/5
f 25/28/6 4/27/6 6/29/6 2/30/6
f 2/30/7 6/29/7 5/31/7 26/32/7
f 26/32/8 5/31/8 29/33/8 27/34/8
f 27/34/9 29/33/9 30/35/9 28/36/9
f 28/36/10 30/35/10 3/37/10 1/38/10
f 11/18/11 31/17/11 10/39/11 33/40/11
f 33/40/12 10/39/12 9/41/12 34/42/12
f 34/42/13 9/41/13 32/43/13 35/44/13
f 35/45/14 32/46/14 8/47/14 13/48/14
f 13/48/15 8/47/15 7/49/15 12/50/15
f 42/20/16 45/19/16 46/51/16 20/52/16
f 20/52/17 46/51/17 47/53/17 21/54/17
f 21/54/18 47/53/18 24/55/18 44/56/18
f 44/56/19 24/55/19 48/57/19 22/58/19
f 22/58/20 48/57/20 23/23/20 43/22/20
f 17/26/21 36/25/21 16/59/21 41/60/21
f 41/60/22 16/59/22 37/61/22 18/62/22
f 18/62/23 37/61/23 15/63/23 40/64/23
f 40/65/24 15/66/24 38/67/24 19/68/24
f 19/68/25 38/67/25 14/21/25 39/24/25
f 7/49/26 1/38/26 3/37/26 12/50/26
f 59/69/26 49/70/26 56/71/26 50/72/26
f 60/73/18 61/74/18 58/75/18 57/76/18
f 49/70/8 55/77/8 51/78/8 56/71/8
f 62/79/4 60/73/4 57/76/4 63/80/4
f 54/81/23 62/79/23 63/80/23 64/82/23
f 52/83/13 59/69/13 50/72/13 53/84/13
f 61/74/3 52/83/3 53/84/3 58/75/3
f 55/77/5 54/85/5 64/86/5 51/78/5
g sign_Cube_Cube_front-back_plaque_front-back
f 23/87/2 48/88/2 24/89/2 47/90/2 46/91/2 45/19/2 11/18/2 33/92/2 34/93/2 35/94/2 13/95/2 12/96/2 3/97/2 30/98/2 29/99/2 5/100/2 6/101/2 4/102/2 17/103/2 41/104/2 18/105/2 40/106/2 19/107/2 39/108/2
f 7/109/1 8/110/1 32/111/1 9/112/1 10/113/1 31/114/1 42/115/1 20/116/1 21/117/1 44/118/1 22/119/1 43/120/1 14/121/1 38/122/1 15/123/1 37/124/1 16/125/1 36/25/1 25/28/1 2/126/1 26/127/1 27/128/1 28/129/1 1/130/1
