# Blender v2.79 (sub 0) OBJ File: 'US route sign.blend'
# www.blender.org
o Cube
v 0.500000 -0.437500 -0.430603
v 0.430603 -0.437500 -0.500000
v 0.498667 -0.437500 -0.444142
v 0.494718 -0.437500 -0.457160
v 0.488305 -0.437500 -0.469158
v 0.479674 -0.437500 -0.479674
v 0.469158 -0.437500 -0.488305
v 0.457160 -0.437500 -0.494718
v 0.444142 -0.437500 -0.498667
v 0.430603 -0.437500 0.500000
v 0.500000 -0.437500 0.430603
v 0.444142 -0.437500 0.498667
v 0.457160 -0.437500 0.494718
v 0.469158 -0.437500 0.488305
v 0.479674 -0.437500 0.479674
v 0.488305 -0.437500 0.469158
v 0.494718 -0.437500 0.457160
v 0.498667 -0.437500 0.444142
v 0.430603 -0.500000 -0.500000
v 0.500000 -0.500000 -0.430603
v 0.444142 -0.500000 -0.498667
v 0.457160 -0.500000 -0.494718
v 0.469158 -0.500000 -0.488305
v 0.479674 -0.500000 -0.479674
v 0.488305 -0.500000 -0.469158
v 0.494718 -0.500000 -0.457160
v 0.498667 -0.500000 -0.444142
v 0.500000 -0.500000 0.430603
v 0.430603 -0.500000 0.500000
v 0.498667 -0.500000 0.444142
v 0.494718 -0.500000 0.457160
v 0.488305 -0.500000 0.469158
v 0.479674 -0.500000 0.479674
v 0.469158 -0.500000 0.488305
v 0.457160 -0.500000 0.494718
v 0.444142 -0.500000 0.498667
v -0.430603 -0.437500 -0.500000
v -0.500000 -0.437500 -0.430603
v -0.444142 -0.437500 -0.498667
v -0.457160 -0.437500 -0.494718
v -0.469158 -0.437500 -0.488305
v -0.479674 -0.437500 -0.479674
v -0.488305 -0.437500 -0.469158
v -0.494718 -0.437500 -0.457160
v -0.498667 -0.437500 -0.444142
v -0.500000 -0.437500 0.430603
v -0.430603 -0.437500 0.500000
v -0.498667 -0.437500 0.444142
v -0.494718 -0.437500 0.457160
v -0.488305 -0.437500 0.469158
v -0.479674 -0.437500 0.479674
v -0.469158 -0.437500 0.488305
v -0.457160 -0.437500 0.494718
v -0.444142 -0.437500 0.498667
v -0.500000 -0.500000 -0.430603
v -0.430603 -0.500000 -0.500000
v -0.498667 -0.500000 -0.444142
v -0.494718 -0.500000 -0.457160
v -0.488305 -0.500000 -0.469158
v -0.479674 -0.500000 -0.479674
v -0.469158 -0.500000 -0.488305
v -0.457160 -0.500000 -0.494718
v -0.444142 -0.500000 -0.498667
v -0.430603 -0.500000 0.500000
v -0.500000 -0.500000 0.430603
v -0.444142 -0.500000 0.498667
v -0.457160 -0.500000 0.494718
v -0.469158 -0.500000 0.488305
v -0.479674 -0.500000 0.479674
v -0.488305 -0.500000 0.469158
v -0.494718 -0.500000 0.457160
v -0.498667 -0.500000 0.444142
vt 0.993196 0.556895
vt 0.993196 0.997111
vt 0.955146 0.997111
vt 0.955146 0.556895
vt 0.913812 0.005356
vt 0.951862 0.005356
vt 0.951862 0.012310
vt 0.913812 0.012310
vt 0.951862 0.019264
vt 0.913812 0.019264
vt 0.951862 0.026218
vt 0.913812 0.026218
vt 0.951862 0.033172
vt 0.913812 0.033172
vt 0.955146 0.549942
vt 0.993196 0.549941
vt 0.955146 0.542988
vt 0.993196 0.542987
vt 0.955146 0.536034
vt 0.993196 0.536033
vt 0.955146 0.529080
vt 0.993196 0.529079
vt 0.951862 0.556836
vt 0.913812 0.556836
vt 0.913812 0.549882
vt 0.951862 0.549882
vt 0.913812 0.542928
vt 0.951862 0.542927
vt 0.913812 0.535974
vt 0.951862 0.535974
vt 0.913812 0.529019
vt 0.951862 0.529019
vt 0.955146 0.005417
vt 0.993196 0.005417
vt 0.993196 0.012371
vt 0.955146 0.012371
vt 0.993196 0.019325
vt 0.955146 0.019325
vt 0.993196 0.026279
vt 0.955146 0.026279
vt 0.993196 0.033233
vt 0.955146 0.033233
vt 0.951862 0.997051
vt 0.913812 0.997051
vt 0.993196 0.061049
vt 0.993196 0.501264
vt 0.955146 0.501264
vt 0.955146 0.061049
vt 0.993196 0.040187
vt 0.955146 0.040187
vt 0.993196 0.047141
vt 0.955146 0.047141
vt 0.993196 0.054095
vt 0.955146 0.054095
vt 0.955146 0.522126
vt 0.993196 0.522126
vt 0.955146 0.515172
vt 0.993196 0.515172
vt 0.955146 0.508218
vt 0.993196 0.508218
vt 0.913812 0.501204
vt 0.913812 0.060988
vt 0.951862 0.060988
vt 0.951862 0.501204
vt 0.913812 0.522066
vt 0.951862 0.522066
vt 0.913812 0.515111
vt 0.951862 0.515111
vt 0.913812 0.508158
vt 0.951862 0.508157
vt 0.951862 0.040126
vt 0.913812 0.040126
vt 0.951862 0.047080
vt 0.913812 0.047080
vt 0.951862 0.054034
vt 0.913812 0.054034
vt 0.829173 0.003937
vt 0.840978 0.004580
vt 0.852328 0.006485
vt 0.862789 0.009578
vt 0.871958 0.013740
vt 0.879483 0.018812
vt 0.885074 0.024598
vt 0.888517 0.030877
vt 0.889680 0.037406
vt 0.889680 0.452751
vt 0.888517 0.459281
vt 0.885074 0.465559
vt 0.879483 0.471346
vt 0.871958 0.476418
vt 0.862789 0.480580
vt 0.852328 0.483673
vt 0.840977 0.485577
vt 0.829173 0.486221
vt 0.078300 0.486220
vt 0.066496 0.485577
vt 0.055145 0.483673
vt 0.044684 0.480580
vt 0.035516 0.476418
vt 0.027991 0.471346
vt 0.022399 0.465559
vt 0.018956 0.459281
vt 0.017794 0.452751
vt 0.017794 0.037406
vt 0.018956 0.030877
vt 0.022399 0.024598
vt 0.027991 0.018812
vt 0.035516 0.013740
vt 0.044684 0.009578
vt 0.055145 0.006485
vt 0.066496 0.004580
vt 0.078300 0.003937
vt 0.829173 0.507874
vt 0.840978 0.508517
vt 0.852328 0.510422
vt 0.862789 0.513515
vt 0.871958 0.517677
vt 0.879483 0.522749
vt 0.885074 0.528535
vt 0.888517 0.534814
vt 0.889680 0.541343
vt 0.889680 0.956688
vt 0.888517 0.963218
vt 0.885074 0.969496
vt 0.879483 0.975283
vt 0.871958 0.980355
vt 0.862789 0.984517
vt 0.852328 0.987610
vt 0.840977 0.989514
vt 0.829173 0.990158
vt 0.078300 0.990157
vt 0.066496 0.989514
vt 0.055145 0.987610
vt 0.044684 0.984517
vt 0.035516 0.980355
vt 0.027991 0.975283
vt 0.022399 0.969496
vt 0.018956 0.963218
vt 0.017794 0.956688
vt 0.017794 0.541343
vt 0.018956 0.534814
vt 0.022399 0.528535
vt 0.027991 0.522749
vt 0.035516 0.517677
vt 0.044684 0.513515
vt 0.055145 0.510422
vt 0.066496 0.508517
vt 0.078300 0.507874
vn 0.0000 0.0000 1.0000
vn 0.0980 0.0000 0.9952
vn 0.2903 0.0000 0.9569
vn 0.4714 0.0000 0.8819
vn 0.6344 0.0000 0.7730
vn -0.0980 0.0000 0.9952
vn -0.2903 0.0000 0.9569
vn -0.4714 0.0000 0.8819
vn -0.6344 0.0000 0.7730
vn 0.0980 0.0000 -0.9952
vn 0.2903 0.0000 -0.9569
vn 0.4714 0.0000 -0.8819
vn 0.6344 0.0000 -0.7730
vn -0.0980 0.0000 -0.9952
vn -0.2903 0.0000 -0.9569
vn -0.4714 0.0000 -0.8819
vn -0.6344 0.0000 -0.7730
vn 0.0000 0.0000 -1.0000
vn -1.0000 0.0000 0.0000
vn -0.7730 0.0000 -0.6344
vn -0.8819 0.0000 -0.4714
vn -0.9569 0.0000 -0.2903
vn -0.9952 0.0000 -0.0980
vn -0.7730 0.0000 0.6344
vn -0.8819 0.0000 0.4714
vn -0.9569 0.0000 0.2903
vn -0.9952 0.0000 0.0980
vn 1.0000 0.0000 0.0000
vn 0.7730 0.0000 -0.6344
vn 0.8819 0.0000 -0.4714
vn 0.9569 0.0000 -0.2903
vn 0.9952 0.0000 -0.0980
vn 0.7730 0.0000 0.6344
vn 0.8819 0.0000 0.4714
vn 0.9569 0.0000 0.2903
vn 0.9952 0.0000 0.0980
vn 0.0000 -1.0000 0.0000
vn 0.0000 1.0000 -0.0000
g Cube_Cube_top
s off
f 64/1/1 29/2/1 10/3/1 47/4/1
f 10/5/2 29/6/2 36/7/2 12/8/2
f 12/8/3 36/7/3 35/9/3 13/10/3
f 13/10/4 35/9/4 34/11/4 14/12/4
f 14/12/5 34/11/5 33/13/5 15/14/5
f 64/1/6 47/4/6 54/15/6 66/16/6
f 66/16/7 54/15/7 53/17/7 67/18/7
f 67/18/8 53/17/8 52/19/8 68/20/8
f 68/20/9 52/19/9 51/21/9 69/22/9
g Cube_Cube_bottom
f 19/23/10 2/24/10 9/25/10 21/26/10
f 21/26/11 9/25/11 8/27/11 22/28/11
f 22/28/12 8/27/12 7/29/12 23/30/12
f 23/30/13 7/29/13 6/31/13 24/32/13
f 37/33/14 56/34/14 63/35/14 39/36/14
f 39/36/15 63/35/15 62/37/15 40/38/15
f 40/38/16 62/37/16 61/39/16 41/40/16
f 41/40/17 61/39/17 60/41/17 42/42/17
f 19/23/18 56/43/18 37/44/18 2/24/18
g Cube_Cube_right
f 55/45/19 65/46/19 46/47/19 38/48/19
f 42/42/20 60/41/20 59/49/20 43/50/20
f 43/50/21 59/49/21 58/51/21 44/52/21
f 44/52/22 58/51/22 57/53/22 45/54/22
f 45/54/23 57/53/23 55/45/23 38/48/23
f 69/22/24 51/21/24 50/55/24 70/56/24
f 70/56/25 50/55/25 49/57/25 71/58/25
f 71/58/26 49/57/26 48/59/26 72/60/26
f 72/60/27 48/59/27 46/47/27 65/46/27
g Cube_Cube_left
f 1/61/28 11/62/28 28/63/28 20/64/28
f 24/32/29 6/31/29 5/65/29 25/66/29
f 25/66/30 5/65/30 4/67/30 26/68/30
f 26/68/31 4/67/31 3/69/31 27/70/31
f 27/70/32 3/69/32 1/61/32 20/64/32
f 15/14/33 33/13/33 32/71/33 16/72/33
f 16/72/34 32/71/34 31/73/34 17/74/34
f 17/74/35 31/73/35 30/75/35 18/76/35
f 18/76/36 30/75/36 28/63/36 11/62/36
g Cube_Cube_back
f 19/77/37 21/78/37 22/79/37 23/80/37 24/81/37 25/82/37 26/83/37 27/84/37 20/85/37 28/86/37 30/87/37 31/88/37 32/89/37 33/90/37 34/91/37 35/92/37 36/93/37 29/94/37 64/95/37 66/96/37 67/97/37 68/98/37 69/99/37 70/100/37 71/101/37 72/102/37 65/103/37 55/104/37 57/105/37 58/106/37 59/107/37 60/108/37 61/109/37 62/110/37 63/111/37 56/112/37
g Cube_Cube_front
f 37/113/38 39/114/38 40/115/38 41/116/38 42/117/38 43/118/38 44/119/38 45/120/38 38/121/38 46/122/38 48/123/38 49/124/38 50/125/38 51/126/38 52/127/38 53/128/38 54/129/38 47/130/38 10/131/38 12/132/38 13/133/38 14/134/38 15/135/38 16/136/38 17/137/38 18/138/38 11/139/38 1/140/38 3/141/38 4/142/38 5/143/38 6/144/38 7/145/38 8/146/38 9/147/38 2/148/38
