# Blender v2.79 (sub 0) OBJ File: 'street signs object marker type 3.blend'
# www.blender.org
o Cube
v 0.152400 -0.468750 -0.393911
v 0.108811 -0.468750 -0.437500
v 0.150915 -0.468750 -0.405192
v 0.146560 -0.468750 -0.415705
v 0.139633 -0.468750 -0.424733
v 0.130605 -0.468750 -0.431660
v 0.120092 -0.468750 -0.436015
v 0.108811 -0.468750 0.476900
v 0.152400 -0.468750 0.433311
v 0.120092 -0.468750 0.475415
v 0.130605 -0.468750 0.471060
v 0.139633 -0.468750 0.464133
v 0.146560 -0.468750 0.455105
v 0.150915 -0.468750 0.444592
v 0.108811 -0.500000 -0.437500
v 0.152400 -0.500000 -0.393911
v 0.120092 -0.500000 -0.436015
v 0.130605 -0.500000 -0.431660
v 0.139633 -0.500000 -0.424733
v 0.146560 -0.500000 -0.415705
v 0.150915 -0.500000 -0.405192
v 0.152400 -0.500000 0.433311
v 0.108811 -0.500000 0.476900
v 0.150915 -0.500000 0.444592
v 0.146560 -0.500000 0.455105
v 0.139633 -0.500000 0.464133
v 0.130605 -0.500000 0.471060
v 0.120092 -0.500000 0.475415
v -0.108811 -0.468750 -0.437500
v -0.152400 -0.468750 -0.393911
v -0.120092 -0.468750 -0.436015
v -0.130605 -0.468750 -0.431660
v -0.139633 -0.468750 -0.424733
v -0.146560 -0.468750 -0.415705
v -0.150915 -0.468750 -0.405192
v -0.152400 -0.468750 0.433311
v -0.108811 -0.468750 0.476900
v -0.150915 -0.468750 0.444592
v -0.146560 -0.468750 0.455105
v -0.139633 -0.468750 0.464133
v -0.130605 -0.468750 0.471060
v -0.120092 -0.468750 0.475415
v -0.152400 -0.500000 -0.393911
v -0.108811 -0.500000 -0.437500
v -0.150915 -0.500000 -0.405192
v -0.146560 -0.500000 -0.415705
v -0.139633 -0.500000 -0.424733
v -0.130605 -0.500000 -0.431660
v -0.120092 -0.500000 -0.436015
v -0.108811 -0.500000 0.476900
v -0.152400 -0.500000 0.433311
v -0.120092 -0.500000 0.475415
v -0.130605 -0.500000 0.471060
v -0.139633 -0.500000 0.464133
v -0.146560 -0.500000 0.455105
v -0.150915 -0.500000 0.444592
vt 0.398139 0.002591
vt 0.415167 0.004207
vt 0.431034 0.008944
vt 0.444659 0.016480
vt 0.455114 0.026302
vt 0.461687 0.037740
vt 0.463928 0.050014
vt 0.463928 0.949986
vt 0.461687 0.962260
vt 0.455114 0.973698
vt 0.444659 0.983520
vt 0.431034 0.991056
vt 0.415167 0.995793
vt 0.398139 0.997409
vt 0.069686 0.997409
vt 0.052659 0.995794
vt 0.036792 0.991056
vt 0.023166 0.983520
vt 0.012711 0.973698
vt 0.006139 0.962260
vt 0.003897 0.949986
vt 0.003897 0.050014
vt 0.006139 0.037740
vt 0.012711 0.026302
vt 0.023166 0.016480
vt 0.036792 0.008944
vt 0.052659 0.004207
vt 0.069686 0.002591
vt 0.997776 0.029793
vt 0.997776 0.379534
vt 0.948181 0.379534
vt 0.948181 0.029793
vt 0.997776 0.408031
vt 0.997776 0.500000
vt 0.948181 0.500000
vt 0.948181 0.408031
vt 0.948181 0.878238
vt 0.948181 0.528497
vt 0.997776 0.528497
vt 0.997776 0.878238
vt 0.537521 0.002591
vt 0.520493 0.004207
vt 0.504626 0.008944
vt 0.491001 0.016480
vt 0.480545 0.026302
vt 0.473973 0.037740
vt 0.471731 0.050014
vt 0.471731 0.949986
vt 0.473973 0.962260
vt 0.480545 0.973698
vt 0.491001 0.983520
vt 0.504626 0.991056
vt 0.520493 0.995793
vt 0.537521 0.997409
vt 0.865978 0.997409
vt 0.883006 0.995794
vt 0.898873 0.991056
vt 0.912499 0.983520
vt 0.922954 0.973698
vt 0.929527 0.962260
vt 0.931768 0.949986
vt 0.931768 0.050014
vt 0.929527 0.037740
vt 0.922954 0.026302
vt 0.912499 0.016480
vt 0.898873 0.008944
vt 0.883006 0.004207
vt 0.865978 0.002591
vt 0.997776 0.906736
vt 0.948181 0.906736
vt 0.948181 0.901554
vt 0.997776 0.901554
vt 0.948181 0.897668
vt 0.997776 0.897668
vt 0.948181 0.892487
vt 0.997776 0.892487
vt 0.948181 0.887306
vt 0.997776 0.887306
vt 0.948181 0.883420
vt 0.997776 0.883420
vt 0.997776 0.505181
vt 0.948181 0.505181
vt 0.997776 0.509067
vt 0.948181 0.509067
vt 0.997776 0.514249
vt 0.948181 0.514249
vt 0.997776 0.519430
vt 0.948181 0.519430
vt 0.997776 0.524611
vt 0.948181 0.524611
vt 0.948181 0.001295
vt 0.997776 0.001295
vt 0.997776 0.006477
vt 0.948181 0.006477
vt 0.997776 0.010363
vt 0.948181 0.010363
vt 0.997776 0.015544
vt 0.948181 0.015544
vt 0.997776 0.020725
vt 0.948181 0.020725
vt 0.997776 0.025907
vt 0.948181 0.025907
vt 0.948181 0.402850
vt 0.997776 0.402850
vt 0.948181 0.398964
vt 0.997776 0.398964
vt 0.948181 0.393782
vt 0.997776 0.393782
vt 0.948181 0.388601
vt 0.997776 0.388601
vt 0.948181 0.384715
vt 0.997776 0.384715
vt 0.997776 0.998705
vt 0.948181 0.998705
vn 0.0000 1.0000 -0.0000
vn -1.0000 0.0000 0.0000
vn 0.0000 0.0000 1.0000
vn 1.0000 0.0000 0.0000
vn 0.0000 -1.0000 0.0000
vn 0.1305 0.0000 -0.9914
vn 0.3827 0.0000 -0.9239
vn 0.6088 0.0000 -0.7934
vn 0.7934 0.0000 -0.6088
vn 0.9239 0.0000 -0.3827
vn 0.9914 0.0000 -0.1305
vn 0.1305 0.0000 0.9914
vn 0.3827 0.0000 0.9239
vn 0.6088 0.0000 0.7934
vn 0.7934 0.0000 0.6088
vn 0.9239 0.0000 0.3827
vn 0.9914 0.0000 0.1305
vn -0.1305 0.0000 -0.9914
vn -0.3827 0.0000 -0.9239
vn -0.6088 0.0000 -0.7934
vn -0.7934 0.0000 -0.6088
vn -0.9239 0.0000 -0.3827
vn -0.9914 0.0000 -0.1305
vn -0.1305 0.0000 0.9914
vn -0.3827 0.0000 0.9239
vn -0.6088 0.0000 0.7934
vn -0.7934 0.0000 0.6088
vn -0.9239 0.0000 0.3827
vn -0.9914 0.0000 0.1305
vn 0.0000 0.0000 -1.0000
g Cube_Cube_None
s off
f 29/1/1 31/2/1 32/3/1 33/4/1 34/5/1 35/6/1 30/7/1 36/8/1 38/9/1 39/10/1 40/11/1 41/12/1 42/13/1 37/14/1 8/15/1 10/16/1 11/17/1 12/18/1 13/19/1 14/20/1 9/21/1 1/22/1 3/23/1 4/24/1 5/25/1 6/26/1 7/27/1 2/28/1
f 43/29/2 51/30/2 36/31/2 30/32/2
f 50/33/3 23/34/3 8/35/3 37/36/3
f 1/37/4 9/38/4 22/39/4 16/40/4
f 15/41/5 17/42/5 18/43/5 19/44/5 20/45/5 21/46/5 16/47/5 22/48/5 24/49/5 25/50/5 26/51/5 27/52/5 28/53/5 23/54/5 50/55/5 52/56/5 53/57/5 54/58/5 55/59/5 56/60/5 51/61/5 43/62/5 45/63/5 46/64/5 47/65/5 48/66/5 49/67/5 44/68/5
f 15/69/6 2/70/6 7/71/6 17/72/6
f 17/72/7 7/71/7 6/73/7 18/74/7
f 18/74/8 6/73/8 5/75/8 19/76/8
f 19/76/9 5/75/9 4/77/9 20/78/9
f 20/78/10 4/77/10 3/79/10 21/80/10
f 21/80/11 3/79/11 1/37/11 16/40/11
f 8/35/12 23/34/12 28/81/12 10/82/12
f 10/82/13 28/81/13 27/83/13 11/84/13
f 11/84/14 27/83/14 26/85/14 12/86/14
f 12/86/15 26/85/15 25/87/15 13/88/15
f 13/88/16 25/87/16 24/89/16 14/90/16
f 14/90/17 24/89/17 22/39/17 9/38/17
f 29/91/18 44/92/18 49/93/18 31/94/18
f 31/94/19 49/93/19 48/95/19 32/96/19
f 32/96/20 48/95/20 47/97/20 33/98/20
f 33/98/21 47/97/21 46/99/21 34/100/21
f 34/100/22 46/99/22 45/101/22 35/102/22
f 35/102/23 45/101/23 43/29/23 30/32/23
f 50/33/24 37/36/24 42/103/24 52/104/24
f 52/104/25 42/103/25 41/105/25 53/106/25
f 53/106/26 41/105/26 40/107/26 54/108/26
f 54/108/27 40/107/27 39/109/27 55/110/27
f 55/110/28 39/109/28 38/111/28 56/112/28
f 56/112/29 38/111/29 36/31/29 51/30/29
f 15/69/30 44/113/30 29/114/30 2/70/30
