# Blender v2.79 (sub 0) OBJ File: '000 Basic square 100x100x5 cm sign.blend'
# www.blender.org
o Cube
v 0.178600 -0.500000 0.021400
v 0.228600 -0.500000 0.071400
v 0.194051 -0.500000 0.023847
v 0.207989 -0.500000 0.030949
v 0.219051 -0.500000 0.042011
v 0.226153 -0.500000 0.055949
v 0.228600 -0.450000 0.071400
v 0.178600 -0.450000 0.021400
v 0.226153 -0.450000 0.055949
v 0.219051 -0.450000 0.042011
v 0.207989 -0.450000 0.030949
v 0.194051 -0.450000 0.023847
v 0.228600 -0.500000 0.428600
v 0.178600 -0.500000 0.478600
v 0.226153 -0.500000 0.444051
v 0.219051 -0.500000 0.457989
v 0.207989 -0.500000 0.469051
v 0.194051 -0.500000 0.476153
v 0.178600 -0.450000 0.478600
v 0.228600 -0.450000 0.428600
v 0.194051 -0.450000 0.476153
v 0.207989 -0.450000 0.469051
v 0.219051 -0.450000 0.457989
v 0.226153 -0.450000 0.444051
v -0.228600 -0.500000 0.071400
v -0.178600 -0.500000 0.021400
v -0.226153 -0.500000 0.055949
v -0.219051 -0.500000 0.042011
v -0.207989 -0.500000 0.030949
v -0.194051 -0.500000 0.023847
v -0.178600 -0.450000 0.021400
v -0.228600 -0.450000 0.071400
v -0.194051 -0.450000 0.023847
v -0.207989 -0.450000 0.030949
v -0.219051 -0.450000 0.042011
v -0.226153 -0.450000 0.055949
v -0.178600 -0.500000 0.478600
v -0.228600 -0.500000 0.428600
v -0.194051 -0.500000 0.476153
v -0.207989 -0.500000 0.469051
v -0.219051 -0.500000 0.457989
v -0.226153 -0.500000 0.444051
v -0.228600 -0.450000 0.428600
v -0.178600 -0.450000 0.478600
v -0.226153 -0.450000 0.444051
v -0.219051 -0.450000 0.457989
v -0.207989 -0.450000 0.469051
v -0.194051 -0.450000 0.476153
v 0.178600 -0.500000 0.021400
v 0.228600 -0.500000 0.071400
v 0.194051 -0.500000 0.023847
v 0.207989 -0.500000 0.030949
v 0.219051 -0.500000 0.042011
v 0.226153 -0.500000 0.055949
v 0.178600 -0.450000 0.021400
v 0.228600 -0.450000 0.071400
v 0.194051 -0.450000 0.023847
v 0.207989 -0.450000 0.030949
v 0.219051 -0.450000 0.042011
v 0.226153 -0.450000 0.055949
v 0.178600 -0.500000 0.478600
v 0.228600 -0.500000 0.428600
v 0.194051 -0.500000 0.476153
v 0.207989 -0.500000 0.469051
v 0.219051 -0.500000 0.457989
v 0.226153 -0.500000 0.444051
v 0.178600 -0.450000 0.478600
v 0.228600 -0.450000 0.428600
v 0.194051 -0.450000 0.476153
v 0.207989 -0.450000 0.469051
v 0.219051 -0.450000 0.457989
v 0.226153 -0.450000 0.444051
v -0.178600 -0.500000 0.021400
v -0.228600 -0.500000 0.071400
v -0.194051 -0.500000 0.023847
v -0.207989 -0.500000 0.030949
v -0.219051 -0.500000 0.042011
v -0.226153 -0.500000 0.055949
v -0.228600 -0.450000 0.071400
v -0.178600 -0.450000 0.021400
v -0.226153 -0.450000 0.055949
v -0.219051 -0.450000 0.042011
v -0.207989 -0.450000 0.030949
v -0.194051 -0.450000 0.023847
v -0.178600 -0.500000 0.478600
v -0.228600 -0.500000 0.428600
v -0.194051 -0.500000 0.476153
v -0.207989 -0.500000 0.469051
v -0.219051 -0.500000 0.457989
v -0.226153 -0.500000 0.444051
v -0.178600 -0.450000 0.478600
v -0.228600 -0.450000 0.428600
v -0.194051 -0.450000 0.476153
v -0.207989 -0.450000 0.469051
v -0.219051 -0.450000 0.457989
v -0.226153 -0.450000 0.444051
vt 0.500000 0.890639
vt 0.497324 0.924433
vt 0.489557 0.954920
vt 0.477460 0.979114
vt 0.462217 0.994648
vt 0.445319 1.000000
vt 0.054681 1.000000
vt 0.037783 0.994648
vt 0.022540 0.979114
vt 0.010443 0.954920
vt 0.002676 0.924433
vt 0.000000 0.890639
vt 0.000000 0.109361
vt 0.002676 0.075567
vt 0.010443 0.045080
vt 0.022540 0.020886
vt 0.037783 0.005353
vt 0.054681 0.000000
vt 0.445319 0.000000
vt 0.462217 0.005353
vt 0.477460 0.020886
vt 0.489557 0.045080
vt 0.497324 0.075567
vt 0.500000 0.109361
vt 0.500000 0.890639
vt 0.502676 0.924433
vt 0.510443 0.954920
vt 0.522540 0.979114
vt 0.537783 0.994648
vt 0.554681 1.000000
vt 0.945319 1.000000
vt 0.962217 0.994648
vt 0.977460 0.979114
vt 0.989557 0.954920
vt 0.997324 0.924433
vt 1.000000 0.890639
vt 1.000000 0.109361
vt 0.997324 0.075567
vt 0.989557 0.045080
vt 0.977460 0.020886
vt 0.962217 0.005353
vt 0.945319 0.000000
vt 0.554681 0.000000
vt 0.537783 0.005353
vt 0.522540 0.020886
vt 0.510443 0.045080
vt 0.502676 0.075567
vt 0.500000 0.109361
vt 0.109361 0.000000
vt 0.109361 0.999996
vt 0.890639 0.999996
vt 0.890639 0.000000
vt 0.109361 0.000000
vt 0.890639 0.000000
vt 0.890639 1.000000
vt 0.109361 1.000000
vt 0.890639 0.000003
vt 0.890639 1.000000
vt 0.109361 1.000000
vt 0.109361 0.000003
vt 0.075567 1.000000
vt 0.075567 0.000003
vt 0.045080 1.000000
vt 0.045080 0.000003
vt 0.045080 1.000000
vt 0.045080 0.000000
vt 0.075567 1.000000
vt 0.075567 0.000000
vt 0.109361 1.000000
vt 0.109361 0.000000
vt 0.075567 0.000000
vt 0.075567 0.999996
vt 0.045080 0.000000
vt 0.045080 0.999996
vt 0.000000 0.000000
vt 0.000000 0.999996
vt 0.954920 1.000000
vt 0.954920 0.000000
vt 0.924433 0.000000
vt 0.924433 1.000000
vt 0.890639 0.000000
vt 0.890639 1.000000
vt 0.924433 0.999996
vt 0.924433 0.000000
vt 0.954920 0.999996
vt 0.954920 0.000000
vt 0.954920 1.000000
vt 0.954920 0.000000
vt 0.924433 1.000000
vt 0.924433 0.000000
vt 0.924433 0.000003
vt 0.924433 1.000000
vt 0.954920 0.000003
vt 0.954920 1.000000
vt 1.000000 0.000003
vt 1.000000 1.000000
vt 0.045080 1.000000
vt 0.045080 0.000000
vt 0.075567 0.000000
vt 0.075567 1.000000
vn 0.0000 1.0000 -0.0000
vn 0.0000 -1.0000 -0.0000
vn 0.0000 0.0000 1.0000
vn -1.0000 0.0000 0.0000
vn 0.0000 0.0000 -1.0000
vn 0.1564 0.0000 -0.9877
vn 0.4540 -0.0000 -0.8910
vn 0.7071 -0.0000 -0.7071
vn 0.8910 0.0000 -0.4540
vn 0.9877 0.0000 -0.1564
vn 0.1564 0.0000 0.9877
vn 0.4540 0.0000 0.8910
vn 0.7071 -0.0000 0.7071
vn 0.8910 -0.0000 0.4540
vn 0.9877 0.0000 0.1564
vn -0.1564 0.0000 0.9877
vn -0.4540 0.0000 0.8910
vn -0.7071 0.0000 0.7071
vn -0.8910 0.0000 0.4540
vn -0.9877 0.0000 0.1564
vn -0.1564 0.0000 -0.9877
vn -0.4540 0.0000 -0.8910
vn -0.7071 0.0000 -0.7071
vn -0.8910 -0.0000 -0.4540
vn -0.9877 0.0000 -0.1564
vn 1.0000 0.0000 0.0000
g Cube_Cube_front-back
s off
f 92/1/1 96/2/1 95/3/1 94/4/1 93/5/1 91/6/1 67/7/1 69/8/1 70/9/1 71/10/1 72/11/1 68/12/1 56/13/1 60/14/1 59/15/1 58/16/1 57/17/1 55/18/1 80/19/1 84/20/1 83/21/1 82/22/1 81/23/1 79/24/1
f 62/25/2 66/26/2 65/27/2 64/28/2 63/29/2 61/30/2 85/31/2 87/32/2 88/33/2 89/34/2 90/35/2 86/36/2 74/37/2 78/38/2 77/39/2 76/40/2 75/41/2 73/42/2 49/43/2 51/44/2 52/45/2 53/46/2 54/47/2 50/48/2
g Cube_Cube_edges
f 14/49/3 19/50/3 44/51/3 37/52/3
f 25/53/4 38/54/4 43/55/4 32/56/4
f 26/57/5 31/58/5 8/59/5 1/60/5
f 1/60/6 8/59/6 12/61/6 3/62/6
f 3/62/7 12/61/7 11/63/7 4/64/7
f 4/64/8 11/63/8 10/65/8 5/66/8
f 5/66/9 10/65/9 9/67/9 6/68/9
f 6/68/10 9/67/10 7/69/10 2/70/10
f 19/50/11 14/49/11 18/71/11 21/72/11
f 21/72/12 18/71/12 17/73/12 22/74/12
f 22/74/13 17/73/13 16/75/13 23/76/13
f 23/77/14 16/78/14 15/79/14 24/80/14
f 24/80/15 15/79/15 13/81/15 20/82/15
f 37/52/16 44/51/16 48/83/16 39/84/16
f 39/84/17 48/83/17 47/85/17 40/86/17
f 40/86/18 47/85/18 46/87/18 41/88/18
f 41/88/19 46/87/19 45/89/19 42/90/19
f 42/90/20 45/89/20 43/55/20 38/54/20
f 31/58/21 26/57/21 30/91/21 33/92/21
f 33/92/22 30/91/22 29/93/22 34/94/22
f 34/94/23 29/93/23 28/95/23 35/96/23
f 35/97/24 28/98/24 27/99/24 36/100/24
f 36/100/25 27/99/25 25/53/25 32/56/25
f 13/81/26 2/70/26 7/69/26 20/82/26
