# Blender v2.79 (sub 0) OBJ File: 'street signs basic top only.blend'
# www.blender.org
o Cube
v 0.062500 -0.250000 -0.062500
v 0.062500 -0.250000 0.062500
v -0.062500 -0.250000 -0.062500
v -0.062500 -0.250000 0.062500
v 0.031250 0.437500 -0.500000
v 0.031250 0.437500 0.500000
v -0.031250 0.437500 -0.500000
v -0.031250 0.437500 0.500000
v 0.031250 0.125000 -0.500000
v 0.031250 0.125000 0.500000
v -0.031250 0.125000 0.500000
v -0.031250 0.125000 -0.500000
v 0.500000 0.062500 -0.031250
v 0.500000 0.062500 0.031250
v -0.500000 0.062500 0.031250
v -0.500000 0.062500 -0.031250
v 0.500000 -0.250000 -0.031250
v 0.500000 -0.250000 0.031250
v -0.500000 -0.250000 0.031250
v -0.500000 -0.250000 -0.031250
v 0.031250 0.062500 -0.031250
v 0.031250 0.062500 0.031250
v -0.031250 0.062500 -0.031250
v -0.031250 0.062500 0.031250
v 0.031250 0.125000 -0.031250
v 0.031250 0.125000 0.031250
v -0.031250 0.125000 0.031250
v -0.031250 0.125000 -0.031250
v 0.031250 0.437500 -0.031250
v 0.031250 0.437500 0.031250
v -0.031250 0.437500 -0.031250
v -0.031250 0.437500 0.031250
v 0.031250 0.500000 -0.031250
v 0.031250 0.500000 0.031250
v -0.031250 0.500000 0.031250
v -0.031250 0.500000 -0.031250
v -0.062500 -0.500000 0.062500
v 0.062500 -0.500000 0.062500
v -0.062500 -0.500000 -0.062500
v 0.062500 -0.500000 -0.062500
vt 0.281250 0.593750
vt 0.156250 0.593750
vt 0.156250 0.531250
vt 0.281250 0.531250
vt 0.781250 0.093750
vt 0.718750 0.093750
vt 0.718750 0.593750
vt 0.781250 0.593750
vt 0.781250 0.093750
vt 0.781250 0.593750
vt 0.718750 0.593750
vt 0.718750 0.093750
vt 1.000000 0.968750
vt 1.000000 0.812500
vt 0.000000 0.812500
vt 0.000000 0.968750
vt 0.000000 0.968750
vt 0.000000 0.812500
vt 1.000000 0.812500
vt 1.000000 0.968750
vt 0.968750 0.593750
vt 0.968750 0.437500
vt 0.906250 0.437500
vt 0.906250 0.593750
vt 0.906250 0.593750
vt 0.906250 0.437500
vt 0.968750 0.437500
vt 0.968750 0.593750
vt 0.718750 0.093750
vt 0.718750 0.593750
vt 0.781250 0.593750
vt 0.781250 0.093750
vt 0.718750 0.093750
vt 0.781250 0.093750
vt 0.781250 0.593750
vt 0.718750 0.593750
vt 1.000000 0.781250
vt 1.000000 0.625000
vt 0.000000 0.625000
vt 0.000000 0.781250
vt 0.000000 0.781250
vt 0.000000 0.625000
vt 1.000000 0.625000
vt 1.000000 0.781250
vt 0.968750 0.593750
vt 0.968750 0.437500
vt 0.906250 0.437500
vt 0.906250 0.593750
vt 0.906250 0.593750
vt 0.906250 0.437500
vt 0.968750 0.437500
vt 0.968750 0.593750
vt 0.000000 0.000000
vt 1.000000 0.000000
vt 1.000000 1.000000
vt 0.000000 1.000000
vt 0.000000 0.000000
vt 1.000000 0.000000
vt 1.000000 1.000000
vt 0.000000 1.000000
vt 0.531250 0.781250
vt 0.468750 0.781250
vt 0.468750 0.812500
vt 0.531250 0.812500
vt 0.468750 0.781250
vt 0.531250 0.781250
vt 0.531250 0.812500
vt 0.468750 0.812500
vt 0.468750 0.781250
vt 0.468750 0.812500
vt 0.531250 0.781250
vt 0.531250 0.812500
vt 0.000000 0.000000
vt 1.000000 0.000000
vt 1.000000 1.000000
vt 0.000000 1.000000
vt 0.218750 0.468750
vt 0.156250 0.468750
vt 0.156250 0.437500
vt 0.218750 0.437500
vt 0.531250 0.968750
vt 0.468750 0.968750
vt 0.468750 1.000000
vt 0.531250 1.000000
vt 0.468750 0.968750
vt 0.531250 0.968750
vt 0.531250 1.000000
vt 0.468750 1.000000
vt 0.531250 0.968750
vt 0.468750 0.968750
vt 0.468750 1.000000
vt 0.468750 0.968750
vt 0.531250 0.968750
vt 0.531250 1.000000
vt 0.562500 0.500000
vt 0.437500 0.500000
vt 0.437500 0.625000
vt 0.562500 0.625000
vt 0.437500 0.500000
vt 0.562500 0.500000
vt 0.562500 0.625000
vt 0.437500 0.625000
vt 0.562500 0.500000
vt 0.562500 0.625000
vt 0.437500 0.500000
vt 0.437500 0.625000
vt 0.000000 0.000000
vt 0.000000 0.000000
vt 0.000000 0.000000
vt 0.000000 0.000000
vn 0.0000 1.0000 0.0000
vn 0.0000 -1.0000 0.0000
vn -1.0000 0.0000 0.0000
vn 1.0000 0.0000 0.0000
vn 0.0000 0.0000 -1.0000
vn 0.0000 0.0000 1.0000
g Cube_Cube_None
s off
f 4/1/1 2/2/1 1/3/1 3/4/1
f 8/5/1 6/6/1 5/7/1 7/8/1
f 11/9/2 12/10/2 9/11/2 10/12/2
f 7/13/3 12/14/3 11/15/3 8/16/3
f 6/17/4 10/18/4 9/19/4 5/20/4
f 5/21/5 9/22/5 12/23/5 7/24/5
f 8/25/6 11/26/6 10/27/6 6/28/6
f 15/29/1 14/30/1 13/31/1 16/32/1
f 19/33/2 20/34/2 17/35/2 18/36/2
f 13/37/5 17/38/5 20/39/5 16/40/5
f 15/41/6 19/42/6 18/43/6 14/44/6
f 16/45/3 20/46/3 19/47/3 15/48/3
f 14/49/4 18/50/4 17/51/4 13/52/4
f 24/53/2 23/54/2 21/55/2 22/56/2
f 27/57/1 26/58/1 25/59/1 28/60/1
f 23/61/3 24/62/3 27/63/3 28/64/3
f 22/65/4 21/66/4 25/67/4 26/68/4
f 21/66/5 23/69/5 28/70/5 25/67/5
f 24/62/6 22/71/6 26/72/6 27/63/6
f 32/73/2 31/74/2 29/75/2 30/76/2
f 35/77/1 34/78/1 33/79/1 36/80/1
f 31/81/3 32/82/3 35/83/3 36/84/3
f 30/85/4 29/86/4 33/87/4 34/88/4
f 29/89/5 31/90/5 36/91/5 33/87/5
f 32/92/6 30/93/6 34/94/6 35/83/6
f 40/95/5 39/96/5 3/97/5 1/98/5
f 37/99/6 38/100/6 2/101/6 4/102/6
f 39/103/3 37/99/3 4/102/3 3/104/3
f 38/105/4 40/95/4 1/98/4 2/106/4
f 37/107/2 39/108/2 40/109/2 38/110/2
