# Blender v2.79 (sub 0) OBJ File: '000 Basic square 100x100x5 cm sign, offset with post mount.blend'
# www.blender.org
o Cube
v -0.189378 -0.812500 -0.457199
v -0.189378 -0.762500 -0.457199
v -0.457199 -0.812500 -0.189378
v -0.457199 -0.762500 -0.189378
v -0.189378 -0.812500 0.457199
v -0.189378 -0.762500 0.457199
v 0.189378 -0.812500 0.457198
v 0.189378 -0.762500 0.457198
v 0.189378 -0.812500 -0.457198
v 0.189378 -0.762500 -0.457198
v -0.457199 -0.762500 -0.131353
v 0.457199 -0.812500 0.189378
v 0.457199 -0.762500 0.189378
v 0.457198 -0.812500 -0.189378
v 0.457198 -0.762500 -0.189378
v -0.457198 -0.812500 0.189378
v -0.457198 -0.762500 0.189378
vt 0.500000 0.707107
vt 0.646447 1.000000
vt 0.853553 1.000000
vt 1.000000 0.707107
vt 1.000000 0.292893
vt 0.853553 0.000000
vt 0.646447 0.000000
vt 0.500000 0.292893
vt 0.000000 0.707107
vt 0.000000 0.292893
vt 0.146447 0.000000
vt 0.353553 0.000000
vt 0.500000 0.292893
vt 0.500000 0.356350
vt 0.500000 0.707107
vt 0.353553 1.000000
vt 0.146447 1.000000
vt 0.250000 0.000000
vt 0.250000 0.000000
vt 0.250000 0.000000
vt 0.250000 0.000000
vt 0.000000 0.000000
vt 0.000000 0.000000
vt 0.000000 0.000000
vt 0.000000 0.000000
vt 0.000000 0.000000
vt 0.000000 0.000000
vt 0.000000 0.000000
vt 0.000000 0.000000
vt 0.000000 0.000000
vt 0.000000 0.000000
vt 0.000000 0.000000
vt 0.000000 0.000000
vt 0.000000 0.000000
vt 0.000000 0.000000
vt 0.000000 0.000000
vt 0.000000 0.000000
vt 0.000000 0.000000
vn 0.0000 -1.0000 0.0000
vn 0.0000 1.0000 0.0000
vn 1.0000 -0.0000 -0.0000
vn -0.7071 0.0000 0.7071
vn 0.7071 0.0000 -0.7071
vn -1.0000 0.0000 0.0000
vn -0.7071 0.0000 -0.7071
vn 0.7071 0.0000 0.7071
vn 0.0000 0.0000 1.0000
vn 0.0000 0.0000 -1.0000
g Cube_Cube_front-back
s off
f 12/1/1 7/2/1 5/3/1 16/4/1 3/5/1 1/6/1 9/7/1 14/8/1
f 13/9/2 15/10/2 10/11/2 2/12/2 4/13/2 11/14/2 17/15/2 6/16/2 8/17/2
g Cube_Cube_edges
f 12/18/3 14/19/3 15/20/3 13/21/3
f 16/22/4 5/23/4 6/24/4 17/25/4
f 14/26/5 9/27/5 10/28/5 15/29/5
f 3/30/6 16/22/6 17/25/6 11/31/6 4/32/6
f 1/33/7 3/30/7 4/32/7 2/34/7
f 7/35/8 12/36/8 13/37/8 8/38/8
f 5/23/9 7/35/9 8/38/9 6/24/9
f 9/27/10 1/33/10 2/34/10 10/28/10
o Cube.001_Cube.002
v -0.125000 -0.812500 -0.187500
v -0.125000 -0.875000 -0.187500
v -0.125000 -0.812500 0.187500
v -0.125000 -0.875000 0.187500
v 0.125000 -0.812500 0.187500
v 0.125000 -0.812500 -0.187500
v 0.125000 -0.875000 -0.187500
v 0.125000 -0.875000 0.187500
v -0.125000 -1.125000 -0.187500
v -0.125000 -0.812500 -0.187500
v -0.125000 -1.125000 -0.125000
v -0.125000 -0.812500 -0.125000
v -0.164063 -1.125000 -0.187500
v -0.164063 -0.812500 -0.187500
v -0.164063 -1.125000 -0.125000
v -0.164063 -0.812500 -0.125000
v -0.125000 -1.125000 0.125000
v -0.125000 -0.812500 0.125000
v -0.125000 -1.125000 0.187500
v -0.125000 -0.812500 0.187500
v -0.164063 -1.125000 0.125000
v -0.164063 -0.812500 0.125000
v -0.164063 -1.125000 0.187500
v -0.164063 -0.812500 0.187500
v 0.164062 -1.125000 -0.187500
v 0.164062 -0.812500 -0.187500
v 0.164062 -1.125000 -0.125000
v 0.164062 -0.812500 -0.125000
v 0.125000 -1.125000 -0.187500
v 0.125000 -0.812500 -0.187500
v 0.125000 -1.125000 -0.125000
v 0.125000 -0.812500 -0.125000
v 0.164062 -1.125000 0.125000
v 0.164062 -0.812500 0.125000
v 0.164062 -1.125000 0.187500
v 0.164062 -0.812500 0.187500
v 0.125000 -1.125000 0.125000
v 0.125000 -0.812500 0.125000
v 0.125000 -1.125000 0.187500
v 0.125000 -0.812500 0.187500
v -0.164063 -1.164063 -0.187500
v 0.164062 -1.164063 -0.187500
v -0.164063 -1.164063 -0.125000
v 0.164062 -1.164063 -0.125000
v -0.164063 -1.125000 -0.187500
v 0.164062 -1.125000 -0.187500
v -0.164063 -1.125000 -0.125000
v 0.164062 -1.125000 -0.125000
v -0.164063 -1.164063 0.125000
v 0.164062 -1.164063 0.125000
v -0.164063 -1.164063 0.187500
v 0.164062 -1.164063 0.187500
v -0.164063 -1.125000 0.125000
v 0.164062 -1.125000 0.125000
v -0.164063 -1.125000 0.187500
v 0.164062 -1.125000 0.187500
vt 0.843750 0.507812
vt 0.703125 0.507812
vt 0.703125 0.093750
vt 0.843750 0.093750
vt 0.015625 0.507812
vt 0.015625 0.093750
vt 0.156250 0.093750
vt 0.156250 0.507812
vt 0.156250 0.031250
vt 0.703125 0.031250
vt 0.703125 0.578125
vt 0.156250 0.578125
vt 0.312500 0.640625
vt 0.312500 0.992188
vt 0.453125 0.992188
vt 0.453125 0.640625
vt 0.234375 0.640625
vt 0.234375 0.992188
vt 0.312500 0.992188
vt 0.312500 0.640625
vt 0.234375 0.640625
vt 0.234375 0.992188
vt 0.093750 0.992188
vt 0.093750 0.640625
vt 0.015625 0.992188
vt 0.015625 0.640625
vt 0.312500 0.640625
vt 0.312500 0.992188
vt 0.453125 0.992188
vt 0.453125 0.640625
vt 0.234375 0.640625
vt 0.234375 0.992188
vt 0.312500 0.992188
vt 0.312500 0.640625
vt 0.234375 0.640625
vt 0.234375 0.992188
vt 0.093750 0.992188
vt 0.093750 0.640625
vt 0.015625 0.992188
vt 0.015625 0.640625
vt 0.312500 0.640625
vt 0.312500 0.992188
vt 0.453125 0.992188
vt 0.453125 0.640625
vt 0.234375 0.640625
vt 0.234375 0.992188
vt 0.312500 0.992188
vt 0.312500 0.640625
vt 0.234375 0.640625
vt 0.234375 0.992188
vt 0.093750 0.992188
vt 0.093750 0.640625
vt 0.015625 0.992188
vt 0.015625 0.640625
vt 0.312500 0.640625
vt 0.312500 0.992188
vt 0.453125 0.992188
vt 0.453125 0.640625
vt 0.234375 0.640625
vt 0.234375 0.992188
vt 0.312500 0.992188
vt 0.312500 0.640625
vt 0.234375 0.640625
vt 0.234375 0.992188
vt 0.093750 0.992188
vt 0.093750 0.640625
vt 0.015625 0.992188
vt 0.015625 0.640625
vt 0.781250 0.664062
vt 0.781250 0.992188
vt 0.921875 0.992188
vt 0.921875 0.664062
vt 0.484375 0.664062
vt 0.484375 0.992188
vt 0.562500 0.992188
vt 0.562500 0.664062
vt 0.703125 0.992188
vt 0.703125 0.664062
vt 0.234375 0.593750
vt 0.234375 0.640625
vt 0.093750 0.640625
vt 0.093750 0.593750
vt 0.453125 0.640625
vt 0.453125 0.593750
vt 0.312500 0.593750
vt 0.312500 0.640625
vt 0.781250 0.664062
vt 0.781250 0.992188
vt 0.921875 0.992188
vt 0.921875 0.664062
vt 0.484375 0.664062
vt 0.484375 0.992188
vt 0.562500 0.992188
vt 0.562500 0.664062
vt 0.703125 0.992188
vt 0.703125 0.664062
vt 0.234375 0.593750
vt 0.234375 0.640625
vt 0.093750 0.640625
vt 0.093750 0.593750
vt 0.453125 0.640625
vt 0.453125 0.593750
vt 0.312500 0.593750
vt 0.312500 0.640625
vn -1.0000 0.0000 0.0000
vn 1.0000 0.0000 0.0000
vn 0.0000 -0.0000 1.0000
vn 0.0000 0.0000 -1.0000
vn 0.0000 -1.0000 -0.0000
vn 0.0000 1.0000 0.0000
g Cube.001_Cube.002_pole_mount.001
s off
f 18/39/11 19/40/11 21/41/11 20/42/11
f 23/43/12 22/44/12 25/45/12 24/46/12
f 21/41/13 25/45/13 22/47/13 20/48/13
f 18/49/14 23/50/14 24/46/14 19/40/14
f 19/40/15 24/46/15 25/45/15 21/41/15
f 26/51/12 27/52/12 29/53/12 28/54/12
f 28/55/13 29/56/13 33/57/13 32/58/13
f 32/59/11 33/60/11 31/61/11 30/62/11
f 30/62/14 31/61/14 27/63/14 26/64/14
f 34/65/12 35/66/12 37/67/12 36/68/12
f 36/69/13 37/70/13 41/71/13 40/72/13
f 40/73/11 41/74/11 39/75/11 38/76/11
f 38/76/14 39/75/14 35/77/14 34/78/14
f 42/79/12 43/80/12 45/81/12 44/82/12
f 44/83/13 45/84/13 49/85/13 48/86/13
f 48/87/11 49/88/11 47/89/11 46/90/11
f 46/90/14 47/89/14 43/91/14 42/92/14
f 50/93/12 51/94/12 53/95/12 52/96/12
f 52/97/13 53/98/13 57/99/13 56/100/13
f 56/101/11 57/102/11 55/103/11 54/104/11
f 54/104/14 55/103/14 51/105/14 50/106/14
f 58/107/15 59/108/15 61/109/15 60/110/15
f 60/111/13 61/112/13 65/113/13 64/114/13
f 64/114/16 65/113/16 63/115/16 62/116/16
f 62/116/14 63/115/14 59/108/14 58/107/14
f 60/117/11 64/118/11 62/119/11 58/120/11
f 65/121/12 61/122/12 59/123/12 63/124/12
f 66/125/15 67/126/15 69/127/15 68/128/15
f 68/129/13 69/130/13 73/131/13 72/132/13
f 72/132/16 73/131/16 71/133/16 70/134/16
f 70/134/14 71/133/14 67/126/14 66/125/14
f 68/135/11 72/136/11 70/137/11 66/138/11
f 73/139/12 69/140/12 67/141/12 71/142/12
