# Blender v2.79 (sub 0) OBJ File: 'US interstate sign.blend'
# www.blender.org
o Cube
v 0.409703 0.236225 0.418750
v 0.408565 0.240208 0.418750
v 0.417085 0.206697 0.418750
v 0.424467 0.158714 0.418750
v 0.428158 0.118113 0.418750
v 0.428158 0.077511 0.418750
v 0.424467 0.040601 0.418750
v 0.417085 -0.007382 0.418750
v 0.420776 0.011073 0.418750
v 0.402321 -0.066438 0.418750
v 0.409703 -0.036910 0.418750
v 0.394939 -0.084893 0.418750
v 0.372793 -0.136568 0.418750
v 0.383866 -0.110731 0.418750
v 0.350647 -0.177169 0.418750
v 0.361720 -0.158714 0.418750
v 0.339574 -0.195624 0.418750
v 0.321119 -0.221461 0.418750
v 0.295282 -0.254680 0.418750
v 0.254680 -0.295282 0.418750
v 0.225152 -0.321119 0.418750
v 0.103349 -0.394939 0.418750
v 0.129186 -0.383866 0.418750
v 0.162405 -0.365411 0.418750
v 0.191933 -0.346956 0.418750
v -0.295281 -0.254680 0.418750
v -0.254680 -0.295282 0.418750
v -0.225152 -0.321119 0.418750
v -0.191933 -0.346956 0.418750
v -0.162405 -0.365411 0.418750
v -0.129186 -0.383866 0.418750
v -0.103349 -0.394939 0.418750
v -0.077511 -0.406012 0.418750
v -0.044292 -0.417085 0.418750
v 0.000000 -0.428158 0.418750
v -0.018455 -0.424467 0.418750
v 0.044292 -0.417085 0.418750
v 0.018455 -0.424467 0.418750
v 0.077511 -0.406012 0.418750
v -0.417085 -0.007382 0.418750
v -0.409703 -0.036910 0.418750
v -0.408565 0.240208 0.418750
v -0.409703 0.236225 0.418750
v -0.402321 -0.066438 0.418750
v -0.394939 -0.084893 0.418750
v -0.383866 -0.110731 0.418750
v -0.372793 -0.136568 0.418750
v -0.361720 -0.158714 0.418750
v -0.350647 -0.177169 0.418750
v -0.339574 -0.195624 0.418750
v -0.321119 -0.221461 0.418750
v -0.417085 0.206697 0.418750
v -0.424467 0.158714 0.418750
v -0.424467 0.040601 0.418750
v -0.420776 0.011073 0.418750
v -0.428158 0.077511 0.418750
v -0.428158 0.118113 0.418750
v -0.428158 0.115076 0.418750
vt 0.033320 0.584401
vt 0.037468 0.544243
vt 0.041487 0.512065
vt 0.045508 0.491955
vt 0.053556 0.459781
vt 0.061600 0.427604
vt 0.069643 0.407494
vt 0.081709 0.379341
vt 0.093776 0.351185
vt 0.105841 0.327054
vt 0.117908 0.306944
vt 0.129973 0.286831
vt 0.150083 0.258677
vt 0.178238 0.222480
vt 0.222480 0.178238
vt 0.254657 0.150084
vt 0.290854 0.121929
vt 0.323031 0.101819
vt 0.359229 0.081708
vt 0.387383 0.069644
vt 0.415537 0.057576
vt 0.451736 0.045510
vt 0.479890 0.037466
vt 0.500000 0.033445
vt 0.520110 0.037466
vt 0.548264 0.045509
vt 0.584463 0.057576
vt 0.612616 0.069643
vt 0.640771 0.081708
vt 0.676969 0.101819
vt 0.709145 0.121930
vt 0.745343 0.150085
vt 0.777520 0.178238
vt 0.821763 0.222479
vt 0.849916 0.258678
vt 0.870027 0.286832
vt 0.882093 0.306943
vt 0.894159 0.327053
vt 0.906225 0.351185
vt 0.918291 0.379340
vt 0.930357 0.407494
vt 0.938401 0.427604
vt 0.946443 0.459780
vt 0.954492 0.491955
vt 0.958513 0.512065
vt 0.962532 0.544244
vt 0.966678 0.584401
vt 0.966558 0.625395
vt 0.966555 0.628705
vt 0.962533 0.672948
vt 0.954488 0.725233
vt 0.946448 0.757409
vt 0.945203 0.761751
vt 0.054797 0.761752
vt 0.053553 0.757410
vt 0.045512 0.725233
vt 0.037466 0.672947
vt 0.033445 0.628705
vn -0.0000 0.0000 -1.0000
g Cube_Cube_front-back
s off
f 6/1/1 7/2/1 9/3/1 8/4/1 11/5/1 10/6/1 12/7/1 14/8/1 13/9/1 16/10/1 15/11/1 17/12/1 18/13/1 19/14/1 20/15/1 21/16/1 25/17/1 24/18/1 23/19/1 22/20/1 39/21/1 37/22/1 38/23/1 35/24/1 36/25/1 34/26/1 33/27/1 32/28/1 31/29/1 30/30/1 29/31/1 28/32/1 27/33/1 26/34/1 51/35/1 50/36/1 49/37/1 48/38/1 47/39/1 46/40/1 45/41/1 44/42/1 41/43/1 40/44/1 55/45/1 54/46/1 56/47/1 58/48/1 57/49/1 53/50/1 52/51/1 43/52/1 42/53/1 2/54/1 1/55/1 3/56/1 4/57/1 5/58/1
