# Blender v2.79 (sub 0) OBJ File: '000 Basic square 100x100x5 cm sign.blend'
# www.blender.org
o Cube
v 0.483400 -0.500000 -0.381000
v 0.533400 -0.500000 -0.331000
v 0.496341 -0.500000 -0.379296
v 0.508400 -0.500000 -0.374301
v 0.518755 -0.500000 -0.366355
v 0.526701 -0.500000 -0.356000
v 0.531696 -0.500000 -0.343941
v 0.533400 -0.450000 -0.331000
v 0.483400 -0.450000 -0.381000
v 0.531696 -0.450000 -0.343941
v 0.526701 -0.450000 -0.356000
v 0.518755 -0.450000 -0.366355
v 0.508400 -0.450000 -0.374301
v 0.496341 -0.450000 -0.379296
v 0.533400 -0.500000 0.331000
v 0.483400 -0.500000 0.381000
v 0.531696 -0.500000 0.343941
v 0.526701 -0.500000 0.356000
v 0.518755 -0.500000 0.366355
v 0.508400 -0.500000 0.374301
v 0.496341 -0.500000 0.379296
v 0.483400 -0.450000 0.381000
v 0.533400 -0.450000 0.331000
v 0.496341 -0.450000 0.379296
v 0.508400 -0.450000 0.374301
v 0.518755 -0.450000 0.366355
v 0.526701 -0.450000 0.356000
v 0.531696 -0.450000 0.343941
v -0.533400 -0.500000 -0.331000
v -0.483400 -0.500000 -0.381000
v -0.531696 -0.500000 -0.343941
v -0.526701 -0.500000 -0.356000
v -0.518755 -0.500000 -0.366355
v -0.508400 -0.500000 -0.374301
v -0.496341 -0.500000 -0.379296
v -0.483400 -0.450000 -0.381000
v -0.533400 -0.450000 -0.331000
v -0.496341 -0.450000 -0.379296
v -0.508400 -0.450000 -0.374301
v -0.518755 -0.450000 -0.366355
v -0.526701 -0.450000 -0.356000
v -0.531696 -0.450000 -0.343941
v -0.483400 -0.500000 0.381000
v -0.533400 -0.500000 0.331000
v -0.496341 -0.500000 0.379296
v -0.508400 -0.500000 0.374301
v -0.518755 -0.500000 0.366355
v -0.526701 -0.500000 0.356000
v -0.531696 -0.500000 0.343941
v -0.533400 -0.450000 0.331000
v -0.483400 -0.450000 0.381000
v -0.531696 -0.450000 0.343941
v -0.526701 -0.450000 0.356000
v -0.518755 -0.450000 0.366355
v -0.508400 -0.450000 0.374301
v -0.496341 -0.450000 0.379296
v 0.483400 -0.500000 -0.381000
v 0.533400 -0.500000 -0.331000
v 0.496341 -0.500000 -0.379296
v 0.508400 -0.500000 -0.374301
v 0.518755 -0.500000 -0.366355
v 0.526701 -0.500000 -0.356000
v 0.531696 -0.500000 -0.343941
v 0.483400 -0.450000 -0.381000
v 0.533400 -0.450000 -0.331000
v 0.496341 -0.450000 -0.379296
v 0.508400 -0.450000 -0.374301
v 0.518755 -0.450000 -0.366355
v 0.526701 -0.450000 -0.356000
v 0.531696 -0.450000 -0.343941
v 0.483400 -0.500000 0.381000
v 0.533400 -0.500000 0.331000
v 0.496341 -0.500000 0.379296
v 0.508400 -0.500000 0.374301
v 0.518755 -0.500000 0.366355
v 0.526701 -0.500000 0.356000
v 0.531696 -0.500000 0.343941
v 0.483400 -0.450000 0.381000
v 0.533400 -0.450000 0.331000
v 0.496341 -0.450000 0.379296
v 0.508400 -0.450000 0.374301
v 0.518755 -0.450000 0.366355
v 0.526701 -0.450000 0.356000
v 0.531696 -0.450000 0.343941
v -0.483400 -0.500000 -0.381000
v -0.533400 -0.500000 -0.331000
v -0.496341 -0.500000 -0.379296
v -0.508400 -0.500000 -0.374301
v -0.518755 -0.500000 -0.366355
v -0.526701 -0.500000 -0.356000
v -0.531696 -0.500000 -0.343941
v -0.533400 -0.450000 -0.331000
v -0.483400 -0.450000 -0.381000
v -0.531696 -0.450000 -0.343941
v -0.526701 -0.450000 -0.356000
v -0.518755 -0.450000 -0.366355
v -0.508400 -0.450000 -0.374301
v -0.496341 -0.450000 -0.379296
v -0.483400 -0.500000 0.381000
v -0.533400 -0.500000 0.331000
v -0.496341 -0.500000 0.379296
v -0.508400 -0.500000 0.374301
v -0.518755 -0.500000 0.366355
v -0.526701 -0.500000 0.356000
v -0.531696 -0.500000 0.343941
v -0.483400 -0.450000 0.381000
v -0.533400 -0.450000 0.331000
v -0.496341 -0.450000 0.379296
v -0.508400 -0.450000 0.374301
v -0.518755 -0.450000 0.366355
v -0.526701 -0.450000 0.356000
v -0.531696 -0.450000 0.343941
vt 0.500000 0.934383
vt 0.499201 0.951366
vt 0.496860 0.967192
vt 0.493136 0.980781
vt 0.488283 0.991209
vt 0.482631 0.997764
vt 0.476565 1.000000
vt 0.023435 1.000000
vt 0.017369 0.997764
vt 0.011717 0.991209
vt 0.006864 0.980781
vt 0.003140 0.967192
vt 0.000799 0.951366
vt 0.000000 0.934383
vt 0.000000 0.065617
vt 0.000799 0.048634
vt 0.003140 0.032808
vt 0.006864 0.019219
vt 0.011717 0.008791
vt 0.017369 0.002236
vt 0.023435 0.000000
vt 0.476565 0.000000
vt 0.482631 0.002236
vt 0.488283 0.008791
vt 0.493136 0.019219
vt 0.496860 0.032808
vt 0.499201 0.048634
vt 0.500000 0.065617
vt 0.500000 0.934383
vt 0.500799 0.951366
vt 0.503140 0.967192
vt 0.506864 0.980781
vt 0.511717 0.991209
vt 0.517369 0.997764
vt 0.523435 1.000000
vt 0.976565 1.000000
vt 0.982631 0.997764
vt 0.988283 0.991209
vt 0.993136 0.980781
vt 0.996860 0.967192
vt 0.999201 0.951366
vt 1.000000 0.934383
vt 1.000000 0.065617
vt 0.999201 0.048634
vt 0.996860 0.032808
vt 0.993136 0.019219
vt 0.988283 0.008791
vt 0.982631 0.002236
vt 0.976565 0.000000
vt 0.523435 0.000000
vt 0.517369 0.002236
vt 0.511717 0.008791
vt 0.506864 0.019219
vt 0.503140 0.032808
vt 0.500799 0.048634
vt 0.500000 0.065617
vt 0.046869 0.000000
vt 0.046869 0.999996
vt 0.953131 0.999996
vt 0.953131 0.000000
vt 0.065617 0.000000
vt 0.934383 0.000000
vt 0.934383 1.000000
vt 0.065617 1.000000
vt 0.953131 0.000003
vt 0.953131 1.000000
vt 0.046869 1.000000
vt 0.046869 0.000003
vt 0.034739 1.000000
vt 0.034739 0.000003
vt 0.023435 1.000000
vt 0.023435 0.000003
vt 0.000000 1.000000
vt 0.000000 0.000001
vt 0.032808 1.000000
vt 0.032808 0.000000
vt 0.048634 1.000000
vt 0.048634 0.000000
vt 0.065617 1.000000
vt 0.065617 0.000000
vt 0.034739 0.000000
vt 0.034739 0.999996
vt 0.023435 0.000000
vt 0.023435 0.999996
vt 0.000000 0.000000
vt 0.000000 0.999996
vt 1.000000 1.000000
vt 1.000000 0.000000
vt 0.967192 0.000000
vt 0.967192 1.000000
vt 0.951366 0.000000
vt 0.951366 1.000000
vt 0.934383 0.000000
vt 0.934383 1.000000
vt 0.965261 0.999996
vt 0.965261 0.000000
vt 0.976565 0.999996
vt 0.976565 0.000000
vt 1.000000 0.999998
vt 1.000000 0.000000
vt 0.967192 1.000000
vt 0.967192 0.000000
vt 0.951366 1.000000
vt 0.951366 0.000000
vt 0.965261 0.000003
vt 0.965261 1.000000
vt 0.976565 0.000003
vt 0.976565 1.000000
vt 1.000000 0.000003
vt 1.000000 1.000000
vt 0.000000 1.000000
vt 0.000000 0.000000
vt 0.032808 0.000000
vt 0.032808 1.000000
vt 0.048634 0.000000
vt 0.048634 1.000000
vn 0.0000 1.0000 0.0000
vn 0.0000 -1.0000 -0.0000
vn 0.0000 0.0000 1.0000
vn -1.0000 0.0000 0.0000
vn 0.0000 0.0000 -1.0000
vn 0.1305 0.0000 -0.9914
vn 0.3827 0.0000 -0.9239
vn 0.6088 0.0000 -0.7934
vn 0.7934 0.0000 -0.6088
vn 0.9239 0.0000 -0.3827
vn 0.9914 0.0000 -0.1305
vn 0.1305 0.0000 0.9914
vn 0.3827 -0.0000 0.9239
vn 0.6088 0.0000 0.7934
vn 0.7934 0.0000 0.6088
vn 0.9239 0.0000 0.3827
vn 0.9914 0.0000 0.1305
vn -0.1305 0.0000 0.9914
vn -0.3827 0.0000 0.9239
vn -0.6088 0.0000 0.7934
vn -0.7934 0.0000 0.6088
vn -0.9239 0.0000 0.3827
vn -0.9914 0.0000 0.1305
vn -0.1305 0.0000 -0.9914
vn -0.3827 -0.0000 -0.9239
vn -0.6088 0.0000 -0.7934
vn -0.7934 0.0000 -0.6088
vn -0.9239 0.0000 -0.3827
vn -0.9914 0.0000 -0.1305
vn 1.0000 0.0000 0.0000
g Cube_Cube_front-back
s off
f 107/1/1 112/2/1 111/3/1 110/4/1 109/5/1 108/6/1 106/7/1 78/8/1 80/9/1 81/10/1 82/11/1 83/12/1 84/13/1 79/14/1 65/15/1 70/16/1 69/17/1 68/18/1 67/19/1 66/20/1 64/21/1 93/22/1 98/23/1 97/24/1 96/25/1 95/26/1 94/27/1 92/28/1
f 72/29/2 77/30/2 76/31/2 75/32/2 74/33/2 73/34/2 71/35/2 99/36/2 101/37/2 102/38/2 103/39/2 104/40/2 105/41/2 100/42/2 86/43/2 91/44/2 90/45/2 89/46/2 88/47/2 87/48/2 85/49/2 57/50/2 59/51/2 60/52/2 61/53/2 62/54/2 63/55/2 58/56/2
g Cube_Cube_edges
f 16/57/3 22/58/3 51/59/3 43/60/3
f 29/61/4 44/62/4 50/63/4 37/64/4
f 30/65/5 36/66/5 9/67/5 1/68/5
f 1/68/6 9/67/6 14/69/6 3/70/6
f 3/70/7 14/69/7 13/71/7 4/72/7
f 4/72/8 13/71/8 12/73/8 5/74/8
f 5/74/9 12/73/9 11/75/9 6/76/9
f 6/76/10 11/75/10 10/77/10 7/78/10
f 7/78/11 10/77/11 8/79/11 2/80/11
f 22/58/12 16/57/12 21/81/12 24/82/12
f 24/82/13 21/81/13 20/83/13 25/84/13
f 25/84/14 20/83/14 19/85/14 26/86/14
f 26/87/15 19/88/15 18/89/15 27/90/15
f 27/90/16 18/89/16 17/91/16 28/92/16
f 28/92/17 17/91/17 15/93/17 23/94/17
f 43/60/18 51/59/18 56/95/18 45/96/18
f 45/96/19 56/95/19 55/97/19 46/98/19
f 46/98/20 55/97/20 54/99/20 47/100/20
f 47/100/21 54/99/21 53/101/21 48/102/21
f 48/102/22 53/101/22 52/103/22 49/104/22
f 49/104/23 52/103/23 50/63/23 44/62/23
f 36/66/24 30/65/24 35/105/24 38/106/24
f 38/106/25 35/105/25 34/107/25 39/108/25
f 39/108/26 34/107/26 33/109/26 40/110/26
f 40/111/27 33/112/27 32/113/27 41/114/27
f 41/114/28 32/113/28 31/115/28 42/116/28
f 42/116/29 31/115/29 29/61/29 37/64/29
f 15/93/30 2/80/30 8/79/30 23/94/30
