# Blender v2.79 (sub 0) OBJ File: 'street signs stop_onpole.blend'
# www.blender.org
o Cube
v 0.189953 -0.812500 -0.468750
v 0.468750 -0.812500 -0.189953
v 0.468750 -0.750000 -0.189953
v 0.189953 -0.750000 -0.468750
v 0.468750 -0.812500 0.189953
v 0.189953 -0.812500 0.468750
v 0.189953 -0.750000 0.468750
v 0.468750 -0.750000 0.189953
v -0.468750 -0.812500 -0.189953
v -0.189953 -0.812500 -0.468750
v -0.189953 -0.750000 -0.468750
v -0.468750 -0.750000 -0.189953
v -0.189953 -0.812500 0.468750
v -0.468750 -0.812500 0.189953
v -0.468750 -0.750000 0.189953
v -0.189953 -0.750000 0.468750
v -0.125000 -0.812500 -0.187500
v -0.125000 -0.875000 -0.187500
v -0.125000 -0.812500 0.187500
v -0.125000 -0.875000 0.187500
v 0.125000 -0.812500 0.187500
v 0.125000 -0.812500 -0.187500
v 0.125000 -0.875000 -0.187500
v 0.125000 -0.875000 0.187500
v -0.125000 -1.125000 -0.187500
v -0.125000 -0.812500 -0.187500
v -0.125000 -1.125000 -0.125000
v -0.125000 -0.812500 -0.125000
v -0.164063 -1.125000 -0.187500
v -0.164063 -0.812500 -0.187500
v -0.164063 -1.125000 -0.125000
v -0.164063 -0.812500 -0.125000
v -0.125000 -1.125000 0.125000
v -0.125000 -0.812500 0.125000
v -0.125000 -1.125000 0.187500
v -0.125000 -0.812500 0.187500
v -0.164063 -1.125000 0.125000
v -0.164063 -0.812500 0.125000
v -0.164063 -1.125000 0.187500
v -0.164063 -0.812500 0.187500
v 0.164062 -1.125000 -0.187500
v 0.164062 -0.812500 -0.187500
v 0.164062 -1.125000 -0.125000
v 0.164062 -0.812500 -0.125000
v 0.125000 -1.125000 -0.187500
v 0.125000 -0.812500 -0.187500
v 0.125000 -1.125000 -0.125000
v 0.125000 -0.812500 -0.125000
v 0.164062 -1.125000 0.125000
v 0.164062 -0.812500 0.125000
v 0.164062 -1.125000 0.187500
v 0.164062 -0.812500 0.187500
v 0.125000 -1.125000 0.125000
v 0.125000 -0.812500 0.125000
v 0.125000 -1.125000 0.187500
v 0.125000 -0.812500 0.187500
v -0.164063 -1.164063 -0.187500
v 0.164062 -1.164063 -0.187500
v -0.164063 -1.164063 -0.125000
v 0.164062 -1.164063 -0.125000
v -0.164063 -1.125000 -0.187500
v 0.164062 -1.125000 -0.187500
v -0.164063 -1.125000 -0.125000
v 0.164062 -1.125000 -0.125000
v -0.164063 -1.164063 0.125000
v 0.164062 -1.164063 0.125000
v -0.164063 -1.164063 0.187500
v 0.164062 -1.164063 0.187500
v -0.164063 -1.125000 0.125000
v 0.164062 -1.125000 0.125000
v -0.164063 -1.125000 0.187500
v 0.164062 -1.125000 0.187500
vt 0.914591 -0.000000
vt 0.992883 -0.000000
vt 0.992883 0.125000
vt 0.914591 0.125000
vt 0.914591 0.748047
vt 0.992883 0.748047
vt 0.992883 0.869141
vt 0.914591 0.869141
vt 0.903915 0.849725
vt 0.637222 0.996094
vt 0.273810 0.996094
vt 0.007117 0.849725
vt 0.007117 0.650275
vt 0.273810 0.503906
vt 0.637222 0.503906
vt 0.903915 0.650275
vt 0.914591 0.248047
vt 0.992883 0.248047
vt 0.992883 0.375000
vt 0.914591 0.375000
vt 0.914591 0.500000
vt 0.992883 0.500000
vt 0.992883 0.625000
vt 0.914591 0.625000
vt 0.992883 1.000000
vt 0.914591 1.000000
vt 0.007117 0.349725
vt 0.273810 0.496094
vt 0.637222 0.496094
vt 0.903915 0.349725
vt 0.903915 0.150275
vt 0.637222 0.003906
vt 0.273810 0.003906
vt 0.007117 0.150275
vt 0.921708 0.500000
vt 0.932384 0.500000
vt 0.932384 0.925197
vt 0.921708 0.925197
vt 0.989324 0.500000
vt 0.989324 0.925197
vt 0.978648 0.925197
vt 0.978648 0.500000
vt 0.978648 0.996063
vt 0.932384 0.996063
vt 0.932384 0.429134
vt 0.978648 0.429134
vt 0.992883 0.742126
vt 0.967972 0.742126
vt 0.967972 0.496063
vt 0.992883 0.496063
vt 0.967972 0.246063
vt 0.943061 0.496063
vt 0.943061 0.246063
vt 0.918149 0.496063
vt 0.943061 0.742126
vt 0.918149 0.742126
vt 0.943061 0.996063
vt 0.967972 0.996063
vt 0.992883 0.742126
vt 0.967972 0.742126
vt 0.967972 0.496063
vt 0.992883 0.496063
vt 0.967972 0.246063
vt 0.943061 0.496063
vt 0.943061 0.246063
vt 0.918149 0.496063
vt 0.943061 0.742126
vt 0.918149 0.742126
vt 0.943061 0.996063
vt 0.967972 0.996063
vt 0.992883 0.742126
vt 0.967972 0.742126
vt 0.967972 0.496063
vt 0.992883 0.496063
vt 0.967972 0.246063
vt 0.943061 0.496063
vt 0.943061 0.246063
vt 0.918149 0.496063
vt 0.943061 0.742126
vt 0.918149 0.742126
vt 0.943061 0.996063
vt 0.967972 0.996063
vt 0.992883 0.742126
vt 0.967972 0.742126
vt 0.967972 0.496063
vt 0.992883 0.496063
vt 0.967972 0.246063
vt 0.943061 0.496063
vt 0.943061 0.246063
vt 0.918149 0.496063
vt 0.943061 0.742126
vt 0.918149 0.742126
vt 0.943061 0.996063
vt 0.967972 0.996063
vt 0.992883 0.742126
vt 0.967972 0.742126
vt 0.967972 0.496063
vt 0.992883 0.496063
vt 0.967972 0.246063
vt 0.943061 0.496063
vt 0.943061 0.246063
vt 0.918149 0.496063
vt 0.943061 0.742126
vt 0.918149 0.742126
vt 0.943061 0.996063
vt 0.967972 0.996063
vt 0.943061 0.003937
vt 0.967972 0.003937
vt 0.992883 0.742126
vt 0.967972 0.742126
vt 0.967972 0.496063
vt 0.992883 0.496063
vt 0.967972 0.246063
vt 0.943061 0.496063
vt 0.943061 0.246063
vt 0.918149 0.496063
vt 0.943061 0.742126
vt 0.918149 0.742126
vt 0.943061 0.996063
vt 0.967972 0.996063
vt 0.943061 0.003937
vt 0.967972 0.003937
vn 0.0000 0.0000 -1.0000
vn -1.0000 -0.0000 0.0000
vn 0.0000 1.0000 -0.0000
vn 1.0000 -0.0000 0.0000
vn 0.0000 0.0000 1.0000
vn 0.7071 0.0000 -0.7071
vn 0.7071 -0.0000 0.7071
vn -0.7071 0.0000 0.7071
vn -0.7071 -0.0000 -0.7071
vn 0.0000 -1.0000 0.0000
g Cube_Cube_None
s off
f 10/1/1 11/2/1 4/3/1 1/4/1
f 14/5/2 15/6/2 12/7/2 9/8/2
f 15/9/3 16/10/3 7/11/3 8/12/3 3/13/3 4/14/3 11/15/3 12/16/3
f 2/17/4 3/18/4 8/19/4 5/20/4
f 6/21/5 7/22/5 16/23/5 13/24/5
f 1/4/6 4/3/6 3/18/6 2/17/6
f 7/22/7 6/21/7 5/20/7 8/19/7
f 15/6/8 14/5/8 13/24/8 16/23/8
f 11/25/9 10/26/9 9/8/9 12/7/9
f 5/27/10 6/28/10 13/29/10 14/30/10 9/31/10 10/32/10 1/33/10 2/34/10
g Cube_Cube_None_street_signs_us_route.png.001
f 17/35/2 18/36/2 20/37/2 19/38/2
f 22/39/4 21/40/4 24/41/4 23/42/4
f 20/37/5 24/41/5 21/43/5 19/44/5
f 17/45/1 22/46/1 23/42/1 18/36/1
f 18/36/10 23/42/10 24/41/10 20/37/10
f 25/47/4 26/48/4 28/49/4 27/50/4
f 27/51/5 28/49/5 32/52/5 31/53/5
f 31/54/2 32/52/2 30/55/2 29/56/2
f 29/57/1 30/55/1 26/48/1 25/58/1
f 33/59/4 34/60/4 36/61/4 35/62/4
f 35/63/5 36/61/5 40/64/5 39/65/5
f 39/66/2 40/64/2 38/67/2 37/68/2
f 37/69/1 38/67/1 34/60/1 33/70/1
f 41/71/4 42/72/4 44/73/4 43/74/4
f 43/75/5 44/73/5 48/76/5 47/77/5
f 47/78/2 48/76/2 46/79/2 45/80/2
f 45/81/1 46/79/1 42/72/1 41/82/1
f 49/83/4 50/84/4 52/85/4 51/86/4
f 51/87/5 52/85/5 56/88/5 55/89/5
f 55/90/2 56/88/2 54/91/2 53/92/2
f 53/93/1 54/91/1 50/84/1 49/94/1
f 57/95/10 58/96/10 60/97/10 59/98/10
f 59/99/5 60/97/5 64/100/5 63/101/5
f 63/102/3 64/100/3 62/103/3 61/104/3
f 61/105/1 62/103/1 58/96/1 57/106/1
f 59/99/2 63/101/2 61/107/2 57/108/2
f 64/100/4 60/97/4 58/96/4 62/103/4
f 65/109/10 66/110/10 68/111/10 67/112/10
f 67/113/5 68/111/5 72/114/5 71/115/5
f 71/116/3 72/114/3 70/117/3 69/118/3
f 69/119/1 70/117/1 66/110/1 65/120/1
f 67/113/2 71/115/2 69/121/2 65/122/2
f 72/114/4 68/111/4 66/110/4 70/117/4
