# Blender v2.79 (sub 0) OBJ File: '000 Basic square 100x100x5 cm sign.blend'
# www.blender.org
o Cube
v -0.189378 -0.500000 -0.457198
v -0.189378 -0.450000 -0.457199
v -0.457198 -0.500000 -0.189378
v -0.457199 -0.450000 -0.189378
v -0.189378 -0.500000 0.457198
v -0.189378 -0.450000 0.457199
v 0.189378 -0.500000 0.457198
v 0.189378 -0.450000 0.457198
v 0.189378 -0.500000 -0.457198
v 0.189378 -0.450000 -0.457198
v -0.457199 -0.450000 -0.089848
v 0.457199 -0.500000 0.189378
v 0.457199 -0.450000 0.189378
v 0.457199 -0.450000 0.089847
v 0.457198 -0.500000 -0.189378
v 0.457198 -0.450000 -0.189378
v -0.457198 -0.500000 0.189378
v -0.457198 -0.450000 0.189378
vt 0.500000 0.707107
vt 0.646447 1.000000
vt 0.853553 1.000000
vt 1.000000 0.707107
vt 1.000000 0.292893
vt 0.853553 0.000000
vt 0.646447 0.000000
vt 0.500000 0.292893
vt 0.000000 0.292893
vt 0.146447 0.000000
vt 0.353553 0.000000
vt 0.500000 0.292893
vt 0.500000 0.401741
vt 0.500000 0.707107
vt 0.353553 1.000000
vt 0.146447 1.000000
vt -0.000000 0.707107
vt -0.000000 0.598259
vt 0.000000 0.000000
vt 0.000000 0.000000
vt 0.000000 0.000000
vt 0.000000 0.000000
vt 0.000000 0.000000
vt 0.000000 0.000000
vt 0.000000 0.000000
vt 0.000000 0.000000
vt 0.000000 0.000000
vt 0.000000 0.000000
vt 0.000000 0.000000
vt 0.000000 0.000000
vt 0.000000 0.000000
vt 0.000000 0.000000
vt 0.000000 0.000000
vt 0.000000 0.000000
vt 0.000000 0.000000
vt 0.000000 0.000000
vn 0.0000 -1.0000 0.0000
vn 0.0000 1.0000 -0.0000
vn 1.0000 0.0000 -0.0000
vn -0.7071 -0.0000 0.7071
vn 0.7071 0.0000 -0.7071
vn -1.0000 -0.0000 0.0000
vn -0.7071 -0.0000 -0.7071
vn 0.7071 0.0000 0.7071
vn 0.0000 -0.0000 1.0000
vn 0.0000 -0.0000 -1.0000
g Cube_Cube_front-back
s off
f 12/1/1 7/2/1 5/3/1 17/4/1 3/5/1 1/6/1 9/7/1 15/8/1
f 16/9/2 10/10/2 2/11/2 4/12/2 11/13/2 18/14/2 6/15/2 8/16/2 13/17/2 14/18/2
g Cube_Cube_front-back_NONE
f 12/19/3 15/20/3 16/21/3 14/22/3 13/23/3
f 17/24/4 5/25/4 6/26/4 18/27/4
f 15/20/5 9/28/5 10/29/5 16/21/5
f 3/30/6 17/24/6 18/27/6 11/31/6 4/32/6
f 1/33/7 3/30/7 4/32/7 2/34/7
f 7/35/8 12/19/8 13/23/8 8/36/8
f 5/25/9 7/35/9 8/36/9 6/26/9
f 9/28/10 1/33/10 2/34/10 10/29/10
