# Blender v2.79 (sub 0) OBJ File: 'street signs stop.blend'
# www.blender.org
o sign.001_sign_Cube_Cube_front-back_main_front-back.001
v 0.457199 -0.812500 0.189378
v 0.189378 -0.812500 0.457198
v -0.189378 -0.812500 0.457198
v -0.457198 -0.812500 0.189378
v -0.457198 -0.812500 -0.189378
v -0.189378 -0.812500 -0.457198
v 0.189378 -0.812500 -0.457198
v 0.457198 -0.812500 -0.189378
v 0.457198 -0.762500 -0.189378
v 0.189378 -0.762500 -0.457198
v -0.189378 -0.762500 -0.457199
v -0.457199 -0.762500 -0.189378
v -0.457198 -0.762500 0.189378
v -0.189378 -0.762500 0.457199
v 0.189378 -0.762500 0.457198
v 0.457199 -0.762500 0.189378
v 0.457199 -0.812500 0.189378
v 0.457198 -0.812500 -0.189378
v 0.457198 -0.762500 -0.189378
v 0.457199 -0.762500 0.189378
v -0.457198 -0.812500 0.189378
v -0.189378 -0.812500 0.457198
v -0.189378 -0.762500 0.457199
v -0.457198 -0.762500 0.189378
v 0.189378 -0.812500 -0.457198
v 0.189378 -0.762500 -0.457198
v -0.457198 -0.812500 -0.189378
v -0.457199 -0.762500 -0.189378
v -0.189378 -0.812500 -0.457198
v -0.189378 -0.762500 -0.457199
v 0.189378 -0.812500 0.457198
v 0.189378 -0.762500 0.457198
v -0.125000 -0.812500 -0.187500
v -0.125000 -0.812500 0.187500
v 0.125000 -0.812500 -0.187500
v 0.125000 -0.812500 0.187500
v -0.125000 -1.125000 -0.187500
v -0.125000 -0.812500 -0.125000
v -0.125000 -1.125000 -0.125000
v -0.164063 -0.812500 -0.125000
v -0.164063 -1.125000 -0.125000
v -0.164063 -0.812500 -0.187500
v -0.164063 -1.125000 -0.187500
v -0.125000 -1.125000 0.125000
v -0.125000 -0.812500 0.125000
v -0.125000 -1.125000 0.187500
v -0.164063 -0.812500 0.187500
v -0.164063 -1.125000 0.187500
v -0.164063 -0.812500 0.125000
v -0.164063 -1.125000 0.125000
v 0.164062 -1.125000 -0.187500
v 0.164062 -0.812500 -0.187500
v 0.164062 -0.812500 -0.125000
v 0.164062 -1.125000 -0.125000
v 0.125000 -0.812500 -0.125000
v 0.125000 -1.125000 -0.125000
v 0.125000 -1.125000 -0.187500
v 0.164062 -1.125000 0.125000
v 0.164062 -0.812500 0.125000
v 0.164062 -0.812500 0.187500
v 0.164062 -1.125000 0.187500
v 0.125000 -1.125000 0.187500
v 0.125000 -0.812500 0.125000
v 0.125000 -1.125000 0.125000
v -0.164063 -1.164063 -0.187500
v 0.164062 -1.164063 -0.187500
v 0.164062 -1.164063 -0.125000
v -0.164063 -1.164063 -0.125000
v -0.164063 -1.164063 0.125000
v 0.164062 -1.164063 0.125000
v 0.164062 -1.164063 0.187500
v -0.164063 -1.164063 0.187500
v -0.125000 -0.812500 -0.187500
v -0.125000 -0.875000 -0.187500
v -0.125000 -0.875000 0.187500
v -0.125000 -0.812500 0.187500
v 0.125000 -0.812500 -0.187500
v 0.125000 -0.812500 0.187500
v 0.125000 -0.875000 0.187500
v 0.125000 -0.875000 -0.187500
v 0.203600 -0.812500 -0.486300
v 0.203600 -0.762500 -0.486300
v -0.203600 -0.762500 -0.486300
v -0.203600 -0.812500 -0.486300
v -0.228600 -0.812500 -0.613700
v -0.228600 -0.812500 -0.511300
v -0.228600 -0.762500 -0.511300
v -0.228600 -0.762500 -0.613700
v -0.203600 -0.812500 -0.638700
v -0.203600 -0.762500 -0.638700
v 0.203600 -0.762500 -0.638700
v 0.203600 -0.812500 -0.638700
v 0.211325 -0.762500 -0.637476
v 0.211325 -0.812500 -0.637476
v 0.218295 -0.762500 -0.633925
v 0.218295 -0.812500 -0.633925
v 0.223825 -0.762500 -0.628395
v 0.223825 -0.812500 -0.628395
v 0.227376 -0.762500 -0.621425
v 0.227376 -0.812500 -0.621425
v 0.228600 -0.762500 -0.613700
v 0.228600 -0.812500 -0.613700
v 0.211325 -0.812500 -0.487524
v 0.211325 -0.762500 -0.487524
v 0.218295 -0.812500 -0.491075
v 0.218295 -0.762500 -0.491075
v 0.223825 -0.812500 -0.496605
v 0.223825 -0.762500 -0.496605
v 0.227376 -0.812500 -0.503575
v 0.227376 -0.762500 -0.503575
v 0.228600 -0.812500 -0.511300
v 0.228600 -0.762500 -0.511300
v -0.211325 -0.762500 -0.487524
v -0.211325 -0.812500 -0.487524
v -0.218295 -0.762500 -0.491075
v -0.218295 -0.812500 -0.491075
v -0.223825 -0.762500 -0.496605
v -0.223825 -0.812500 -0.496605
v -0.227376 -0.762500 -0.503575
v -0.227376 -0.812500 -0.503575
v -0.211325 -0.812500 -0.637476
v -0.211325 -0.762500 -0.637476
v -0.218295 -0.812500 -0.633925
v -0.218295 -0.762500 -0.633925
v -0.223825 -0.812500 -0.628395
v -0.223825 -0.762500 -0.628395
v -0.227376 -0.812500 -0.621425
v -0.227376 -0.762500 -0.621425
v -0.228600 -0.762500 -0.511300
v -0.227376 -0.762500 -0.503575
v -0.223825 -0.762500 -0.496605
v -0.218295 -0.762500 -0.491075
v -0.211325 -0.762500 -0.487524
v -0.203600 -0.762500 -0.486300
v 0.203600 -0.762500 -0.486300
v 0.211325 -0.762500 -0.487524
v 0.218295 -0.762500 -0.491075
v 0.223825 -0.762500 -0.496605
v 0.227376 -0.762500 -0.503575
v 0.228600 -0.762500 -0.511300
v 0.228600 -0.762500 -0.613700
v 0.227376 -0.762500 -0.621425
v 0.223825 -0.762500 -0.628395
v 0.218295 -0.762500 -0.633925
v 0.211325 -0.762500 -0.637476
v 0.203600 -0.762500 -0.638700
v -0.203600 -0.762500 -0.638700
v -0.211325 -0.762500 -0.637476
v -0.218295 -0.762500 -0.633925
v -0.223825 -0.762500 -0.628395
v -0.227376 -0.762500 -0.621425
v -0.228600 -0.762500 -0.613700
v 0.228600 -0.812500 -0.511300
v 0.227376 -0.812500 -0.503575
v 0.223825 -0.812500 -0.496605
v 0.218295 -0.812500 -0.491075
v 0.211325 -0.812500 -0.487524
v 0.203600 -0.812500 -0.486300
v -0.203600 -0.812500 -0.486300
v -0.211325 -0.812500 -0.487524
v -0.218295 -0.812500 -0.491075
v -0.223825 -0.812500 -0.496605
v -0.227376 -0.812500 -0.503575
v -0.228600 -0.812500 -0.511300
v -0.228600 -0.812500 -0.613700
v -0.227376 -0.812500 -0.621425
v -0.223825 -0.812500 -0.628395
v -0.218295 -0.812500 -0.633925
v -0.211325 -0.812500 -0.637476
v -0.203600 -0.812500 -0.638700
v 0.203600 -0.812500 -0.638700
v 0.211325 -0.812500 -0.637476
v 0.218295 -0.812500 -0.633925
v 0.223825 -0.812500 -0.628395
v 0.227376 -0.812500 -0.621425
v 0.228600 -0.812500 -0.613700
v -0.125000 -0.812500 -0.593750
v 0.125000 -0.812500 -0.593750
v -0.125000 -1.125000 -0.593750
v -0.125000 -0.812500 -0.531250
v -0.125000 -1.125000 -0.531250
v -0.164063 -0.812500 -0.531250
v -0.164063 -1.125000 -0.531250
v -0.164063 -0.812500 -0.593750
v -0.164063 -1.125000 -0.593750
v 0.164062 -1.125000 -0.593750
v 0.164062 -0.812500 -0.593750
v 0.164062 -0.812500 -0.531250
v 0.164062 -1.125000 -0.531250
v 0.125000 -0.812500 -0.531250
v 0.125000 -1.125000 -0.531250
v 0.125000 -1.125000 -0.593750
v -0.164063 -1.164063 -0.593750
v 0.164062 -1.164063 -0.593750
v 0.164062 -1.164063 -0.531250
v -0.164063 -1.164063 -0.531250
v 0.125000 -0.812500 -0.617188
v -0.125000 -0.875000 -0.507812
v 0.125000 -0.812500 -0.507813
v 0.125000 -0.875000 -0.507813
v 0.036458 -0.875000 -0.617188
v -0.036458 -0.875000 -0.507812
v 0.125000 -0.834635 -0.507813
v -0.125000 -0.852865 -0.617188
v -0.125000 -0.834635 -0.507812
v 0.125000 -0.852865 -0.617188
v 0.125000 -0.875000 -0.617188
v -0.125000 -0.875000 -0.617188
v -0.125000 -0.812500 -0.617188
v -0.125000 -0.812500 -0.507812
vt 0.500000 0.755763
vt 0.646447 1.000000
vt 0.853553 1.000000
vt 1.000000 0.755763
vt 1.000000 0.410360
vt 0.853553 0.166124
vt 0.646447 0.166124
vt 0.500000 0.410360
vt 0.000000 0.410360
vt 0.146447 0.166124
vt 0.353553 0.166124
vt 0.500000 0.410360
vt 0.500000 0.755763
vt 0.353553 1.000000
vt 0.146447 1.000000
vt 0.000000 0.755763
vt 0.375000 0.136684
vt 0.374331 0.144775
vt 0.372389 0.152074
vt 0.369365 0.157866
vt 0.365554 0.161585
vt 0.361330 0.162865
vt 0.138670 0.162865
vt 0.134446 0.161585
vt 0.130635 0.157866
vt 0.127611 0.152074
vt 0.125669 0.144775
vt 0.125000 0.136684
vt 0.125000 0.029440
vt 0.125669 0.021349
vt 0.127611 0.014050
vt 0.130635 0.008258
vt 0.134446 0.004539
vt 0.138670 0.003257
vt 0.361330 0.003257
vt 0.365554 0.004539
vt 0.369365 0.008258
vt 0.372389 0.014050
vt 0.374331 0.021349
vt 0.375000 0.029440
vt 0.625000 0.136684
vt 0.625669 0.144775
vt 0.627611 0.152074
vt 0.630635 0.157866
vt 0.634446 0.161585
vt 0.638670 0.162866
vt 0.861330 0.162866
vt 0.865554 0.161585
vt 0.869365 0.157866
vt 0.872389 0.152074
vt 0.874331 0.144775
vt 0.875000 0.136684
vt 0.875000 0.029440
vt 0.874331 0.021349
vt 0.872389 0.014050
vt 0.869365 0.008258
vt 0.865554 0.004539
vt 0.861330 0.003258
vt 0.638670 0.003258
vt 0.634446 0.004539
vt 0.630635 0.008258
vt 0.627611 0.014050
vt 0.625669 0.021349
vt 0.625000 0.029440
vt 0.625000 0.000000
vt 0.750000 0.000000
vt 0.750000 1.000000
vt 0.625000 1.000000
vt 0.250000 0.000000
vt 0.375000 0.000000
vt 0.375000 1.000000
vt 0.250000 1.000000
vt 0.875000 0.000000
vt 0.875000 1.000000
vt 0.125000 0.000000
vt 0.125000 1.000000
vt 0.000000 0.000000
vt 0.000000 1.000000
vt 0.500000 0.000000
vt 0.500000 1.000000
vt 1.000000 0.000000
vt 1.000000 1.000000
vt 0.054681 0.000000
vt 0.054681 0.999996
vt 0.945319 0.999996
vt 0.945319 0.000000
vt 0.164042 0.000000
vt 0.835958 0.000000
vt 0.835958 1.000000
vt 0.164042 1.000000
vt 0.945319 0.000003
vt 0.945319 1.000000
vt 0.054681 1.000000
vt 0.054681 0.000003
vt 0.037783 1.000000
vt 0.037783 0.000003
vt 0.022540 1.000000
vt 0.022540 0.000003
vt 0.067621 1.000000
vt 0.067621 0.000000
vt 0.113350 1.000000
vt 0.113350 0.000000
vt 0.164042 1.000000
vt 0.164042 0.000000
vt 0.037783 0.000000
vt 0.037783 0.999996
vt 0.022540 0.000000
vt 0.022540 0.999996
vt 0.000000 0.000000
vt 0.000000 0.999996
vt 0.932379 1.000000
vt 0.932379 0.000000
vt 0.886650 0.000000
vt 0.886650 1.000000
vt 0.835958 0.000000
vt 0.835958 1.000000
vt 0.962217 0.999996
vt 0.962217 0.000000
vt 0.977460 0.999996
vt 0.977460 0.000000
vt 0.932379 1.000000
vt 0.932379 0.000000
vt 0.886650 1.000000
vt 0.886650 0.000000
vt 0.962217 0.000003
vt 0.962217 1.000000
vt 0.977460 0.000003
vt 0.977460 1.000000
vt 1.000000 0.000003
vt 1.000000 1.000000
vt 0.067621 1.000000
vt 0.067621 0.000000
vt 0.113350 0.000000
vt 0.113350 1.000000
vt 0.312500 0.640625
vt 0.312500 0.992188
vt 0.453125 0.992188
vt 0.453125 0.640625
vt 0.234375 0.640625
vt 0.234375 0.992188
vt 0.312500 0.992188
vt 0.312500 0.640625
vt 0.234375 0.640625
vt 0.234375 0.992188
vt 0.093750 0.992188
vt 0.093750 0.640625
vt 0.015625 0.992188
vt 0.015625 0.640625
vt 0.312500 0.640625
vt 0.312500 0.992188
vt 0.453125 0.992188
vt 0.453125 0.640625
vt 0.234375 0.640625
vt 0.234375 0.992188
vt 0.312500 0.992188
vt 0.312500 0.640625
vt 0.234375 0.640625
vt 0.234375 0.992188
vt 0.093750 0.992188
vt 0.093750 0.640625
vt 0.015625 0.992188
vt 0.015625 0.640625
vt 0.312500 0.640625
vt 0.312500 0.992188
vt 0.453125 0.992188
vt 0.453125 0.640625
vt 0.234375 0.640625
vt 0.234375 0.992188
vt 0.312500 0.992188
vt 0.312500 0.640625
vt 0.234375 0.640625
vt 0.234375 0.992188
vt 0.093750 0.992188
vt 0.093750 0.640625
vt 0.015625 0.992188
vt 0.015625 0.640625
vt 0.312500 0.640625
vt 0.312500 0.992188
vt 0.453125 0.992188
vt 0.453125 0.640625
vt 0.234375 0.640625
vt 0.234375 0.992188
vt 0.312500 0.992188
vt 0.312500 0.640625
vt 0.234375 0.640625
vt 0.234375 0.992188
vt 0.093750 0.992188
vt 0.093750 0.640625
vt 0.015625 0.992188
vt 0.015625 0.640625
vt 0.781250 0.664062
vt 0.781250 0.992188
vt 0.921875 0.992188
vt 0.921875 0.664062
vt 0.484375 0.664062
vt 0.484375 0.992188
vt 0.562500 0.992188
vt 0.562500 0.664062
vt 0.703125 0.992188
vt 0.703125 0.664062
vt 0.234375 0.593750
vt 0.093750 0.593750
vt 0.453125 0.593750
vt 0.312500 0.593750
vt 0.781250 0.664062
vt 0.781250 0.992188
vt 0.921875 0.992188
vt 0.921875 0.664062
vt 0.484375 0.664062
vt 0.484375 0.992188
vt 0.562500 0.992188
vt 0.562500 0.664062
vt 0.703125 0.992188
vt 0.703125 0.664062
vt 0.234375 0.593750
vt 0.093750 0.593750
vt 0.453125 0.593750
vt 0.312500 0.593750
vt 0.843750 0.507812
vt 0.703125 0.507812
vt 0.703125 0.093750
vt 0.843750 0.093750
vt 0.015625 0.507812
vt 0.015625 0.093750
vt 0.156250 0.093750
vt 0.156250 0.507812
vt 0.156250 0.031250
vt 0.703125 0.031250
vt 0.703125 0.578125
vt 0.156250 0.578125
vt 0.312500 0.640625
vt 0.312500 0.992188
vt 0.453125 0.992188
vt 0.453125 0.640625
vt 0.234375 0.640625
vt 0.234375 0.992188
vt 0.312500 0.992188
vt 0.312500 0.640625
vt 0.234375 0.640625
vt 0.234375 0.992188
vt 0.093750 0.992188
vt 0.093750 0.640625
vt 0.015625 0.992188
vt 0.015625 0.640625
vt 0.312500 0.640625
vt 0.312500 0.992188
vt 0.453125 0.992188
vt 0.453125 0.640625
vt 0.234375 0.640625
vt 0.234375 0.992188
vt 0.312500 0.992188
vt 0.312500 0.640625
vt 0.234375 0.640625
vt 0.234375 0.992188
vt 0.093750 0.992188
vt 0.093750 0.640625
vt 0.015625 0.992188
vt 0.015625 0.640625
vt 0.781250 0.664062
vt 0.781250 0.992188
vt 0.921875 0.992188
vt 0.921875 0.664062
vt 0.484375 0.664062
vt 0.484375 0.992188
vt 0.562500 0.992188
vt 0.562500 0.664062
vt 0.703125 0.992188
vt 0.703125 0.664062
vt 0.234375 0.593750
vt 0.093750 0.593750
vt 0.453125 0.593750
vt 0.312500 0.593750
vt 0.703125 0.093750
vt 0.509440 0.093750
vt 0.156250 0.093750
vt 0.156250 0.053385
vt 0.156250 0.031250
vt 0.703125 0.031250
vt 0.703125 0.053385
vt 0.703125 0.578125
vt 0.156250 0.578125
vt 0.156250 0.532715
vt 0.156250 0.507812
vt 0.349935 0.507812
vt 0.703125 0.507812
vt 0.703125 0.532715
vt 0.703125 0.361165
vt 0.349935 0.361165
vt 0.156250 0.361165
vt 0.156250 0.240397
vt 0.509440 0.240397
vt 0.703125 0.240397
vt 0.843750 0.361165
vt 0.843750 0.240397
vt 0.015625 0.361165
vt 0.015625 0.240397
vn 0.0000 -1.0000 -0.0000
vn 0.0000 1.0000 -0.0000
vn 0.9239 0.0000 0.3827
vn 0.9239 0.0000 -0.3827
vn -0.9239 -0.0000 0.3827
vn -0.3827 -0.0000 0.9239
vn 0.3827 -0.0000 -0.9239
vn -0.9239 -0.0000 -0.3827
vn -0.3827 -0.0000 -0.9239
vn 0.3827 -0.0000 0.9239
vn 0.0785 -0.0000 0.9969
vn -0.0785 0.0000 0.9969
vn -0.9969 0.0000 -0.0785
vn -0.9969 0.0000 0.0785
vn -0.0785 0.0000 -0.9969
vn 0.0785 0.0000 -0.9969
vn 0.3090 0.0000 -0.9511
vn 0.5878 0.0000 -0.8090
vn 0.8090 0.0000 -0.5878
vn 0.9511 0.0000 -0.3090
vn 0.9969 0.0000 -0.0785
vn 0.3090 -0.0000 0.9511
vn 0.5878 -0.0000 0.8090
vn 0.8090 0.0000 0.5878
vn 0.9511 0.0000 0.3090
vn 0.9969 0.0000 0.0785
vn -0.3090 0.0000 0.9511
vn -0.5878 0.0000 0.8090
vn -0.8090 0.0000 0.5878
vn -0.9511 0.0000 0.3090
vn -0.3090 0.0000 -0.9511
vn -0.5878 0.0000 -0.8090
vn -0.8090 0.0000 -0.5878
vn -0.9511 0.0000 -0.3090
vn 1.0000 -0.0000 -0.0000
vn 0.0000 -0.0000 1.0000
vn -1.0000 -0.0000 0.0000
vn 0.0000 0.0000 -1.0000
vn 0.0000 -0.7071 0.7071
vn -0.0000 -0.7071 -0.7071
g sign.001_sign_Cube_Cube_front-back_main_front-back.001_front-back
s 1
f 1/1/1 2/2/1 3/3/1 4/4/1 5/5/1 6/6/1 7/7/1 8/8/1
f 9/9/2 10/10/2 11/11/2 12/12/2 13/13/2 14/14/2 15/15/2 16/16/2
f 129/17/2 130/18/2 131/19/2 132/20/2 133/21/2 134/22/2 135/23/2 136/24/2 137/25/2 138/26/2 139/27/2 140/28/2 141/29/2 142/30/2 143/31/2 144/32/2 145/33/2 146/34/2 147/35/2 148/36/2 149/37/2 150/38/2 151/39/2 152/40/2
f 153/41/1 154/42/1 155/43/1 156/44/1 157/45/1 158/46/1 159/47/1 160/48/1 161/49/1 162/50/1 163/51/1 164/52/1 165/53/1 166/54/1 167/55/1 168/56/1 169/57/1 170/58/1 171/59/1 172/60/1 173/61/1 174/62/1 175/63/1 176/64/1
g sign.001_sign_Cube_Cube_front-back_main_front-back.001_edges
f 17/65/3 18/66/4 19/67/4 20/68/3
f 21/69/5 22/70/6 23/71/6 24/72/5
f 18/66/4 25/73/7 26/74/7 19/67/4
f 27/75/8 21/69/5 24/72/5 28/76/8
f 29/77/9 27/75/8 28/76/8 30/78/9
f 31/79/10 17/65/3 20/68/3 32/80/10
f 22/70/6 31/79/10 32/80/10 23/71/6
f 25/73/7 29/81/9 30/82/9 26/74/7
f 81/83/11 82/84/11 83/85/12 84/86/12
f 85/87/13 86/88/14 87/89/14 88/90/13
f 89/91/15 90/92/15 91/93/16 92/94/16
f 92/94/16 91/93/16 93/95/17 94/96/17
f 94/96/17 93/95/17 95/97/18 96/98/18
f 96/98/18 95/97/18 97/99/19 98/100/19
f 98/100/19 97/99/19 99/101/20 100/102/20
f 100/102/20 99/101/20 101/103/21 102/104/21
f 82/84/11 81/83/11 103/105/22 104/106/22
f 104/106/22 103/105/22 105/107/23 106/108/23
f 106/108/23 105/107/23 107/109/24 108/110/24
f 108/111/24 107/112/24 109/113/25 110/114/25
f 110/114/25 109/113/25 111/115/26 112/116/26
f 84/86/12 83/85/12 113/117/27 114/118/27
f 114/118/27 113/117/27 115/119/28 116/120/28
f 116/120/28 115/119/28 117/121/29 118/122/29
f 118/122/29 117/121/29 119/123/30 120/124/30
f 120/124/30 119/123/30 87/89/14 86/88/14
f 90/92/15 89/91/15 121/125/31 122/126/31
f 122/126/31 121/125/31 123/127/32 124/128/32
f 124/128/32 123/127/32 125/129/33 126/130/33
f 126/131/33 125/132/33 127/133/34 128/134/34
f 128/134/34 127/133/34 85/87/13 88/90/13
f 111/115/26 102/104/21 101/103/21 112/116/26
g sign.001_sign_Cube_Cube_front-back_main_front-back.001_pole-mount
f 37/135/35 33/136/35 38/137/35 39/138/35
f 39/139/36 38/140/36 40/141/36 41/142/36
f 41/143/37 40/144/37 42/145/37 43/146/37
f 43/146/38 42/145/38 33/147/38 37/148/38
f 44/149/35 45/150/35 34/151/35 46/152/35
f 46/153/36 34/154/36 47/155/36 48/156/36
f 48/157/37 47/158/37 49/159/37 50/160/37
f 50/160/38 49/159/38 45/161/38 44/162/38
f 51/163/35 52/164/35 53/165/35 54/166/35
f 54/167/36 53/168/36 55/169/36 56/170/36
f 56/171/37 55/172/37 35/173/37 57/174/37
f 57/174/38 35/173/38 52/175/38 51/176/38
f 58/177/35 59/178/35 60/179/35 61/180/35
f 61/181/36 60/182/36 36/183/36 62/184/36
f 62/185/37 36/186/37 63/187/37 64/188/37
f 64/188/38 63/187/38 59/189/38 58/190/38
f 65/191/1 66/192/1 67/193/1 68/194/1
f 68/195/36 67/196/36 54/197/36 41/198/36
f 41/198/2 54/197/2 51/199/2 43/200/2
f 43/200/38 51/199/38 66/192/38 65/191/38
f 68/201/37 41/143/37 43/146/37 65/202/37
f 54/166/35 67/203/35 66/204/35 51/163/35
f 69/205/1 70/206/1 71/207/1 72/208/1
f 72/209/36 71/210/36 61/211/36 48/212/36
f 48/212/2 61/211/2 58/213/2 50/214/2
f 50/214/38 58/213/38 70/206/38 69/205/38
f 72/215/37 48/157/37 50/160/37 69/216/37
f 61/180/35 71/217/35 70/218/35 58/177/35
f 73/219/37 74/220/37 75/221/37 76/222/37
f 77/223/35 78/224/35 79/225/35 80/226/35
f 75/221/36 79/225/36 78/227/36 76/228/36
f 73/229/38 77/230/38 80/226/38 74/220/38
f 74/220/1 80/226/1 79/225/1 75/221/1
f 179/231/35 177/232/35 180/233/35 181/234/35
f 181/235/36 180/236/36 182/237/36 183/238/36
f 183/239/37 182/240/37 184/241/37 185/242/37
f 185/242/38 184/241/38 177/243/38 179/244/38
f 186/245/35 187/246/35 188/247/35 189/248/35
f 189/249/36 188/250/36 190/251/36 191/252/36
f 191/253/37 190/254/37 178/255/37 192/256/37
f 192/256/38 178/255/38 187/257/38 186/258/38
f 193/259/1 194/260/1 195/261/1 196/262/1
f 196/263/36 195/264/36 189/265/36 183/266/36
f 183/266/2 189/265/2 186/267/2 185/268/2
f 185/268/38 186/267/38 194/260/38 193/259/38
f 196/269/37 183/239/37 185/242/37 193/270/37
f 189/248/35 195/271/35 194/272/35 186/245/35
f 198/273/39 202/274/39 200/275/39 203/276/36 199/277/36 210/278/36 205/279/36
f 209/280/38 197/281/38 206/282/38 207/283/40 201/284/40 208/285/40 204/286/38
f 208/287/40 201/288/40 207/289/40 200/290/39 202/291/39 198/292/39
f 209/293/37 208/287/37 198/292/37 210/294/37
f 207/289/35 197/295/35 199/296/35 200/290/35
