# Blender v2.79 (sub 0) OBJ File: '000 Basic square 100x100x5 cm sign.blend'
# www.blender.org
o Cube
v 0.411480 -0.500000 -0.457200
v 0.457200 -0.500000 -0.411480
v 0.425608 -0.500000 -0.454962
v 0.438354 -0.500000 -0.448468
v 0.448468 -0.500000 -0.438354
v 0.454962 -0.500000 -0.425608
v 0.457200 -0.450000 -0.411480
v 0.411480 -0.450000 -0.457200
v 0.454962 -0.450000 -0.425608
v 0.448468 -0.450000 -0.438354
v 0.438354 -0.450000 -0.448468
v 0.425608 -0.450000 -0.454962
v 0.457200 -0.500000 0.411480
v 0.411480 -0.500000 0.457200
v 0.454962 -0.500000 0.425608
v 0.448468 -0.500000 0.438354
v 0.438354 -0.500000 0.448468
v 0.425608 -0.500000 0.454962
v 0.411480 -0.450000 0.457200
v 0.457200 -0.450000 0.411480
v 0.425608 -0.450000 0.454962
v 0.438354 -0.450000 0.448468
v 0.448468 -0.450000 0.438354
v 0.454962 -0.450000 0.425608
v -0.457200 -0.500000 -0.411480
v -0.411480 -0.500000 -0.457200
v -0.454962 -0.500000 -0.425608
v -0.448468 -0.500000 -0.438354
v -0.438354 -0.500000 -0.448468
v -0.425608 -0.500000 -0.454962
v -0.411480 -0.450000 -0.457200
v -0.457200 -0.450000 -0.411480
v -0.425608 -0.450000 -0.454962
v -0.438354 -0.450000 -0.448468
v -0.448468 -0.450000 -0.438354
v -0.454962 -0.450000 -0.425608
v -0.411480 -0.500000 0.457200
v -0.457200 -0.500000 0.411480
v -0.425608 -0.500000 0.454962
v -0.438354 -0.500000 0.448468
v -0.448468 -0.500000 0.438354
v -0.454962 -0.500000 0.425608
v -0.457200 -0.450000 0.411480
v -0.411480 -0.450000 0.457200
v -0.454962 -0.450000 0.425608
v -0.448468 -0.450000 0.438354
v -0.438354 -0.450000 0.448468
v -0.425608 -0.450000 0.454962
vt 0.500000 0.950000
vt 0.498776 0.965451
vt 0.495225 0.979389
vt 0.489695 0.990451
vt 0.482725 0.997553
vt 0.475000 1.000000
vt 0.025000 1.000000
vt 0.017275 0.997553
vt 0.010305 0.990451
vt 0.004775 0.979389
vt 0.001224 0.965451
vt 0.000000 0.950000
vt 0.000000 0.050000
vt 0.001224 0.034549
vt 0.004775 0.020611
vt 0.010305 0.009549
vt 0.017275 0.002447
vt 0.025000 0.000000
vt 0.475000 0.000000
vt 0.482725 0.002447
vt 0.489695 0.009549
vt 0.495225 0.020611
vt 0.498776 0.034549
vt 0.500000 0.050000
vt 0.500000 0.050000
vt 0.501224 0.034549
vt 0.504775 0.020611
vt 0.510305 0.009549
vt 0.517275 0.002447
vt 0.525000 0.000000
vt 0.975000 0.000000
vt 0.982725 0.002447
vt 0.989695 0.009549
vt 0.995225 0.020611
vt 0.998776 0.034549
vt 1.000000 0.050000
vt 1.000000 0.950000
vt 0.998776 0.965451
vt 0.995225 0.979389
vt 0.989695 0.990451
vt 0.982725 0.997553
vt 0.975000 1.000000
vt 0.525000 1.000000
vt 0.517275 0.997553
vt 0.510305 0.990451
vt 0.504775 0.979389
vt 0.501224 0.965451
vt 0.500000 0.950000
vt 0.950000 0.000000
vt 0.950000 1.000000
vt 0.050000 1.000000
vt 0.050000 0.000000
vt 0.950000 0.000000
vt 0.950000 1.000000
vt 0.050000 1.000000
vt 0.050000 0.000000
vt 0.950000 0.000000
vt 0.950000 1.000000
vt 0.050000 1.000000
vt 0.050000 0.000000
vt 0.950000 0.000000
vt 0.950000 1.000000
vt 0.050000 1.000000
vt 0.050000 0.000000
vt 0.034549 1.000000
vt 0.034549 0.000000
vt 0.020611 1.000000
vt 0.020611 0.000000
vt 0.000000 1.000000
vt 0.000000 0.000000
vt 0.979389 0.000000
vt 0.979389 1.000000
vt 0.965451 1.000000
vt 0.965451 0.000000
vt 0.965451 0.000000
vt 0.965451 1.000000
vt 0.979389 0.000000
vt 0.979389 1.000000
vt 1.000000 0.000000
vt 1.000000 1.000000
vt 0.020611 1.000000
vt 0.020611 0.000000
vt 0.034549 0.000000
vt 0.034549 1.000000
vt 0.965451 0.000000
vt 0.965451 1.000000
vt 0.979389 0.000000
vt 0.979389 1.000000
vt 1.000000 0.000000
vt 1.000000 1.000000
vt 0.020611 1.000000
vt 0.020611 0.000000
vt 0.034549 0.000000
vt 0.034549 1.000000
vt 0.965451 0.000000
vt 0.965451 1.000000
vt 0.979389 0.000000
vt 0.979389 1.000000
vt 1.000000 0.000000
vt 1.000000 1.000000
vt 0.020611 1.000000
vt 0.020611 0.000000
vt 0.034549 0.000000
vt 0.034549 1.000000
vn 0.0000 1.0000 0.0000
vn 0.0000 -1.0000 -0.0000
vn 0.0000 0.0000 -1.0000
vn -1.0000 0.0000 0.0000
vn 1.0000 0.0000 0.0000
vn 0.0000 0.0000 1.0000
vn 0.1564 0.0000 -0.9877
vn 0.4540 0.0000 -0.8910
vn 0.7071 0.0000 -0.7071
vn 0.8910 0.0000 -0.4540
vn 0.9877 0.0000 -0.1564
vn 0.1564 0.0000 0.9877
vn 0.4540 0.0000 0.8910
vn 0.7071 0.0000 0.7071
vn 0.8910 0.0000 0.4540
vn 0.9877 0.0000 0.1564
vn -0.9877 0.0000 0.1564
vn -0.8910 0.0000 0.4540
vn -0.7071 0.0000 0.7071
vn -0.4540 0.0000 0.8910
vn -0.1564 0.0000 0.9877
vn -0.1564 0.0000 -0.9877
vn -0.4540 0.0000 -0.8910
vn -0.7071 0.0000 -0.7071
vn -0.8910 0.0000 -0.4540
vn -0.9877 0.0000 -0.1564
g Cube_Cube_front-back
s off
f 43/1/1 45/2/1 46/3/1 47/4/1 48/5/1 44/6/1 19/7/1 21/8/1 22/9/1 23/10/1 24/11/1 20/12/1 7/13/1 9/14/1 10/15/1 11/16/1 12/17/1 8/18/1 31/19/1 33/20/1 34/21/1 35/22/1 36/23/1 32/24/1
f 13/25/2 15/26/2 16/27/2 17/28/2 18/29/2 14/30/2 37/31/2 39/32/2 40/33/2 41/34/2 42/35/2 38/36/2 25/37/2 27/38/2 28/39/2 29/40/2 30/41/2 26/42/2 1/43/2 3/44/2 4/45/2 5/46/2 6/47/2 2/48/2
g Cube_Cube_edges
f 26/49/3 31/50/3 8/51/3 1/52/3
f 38/53/4 43/54/4 32/55/4 25/56/4
f 2/57/5 7/58/5 20/59/5 13/60/5
f 14/61/6 19/62/6 44/63/6 37/64/6
f 1/52/7 8/51/7 12/65/7 3/66/7
f 3/66/8 12/65/8 11/67/8 4/68/8
f 4/68/9 11/67/9 10/69/9 5/70/9
f 5/71/10 10/72/10 9/73/10 6/74/10
f 6/74/11 9/73/11 7/58/11 2/57/11
f 19/62/12 14/61/12 18/75/12 21/76/12
f 21/76/13 18/75/13 17/77/13 22/78/13
f 22/78/14 17/77/14 16/79/14 23/80/14
f 23/81/15 16/82/15 15/83/15 24/84/15
f 24/84/16 15/83/16 13/60/16 20/59/16
f 43/54/17 38/53/17 42/85/17 45/86/17
f 45/86/18 42/85/18 41/87/18 46/88/18
f 46/88/19 41/87/19 40/89/19 47/90/19
f 47/91/20 40/92/20 39/93/20 48/94/20
f 48/94/21 39/93/21 37/64/21 44/63/21
f 31/50/22 26/49/22 30/95/22 33/96/22
f 33/96/23 30/95/23 29/97/23 34/98/23
f 34/98/24 29/97/24 28/99/24 35/100/24
f 35/101/25 28/102/25 27/103/25 36/104/25
f 36/104/26 27/103/26 25/56/26 32/55/26
