# Blender v2.79 (sub 0) OBJ File: '000 Basic square 100x100x5 cm sign, offset with post mount.blend'
# www.blender.org
o Cube
v 0.411480 -0.812500 -0.457200
v 0.457200 -0.812500 -0.411480
v 0.425608 -0.812500 -0.454962
v 0.438354 -0.812500 -0.448468
v 0.448468 -0.812500 -0.438354
v 0.454962 -0.812500 -0.425608
v 0.457200 -0.762500 -0.411480
v 0.411480 -0.762500 -0.457200
v 0.454962 -0.762500 -0.425608
v 0.448468 -0.762500 -0.438354
v 0.438354 -0.762500 -0.448468
v 0.425608 -0.762500 -0.454962
v 0.457200 -0.812500 0.411480
v 0.411480 -0.812500 0.457200
v 0.454962 -0.812500 0.425608
v 0.448468 -0.812500 0.438354
v 0.438354 -0.812500 0.448468
v 0.425608 -0.812500 0.454962
v 0.411480 -0.762500 0.457200
v 0.457200 -0.762500 0.411480
v 0.425608 -0.762500 0.454962
v 0.438354 -0.762500 0.448468
v 0.448468 -0.762500 0.438354
v 0.454962 -0.762500 0.425608
v -0.457200 -0.812500 -0.411480
v -0.411480 -0.812500 -0.457200
v -0.454962 -0.812500 -0.425608
v -0.448468 -0.812500 -0.438354
v -0.438354 -0.812500 -0.448468
v -0.425608 -0.812500 -0.454962
v -0.411480 -0.762500 -0.457200
v -0.457200 -0.762500 -0.411480
v -0.425608 -0.762500 -0.454962
v -0.438354 -0.762500 -0.448468
v -0.448468 -0.762500 -0.438354
v -0.454962 -0.762500 -0.425608
v -0.411480 -0.812500 0.457200
v -0.457200 -0.812500 0.411480
v -0.425608 -0.812500 0.454962
v -0.438354 -0.812500 0.448468
v -0.448468 -0.812500 0.438354
v -0.454962 -0.812500 0.425608
v -0.457200 -0.762500 0.411480
v -0.411480 -0.762500 0.457200
v -0.454962 -0.762500 0.425608
v -0.448468 -0.762500 0.438354
v -0.438354 -0.762500 0.448468
v -0.425608 -0.762500 0.454962
vt 0.500000 0.950000
vt 0.498776 0.965451
vt 0.495225 0.979389
vt 0.489695 0.990451
vt 0.482725 0.997553
vt 0.475000 1.000000
vt 0.025000 1.000000
vt 0.017275 0.997553
vt 0.010305 0.990451
vt 0.004775 0.979389
vt 0.001224 0.965451
vt 0.000000 0.950000
vt 0.000000 0.050000
vt 0.001224 0.034549
vt 0.004775 0.020611
vt 0.010305 0.009549
vt 0.017275 0.002447
vt 0.025000 0.000000
vt 0.475000 0.000000
vt 0.482725 0.002447
vt 0.489695 0.009549
vt 0.495225 0.020611
vt 0.498776 0.034549
vt 0.500000 0.050000
vt 0.500000 0.050000
vt 0.501224 0.034549
vt 0.504775 0.020611
vt 0.510305 0.009549
vt 0.517275 0.002447
vt 0.525000 0.000000
vt 0.975000 0.000000
vt 0.982725 0.002447
vt 0.989695 0.009549
vt 0.995225 0.020611
vt 0.998776 0.034549
vt 1.000000 0.050000
vt 1.000000 0.950000
vt 0.998776 0.965451
vt 0.995225 0.979389
vt 0.989695 0.990451
vt 0.982725 0.997553
vt 0.975000 1.000000
vt 0.525000 1.000000
vt 0.517275 0.997553
vt 0.510305 0.990451
vt 0.504775 0.979389
vt 0.501224 0.965451
vt 0.500000 0.950000
vt 0.950000 0.000000
vt 0.950000 1.000000
vt 0.050000 1.000000
vt 0.050000 0.000000
vt 0.950000 0.000000
vt 0.950000 1.000000
vt 0.050000 1.000000
vt 0.050000 0.000000
vt 0.950000 0.000000
vt 0.950000 1.000000
vt 0.050000 1.000000
vt 0.050000 0.000000
vt 0.950000 0.000000
vt 0.950000 1.000000
vt 0.050000 1.000000
vt 0.050000 0.000000
vt 0.034549 1.000000
vt 0.034549 0.000000
vt 0.020611 1.000000
vt 0.020611 0.000000
vt 0.000000 1.000000
vt 0.000000 0.000000
vt 0.979389 0.000000
vt 0.979389 1.000000
vt 0.965451 1.000000
vt 0.965451 0.000000
vt 0.965451 0.000000
vt 0.965451 1.000000
vt 0.979389 0.000000
vt 0.979389 1.000000
vt 1.000000 0.000000
vt 1.000000 1.000000
vt 0.020611 1.000000
vt 0.020611 0.000000
vt 0.034549 0.000000
vt 0.034549 1.000000
vt 0.965451 0.000000
vt 0.965451 1.000000
vt 0.979389 0.000000
vt 0.979389 1.000000
vt 1.000000 0.000000
vt 1.000000 1.000000
vt 0.020611 1.000000
vt 0.020611 0.000000
vt 0.034549 0.000000
vt 0.034549 1.000000
vt 0.965451 0.000000
vt 0.965451 1.000000
vt 0.979389 0.000000
vt 0.979389 1.000000
vt 1.000000 0.000000
vt 1.000000 1.000000
vt 0.020611 1.000000
vt 0.020611 0.000000
vt 0.034549 0.000000
vt 0.034549 1.000000
vn 0.0000 1.0000 0.0000
vn 0.0000 -1.0000 -0.0000
vn 0.0000 0.0000 -1.0000
vn -1.0000 0.0000 0.0000
vn 1.0000 0.0000 0.0000
vn 0.0000 0.0000 1.0000
vn 0.1564 0.0000 -0.9877
vn 0.4540 0.0000 -0.8910
vn 0.7071 0.0000 -0.7071
vn 0.8910 0.0000 -0.4540
vn 0.9877 0.0000 -0.1564
vn 0.1564 0.0000 0.9877
vn 0.4540 0.0000 0.8910
vn 0.7071 0.0000 0.7071
vn 0.8910 0.0000 0.4540
vn 0.9877 0.0000 0.1564
vn -0.9877 0.0000 0.1564
vn -0.8910 0.0000 0.4540
vn -0.7071 0.0000 0.7071
vn -0.4540 0.0000 0.8910
vn -0.1564 0.0000 0.9877
vn -0.1564 0.0000 -0.9877
vn -0.4540 0.0000 -0.8910
vn -0.7071 0.0000 -0.7071
vn -0.8910 0.0000 -0.4540
vn -0.9877 0.0000 -0.1564
g Cube_Cube_front-back
s off
f 43/1/1 45/2/1 46/3/1 47/4/1 48/5/1 44/6/1 19/7/1 21/8/1 22/9/1 23/10/1 24/11/1 20/12/1 7/13/1 9/14/1 10/15/1 11/16/1 12/17/1 8/18/1 31/19/1 33/20/1 34/21/1 35/22/1 36/23/1 32/24/1
f 13/25/2 15/26/2 16/27/2 17/28/2 18/29/2 14/30/2 37/31/2 39/32/2 40/33/2 41/34/2 42/35/2 38/36/2 25/37/2 27/38/2 28/39/2 29/40/2 30/41/2 26/42/2 1/43/2 3/44/2 4/45/2 5/46/2 6/47/2 2/48/2
g Cube_Cube_edges
f 26/49/3 31/50/3 8/51/3 1/52/3
f 38/53/4 43/54/4 32/55/4 25/56/4
f 2/57/5 7/58/5 20/59/5 13/60/5
f 14/61/6 19/62/6 44/63/6 37/64/6
f 1/52/7 8/51/7 12/65/7 3/66/7
f 3/66/8 12/65/8 11/67/8 4/68/8
f 4/68/9 11/67/9 10/69/9 5/70/9
f 5/71/10 10/72/10 9/73/10 6/74/10
f 6/74/11 9/73/11 7/58/11 2/57/11
f 19/62/12 14/61/12 18/75/12 21/76/12
f 21/76/13 18/75/13 17/77/13 22/78/13
f 22/78/14 17/77/14 16/79/14 23/80/14
f 23/81/15 16/82/15 15/83/15 24/84/15
f 24/84/16 15/83/16 13/60/16 20/59/16
f 43/54/17 38/53/17 42/85/17 45/86/17
f 45/86/18 42/85/18 41/87/18 46/88/18
f 46/88/19 41/87/19 40/89/19 47/90/19
f 47/91/20 40/92/20 39/93/20 48/94/20
f 48/94/21 39/93/21 37/64/21 44/63/21
f 31/50/22 26/49/22 30/95/22 33/96/22
f 33/96/23 30/95/23 29/97/23 34/98/23
f 34/98/24 29/97/24 28/99/24 35/100/24
f 35/101/25 28/102/25 27/103/25 36/104/25
f 36/104/26 27/103/26 25/56/26 32/55/26
o Cube.001
v -0.125000 -0.812500 -0.187500
v -0.125000 -0.875000 -0.187500
v -0.125000 -0.812500 0.187500
v -0.125000 -0.875000 0.187500
v 0.125000 -0.812500 0.187500
v 0.125000 -0.812500 -0.187500
v 0.125000 -0.875000 -0.187500
v 0.125000 -0.875000 0.187500
v -0.125000 -1.125000 -0.187500
v -0.125000 -0.812500 -0.187500
v -0.125000 -1.125000 -0.125000
v -0.125000 -0.812500 -0.125000
v -0.164063 -1.125000 -0.187500
v -0.164063 -0.812500 -0.187500
v -0.164063 -1.125000 -0.125000
v -0.164063 -0.812500 -0.125000
v -0.125000 -1.125000 0.125000
v -0.125000 -0.812500 0.125000
v -0.125000 -1.125000 0.187500
v -0.125000 -0.812500 0.187500
v -0.164063 -1.125000 0.125000
v -0.164063 -0.812500 0.125000
v -0.164063 -1.125000 0.187500
v -0.164063 -0.812500 0.187500
v 0.164062 -1.125000 -0.187500
v 0.164062 -0.812500 -0.187500
v 0.164062 -1.125000 -0.125000
v 0.164062 -0.812500 -0.125000
v 0.125000 -1.125000 -0.187500
v 0.125000 -0.812500 -0.187500
v 0.125000 -1.125000 -0.125000
v 0.125000 -0.812500 -0.125000
v 0.164062 -1.125000 0.125000
v 0.164062 -0.812500 0.125000
v 0.164062 -1.125000 0.187500
v 0.164062 -0.812500 0.187500
v 0.125000 -1.125000 0.125000
v 0.125000 -0.812500 0.125000
v 0.125000 -1.125000 0.187500
v 0.125000 -0.812500 0.187500
v -0.164063 -1.164063 -0.187500
v 0.164062 -1.164063 -0.187500
v -0.164063 -1.164063 -0.125000
v 0.164062 -1.164063 -0.125000
v -0.164063 -1.125000 -0.187500
v 0.164062 -1.125000 -0.187500
v -0.164063 -1.125000 -0.125000
v 0.164062 -1.125000 -0.125000
v -0.164063 -1.164063 0.125000
v 0.164062 -1.164063 0.125000
v -0.164063 -1.164063 0.187500
v 0.164062 -1.164063 0.187500
v -0.164063 -1.125000 0.125000
v 0.164062 -1.125000 0.125000
v -0.164063 -1.125000 0.187500
v 0.164062 -1.125000 0.187500
vt 0.843750 0.507812
vt 0.703125 0.507812
vt 0.703125 0.093750
vt 0.843750 0.093750
vt 0.015625 0.507812
vt 0.015625 0.093750
vt 0.156250 0.093750
vt 0.156250 0.507812
vt 0.156250 0.031250
vt 0.703125 0.031250
vt 0.703125 0.578125
vt 0.156250 0.578125
vt 0.312500 0.640625
vt 0.312500 0.992188
vt 0.453125 0.992188
vt 0.453125 0.640625
vt 0.234375 0.640625
vt 0.234375 0.992188
vt 0.312500 0.992188
vt 0.312500 0.640625
vt 0.234375 0.640625
vt 0.234375 0.992188
vt 0.093750 0.992188
vt 0.093750 0.640625
vt 0.015625 0.992188
vt 0.015625 0.640625
vt 0.312500 0.640625
vt 0.312500 0.992188
vt 0.453125 0.992188
vt 0.453125 0.640625
vt 0.234375 0.640625
vt 0.234375 0.992188
vt 0.312500 0.992188
vt 0.312500 0.640625
vt 0.234375 0.640625
vt 0.234375 0.992188
vt 0.093750 0.992188
vt 0.093750 0.640625
vt 0.015625 0.992188
vt 0.015625 0.640625
vt 0.312500 0.640625
vt 0.312500 0.992188
vt 0.453125 0.992188
vt 0.453125 0.640625
vt 0.234375 0.640625
vt 0.234375 0.992188
vt 0.312500 0.992188
vt 0.312500 0.640625
vt 0.234375 0.640625
vt 0.234375 0.992188
vt 0.093750 0.992188
vt 0.093750 0.640625
vt 0.015625 0.992188
vt 0.015625 0.640625
vt 0.312500 0.640625
vt 0.312500 0.992188
vt 0.453125 0.992188
vt 0.453125 0.640625
vt 0.234375 0.640625
vt 0.234375 0.992188
vt 0.312500 0.992188
vt 0.312500 0.640625
vt 0.234375 0.640625
vt 0.234375 0.992188
vt 0.093750 0.992188
vt 0.093750 0.640625
vt 0.015625 0.992188
vt 0.015625 0.640625
vt 0.781250 0.664062
vt 0.781250 0.992188
vt 0.921875 0.992188
vt 0.921875 0.664062
vt 0.484375 0.664062
vt 0.484375 0.992188
vt 0.562500 0.992188
vt 0.562500 0.664062
vt 0.703125 0.992188
vt 0.703125 0.664062
vt 0.234375 0.593750
vt 0.234375 0.640625
vt 0.093750 0.640625
vt 0.093750 0.593750
vt 0.453125 0.640625
vt 0.453125 0.593750
vt 0.312500 0.593750
vt 0.312500 0.640625
vt 0.781250 0.664062
vt 0.781250 0.992188
vt 0.921875 0.992188
vt 0.921875 0.664062
vt 0.484375 0.664062
vt 0.484375 0.992188
vt 0.562500 0.992188
vt 0.562500 0.664062
vt 0.703125 0.992188
vt 0.703125 0.664062
vt 0.234375 0.593750
vt 0.234375 0.640625
vt 0.093750 0.640625
vt 0.093750 0.593750
vt 0.453125 0.640625
vt 0.453125 0.593750
vt 0.312500 0.593750
vt 0.312500 0.640625
vn -1.0000 0.0000 0.0000
vn 1.0000 0.0000 0.0000
vn 0.0000 -0.0000 1.0000
vn 0.0000 0.0000 -1.0000
vn 0.0000 -1.0000 -0.0000
vn 0.0000 1.0000 0.0000
g Cube.001_Cube.001_pole_mount
s off
f 49/105/27 50/106/27 52/107/27 51/108/27
f 54/109/28 53/110/28 56/111/28 55/112/28
f 52/107/29 56/111/29 53/113/29 51/114/29
f 49/115/30 54/116/30 55/112/30 50/106/30
f 50/106/31 55/112/31 56/111/31 52/107/31
f 57/117/28 58/118/28 60/119/28 59/120/28
f 59/121/29 60/122/29 64/123/29 63/124/29
f 63/125/27 64/126/27 62/127/27 61/128/27
f 61/128/30 62/127/30 58/129/30 57/130/30
f 65/131/28 66/132/28 68/133/28 67/134/28
f 67/135/29 68/136/29 72/137/29 71/138/29
f 71/139/27 72/140/27 70/141/27 69/142/27
f 69/142/30 70/141/30 66/143/30 65/144/30
f 73/145/28 74/146/28 76/147/28 75/148/28
f 75/149/29 76/150/29 80/151/29 79/152/29
f 79/153/27 80/154/27 78/155/27 77/156/27
f 77/156/30 78/155/30 74/157/30 73/158/30
f 81/159/28 82/160/28 84/161/28 83/162/28
f 83/163/29 84/164/29 88/165/29 87/166/29
f 87/167/27 88/168/27 86/169/27 85/170/27
f 85/170/30 86/169/30 82/171/30 81/172/30
f 89/173/31 90/174/31 92/175/31 91/176/31
f 91/177/29 92/178/29 96/179/29 95/180/29
f 95/180/32 96/179/32 94/181/32 93/182/32
f 93/182/30 94/181/30 90/174/30 89/173/30
f 91/183/27 95/184/27 93/185/27 89/186/27
f 96/187/28 92/188/28 90/189/28 94/190/28
f 97/191/31 98/192/31 100/193/31 99/194/31
f 99/195/29 100/196/29 104/197/29 103/198/29
f 103/198/32 104/197/32 102/199/32 101/200/32
f 101/200/30 102/199/30 98/192/30 97/191/30
f 99/201/27 103/202/27 101/203/27 97/204/27
f 104/205/28 100/206/28 98/207/28 102/208/28
