# Blender v2.79 (sub 0) OBJ File: 'street signs regulatory 42x30.blend'
# www.blender.org
o Cube
v 0.482419 -0.500000 -0.381000
v 0.533400 -0.500000 -0.330019
v 0.493764 -0.500000 -0.379722
v 0.504539 -0.500000 -0.375951
v 0.514205 -0.500000 -0.369878
v 0.522278 -0.500000 -0.361805
v 0.528351 -0.500000 -0.352139
v 0.532122 -0.500000 -0.341364
v 0.533400 -0.437500 -0.330019
v 0.482419 -0.437500 -0.381000
v 0.532122 -0.437500 -0.341364
v 0.528351 -0.437500 -0.352139
v 0.522278 -0.437500 -0.361805
v 0.514205 -0.437500 -0.369878
v 0.504539 -0.437500 -0.375951
v 0.493764 -0.437500 -0.379722
v 0.533400 -0.500000 0.330019
v 0.482419 -0.500000 0.381000
v 0.532122 -0.500000 0.341364
v 0.528351 -0.500000 0.352139
v 0.522278 -0.500000 0.361805
v 0.514205 -0.500000 0.369878
v 0.504539 -0.500000 0.375951
v 0.493764 -0.500000 0.379722
v 0.482419 -0.437500 0.381000
v 0.533400 -0.437500 0.330019
v 0.493764 -0.437500 0.379722
v 0.504539 -0.437500 0.375951
v 0.514205 -0.437500 0.369878
v 0.522278 -0.437500 0.361805
v 0.528351 -0.437500 0.352139
v 0.532122 -0.437500 0.341364
v -0.533400 -0.500000 -0.330019
v -0.482419 -0.500000 -0.381000
v -0.532122 -0.500000 -0.341364
v -0.528351 -0.500000 -0.352139
v -0.522278 -0.500000 -0.361805
v -0.514205 -0.500000 -0.369878
v -0.504539 -0.500000 -0.375951
v -0.493764 -0.500000 -0.379722
v -0.482419 -0.437500 -0.381000
v -0.533400 -0.437500 -0.330019
v -0.493764 -0.437500 -0.379722
v -0.504539 -0.437500 -0.375951
v -0.514205 -0.437500 -0.369878
v -0.522278 -0.437500 -0.361805
v -0.528351 -0.437500 -0.352139
v -0.532122 -0.437500 -0.341364
v -0.482419 -0.500000 0.381000
v -0.533400 -0.500000 0.330019
v -0.493764 -0.500000 0.379722
v -0.504539 -0.500000 0.375951
v -0.514205 -0.500000 0.369878
v -0.522278 -0.500000 0.361805
v -0.528351 -0.500000 0.352139
v -0.532122 -0.500000 0.341364
v -0.533400 -0.437500 0.330019
v -0.482419 -0.437500 0.381000
v -0.532122 -0.437500 0.341364
v -0.528351 -0.437500 0.352139
v -0.522278 -0.437500 0.361805
v -0.514205 -0.437500 0.369878
v -0.504539 -0.437500 0.375951
v -0.493764 -0.437500 0.379722
vt 0.956464 0.964770
vt 0.955322 0.972152
vt 0.951950 0.979165
vt 0.946520 0.985455
vt 0.939302 0.990708
vt 0.930660 0.994661
vt 0.921026 0.997115
vt 0.910882 0.997947
vt 0.048220 0.997947
vt 0.038077 0.997115
vt 0.028443 0.994661
vt 0.019801 0.990708
vt 0.012583 0.985455
vt 0.007153 0.979164
vt 0.003781 0.972152
vt 0.002639 0.964769
vt 0.002639 0.535230
vt 0.003781 0.527848
vt 0.007153 0.520835
vt 0.012583 0.514545
vt 0.019801 0.509292
vt 0.028443 0.505339
vt 0.038077 0.502885
vt 0.048220 0.502053
vt 0.910883 0.502053
vt 0.921026 0.502885
vt 0.930660 0.505339
vt 0.939302 0.509292
vt 0.946520 0.514545
vt 0.951950 0.520836
vt 0.955322 0.527848
vt 0.956464 0.535231
vt 0.002639 0.035230
vt 0.003781 0.027848
vt 0.007153 0.020835
vt 0.012583 0.014545
vt 0.019801 0.009292
vt 0.028443 0.005339
vt 0.038077 0.002885
vt 0.048220 0.002053
vt 0.910883 0.002053
vt 0.921026 0.002885
vt 0.930660 0.005339
vt 0.939302 0.009292
vt 0.946520 0.014545
vt 0.951950 0.020835
vt 0.955322 0.027848
vt 0.956464 0.035231
vt 0.956464 0.464770
vt 0.955321 0.472152
vt 0.951950 0.479165
vt 0.946520 0.485455
vt 0.939302 0.490708
vt 0.930660 0.494661
vt 0.921025 0.497115
vt 0.910882 0.497947
vt 0.048220 0.497947
vt 0.038077 0.497115
vt 0.028443 0.494661
vt 0.019801 0.490708
vt 0.012583 0.485455
vt 0.007153 0.479165
vt 0.003781 0.472152
vt 0.002639 0.464769
vt 0.997373 0.500036
vt 0.968318 0.500036
vt 0.968318 0.315157
vt 0.997373 0.315157
vt 0.997373 0.503234
vt 0.968318 0.503234
vt 0.997373 0.506432
vt 0.968318 0.506432
vt 0.997373 0.509629
vt 0.968318 0.509629
vt 0.997373 0.512827
vt 0.968318 0.512827
vt 0.968318 0.305564
vt 0.997373 0.305564
vt 0.997373 0.308762
vt 0.968318 0.308762
vt 0.997373 0.311959
vt 0.968318 0.311959
vt 0.997373 0.999938
vt 0.968318 0.999938
vt 0.968318 0.815059
vt 0.997373 0.815059
vt 0.997373 0.009727
vt 0.968318 0.009727
vt 0.968318 0.006530
vt 0.997373 0.006530
vt 0.968318 0.003332
vt 0.997373 0.003332
vt 0.968318 0.000134
vt 0.997373 0.000134
vt 0.968318 0.805466
vt 0.997373 0.805466
vt 0.997373 0.808664
vt 0.968318 0.808664
vt 0.997373 0.811861
vt 0.968318 0.811861
vt 0.997373 0.792675
vt 0.968318 0.792675
vt 0.968318 0.522420
vt 0.997373 0.522420
vt 0.997373 0.795873
vt 0.968318 0.795873
vt 0.997373 0.799071
vt 0.968318 0.799071
vt 0.997373 0.802268
vt 0.968318 0.802268
vt 0.997373 0.516025
vt 0.968318 0.516025
vt 0.997373 0.519223
vt 0.968318 0.519223
vt 0.997373 0.292773
vt 0.968318 0.292773
vt 0.968318 0.022518
vt 0.997373 0.022518
vt 0.968318 0.019320
vt 0.997373 0.019320
vt 0.968318 0.016123
vt 0.997373 0.016123
vt 0.968318 0.012925
vt 0.997373 0.012925
vt 0.997373 0.295971
vt 0.968318 0.295971
vt 0.997373 0.299169
vt 0.968318 0.299169
vt 0.997373 0.302366
vt 0.968318 0.302366
vn 0.0000 1.0000 -0.0000
vn 0.0000 -1.0000 -0.0000
vn -1.0000 0.0000 0.0000
vn -0.9937 0.0000 0.1120
vn -0.9439 0.0000 0.3303
vn -0.8467 0.0000 0.5320
vn -0.7071 0.0000 0.7071
vn -0.8467 0.0000 -0.5320
vn -0.9439 0.0000 -0.3303
vn -0.9937 0.0000 -0.1120
vn 1.0000 0.0000 0.0000
vn 0.8467 0.0000 -0.5320
vn 0.9439 0.0000 -0.3303
vn 0.9937 0.0000 -0.1120
vn 0.8467 0.0000 0.5320
vn 0.9439 0.0000 0.3303
vn 0.9937 0.0000 0.1120
vn 0.0000 0.0000 1.0000
vn 0.1120 0.0000 0.9937
vn 0.3303 0.0000 0.9439
vn 0.5320 0.0000 0.8467
vn 0.7071 0.0000 0.7071
vn -0.5320 0.0000 0.8467
vn -0.3303 0.0000 0.9439
vn -0.1120 0.0000 0.9937
vn 0.0000 0.0000 -1.0000
vn 0.1120 0.0000 -0.9937
vn 0.3303 0.0000 -0.9439
vn 0.5320 0.0000 -0.8467
vn 0.7071 0.0000 -0.7071
vn -0.1120 0.0000 -0.9937
vn -0.3303 0.0000 -0.9439
vn -0.5320 0.0000 -0.8467
vn -0.7071 0.0000 -0.7071
g Cube_Cube_top
s off
f 57/1/1 59/2/1 60/3/1 61/4/1 62/5/1 63/6/1 64/7/1 58/8/1 25/9/1 27/10/1 28/11/1 29/12/1 30/13/1 31/14/1 32/15/1 26/16/1 9/17/1 11/18/1 12/19/1 13/20/1 14/21/1 15/22/1 16/23/1 10/24/1 41/25/1 43/26/1 44/27/1 45/28/1 46/29/1 47/30/1 48/31/1 42/32/1
g Cube_Cube_bottom
f 17/33/2 19/34/2 20/35/2 21/36/2 22/37/2 23/38/2 24/39/2 18/40/2 49/41/2 51/42/2 52/43/2 53/44/2 54/45/2 55/46/2 56/47/2 50/48/2 33/49/2 35/50/2 36/51/2 37/52/2 38/53/2 39/54/2 40/55/2 34/56/2 1/57/2 3/58/2 4/59/2 5/60/2 6/61/2 7/62/2 8/63/2 2/64/2
g Cube_Cube_right
f 50/65/3 57/66/3 42/67/3 33/68/3
f 57/66/4 50/65/4 56/69/4 59/70/4
f 59/70/5 56/69/5 55/71/5 60/72/5
f 60/72/6 55/71/6 54/73/6 61/74/6
f 61/74/7 54/73/7 53/75/7 62/76/7
f 46/77/8 37/78/8 36/79/8 47/80/8
f 47/80/9 36/79/9 35/81/9 48/82/9
f 48/82/10 35/81/10 33/68/10 42/67/10
g Cube_Cube_left
f 2/83/11 9/84/11 26/85/11 17/86/11
f 6/87/12 13/88/12 12/89/12 7/90/12
f 7/90/13 12/89/13 11/91/13 8/92/13
f 8/92/14 11/91/14 9/93/14 2/94/14
f 30/95/15 21/96/15 20/97/15 31/98/15
f 31/98/16 20/97/16 19/99/16 32/100/16
f 32/100/17 19/99/17 17/86/17 26/85/17
g Cube_Cube_back
f 18/101/18 25/102/18 58/103/18 49/104/18
f 25/102/19 18/101/19 24/105/19 27/106/19
f 27/106/20 24/105/20 23/107/20 28/108/20
f 28/108/21 23/107/21 22/109/21 29/110/21
f 29/110/22 22/109/22 21/96/22 30/95/22
f 62/76/23 53/75/23 52/111/23 63/112/23
f 63/112/24 52/111/24 51/113/24 64/114/24
f 64/114/25 51/113/25 49/104/25 58/103/25
g Cube_Cube_front
f 34/115/26 41/116/26 10/117/26 1/118/26
f 1/118/27 10/117/27 16/119/27 3/120/27
f 3/120/28 16/119/28 15/121/28 4/122/28
f 4/122/29 15/121/29 14/123/29 5/124/29
f 5/124/30 14/123/30 13/88/30 6/87/30
f 41/116/31 34/115/31 40/125/31 43/126/31
f 43/126/32 40/125/32 39/127/32 44/128/32
f 44/128/33 39/127/33 38/129/33 45/130/33
f 45/130/34 38/129/34 37/78/34 46/77/34
