# Blender v2.79 (sub 0) OBJ File: 'US interstate sign.blend'
# www.blender.org
o Cube
v -0.173420 -0.500000 -0.390195
v -0.173420 -0.450000 -0.390195
v -0.204951 -0.500000 -0.370488
v -0.204951 -0.450000 -0.370488
v -0.137948 -0.500000 -0.409902
v -0.137948 -0.450000 -0.409902
v -0.110358 -0.500000 -0.421726
v -0.110358 -0.450000 -0.421726
v -0.047296 -0.500000 -0.445374
v -0.047296 -0.450000 -0.445374
v -0.082769 -0.500000 -0.433550
v -0.082769 -0.450000 -0.433550
v -0.019707 -0.500000 -0.453257
v -0.019707 -0.450000 -0.453257
v 0.000000 -0.500000 -0.457199
v -0.000000 -0.450000 -0.457199
v 0.019707 -0.500000 -0.453257
v 0.019707 -0.450000 -0.453257
v 0.047296 -0.500000 -0.445374
v 0.047296 -0.450000 -0.445374
v 0.082769 -0.500000 -0.433550
v 0.082769 -0.450000 -0.433550
v 0.110358 -0.500000 -0.421726
v 0.110358 -0.450000 -0.421726
v 0.137948 -0.500000 -0.409902
v 0.137948 -0.450000 -0.409902
v 0.173420 -0.500000 -0.390195
v 0.173420 -0.450000 -0.390195
v 0.240423 -0.500000 -0.342899
v 0.240423 -0.450000 -0.342899
v 0.204951 -0.500000 -0.370488
v 0.204951 -0.450000 -0.370488
v -0.409902 -0.500000 -0.118241
v -0.409902 -0.450000 -0.118241
v -0.398078 -0.500000 -0.145831
v -0.398078 -0.450000 -0.145831
v -0.386254 -0.500000 -0.169479
v -0.386254 -0.450000 -0.169479
v -0.374430 -0.500000 -0.189186
v -0.374430 -0.450000 -0.189186
v -0.362606 -0.500000 -0.208892
v -0.362606 -0.450000 -0.208892
v -0.315309 -0.500000 -0.271954
v -0.315309 -0.450000 -0.271954
v -0.271954 -0.500000 -0.315309
v -0.271954 -0.450000 -0.315309
v -0.342899 -0.500000 -0.236482
v -0.342899 -0.450000 -0.236482
v -0.240423 -0.500000 -0.342899
v -0.240423 -0.450000 -0.342899
v 0.271954 -0.500000 -0.315309
v 0.271954 -0.450000 -0.315309
v 0.315309 -0.500000 -0.271954
v 0.315309 -0.450000 -0.271954
v 0.342899 -0.500000 -0.236482
v 0.342899 -0.450000 -0.236482
v 0.386254 -0.500000 -0.169479
v 0.386254 -0.450000 -0.169479
v 0.374430 -0.500000 -0.189186
v 0.374430 -0.450000 -0.189186
v 0.362606 -0.500000 -0.208892
v 0.362606 -0.450000 -0.208892
v 0.398078 -0.500000 -0.145831
v 0.398078 -0.450000 -0.145831
v -0.457199 -0.500000 0.082769
v -0.457199 -0.450000 0.082769
v -0.457199 -0.500000 0.126124
v -0.457199 -0.450000 0.126124
v -0.453257 -0.500000 0.043355
v -0.453257 -0.450000 0.043355
v -0.445374 -0.500000 -0.007883
v -0.445374 -0.450000 -0.007883
v -0.449316 -0.500000 0.011824
v -0.449316 -0.450000 0.011824
v -0.437492 -0.500000 -0.039414
v -0.437492 -0.450000 -0.039414
v -0.429609 -0.500000 -0.070945
v -0.429609 -0.450000 -0.070945
v -0.421726 -0.500000 -0.090651
v -0.421726 -0.450000 -0.090651
v 0.409902 -0.500000 -0.118241
v 0.409902 -0.450000 -0.118241
v 0.421726 -0.500000 -0.090651
v 0.421726 -0.450000 -0.090651
v 0.429609 -0.500000 -0.070945
v 0.429609 -0.450000 -0.070945
v 0.445375 -0.500000 -0.007883
v 0.445374 -0.450000 -0.007883
v 0.437492 -0.500000 -0.039414
v 0.437492 -0.450000 -0.039414
v 0.449316 -0.500000 0.011824
v 0.449316 -0.450000 0.011824
v 0.453257 -0.500000 0.043355
v 0.453257 -0.450000 0.043355
v 0.457199 -0.500000 0.126124
v 0.457199 -0.450000 0.126124
v 0.453257 -0.500000 0.169479
v 0.453257 -0.450000 0.169479
v 0.457199 -0.500000 0.082769
v 0.457199 -0.450000 0.082769
v -0.437492 -0.500000 0.252248
v -0.437492 -0.450000 0.252248
v -0.445374 -0.500000 0.220717
v -0.445374 -0.450000 0.220717
v -0.453257 -0.500000 0.169479
v -0.453257 -0.450000 0.169479
v -0.429609 -0.500000 0.279837
v -0.429609 -0.450000 0.279837
v -0.402019 -0.500000 0.350782
v -0.402019 -0.450000 0.350782
v -0.413844 -0.500000 0.323192
v -0.413844 -0.450000 0.323192
v -0.421726 -0.500000 0.303485
v -0.421726 -0.450000 0.303485
v -0.386254 -0.500000 0.382313
v -0.386254 -0.450000 0.382313
v -0.271954 -0.500000 0.441433
v -0.271954 -0.450000 0.441433
v -0.370488 -0.500000 0.409902
v -0.370488 -0.450000 0.409902
v -0.244365 -0.500000 0.437492
v -0.244365 -0.450000 0.437492
v -0.346840 -0.500000 0.445375
v -0.346840 -0.450000 0.445374
v -0.141889 -0.500000 0.433550
v -0.141889 -0.450000 0.433550
v -0.197068 -0.500000 0.433550
v -0.197068 -0.450000 0.433550
v -0.094593 -0.500000 0.437492
v -0.094593 -0.450000 0.437492
v 0.094593 -0.500000 0.437492
v 0.094593 -0.450000 0.437492
v 0.067003 -0.500000 0.441433
v 0.067003 -0.450000 0.441433
v -0.067003 -0.500000 0.441433
v -0.067003 -0.450000 0.441433
v -0.047296 -0.500000 0.445375
v -0.047296 -0.450000 0.445374
v 0.141889 -0.500000 0.433550
v 0.141889 -0.450000 0.433550
v 0.346840 -0.500000 0.445375
v 0.346840 -0.450000 0.445374
v 0.244365 -0.500000 0.437492
v 0.244365 -0.450000 0.437492
v 0.197068 -0.500000 0.433550
v 0.197068 -0.450000 0.433550
v 0.271954 -0.500000 0.441433
v 0.271954 -0.450000 0.441433
v 0.370489 -0.500000 0.409902
v 0.370489 -0.450000 0.409902
v 0.402019 -0.500000 0.350782
v 0.402019 -0.450000 0.350782
v 0.413844 -0.500000 0.323192
v 0.413844 -0.450000 0.323192
v 0.386254 -0.500000 0.382313
v 0.386254 -0.450000 0.382313
v 0.421726 -0.500000 0.303485
v 0.421726 -0.450000 0.303485
v 0.445375 -0.500000 0.220717
v 0.445374 -0.450000 0.220717
v 0.429609 -0.500000 0.279837
v 0.429609 -0.450000 0.279837
v 0.437492 -0.500000 0.252248
v 0.437492 -0.450000 0.252248
v -0.335016 -0.500000 0.457199
v -0.335016 -0.450000 0.457199
v -0.327133 -0.500000 0.453257
v -0.327133 -0.450000 0.453257
v -0.311368 -0.500000 0.449316
v -0.311368 -0.450000 0.449316
v -0.291661 -0.500000 0.445375
v -0.291661 -0.450000 0.445374
v -0.011824 -0.500000 0.453257
v -0.011824 -0.450000 0.453257
v 0.000000 -0.500000 0.457199
v -0.000000 -0.450000 0.457199
v -0.027590 -0.500000 0.449316
v -0.027590 -0.450000 0.449316
v 0.011824 -0.500000 0.453257
v 0.011824 -0.450000 0.453257
v 0.027590 -0.500000 0.449316
v 0.027590 -0.450000 0.449316
v 0.291661 -0.500000 0.445375
v 0.291661 -0.450000 0.445374
v 0.047296 -0.500000 0.445375
v 0.047296 -0.450000 0.445374
v 0.311368 -0.500000 0.449316
v 0.311368 -0.450000 0.449316
v 0.335016 -0.500000 0.457199
v 0.335016 -0.450000 0.457199
v 0.327134 -0.500000 0.453257
v 0.327133 -0.450000 0.453257
v -0.000000 -0.450000 0.053103
v 0.000000 -0.500000 0.053103
vt 0.061028 0.985316
vt 0.048143 0.946662
vt 0.039553 0.916598
vt 0.030964 0.882240
vt 0.024521 0.852176
vt 0.020227 0.830702
vt 0.015932 0.804933
vt 0.011637 0.774869
vt 0.007342 0.740510
vt 0.003047 0.684678
vt 0.000900 0.637435
vt 0.000900 0.590191
vt 0.003047 0.547243
vt 0.005195 0.512884
vt 0.007342 0.491410
vt 0.011637 0.457052
vt 0.015932 0.422693
vt 0.020227 0.401219
vt 0.026669 0.371155
vt 0.033111 0.341091
vt 0.039553 0.315322
vt 0.045996 0.293848
vt 0.052438 0.272374
vt 0.063175 0.242310
vt 0.078207 0.203657
vt 0.101828 0.156414
vt 0.119008 0.126350
vt 0.138334 0.096286
vt 0.155514 0.074812
vt 0.174840 0.053338
vt 0.189872 0.040453
vt 0.204904 0.027569
vt 0.224231 0.014684
vt 0.239263 0.006095
vt 0.250000 0.001800
vt 0.250000 0.557865
vt 0.067470 0.998200
vt 0.260737 0.006095
vt 0.275769 0.014684
vt 0.295096 0.027569
vt 0.310128 0.040453
vt 0.325160 0.053338
vt 0.344486 0.074812
vt 0.361666 0.096286
vt 0.380992 0.126350
vt 0.398172 0.156414
vt 0.421793 0.203657
vt 0.436825 0.242310
vt 0.447562 0.272374
vt 0.454004 0.293848
vt 0.460447 0.315322
vt 0.466889 0.341091
vt 0.473331 0.371155
vt 0.479773 0.401219
vt 0.484068 0.422693
vt 0.488363 0.457052
vt 0.492658 0.491410
vt 0.494805 0.512884
vt 0.496953 0.547243
vt 0.499100 0.590191
vt 0.499100 0.637435
vt 0.496953 0.684678
vt 0.492658 0.740510
vt 0.488363 0.774869
vt 0.484068 0.804933
vt 0.479773 0.830702
vt 0.475479 0.852176
vt 0.469036 0.882240
vt 0.460447 0.916598
vt 0.451857 0.946662
vt 0.438973 0.985316
vt 0.432530 0.998200
vt 0.938972 0.985316
vt 0.951857 0.946662
vt 0.960447 0.916598
vt 0.969036 0.882240
vt 0.975479 0.852176
vt 0.979773 0.830702
vt 0.984068 0.804933
vt 0.988363 0.774869
vt 0.992658 0.740511
vt 0.996953 0.684678
vt 0.999100 0.637435
vt 0.999100 0.590191
vt 0.996953 0.547243
vt 0.994805 0.512884
vt 0.992658 0.491410
vt 0.988363 0.457052
vt 0.984068 0.422693
vt 0.979773 0.401219
vt 0.973331 0.371155
vt 0.966889 0.341091
vt 0.960447 0.315322
vt 0.954005 0.293848
vt 0.947562 0.272374
vt 0.936825 0.242310
vt 0.921793 0.203657
vt 0.898172 0.156414
vt 0.880992 0.126350
vt 0.861665 0.096286
vt 0.844486 0.074812
vt 0.825160 0.053338
vt 0.810128 0.040453
vt 0.795096 0.027569
vt 0.775769 0.014684
vt 0.760737 0.006095
vt 0.750000 0.001800
vt 0.750000 0.557865
vt 0.932530 0.998200
vt 0.739263 0.006095
vt 0.724231 0.014684
vt 0.704904 0.027569
vt 0.689872 0.040453
vt 0.674840 0.053338
vt 0.655514 0.074812
vt 0.638334 0.096286
vt 0.619008 0.126350
vt 0.601828 0.156414
vt 0.578207 0.203657
vt 0.563175 0.242310
vt 0.552438 0.272374
vt 0.545996 0.293848
vt 0.539553 0.315322
vt 0.533111 0.341091
vt 0.526669 0.371155
vt 0.520227 0.401219
vt 0.515932 0.422693
vt 0.511637 0.457052
vt 0.507342 0.491410
vt 0.505195 0.512884
vt 0.503047 0.547243
vt 0.500900 0.590191
vt 0.500900 0.637435
vt 0.503047 0.684678
vt 0.507342 0.740511
vt 0.511637 0.774869
vt 0.515932 0.804933
vt 0.520227 0.830702
vt 0.524521 0.852176
vt 0.530964 0.882240
vt 0.539553 0.916598
vt 0.548143 0.946662
vt 0.561028 0.985316
vt 0.567470 0.998200
vt 0.301538 0.976726
vt 0.286506 0.981021
vt 0.398172 0.981021
vt 0.383140 0.976726
vt 0.224231 0.985316
vt 0.213494 0.981021
vt 0.116860 0.976726
vt 0.101828 0.981021
vt 0.601828 0.981021
vt 0.616860 0.976726
vt 0.734968 0.989611
vt 0.743558 0.993905
vt 0.883140 0.976726
vt 0.898172 0.981021
vt 0.775769 0.985316
vt 0.786506 0.981021
vt 0.275769 0.985316
vt 0.265032 0.989611
vt 0.256442 0.993905
vt 0.250000 0.998200
vt 0.327307 0.972431
vt 0.419646 0.989611
vt 0.408909 0.985316
vt 0.428235 0.993905
vt 0.357371 0.972431
vt 0.198462 0.976726
vt 0.172693 0.972431
vt 0.243558 0.993905
vt 0.234968 0.989611
vt 0.091091 0.985316
vt 0.080354 0.989611
vt 0.071765 0.993905
vt 0.142629 0.972431
vt 0.580354 0.989611
vt 0.591091 0.985316
vt 0.571765 0.993905
vt 0.642629 0.972431
vt 0.672693 0.972431
vt 0.750000 0.998200
vt 0.698462 0.976726
vt 0.713494 0.981021
vt 0.724231 0.985316
vt 0.908909 0.985316
vt 0.919646 0.989611
vt 0.928235 0.993905
vt 0.827307 0.972431
vt 0.857371 0.972431
vt 0.801538 0.976726
vt 0.756442 0.993905
vt 0.765032 0.989611
vt 0.467555 0.000000
vt 0.478122 0.000000
vt 0.478122 1.000000
vt 0.467555 1.000000
vt 0.796113 0.000000
vt 0.806095 0.000000
vt 0.806095 1.000000
vt 0.796113 1.000000
vt 0.102267 0.000000
vt 0.116746 0.000000
vt 0.116746 1.000000
vt 0.102267 1.000000
vt 0.338898 0.000000
vt 0.344302 0.000000
vt 0.344302 1.000000
vt 0.338898 1.000000
vt 0.444887 0.000000
vt 0.447817 0.000000
vt 0.447817 1.000000
vt 0.444887 1.000000
vt 0.841436 0.000000
vt 0.850976 0.000000
vt 0.850976 1.000000
vt 0.841436 1.000000
vt 0.028753 0.000000
vt 0.035811 0.000000
vt 0.035811 1.000000
vt 0.028753 1.000000
vt 0.745331 0.000000
vt 0.760272 0.000000
vt 0.760272 1.000000
vt 0.745331 1.000000
vt 0.711008 0.000000
vt 0.731396 0.000000
vt 0.731396 1.000000
vt 0.711008 1.000000
vt 0.640750 0.000000
vt 0.650732 0.000000
vt 0.650732 1.000000
vt 0.640750 1.000000
vt 0.018771 0.000000
vt 0.018771 1.000000
vt 0.896867 0.000000
vt 0.909234 0.000000
vt 0.909234 1.000000
vt 0.896867 1.000000
vt 0.162621 0.000000
vt 0.169679 0.000000
vt 0.169679 1.000000
vt 0.162621 1.000000
vt 0.581655 0.000000
vt 0.594827 0.000000
vt 0.594827 1.000000
vt 0.581655 1.000000
vt 0.677148 0.000000
vt 0.684790 0.000000
vt 0.684790 1.000000
vt 0.677148 1.000000
vt 0.230024 0.000000
vt 0.236707 0.000000
vt 0.236707 1.000000
vt 0.230024 1.000000
vt 0.883374 0.000000
vt 0.883374 1.000000
vt 0.008790 0.000000
vt 0.008790 1.000000
vt 0.201951 0.000000
vt 0.216128 0.000000
vt 0.216128 1.000000
vt 0.201951 1.000000
vt 0.489844 0.000000
vt 0.489844 1.000000
vt 0.064111 0.000000
vt 0.074678 0.000000
vt 0.074678 1.000000
vt 0.064111 1.000000
vt 0.221689 0.000000
vt 0.224619 0.000000
vt 0.224619 1.000000
vt 0.221689 1.000000
vt 0.133983 0.000000
vt 0.144790 0.000000
vt 0.144790 1.000000
vt 0.133983 1.000000
vt 0.973441 0.000000
vt 0.984717 0.000000
vt 0.984717 1.000000
vt 0.973441 1.000000
vt 0.660713 0.000000
vt 0.660713 1.000000
vt 0.992360 0.000000
vt 0.992360 1.000000
vt 0.772639 0.000000
vt 0.772639 1.000000
vt 0.302571 0.000000
vt 0.311838 0.000000
vt 0.311838 1.000000
vt 0.302571 1.000000
vt 0.453378 0.000000
vt 0.453378 1.000000
vt 0.524715 0.000000
vt 0.535523 0.000000
vt 0.535523 1.000000
vt 0.524715 1.000000
vt 0.046620 0.000000
vt 0.057430 0.000000
vt 0.057430 1.000000
vt 0.046620 1.000000
vt 0.330609 0.000000
vt 0.334753 0.000000
vt 0.334753 1.000000
vt 0.330609 1.000000
vt 0.243390 0.000000
vt 0.252658 0.000000
vt 0.252658 1.000000
vt 0.243390 1.000000
vt 0.669506 0.000000
vt 0.669506 1.000000
vt 0.350985 0.000000
vt 0.350985 1.000000
vt 0.552762 0.000000
vt 0.567238 0.000000
vt 0.567238 1.000000
vt 0.552762 1.000000
vt 0.318522 0.000000
vt 0.318522 1.000000
vt 0.179662 0.000000
vt 0.191384 0.000000
vt 0.191384 1.000000
vt 0.179662 1.000000
vt 0.357668 0.000000
vt 0.357668 1.000000
vt 0.087849 0.000000
vt 0.087849 1.000000
vt 0.506884 0.000000
vt 0.515173 0.000000
vt 0.515173 1.000000
vt 0.506884 1.000000
vt 0.499826 0.000000
vt 0.499826 1.000000
vt 0.958497 0.000000
vt 0.958497 1.000000
vt 0.154333 0.000000
vt 0.154333 1.000000
vt 0.268439 0.000000
vt 0.286789 0.000000
vt 0.286789 1.000000
vt 0.268439 1.000000
vt 0.325205 0.000000
vt 0.325205 1.000000
vt 0.828070 0.000000
vt 0.834751 0.000000
vt 0.834751 1.000000
vt 0.828070 1.000000
vt 0.633692 0.000000
vt 0.633692 1.000000
vt 0.366935 0.000000
vt 0.366935 1.000000
vt 0.786132 0.000000
vt 0.786132 1.000000
vt 0.924175 0.000000
vt 0.924175 1.000000
vt 0.426117 0.000000
vt 0.432800 0.000000
vt 0.432800 1.000000
vt 0.426117 1.000000
vt 0.818527 0.000000
vt 0.818527 1.000000
vt 0.439483 0.000000
vt 0.439483 1.000000
vt 0.938110 0.000000
vt 0.938110 1.000000
vt 0.605393 0.000000
vt 0.612077 0.000000
vt 0.612077 1.000000
vt 0.605393 1.000000
vt 0.622884 0.000000
vt 0.622884 1.000000
vt 0.000000 0.000000
vt 0.000000 1.000000
vt 0.382718 0.000000
vt 0.382718 1.000000
vt 0.863411 0.000000
vt 0.863411 1.000000
vt 0.696065 0.000000
vt 0.696065 1.000000
vt 1.000000 0.000000
vt 1.000000 1.000000
vt 0.873393 0.000000
vt 0.873393 1.000000
vt 0.401067 0.000000
vt 0.401067 1.000000
vt 0.416849 0.000000
vt 0.416849 1.000000
vn -0.0000 1.0000 -0.0000
vn 0.0000 -1.0000 0.0000
vn -0.8682 0.0000 0.4961
vn -0.3939 0.0000 -0.9191
vn 0.9959 0.0000 0.0905
vn -0.2425 0.0000 0.9701
vn 0.4472 0.0000 0.8944
vn 0.2747 0.0000 -0.9615
vn 0.9285 0.0000 -0.3714
vn -0.6139 0.0000 -0.7894
vn -0.7071 0.0000 -0.7071
vn -0.9191 0.0000 -0.3939
vn 0.9191 0.0000 -0.3939
vn 0.5300 0.0000 -0.8480
vn 0.9285 0.0000 0.3714
vn -0.9950 0.0000 -0.0995
vn -0.8575 -0.0000 -0.5145
vn -0.1961 0.0000 0.9806
vn 0.4856 0.0000 -0.8742
vn 0.8321 0.0000 0.5547
vn -0.8944 0.0000 0.4472
vn 0.9923 0.0000 -0.1240
vn -0.4472 0.0000 0.8944
vn 0.9701 0.0000 0.2425
vn 0.8137 0.0000 -0.5812
vn 0.8575 0.0000 -0.5145
vn -0.5300 0.0000 -0.8480
vn 0.1414 0.0000 0.9899
vn -0.7071 0.0000 0.7071
vn -0.9701 0.0000 0.2425
vn 0.9701 0.0000 -0.2425
vn 0.3162 0.0000 0.9487
vn 0.9806 0.0000 -0.1961
vn -0.1414 0.0000 0.9899
vn -0.9959 0.0000 0.0905
vn 0.1961 0.0000 0.9806
vn 0.8944 0.0000 0.4472
vn 0.9950 0.0000 -0.0995
vn -0.9487 0.0000 0.3162
vn -0.9191 0.0000 0.3939
vn -1.0000 0.0000 0.0000
vn -0.3162 0.0000 0.9487
vn -0.9285 0.0000 0.3714
vn -0.8321 0.0000 0.5547
vn 0.7894 0.0000 -0.6139
vn 0.9615 0.0000 0.2747
vn 0.0000 0.0000 1.0000
vn 0.2425 0.0000 0.9701
vn -0.1961 0.0000 -0.9806
vn -0.9285 0.0000 -0.3714
vn -0.4856 0.0000 -0.8742
vn 0.6139 0.0000 -0.7894
vn -0.2747 0.0000 -0.9615
vn -0.9884 0.0000 0.1521
vn 0.7071 0.0000 0.7071
vn 0.7071 0.0000 -0.7071
vn -0.9806 0.0000 -0.1961
vn -0.9923 0.0000 -0.1240
vn -0.9701 0.0000 -0.2425
vn -0.9615 0.0000 0.2747
vn 1.0000 0.0000 0.0000
vn 0.8944 0.0000 -0.4472
vn -0.0830 0.0000 0.9965
vn 0.0830 0.0000 0.9965
vn 0.3162 0.0000 -0.9487
vn -0.8137 0.0000 -0.5812
vn -0.7894 0.0000 -0.6139
vn 0.3939 0.0000 -0.9191
vn 0.8682 0.0000 0.4961
vn -0.8944 0.0000 -0.4472
vn 0.1961 0.0000 -0.9806
vn 0.6585 0.0000 -0.7526
vn 0.9191 0.0000 0.3939
vn -0.6585 0.0000 -0.7526
vn -0.3162 0.0000 -0.9487
vn 0.9884 0.0000 0.1521
vn 0.9487 0.0000 0.3162
g Cube_Cube_front-back
s off
f 142/1/1 150/2/1 156/3/1 152/4/1 154/5/1 158/6/1 162/7/1 164/8/1 160/9/1 98/10/1 96/11/1 100/12/1 94/13/1 92/14/1 88/15/1 90/16/1 86/17/1 84/18/1 82/19/1 64/20/1 58/21/1 60/22/1 62/23/1 56/24/1 54/25/1 52/26/1 30/27/1 32/28/1 28/29/1 26/30/1 24/31/1 22/32/1 20/33/1 18/34/1 16/35/1 193/36/1 190/37/1
f 14/38/1 10/39/1 12/40/1 8/41/1 6/42/1 2/43/1 4/44/1 50/45/1 46/46/1 44/47/1 48/48/1 42/49/1 40/50/1 38/51/1 36/52/1 34/53/1 80/54/1 78/55/1 76/56/1 72/57/1 74/58/1 70/59/1 66/60/1 68/61/1 106/62/1 104/63/1 102/64/1 108/65/1 114/66/1 112/67/1 110/68/1 116/69/1 120/70/1 124/71/1 166/72/1 193/36/1 16/35/1
f 123/73/2 119/74/2 115/75/2 109/76/2 111/77/2 113/78/2 107/79/2 101/80/2 103/81/2 105/82/2 67/83/2 65/84/2 69/85/2 73/86/2 71/87/2 75/88/2 77/89/2 79/90/2 33/91/2 35/92/2 37/93/2 39/94/2 41/95/2 47/96/2 43/97/2 45/98/2 49/99/2 3/100/2 1/101/2 5/102/2 7/103/2 11/104/2 9/105/2 13/106/2 15/107/2 194/108/2 165/109/2
f 17/110/2 19/111/2 21/112/2 23/113/2 25/114/2 27/115/2 31/116/2 29/117/2 51/118/2 53/119/2 55/120/2 61/121/2 59/122/2 57/123/2 63/124/2 81/125/2 83/126/2 85/127/2 89/128/2 87/129/2 91/130/2 93/131/2 99/132/2 95/133/2 97/134/2 159/135/2 163/136/2 161/137/2 157/138/2 153/139/2 151/140/2 155/141/2 149/142/2 141/143/2 189/144/2 194/108/2 15/107/2
f 130/145/1 136/146/1 193/36/1
f 118/147/1 122/148/1 193/36/1
f 186/149/1 134/150/1 193/36/1
f 144/151/1 148/152/1 193/36/1
f 147/153/2 143/154/2 194/108/2
f 181/155/2 179/156/2 194/108/2
f 121/157/2 117/158/2 194/108/2
f 137/159/2 135/160/2 194/108/2
f 136/146/1 138/161/1 193/36/1
f 138/161/1 178/162/1 193/36/1
f 174/163/1 176/164/1 193/36/1
f 178/162/1 174/163/1 193/36/1
f 193/36/1 126/165/1 130/145/1
f 170/166/1 172/167/1 193/36/1
f 172/167/1 118/147/1 193/36/1
f 193/36/1 166/72/1 168/168/1
f 128/169/1 126/165/1 193/36/1
f 122/148/1 128/169/1 193/36/1
f 193/36/1 168/168/1 170/166/1
f 132/170/1 140/171/1 193/36/1
f 193/36/1 176/164/1 180/172/1
f 193/36/1 180/172/1 182/173/1
f 134/150/1 132/170/1 193/36/1
f 193/36/1 182/173/1 186/149/1
f 148/152/1 184/174/1 193/36/1
f 184/174/1 188/175/1 193/36/1
f 192/176/1 190/37/1 193/36/1
f 188/175/1 192/176/1 193/36/1
f 193/36/1 140/171/1 146/177/1
f 193/36/1 146/177/1 144/151/1
f 187/178/2 183/179/2 194/108/2
f 183/179/2 147/153/2 194/108/2
f 194/108/2 189/144/2 191/180/2
f 145/181/2 139/182/2 194/108/2
f 143/154/2 145/181/2 194/108/2
f 194/108/2 191/180/2 187/178/2
f 179/156/2 175/183/2 194/108/2
f 194/108/2 139/182/2 131/184/2
f 133/185/2 185/186/2 194/108/2
f 185/186/2 181/155/2 194/108/2
f 194/108/2 131/184/2 133/185/2
f 117/158/2 171/187/2 194/108/2
f 171/187/2 169/188/2 194/108/2
f 167/189/2 165/109/2 194/108/2
f 169/188/2 167/189/2 194/108/2
f 194/108/2 125/190/2 127/191/2
f 194/108/2 127/191/2 121/157/2
f 129/192/2 125/190/2 194/108/2
f 194/108/2 175/183/2 173/193/2
f 194/108/2 173/193/2 177/194/2
f 135/160/2 129/192/2 194/108/2
f 194/108/2 177/194/2 137/159/2
g Cube_Cube_edges
f 120/195/3 116/196/3 115/197/3 119/198/3
f 8/199/4 12/200/4 11/201/4 7/202/4
f 96/203/5 98/204/5 97/205/5 95/206/5
f 174/207/6 178/208/6 177/209/6 173/210/6
f 168/211/7 166/212/7 165/213/7 167/214/7
f 18/215/8 20/216/8 19/217/8 17/218/8
f 84/219/9 86/220/9 85/221/9 83/222/9
f 50/223/10 4/224/10 3/225/10 49/226/10
f 44/227/11 46/228/11 45/229/11 43/230/11
f 80/231/12 34/232/12 33/233/12 79/234/12
f 82/235/13 84/219/13 83/222/13 81/236/13
f 28/237/14 32/238/14 31/239/14 27/240/14
f 158/241/15 154/242/15 153/243/15 157/244/15
f 66/245/16 70/246/16 69/247/16 65/248/16
f 40/249/17 42/250/17 41/251/17 39/252/17
f 188/253/18 184/254/18 183/255/18 187/256/18
f 26/257/19 28/237/19 27/240/19 25/258/19
f 64/259/13 82/235/13 81/236/13 63/260/13
f 150/261/20 142/262/20 141/263/20 149/264/20
f 116/196/21 110/265/21 109/266/21 115/197/21
f 92/267/22 94/268/22 93/269/22 91/270/22
f 190/271/23 192/272/23 191/273/23 189/274/23
f 160/275/24 164/276/24 163/277/24 159/278/24
f 56/279/25 62/280/25 61/281/25 55/282/25
f 34/232/12 36/283/12 35/284/12 33/233/12
f 62/280/26 60/285/26 59/286/26 61/281/26
f 4/224/27 2/287/27 1/288/27 3/225/27
f 132/289/28 134/290/28 133/291/28 131/292/28
f 166/212/29 124/293/29 123/294/29 165/213/29
f 102/295/30 104/296/30 103/297/30 101/298/30
f 90/299/31 88/300/31 87/301/31 89/302/31
f 192/272/6 188/253/6 187/256/6 191/273/6
f 180/303/32 176/304/32 175/305/32 179/306/32
f 88/300/33 92/267/33 91/270/33 87/301/33
f 148/307/34 144/308/34 143/309/34 147/310/34
f 38/311/17 40/249/17 39/252/17 37/312/17
f 178/208/18 138/313/18 137/314/18 177/209/18
f 106/315/35 68/316/35 67/317/35 105/318/35
f 134/290/36 186/319/36 185/320/36 133/291/36
f 152/321/37 156/322/37 155/323/37 151/324/37
f 138/313/18 136/325/18 135/326/18 137/314/18
f 94/268/38 100/327/38 99/328/38 93/269/38
f 114/329/39 108/330/39 107/331/39 113/332/39
f 110/265/40 112/333/40 111/334/40 109/266/40
f 68/316/41 66/245/41 65/248/41 67/317/41
f 176/304/42 174/207/42 173/210/42 175/305/42
f 112/333/43 114/329/43 113/332/43 111/334/43
f 124/293/44 120/195/44 119/198/44 123/294/44
f 54/335/45 56/279/45 55/282/45 53/336/45
f 86/220/31 90/299/31 89/302/31 85/221/31
f 164/276/46 162/337/46 161/338/46 163/277/46
f 146/339/47 140/340/47 139/341/47 145/342/47
f 182/343/48 180/303/48 179/306/48 181/344/48
f 14/345/49 16/346/49 15/347/49 13/348/49
f 186/319/36 182/343/36 181/344/36 185/320/36
f 78/349/50 80/231/50 79/234/50 77/350/50
f 136/325/34 130/351/34 129/352/34 135/326/34
f 2/287/51 6/353/51 5/354/51 1/288/51
f 32/238/52 30/355/52 29/356/52 31/239/52
f 118/357/36 172/358/36 171/359/36 117/360/36
f 10/361/53 14/345/53 13/348/53 9/362/53
f 170/363/48 168/211/48 167/214/48 169/364/48
f 104/296/54 106/315/54 105/318/54 103/297/54
f 142/262/55 190/271/55 189/274/55 141/263/55
f 52/365/56 54/335/56 53/336/56 51/366/56
f 74/367/57 72/368/57 71/369/57 73/370/57
f 70/246/58 74/367/58 73/370/58 69/247/58
f 76/371/59 78/349/59 77/350/59 75/372/59
f 108/330/60 102/295/60 101/298/60 107/331/60
f 100/327/61 96/203/61 95/206/61 99/328/61
f 58/373/62 64/259/62 63/260/62 57/374/62
f 130/351/63 126/375/63 125/376/63 129/352/63
f 140/340/64 132/289/64 131/292/64 139/341/64
f 20/216/65 22/377/65 21/378/65 19/217/65
f 42/250/66 48/379/66 47/380/66 41/251/66
f 184/254/18 148/307/18 147/310/18 183/255/18
f 60/285/26 58/381/26 57/382/26 59/286/26
f 72/368/59 76/371/59 75/372/59 71/369/59
f 48/379/67 44/227/67 43/230/67 47/380/67
f 172/358/36 170/363/36 169/364/36 171/359/36
f 144/308/63 146/339/63 145/342/63 143/309/63
f 24/383/68 26/257/68 25/258/68 23/384/68
f 22/377/68 24/383/68 23/384/68 21/378/68
f 156/322/69 150/261/69 149/264/69 155/323/69
f 6/353/4 8/199/4 7/202/4 5/354/4
f 36/283/70 38/311/70 37/312/70 35/284/70
f 126/375/47 128/385/47 127/386/47 125/376/47
f 16/346/71 18/215/71 17/218/71 15/347/71
f 122/387/28 118/357/28 117/360/28 121/388/28
f 30/355/72 52/365/72 51/366/72 29/356/72
f 154/242/73 152/321/73 151/324/73 153/243/73
f 46/228/74 50/223/74 49/226/74 45/229/74
f 12/200/75 10/361/75 9/362/75 11/201/75
f 98/204/76 160/275/76 159/278/76 97/205/76
f 162/337/77 158/241/77 157/244/77 161/338/77
f 128/385/64 122/387/64 121/388/64 127/386/64
