# Blender v2.79 (sub 0) OBJ File: '000 Basic square 100x100x5 cm sign.blend'
# www.blender.org
o Cube_Cube_front-back.003
v -0.408566 0.006551 0.746875
v -0.404517 0.019013 0.746875
v -0.396815 0.029613 0.746875
v -0.029613 0.396815 0.746875
v -0.019013 0.404516 0.746875
v -0.006551 0.408565 0.746875
v 0.006551 0.408565 0.746875
v 0.019013 0.404516 0.746875
v 0.029613 0.396815 0.746875
v 0.396815 0.029613 0.746875
v 0.404517 0.019013 0.746875
v 0.408566 0.006551 0.746875
v 0.408566 -0.006551 0.746875
v 0.404517 -0.019013 0.746875
v 0.396815 -0.029613 0.746875
v 0.029613 -0.396815 0.746875
v 0.019013 -0.404517 0.746875
v 0.006551 -0.408566 0.746875
v -0.006551 -0.408566 0.746875
v -0.019013 -0.404517 0.746875
v -0.029613 -0.396815 0.746875
v -0.396815 -0.029613 0.746875
v -0.404517 -0.019013 0.746875
v -0.408566 -0.006551 0.746875
vt 0.943127 0.508800
vt 0.938734 0.522320
vt 0.930379 0.533821
vt 0.531975 0.932224
vt 0.520474 0.940580
vt 0.506954 0.944973
vt 0.492738 0.944972
vt 0.479218 0.940580
vt 0.467717 0.932224
vt 0.069314 0.533821
vt 0.060958 0.522320
vt 0.056565 0.508800
vt 0.056565 0.494583
vt 0.060958 0.481063
vt 0.069315 0.469563
vt 0.467717 0.071160
vt 0.479218 0.062803
vt 0.492738 0.058410
vt 0.506954 0.058410
vt 0.520475 0.062803
vt 0.531975 0.071160
vt 0.930378 0.469563
vt 0.938734 0.481063
vt 0.943127 0.494583
vn -0.0000 0.0000 -1.0000
g Cube_Cube_front-back.003_Cube_Cube_front-back.003_None
s 1
f 1/1/1 2/2/1 3/3/1 4/4/1 5/5/1 6/6/1 7/7/1 8/8/1 9/9/1 10/10/1 11/11/1 12/12/1 13/13/1 14/14/1 15/15/1 16/16/1 17/17/1 18/18/1 19/19/1 20/20/1 21/21/1 22/22/1 23/23/1 24/24/1
