# Blender v2.79 (sub 0) OBJ File: 'street_signs_generic_sign_30dia_onpole.blend'
# www.blender.org
o Cube_Cube_front-back.004
v -0.378553 -0.762500 0.270251
v -0.360389 -0.762500 0.295251
v -0.346451 -0.762500 0.302353
v -0.331000 -0.762500 0.304800
v 0.331000 -0.762500 0.304800
v 0.346451 -0.762500 0.302353
v 0.371451 -0.762500 0.284189
v 0.381000 -0.762500 0.254800
v 0.381000 -0.762500 -0.254800
v 0.378553 -0.762500 -0.270251
v 0.360389 -0.762500 -0.295251
v -0.331000 -0.762500 -0.304800
v -0.360389 -0.762500 -0.295251
v -0.378553 -0.762500 -0.270251
v -0.381000 -0.762500 -0.254800
v 0.378553 -0.812500 0.270251
v 0.371451 -0.812500 0.284189
v 0.360389 -0.812500 0.295251
v 0.331000 -0.812500 0.304800
v 0.125000 -1.125000 0.164063
v 0.187500 -1.125000 -0.164062
v 0.187500 -1.164063 0.164063
v -0.371451 -0.812500 -0.284189
v 0.187500 -1.164063 -0.164062
v 0.125000 -1.164063 -0.164062
v 0.125000 -1.164063 0.164063
v 0.331000 -0.812500 -0.304800
v 0.346451 -0.812500 -0.302353
v -0.187500 -1.125000 0.164063
v 0.371451 -0.812500 -0.284189
v 0.378553 -0.812500 -0.270251
v 0.381000 -0.812500 -0.254800
v -0.125000 -1.164063 0.164063
v -0.125000 -1.164063 -0.164062
v -0.187500 -1.164063 -0.164062
v -0.331000 -0.812500 0.304800
v -0.381000 -0.812500 -0.254800
v -0.381000 -0.812500 0.254800
v -0.381000 -0.762500 0.254800
v -0.187500 -1.164063 0.164063
v -0.331000 -0.812500 -0.304800
v 0.125000 -1.125000 -0.125000
v 0.331000 -0.762500 -0.304800
v 0.125000 -0.812500 -0.125000
v 0.346451 -0.762500 -0.302353
v 0.187500 -1.125000 -0.125000
v 0.187500 -0.812500 -0.125000
v 0.360389 -0.812500 -0.295251
v 0.371451 -0.762500 -0.284189
v 0.187500 -0.812500 -0.164062
v 0.125000 -0.812500 -0.164062
v 0.125000 -1.125000 -0.164062
v -0.187500 -1.125000 -0.125000
v -0.187500 -0.812500 -0.125000
v 0.346451 -0.812500 0.302353
v -0.125000 -1.125000 -0.125000
v -0.125000 -0.812500 -0.125000
v 0.360389 -0.762500 0.295251
v -0.125000 -1.125000 -0.164062
v -0.125000 -0.812500 -0.164062
v -0.187500 -0.812500 -0.164062
v 0.378553 -0.762500 0.270251
v 0.381000 -0.812500 0.254800
v -0.187500 -1.125000 -0.164062
v 0.125000 -0.812500 0.164063
v -0.346451 -0.812500 0.302353
v 0.187500 -1.125000 0.164063
v -0.360389 -0.812500 0.295251
v -0.371451 -0.762500 0.284189
v -0.371451 -0.812500 0.284189
v 0.187500 -0.812500 0.164063
v -0.378553 -0.812500 0.270251
v -0.346451 -0.812500 -0.302353
v -0.346451 -0.762500 -0.302353
v -0.360389 -0.812500 -0.295251
v 0.187500 -1.125000 0.125000
v 0.125000 -0.812500 0.125000
v -0.371451 -0.762500 -0.284189
v -0.378553 -0.812500 -0.270251
v 0.125000 -1.125000 0.125000
v -0.187500 -0.812500 0.164063
v -0.125000 -0.875000 -0.187500
v -0.125000 -0.875000 0.187500
v -0.125000 -0.812500 0.187500
v -0.125000 -1.125000 0.164063
v -0.125000 -0.812500 0.164063
v 0.125000 -0.875000 0.187500
v 0.125000 -0.875000 -0.187500
v -0.125000 -1.125000 -0.187500
v -0.125000 -0.812500 -0.187500
v -0.125000 -0.812500 -0.125000
v -0.125000 -1.125000 -0.125000
v -0.164063 -0.812500 -0.125000
v -0.164063 -1.125000 -0.125000
v -0.164063 -0.812500 -0.187500
v -0.125000 -1.125000 0.125000
v -0.125000 -1.125000 0.125000
v -0.125000 -0.812500 0.125000
v -0.125000 -0.812500 0.125000
v -0.125000 -1.125000 0.187500
v -0.164063 -0.812500 0.187500
v -0.164063 -1.125000 0.187500
v -0.164063 -0.812500 0.125000
v -0.187500 -0.812500 0.125000
v 0.164062 -1.125000 -0.187500
v 0.164062 -0.812500 -0.187500
v 0.164062 -0.812500 -0.125000
v 0.164062 -1.125000 -0.125000
v 0.125000 -0.812500 -0.125000
v 0.125000 -1.125000 -0.125000
v 0.125000 -0.812500 -0.187500
v 0.125000 -1.125000 -0.187500
v 0.164062 -1.125000 0.125000
v 0.164062 -0.812500 0.125000
v 0.164062 -0.812500 0.187500
v -0.187500 -1.125000 0.125000
v 0.125000 -0.812500 0.187500
v 0.125000 -1.125000 0.187500
v 0.125000 -0.812500 0.125000
v 0.125000 -1.125000 0.125000
v -0.164063 -1.164063 -0.187500
v 0.164062 -1.164063 -0.187500
v 0.164062 -1.164063 -0.125000
v -0.164063 -1.164063 -0.125000
v -0.187500 -0.875000 -0.125000
v 0.187500 -0.875000 -0.125000
v 0.187500 -0.812500 0.125000
v -0.164063 -1.125000 -0.187500
v -0.164063 -1.164063 0.125000
v 0.164062 -1.164063 0.125000
v 0.164062 -1.164063 0.187500
v -0.164063 -1.164063 0.187500
v 0.164062 -1.125000 0.187500
v 0.187500 -0.875000 0.125000
v -0.187500 -0.875000 0.125000
v -0.164063 -1.125000 0.125000
vt 1.000000 0.958990
vt 0.996789 0.971663
vt 0.987468 0.983095
vt 0.972952 0.992168
vt 0.954660 0.997993
vt 0.934383 1.000000
vt 0.065617 1.000000
vt 0.045340 0.997993
vt 0.027048 0.992168
vt 0.012532 0.983095
vt 0.003211 0.971663
vt 0.000000 0.958990
vt 0.000000 0.541011
vt 0.003211 0.528338
vt 0.012532 0.516905
vt 0.027048 0.507832
vt 0.045340 0.502007
vt 0.065617 0.500000
vt 0.934383 0.500000
vt 0.954660 0.502007
vt 0.972952 0.507832
vt 0.987468 0.516905
vt 0.996789 0.528338
vt 1.000000 0.541011
vt -0.000000 0.458990
vt 0.003211 0.471662
vt 0.012532 0.483095
vt 0.027048 0.492168
vt 0.045340 0.497993
vt 0.065617 0.500000
vt 0.934383 0.500000
vt 0.954660 0.497993
vt 0.972952 0.492168
vt 0.987468 0.483095
vt 0.996789 0.471662
vt 1.000000 0.458990
vt 1.000000 0.041011
vt 0.996789 0.028338
vt 0.987468 0.016905
vt 0.972952 0.007832
vt 0.954660 0.002007
vt 0.934383 0.000000
vt 0.065617 0.000000
vt 0.045340 0.002007
vt 0.027048 0.007832
vt 0.012532 0.016905
vt 0.003211 0.028338
vt -0.000000 0.041011
vt 0.065617 0.000000
vt 0.934383 0.000000
vt 0.082021 0.000000
vt 0.917979 0.000000
vt 0.917979 1.000000
vt 0.082021 1.000000
vt 0.934383 1.000000
vt 0.065617 1.000000
vt 0.045340 1.000000
vt 0.045340 0.000003
vt 0.027048 1.000000
vt 0.027048 0.000003
vt 0.033810 1.000000
vt 0.033810 0.000000
vt 0.056675 1.000000
vt 0.056675 0.000000
vt 0.082021 1.000000
vt 0.082021 0.000000
vt 0.045340 0.000000
vt 0.045340 0.999996
vt 0.027048 0.000000
vt 0.027048 0.999996
vt 0.000000 0.000000
vt 0.000000 0.999996
vt 0.966190 1.000000
vt 0.966190 0.000000
vt 0.943325 0.000000
vt 0.943325 1.000000
vt 0.917979 0.000000
vt 0.917979 1.000000
vt 0.954660 0.999996
vt 0.954660 0.000000
vt 0.972952 0.999996
vt 0.972952 0.000000
vt 0.966190 1.000000
vt 0.966190 0.000000
vt 0.943325 1.000000
vt 0.943325 0.000000
vt 0.954660 0.000003
vt 0.954660 1.000000
vt 0.972952 0.000003
vt 0.972952 1.000000
vt 1.000000 0.000003
vt 1.000000 1.000000
vt 0.033810 1.000000
vt 0.033810 0.000000
vt 0.056675 0.000000
vt 0.056675 1.000000
vt 0.843750 0.507812
vt 0.703125 0.507812
vt 0.703125 0.093750
vt 0.843750 0.093750
vt 0.015625 0.507812
vt 0.015625 0.093750
vt 0.156250 0.093750
vt 0.156250 0.507812
vt 0.156250 0.031250
vt 0.703125 0.031250
vt 0.703125 0.578125
vt 0.156250 0.578125
vt 0.312500 0.640625
vt 0.312500 0.992188
vt 0.453125 0.992188
vt 0.453125 0.640625
vt 0.234375 0.640625
vt 0.234375 0.992188
vt 0.312500 0.992188
vt 0.312500 0.640625
vt 0.234375 0.640625
vt 0.234375 0.992188
vt 0.093750 0.992188
vt 0.093750 0.640625
vt 0.015625 0.992188
vt 0.015625 0.640625
vt 0.312500 0.640625
vt 0.312500 0.992188
vt 0.453125 0.992188
vt 0.453125 0.640625
vt 0.234375 0.640625
vt 0.234375 0.992188
vt 0.312500 0.992188
vt 0.312500 0.640625
vt 0.234375 0.640625
vt 0.234375 0.992188
vt 0.093750 0.992188
vt 0.093750 0.640625
vt 0.015625 0.992188
vt 0.015625 0.640625
vt 0.312500 0.640625
vt 0.312500 0.992188
vt 0.453125 0.992188
vt 0.453125 0.640625
vt 0.234375 0.640625
vt 0.234375 0.992188
vt 0.312500 0.992188
vt 0.312500 0.640625
vt 0.234375 0.640625
vt 0.234375 0.992188
vt 0.093750 0.992188
vt 0.093750 0.640625
vt 0.015625 0.992188
vt 0.015625 0.640625
vt 0.312500 0.640625
vt 0.312500 0.992188
vt 0.453125 0.992188
vt 0.453125 0.640625
vt 0.234375 0.640625
vt 0.234375 0.992188
vt 0.312500 0.992188
vt 0.312500 0.640625
vt 0.234375 0.640625
vt 0.234375 0.992188
vt 0.093750 0.992188
vt 0.093750 0.640625
vt 0.015625 0.992188
vt 0.015625 0.640625
vt 0.781250 0.664062
vt 0.781250 0.992188
vt 0.921875 0.992188
vt 0.921875 0.664062
vt 0.484375 0.664062
vt 0.484375 0.992188
vt 0.562500 0.992188
vt 0.562500 0.664062
vt 0.703125 0.992188
vt 0.703125 0.664062
vt 0.234375 0.593750
vt 0.093750 0.593750
vt 0.453125 0.593750
vt 0.312500 0.593750
vt 0.781250 0.664062
vt 0.781250 0.992188
vt 0.921875 0.992188
vt 0.921875 0.664062
vt 0.484375 0.664062
vt 0.484375 0.992188
vt 0.562500 0.992188
vt 0.562500 0.664062
vt 0.703125 0.992188
vt 0.703125 0.664062
vt 0.234375 0.593750
vt 0.093750 0.593750
vt 0.453125 0.593750
vt 0.312500 0.593750
vt 0.843750 0.507812
vt 0.703125 0.507812
vt 0.703125 0.093750
vt 0.843750 0.093750
vt 0.015625 0.507812
vt 0.015625 0.093750
vt 0.156250 0.093750
vt 0.156250 0.507812
vt 0.156250 0.031250
vt 0.703125 0.031250
vt 0.703125 0.578125
vt 0.156250 0.578125
vt 0.312500 0.640625
vt 0.312500 0.992188
vt 0.453125 0.992188
vt 0.453125 0.640625
vt 0.234375 0.640625
vt 0.234375 0.992188
vt 0.312500 0.992188
vt 0.312500 0.640625
vt 0.234375 0.640625
vt 0.234375 0.992188
vt 0.093750 0.992188
vt 0.093750 0.640625
vt 0.015625 0.992188
vt 0.015625 0.640625
vt 0.312500 0.640625
vt 0.312500 0.992188
vt 0.453125 0.992188
vt 0.453125 0.640625
vt 0.234375 0.640625
vt 0.234375 0.992188
vt 0.312500 0.992188
vt 0.312500 0.640625
vt 0.234375 0.640625
vt 0.234375 0.992188
vt 0.093750 0.992188
vt 0.093750 0.640625
vt 0.015625 0.992188
vt 0.015625 0.640625
vt 0.312500 0.640625
vt 0.312500 0.992188
vt 0.453125 0.992188
vt 0.453125 0.640625
vt 0.234375 0.640625
vt 0.234375 0.992188
vt 0.312500 0.992188
vt 0.312500 0.640625
vt 0.234375 0.640625
vt 0.234375 0.992188
vt 0.093750 0.992188
vt 0.093750 0.640625
vt 0.015625 0.992188
vt 0.015625 0.640625
vt 0.312500 0.640625
vt 0.312500 0.992188
vt 0.453125 0.992188
vt 0.453125 0.640625
vt 0.234375 0.640625
vt 0.234375 0.992188
vt 0.312500 0.992188
vt 0.312500 0.640625
vt 0.234375 0.640625
vt 0.234375 0.992188
vt 0.093750 0.992188
vt 0.093750 0.640625
vt 0.015625 0.992188
vt 0.015625 0.640625
vt 0.781250 0.664062
vt 0.781250 0.992188
vt 0.921875 0.992188
vt 0.921875 0.664062
vt 0.484375 0.664062
vt 0.484375 0.992188
vt 0.562500 0.992188
vt 0.562500 0.664062
vt 0.703125 0.992188
vt 0.703125 0.664062
vt 0.234375 0.593750
vt 0.093750 0.593750
vt 0.453125 0.593750
vt 0.312500 0.593750
vt 0.781250 0.664062
vt 0.781250 0.992188
vt 0.921875 0.992188
vt 0.921875 0.664062
vt 0.484375 0.664062
vt 0.484375 0.992188
vt 0.562500 0.992188
vt 0.562500 0.664062
vt 0.703125 0.992188
vt 0.703125 0.664062
vt 0.234375 0.593750
vt 0.093750 0.593750
vt 0.453125 0.593750
vt 0.312500 0.593750
vn 0.0000 1.0000 0.0000
vn 0.0000 -1.0000 0.0000
vn 0.0785 -0.0000 0.9969
vn -0.0785 -0.0000 0.9969
vn -0.9969 0.0000 -0.0785
vn -0.9969 0.0000 0.0785
vn -0.0785 0.0000 -0.9969
vn 0.0785 0.0000 -0.9969
vn 0.3090 0.0000 -0.9511
vn 0.5878 0.0000 -0.8090
vn 0.8090 0.0000 -0.5878
vn 0.9511 0.0000 -0.3090
vn 0.9969 0.0000 -0.0785
vn 0.3090 0.0000 0.9511
vn 0.5878 0.0000 0.8090
vn 0.8090 0.0000 0.5878
vn 0.9511 0.0000 0.3090
vn 0.9969 0.0000 0.0785
vn -0.3090 -0.0000 0.9511
vn -0.5878 0.0000 0.8090
vn -0.8090 0.0000 0.5878
vn -0.9511 0.0000 0.3090
vn -0.3090 0.0000 -0.9511
vn -0.5878 0.0000 -0.8090
vn -0.8090 0.0000 -0.5878
vn -0.9511 0.0000 -0.3090
vn -1.0000 0.0000 0.0000
vn 1.0000 0.0000 -0.0000
vn 0.0000 0.0000 1.0000
vn -0.0000 0.0000 -1.0000
g Cube_Cube_front-back.004_Cube_Cube_front-back.004_front-back
s off
f 39/1/1 1/2/1 69/3/1 2/4/1 3/5/1 4/6/1 5/7/1 6/8/1 58/9/1 7/10/1 62/11/1 8/12/1 9/13/1 10/14/1 49/15/1 11/16/1 45/17/1 43/18/1 12/19/1 74/20/1 13/21/1 78/22/1 14/23/1 15/24/1
f 63/25/2 16/26/2 17/27/2 18/28/2 55/29/2 19/30/2 36/31/2 66/32/2 68/33/2 70/34/2 72/35/2 38/36/2 37/37/2 79/38/2 23/39/2 75/40/2 73/41/2 41/42/2 27/43/2 28/44/2 48/45/2 30/46/2 31/47/2 32/48/2
g Cube_Cube_front-back.004_Cube_Cube_front-back.004_edges
s 1
f 19/49/3 5/7/3 4/6/4 36/50/4
f 37/51/5 38/52/6 39/53/6 15/54/5
f 41/42/7 12/55/7 43/56/8 27/43/8
f 27/43/8 43/56/8 45/57/9 28/58/9
f 28/58/9 45/57/9 11/59/10 48/60/10
f 48/60/10 11/59/10 49/61/11 30/62/11
f 30/62/11 49/61/11 10/63/12 31/64/12
f 31/64/12 10/63/12 9/65/13 32/66/13
f 5/7/3 19/49/3 55/67/14 6/68/14
f 6/68/14 55/67/14 18/69/15 58/70/15
f 58/70/15 18/69/15 17/71/16 7/72/16
f 7/73/16 17/74/16 16/75/17 62/76/17
f 62/76/17 16/75/17 63/77/18 8/78/18
f 36/50/4 4/6/4 3/79/19 66/80/19
f 66/80/19 3/79/19 2/81/20 68/82/20
f 68/82/20 2/81/20 69/83/21 70/84/21
f 70/84/21 69/83/21 1/85/22 72/86/22
f 72/86/22 1/85/22 39/53/6 38/52/6
f 12/55/7 41/42/7 73/87/23 74/88/23
f 74/88/23 73/87/23 75/89/24 13/90/24
f 13/90/24 75/89/24 23/91/25 78/92/25
f 78/93/25 23/94/25 79/95/26 14/96/26
f 14/96/26 79/95/26 37/51/5 15/54/5
f 63/77/18 32/66/13 9/65/13 8/78/18
g Cube_Cube_front-back.004_Cube_Cube_front-back.004_pole_mount
f 90/97/27 82/98/27 83/99/27 84/100/27
f 111/101/28 117/102/28 87/103/28 88/104/28
f 83/99/29 87/103/29 117/105/29 84/106/29
f 90/107/30 111/108/30 88/104/30 82/98/30
f 82/98/2 88/104/2 87/103/2 83/99/2
f 89/109/28 90/110/28 91/111/28 92/112/28
f 92/113/29 91/114/29 93/115/29 94/116/29
f 94/117/27 93/118/27 95/119/27 128/120/27
f 128/120/30 95/119/30 90/121/30 89/122/30
f 97/123/28 98/124/28 84/125/28 100/126/28
f 100/127/29 84/128/29 101/129/29 102/130/29
f 102/131/27 101/132/27 103/133/27 136/134/27
f 136/134/30 103/133/30 98/135/30 97/136/30
f 105/137/28 106/138/28 107/139/28 108/140/28
f 108/141/29 107/142/29 109/143/29 110/144/29
f 110/145/27 109/146/27 111/147/27 112/148/27
f 112/148/30 111/147/30 106/149/30 105/150/30
f 113/151/28 114/152/28 115/153/28 133/154/28
f 133/155/29 115/156/29 117/157/29 118/158/29
f 118/159/27 117/160/27 119/161/27 120/162/27
f 120/162/30 119/161/30 114/163/30 113/164/30
f 121/165/2 122/166/2 123/167/2 124/168/2
f 124/169/29 123/170/29 108/171/29 94/172/29
f 94/172/1 108/171/1 105/173/1 128/174/1
f 128/174/30 105/173/30 122/166/30 121/165/30
f 124/175/27 94/117/27 128/120/27 121/176/27
f 108/140/28 123/177/28 122/178/28 105/137/28
f 129/179/2 130/180/2 131/181/2 132/182/2
f 132/183/29 131/184/29 133/185/29 102/186/29
f 102/186/1 133/185/1 113/187/1 136/188/1
f 136/188/30 113/187/30 130/180/30 129/179/30
f 132/189/27 102/131/27 136/134/27 129/190/27
f 133/154/28 131/191/28 130/192/28 113/151/28
g Cube_Cube_front-back.004_Cube_Cube_front-back.004_pole_mount_horiz
f 104/193/29 135/194/29 134/195/29 127/196/29
f 54/197/30 47/198/30 126/199/30 125/200/30
f 134/195/28 126/199/28 47/201/28 127/202/28
f 104/203/27 54/204/27 125/200/27 135/194/27
f 135/194/2 125/200/2 126/199/2 134/195/2
f 116/205/30 104/206/30 99/207/30 96/208/30
f 96/209/28 99/210/28 86/211/28 85/212/28
f 85/213/29 86/214/29 81/215/29 29/216/29
f 29/216/27 81/215/27 104/217/27 116/218/27
f 80/219/30 77/220/30 127/221/30 76/222/30
f 76/223/28 127/224/28 71/225/28 67/226/28
f 67/227/29 71/228/29 65/229/29 20/230/29
f 20/230/27 65/229/27 77/231/27 80/232/27
f 64/233/30 61/234/30 60/235/30 59/236/30
f 59/237/28 60/238/28 57/239/28 56/240/28
f 56/241/29 57/242/29 54/243/29 53/244/29
f 53/244/27 54/243/27 61/245/27 64/246/27
f 52/247/30 51/248/30 50/249/30 21/250/30
f 21/251/28 50/252/28 47/253/28 46/254/28
f 46/255/29 47/256/29 44/257/29 42/258/29
f 42/258/27 44/257/27 51/259/27 52/260/27
f 40/261/2 35/262/2 34/263/2 33/264/2
f 33/265/28 34/266/28 59/267/28 85/268/28
f 85/268/1 59/267/1 64/269/1 29/270/1
f 29/270/27 64/269/27 35/262/27 40/261/27
f 33/271/29 85/213/29 29/216/29 40/272/29
f 59/236/30 34/273/30 35/274/30 64/233/30
f 26/275/2 25/276/2 24/277/2 22/278/2
f 22/279/28 24/280/28 21/281/28 67/282/28
f 67/282/1 21/281/1 52/283/1 20/284/1
f 20/284/27 52/283/27 25/276/27 26/275/27
f 22/285/29 67/227/29 20/230/29 26/286/29
f 21/250/30 24/287/30 25/288/30 52/247/30
