# Blender v2.79 (sub 0) OBJ File: 'street_signs_generic_sign_42x30_onpole.blend'
# www.blender.org
o Cube_Cube_front-back.006
v -0.607153 -0.762500 0.194051
v -0.600051 -0.762500 0.207989
v -0.575051 -0.762500 0.226153
v -0.559600 -0.762500 0.228600
v 0.559600 -0.762500 0.228600
v 0.588989 -0.762500 0.219051
v 0.607153 -0.762500 0.194051
v 0.609600 -0.762500 0.178600
v 0.609600 -0.762500 -0.178600
v 0.607153 -0.762500 -0.194051
v 0.575051 -0.762500 -0.226153
v 0.559600 -0.762500 -0.228600
v -0.588989 -0.762500 -0.219051
v -0.607153 -0.762500 -0.194051
v -0.609600 -0.762500 -0.178600
v 0.609600 -0.812500 0.178600
v 0.607153 -0.812500 0.194051
v 0.600051 -0.812500 0.207989
v 0.588989 -0.812500 0.219051
v 0.559600 -0.812500 0.228600
v -0.600051 -0.812500 -0.207989
v 0.559600 -0.812500 -0.228600
v 0.575051 -0.812500 -0.226153
v 0.588989 -0.812500 -0.219051
v 0.600051 -0.812500 -0.207989
v 0.607153 -0.812500 -0.194051
v 0.609600 -0.812500 -0.178600
v -0.559600 -0.812500 0.228600
v -0.609600 -0.812500 -0.178600
v -0.609600 -0.812500 0.178600
v -0.609600 -0.762500 0.178600
v -0.559600 -0.812500 -0.228600
v -0.559600 -0.762500 -0.228600
v 0.588989 -0.762500 -0.219051
v 0.600051 -0.762500 -0.207989
v 0.575051 -0.812500 0.226153
v 0.575051 -0.762500 0.226153
v 0.600051 -0.762500 0.207989
v -0.575051 -0.812500 0.226153
v -0.588989 -0.762500 0.219051
v -0.588989 -0.812500 0.219051
v -0.600051 -0.812500 0.207989
v -0.607153 -0.812500 0.194051
v -0.575051 -0.812500 -0.226153
v -0.575051 -0.762500 -0.226153
v -0.588989 -0.812500 -0.219051
v -0.600051 -0.762500 -0.207989
v -0.607153 -0.812500 -0.194051
v -0.125000 -0.875000 -0.187500
v -0.125000 -0.875000 0.187500
v -0.125000 -0.812500 0.187500
v 0.125000 -0.812500 -0.187500
v 0.125000 -0.875000 0.187500
v 0.125000 -0.875000 -0.187500
v -0.125000 -1.125000 -0.187500
v -0.125000 -0.812500 -0.187500
v -0.125000 -0.812500 -0.125000
v -0.125000 -1.125000 -0.125000
v -0.164063 -0.812500 -0.125000
v -0.164063 -0.812500 -0.187500
v -0.125000 -1.125000 0.125000
v -0.125000 -0.812500 0.125000
v -0.125000 -1.125000 0.187500
v -0.164063 -0.812500 0.187500
v -0.164063 -0.812500 0.125000
v -0.164063 -1.125000 0.125000
v 0.164062 -0.812500 -0.187500
v 0.164062 -0.812500 -0.125000
v 0.164062 -1.125000 -0.125000
v 0.125000 -0.812500 -0.125000
v 0.125000 -1.125000 -0.125000
v 0.125000 -1.125000 -0.187500
v 0.164062 -0.812500 0.125000
v 0.164062 -0.812500 0.187500
v 0.125000 -0.812500 0.187500
v 0.125000 -1.125000 0.187500
v 0.125000 -0.812500 0.125000
v 0.125000 -1.125000 0.125000
v -0.164063 -1.164063 -0.187500
v 0.164062 -1.164063 -0.187500
v 0.164062 -1.164063 -0.125000
v -0.164063 -1.164063 -0.125000
v -0.164063 -1.125000 -0.125000
v 0.164062 -1.125000 -0.187500
v -0.164063 -1.125000 -0.187500
v -0.164063 -1.164063 0.125000
v 0.164062 -1.164063 0.125000
v 0.164062 -1.164063 0.187500
v -0.164063 -1.164063 0.187500
v 0.164062 -1.125000 0.187500
v -0.164063 -1.125000 0.187500
v 0.164062 -1.125000 0.125000
v -0.187500 -0.875000 0.125000
v 0.187500 -0.875000 0.125000
v 0.187500 -0.812500 0.125000
v -0.187500 -0.812500 -0.125000
v 0.187500 -0.875000 -0.125000
v -0.187500 -0.875000 -0.125000
v -0.187500 -1.125000 0.125000
v -0.187500 -0.812500 0.125000
v -0.125000 -0.812500 0.125000
v -0.125000 -1.125000 0.125000
v -0.125000 -0.812500 0.164063
v -0.187500 -0.812500 0.164063
v 0.125000 -1.125000 0.125000
v 0.125000 -0.812500 0.125000
v 0.187500 -1.125000 0.125000
v 0.187500 -0.812500 0.164063
v 0.125000 -0.812500 0.164063
v 0.125000 -1.125000 0.164063
v -0.187500 -0.812500 -0.164062
v -0.125000 -0.812500 -0.164062
v -0.125000 -1.125000 -0.164062
v -0.125000 -0.812500 -0.125000
v -0.125000 -1.125000 -0.125000
v -0.187500 -1.125000 -0.125000
v 0.125000 -0.812500 -0.164062
v 0.187500 -0.812500 -0.164062
v 0.187500 -0.812500 -0.125000
v 0.187500 -1.125000 -0.125000
v 0.125000 -0.812500 -0.125000
v 0.125000 -1.125000 -0.125000
v -0.187500 -1.164063 0.164063
v -0.187500 -1.164063 -0.164062
v -0.125000 -1.164063 -0.164062
v -0.125000 -1.164063 0.164063
v -0.125000 -1.125000 0.164063
v -0.187500 -1.125000 -0.164062
v -0.187500 -1.125000 0.164063
v 0.125000 -1.164063 0.164063
v 0.125000 -1.164063 -0.164062
v 0.187500 -1.164063 -0.164062
v 0.187500 -1.164063 0.164063
v 0.187500 -1.125000 -0.164062
v 0.187500 -1.125000 0.164063
v 0.125000 -1.125000 -0.164062
vt 1.000000 0.945319
vt 0.997993 0.962217
vt 0.992168 0.977460
vt 0.983095 0.989557
vt 0.971663 0.997324
vt 0.958990 1.000000
vt 0.041010 1.000000
vt 0.028338 0.997324
vt 0.016905 0.989557
vt 0.007832 0.977460
vt 0.002007 0.962217
vt 0.000000 0.945319
vt 0.000000 0.554681
vt 0.002007 0.537783
vt 0.007832 0.522540
vt 0.016905 0.510443
vt 0.028338 0.502676
vt 0.041010 0.500000
vt 0.958990 0.500000
vt 0.971663 0.502676
vt 0.983095 0.510443
vt 0.992168 0.522540
vt 0.997993 0.537783
vt 1.000000 0.554681
vt 0.000000 0.445319
vt 0.002007 0.462217
vt 0.007832 0.477460
vt 0.016905 0.489557
vt 0.028338 0.497324
vt 0.041010 0.500000
vt 0.958990 0.500000
vt 0.971663 0.497324
vt 0.983095 0.489557
vt 0.992168 0.477460
vt 0.997993 0.462217
vt 1.000000 0.445319
vt 1.000000 0.054681
vt 0.997993 0.037783
vt 0.992168 0.022540
vt 0.983095 0.010443
vt 0.971663 0.002676
vt 0.958990 0.000000
vt 0.041010 0.000000
vt 0.028338 0.002676
vt 0.016905 0.010443
vt 0.007832 0.022540
vt 0.002007 0.037783
vt 0.000000 0.054681
vt 0.041010 0.000000
vt 0.958990 0.000000
vt 0.109361 0.000000
vt 0.890639 0.000000
vt 0.890639 1.000000
vt 0.109361 1.000000
vt 0.958990 1.000000
vt 0.041010 1.000000
vt 0.028338 1.000000
vt 0.028338 0.000003
vt 0.016905 1.000000
vt 0.016905 0.000003
vt 0.045080 1.000000
vt 0.045080 0.000000
vt 0.075567 1.000000
vt 0.075567 0.000000
vt 0.109361 1.000000
vt 0.109361 0.000000
vt 0.028338 0.000000
vt 0.028338 0.999996
vt 0.016905 0.000000
vt 0.016905 0.999996
vt 0.000000 0.000000
vt 0.000000 0.999996
vt 0.954920 1.000000
vt 0.954920 0.000000
vt 0.924433 0.000000
vt 0.924433 1.000000
vt 0.890639 0.000000
vt 0.890639 1.000000
vt 0.971662 0.999996
vt 0.971662 0.000000
vt 0.983095 0.999996
vt 0.983095 0.000000
vt 0.954920 1.000000
vt 0.954920 0.000000
vt 0.924433 1.000000
vt 0.924433 0.000000
vt 0.971662 0.000003
vt 0.971662 1.000000
vt 0.983095 0.000003
vt 0.983095 1.000000
vt 1.000000 0.000003
vt 1.000000 1.000000
vt 0.045080 1.000000
vt 0.045080 0.000000
vt 0.075567 0.000000
vt 0.075567 1.000000
vt 0.843750 0.507812
vt 0.703125 0.507812
vt 0.703125 0.093750
vt 0.843750 0.093750
vt 0.015625 0.507812
vt 0.015625 0.093750
vt 0.156250 0.093750
vt 0.156250 0.507812
vt 0.156250 0.031250
vt 0.703125 0.031250
vt 0.703125 0.578125
vt 0.156250 0.578125
vt 0.312500 0.640625
vt 0.312500 0.992188
vt 0.453125 0.992188
vt 0.453125 0.640625
vt 0.234375 0.640625
vt 0.234375 0.992188
vt 0.312500 0.992188
vt 0.312500 0.640625
vt 0.234375 0.640625
vt 0.234375 0.992188
vt 0.093750 0.992188
vt 0.093750 0.640625
vt 0.015625 0.992188
vt 0.015625 0.640625
vt 0.312500 0.640625
vt 0.312500 0.992188
vt 0.453125 0.992188
vt 0.453125 0.640625
vt 0.234375 0.640625
vt 0.234375 0.992188
vt 0.312500 0.992188
vt 0.312500 0.640625
vt 0.234375 0.640625
vt 0.234375 0.992188
vt 0.093750 0.992188
vt 0.093750 0.640625
vt 0.015625 0.992188
vt 0.015625 0.640625
vt 0.312500 0.640625
vt 0.312500 0.992188
vt 0.453125 0.992188
vt 0.453125 0.640625
vt 0.234375 0.640625
vt 0.234375 0.992188
vt 0.312500 0.992188
vt 0.312500 0.640625
vt 0.234375 0.640625
vt 0.234375 0.992188
vt 0.093750 0.992188
vt 0.093750 0.640625
vt 0.015625 0.992188
vt 0.015625 0.640625
vt 0.312500 0.640625
vt 0.312500 0.992188
vt 0.453125 0.992188
vt 0.453125 0.640625
vt 0.234375 0.640625
vt 0.234375 0.992188
vt 0.312500 0.992188
vt 0.312500 0.640625
vt 0.234375 0.640625
vt 0.234375 0.992188
vt 0.093750 0.992188
vt 0.093750 0.640625
vt 0.015625 0.992188
vt 0.015625 0.640625
vt 0.781250 0.664062
vt 0.781250 0.992188
vt 0.921875 0.992188
vt 0.921875 0.664062
vt 0.484375 0.664062
vt 0.484375 0.992188
vt 0.562500 0.992188
vt 0.562500 0.664062
vt 0.703125 0.992188
vt 0.703125 0.664062
vt 0.234375 0.593750
vt 0.093750 0.593750
vt 0.453125 0.593750
vt 0.312500 0.593750
vt 0.781250 0.664062
vt 0.781250 0.992188
vt 0.921875 0.992188
vt 0.921875 0.664062
vt 0.484375 0.664062
vt 0.484375 0.992188
vt 0.562500 0.992188
vt 0.562500 0.664062
vt 0.703125 0.992188
vt 0.703125 0.664062
vt 0.234375 0.593750
vt 0.093750 0.593750
vt 0.453125 0.593750
vt 0.312500 0.593750
vt 0.843750 0.507812
vt 0.703125 0.507812
vt 0.703125 0.093750
vt 0.843750 0.093750
vt 0.015625 0.507812
vt 0.015625 0.093750
vt 0.156250 0.093750
vt 0.156250 0.507812
vt 0.156250 0.031250
vt 0.703125 0.031250
vt 0.703125 0.578125
vt 0.156250 0.578125
vt 0.312500 0.640625
vt 0.312500 0.992188
vt 0.453125 0.992188
vt 0.453125 0.640625
vt 0.234375 0.640625
vt 0.234375 0.992188
vt 0.312500 0.992188
vt 0.312500 0.640625
vt 0.234375 0.640625
vt 0.234375 0.992188
vt 0.093750 0.992188
vt 0.093750 0.640625
vt 0.015625 0.992188
vt 0.015625 0.640625
vt 0.312500 0.640625
vt 0.312500 0.992188
vt 0.453125 0.992188
vt 0.453125 0.640625
vt 0.234375 0.640625
vt 0.234375 0.992188
vt 0.312500 0.992188
vt 0.312500 0.640625
vt 0.234375 0.640625
vt 0.234375 0.992188
vt 0.093750 0.992188
vt 0.093750 0.640625
vt 0.015625 0.992188
vt 0.015625 0.640625
vt 0.312500 0.640625
vt 0.312500 0.992188
vt 0.453125 0.992188
vt 0.453125 0.640625
vt 0.234375 0.640625
vt 0.234375 0.992188
vt 0.312500 0.992188
vt 0.312500 0.640625
vt 0.234375 0.640625
vt 0.234375 0.992188
vt 0.093750 0.992188
vt 0.093750 0.640625
vt 0.015625 0.992188
vt 0.015625 0.640625
vt 0.312500 0.640625
vt 0.312500 0.992188
vt 0.453125 0.992188
vt 0.453125 0.640625
vt 0.234375 0.640625
vt 0.234375 0.992188
vt 0.312500 0.992188
vt 0.312500 0.640625
vt 0.234375 0.640625
vt 0.234375 0.992188
vt 0.093750 0.992188
vt 0.093750 0.640625
vt 0.015625 0.992188
vt 0.015625 0.640625
vt 0.781250 0.664062
vt 0.781250 0.992188
vt 0.921875 0.992188
vt 0.921875 0.664062
vt 0.484375 0.664062
vt 0.484375 0.992188
vt 0.562500 0.992188
vt 0.562500 0.664062
vt 0.703125 0.992188
vt 0.703125 0.664062
vt 0.234375 0.593750
vt 0.093750 0.593750
vt 0.453125 0.593750
vt 0.312500 0.593750
vt 0.781250 0.664062
vt 0.781250 0.992188
vt 0.921875 0.992188
vt 0.921875 0.664062
vt 0.484375 0.664062
vt 0.484375 0.992188
vt 0.562500 0.992188
vt 0.562500 0.664062
vt 0.703125 0.992188
vt 0.703125 0.664062
vt 0.234375 0.593750
vt 0.093750 0.593750
vt 0.453125 0.593750
vt 0.312500 0.593750
vn 0.0000 1.0000 -0.0000
vn 0.0000 -1.0000 -0.0000
vn 0.0785 -0.0000 0.9969
vn -0.0785 -0.0000 0.9969
vn -0.9969 0.0000 -0.0785
vn -0.9969 0.0000 0.0785
vn -0.0785 0.0000 -0.9969
vn 0.0785 0.0000 -0.9969
vn 0.3090 0.0000 -0.9511
vn 0.5878 0.0000 -0.8090
vn 0.8090 -0.0000 -0.5878
vn 0.9511 -0.0000 -0.3090
vn 0.9969 0.0000 -0.0785
vn 0.3090 0.0000 0.9511
vn 0.5878 -0.0000 0.8090
vn 0.8090 -0.0000 0.5878
vn 0.9511 0.0000 0.3090
vn 0.9969 0.0000 0.0785
vn -0.3090 0.0000 0.9511
vn -0.5878 0.0000 0.8090
vn -0.8090 0.0000 0.5878
vn -0.9511 0.0000 0.3090
vn -0.3090 -0.0000 -0.9511
vn -0.5878 -0.0000 -0.8090
vn -0.8090 0.0000 -0.5878
vn -0.9511 0.0000 -0.3090
vn -1.0000 0.0000 0.0000
vn 1.0000 0.0000 -0.0000
vn 0.0000 0.0000 1.0000
vn -0.0000 0.0000 -1.0000
g Cube_Cube_front-back.006_Cube_Cube_front-back.006_front-back
s off
f 31/1/1 1/2/1 2/3/1 40/4/1 3/5/1 4/6/1 5/7/1 37/8/1 6/9/1 38/10/1 7/11/1 8/12/1 9/13/1 10/14/1 35/15/1 34/16/1 11/17/1 12/18/1 33/19/1 45/20/1 13/21/1 47/22/1 14/23/1 15/24/1
f 16/25/2 17/26/2 18/27/2 19/28/2 36/29/2 20/30/2 28/31/2 39/32/2 41/33/2 42/34/2 43/35/2 30/36/2 29/37/2 48/38/2 21/39/2 46/40/2 44/41/2 32/42/2 22/43/2 23/44/2 24/45/2 25/46/2 26/47/2 27/48/2
g Cube_Cube_front-back.006_Cube_Cube_front-back.006_edges
s 1
f 20/49/3 5/7/3 4/6/4 28/50/4
f 29/51/5 30/52/6 31/53/6 15/54/5
f 32/42/7 33/55/7 12/56/8 22/43/8
f 22/43/8 12/56/8 11/57/9 23/58/9
f 23/58/9 11/57/9 34/59/10 24/60/10
f 24/60/10 34/59/10 35/61/11 25/62/11
f 25/62/11 35/61/11 10/63/12 26/64/12
f 26/64/12 10/63/12 9/65/13 27/66/13
f 5/7/3 20/49/3 36/67/14 37/68/14
f 37/68/14 36/67/14 19/69/15 6/70/15
f 6/70/15 19/69/15 18/71/16 38/72/16
f 38/73/16 18/74/16 17/75/17 7/76/17
f 7/76/17 17/75/17 16/77/18 8/78/18
f 28/50/4 4/6/4 3/79/19 39/80/19
f 39/80/19 3/79/19 40/81/20 41/82/20
f 41/82/20 40/81/20 2/83/21 42/84/21
f 42/84/21 2/83/21 1/85/22 43/86/22
f 43/86/22 1/85/22 31/53/6 30/52/6
f 33/55/7 32/42/7 44/87/23 45/88/23
f 45/88/23 44/87/23 46/89/24 13/90/24
f 13/90/24 46/89/24 21/91/25 47/92/25
f 47/93/25 21/94/25 48/95/26 14/96/26
f 14/96/26 48/95/26 29/51/5 15/54/5
f 16/77/18 27/66/13 9/65/13 8/78/18
g Cube_Cube_front-back.006_Cube_Cube_front-back.006_pole_mount
f 56/97/27 49/98/27 50/99/27 51/100/27
f 52/101/28 75/102/28 53/103/28 54/104/28
f 50/99/29 53/103/29 75/105/29 51/106/29
f 56/107/30 52/108/30 54/104/30 49/98/30
f 49/98/2 54/104/2 53/103/2 50/99/2
f 55/109/28 56/110/28 57/111/28 58/112/28
f 58/113/29 57/114/29 59/115/29 83/116/29
f 83/117/27 59/118/27 60/119/27 85/120/27
f 85/120/30 60/119/30 56/121/30 55/122/30
f 61/123/28 62/124/28 51/125/28 63/126/28
f 63/127/29 51/128/29 64/129/29 91/130/29
f 91/131/27 64/132/27 65/133/27 66/134/27
f 66/134/30 65/133/30 62/135/30 61/136/30
f 84/137/28 67/138/28 68/139/28 69/140/28
f 69/141/29 68/142/29 70/143/29 71/144/29
f 71/145/27 70/146/27 52/147/27 72/148/27
f 72/148/30 52/147/30 67/149/30 84/150/30
f 92/151/28 73/152/28 74/153/28 90/154/28
f 90/155/29 74/156/29 75/157/29 76/158/29
f 76/159/27 75/160/27 77/161/27 78/162/27
f 78/162/30 77/161/30 73/163/30 92/164/30
f 79/165/2 80/166/2 81/167/2 82/168/2
f 82/169/29 81/170/29 69/171/29 83/172/29
f 83/172/1 69/171/1 84/173/1 85/174/1
f 85/174/30 84/173/30 80/166/30 79/165/30
f 82/175/27 83/117/27 85/120/27 79/176/27
f 69/140/28 81/177/28 80/178/28 84/137/28
f 86/179/2 87/180/2 88/181/2 89/182/2
f 89/183/29 88/184/29 90/185/29 91/186/29
f 91/186/1 90/185/1 92/187/1 66/188/1
f 66/188/30 92/187/30 87/180/30 86/179/30
f 89/189/27 91/131/27 66/134/27 86/190/27
f 90/154/28 88/191/28 87/192/28 92/151/28
g Cube_Cube_front-back.006_Cube_Cube_front-back.006_pole_mount_horiz
f 100/193/29 93/194/29 94/195/29 95/196/29
f 96/197/30 119/198/30 97/199/30 98/200/30
f 94/195/28 97/199/28 119/201/28 95/202/28
f 100/203/27 96/204/27 98/200/27 93/194/27
f 93/194/2 98/200/2 97/199/2 94/195/2
f 99/205/30 100/206/30 101/207/30 102/208/30
f 102/209/28 101/210/28 103/211/28 127/212/28
f 127/213/29 103/214/29 104/215/29 129/216/29
f 129/216/27 104/215/27 100/217/27 99/218/27
f 105/219/30 106/220/30 95/221/30 107/222/30
f 107/223/28 95/224/28 108/225/28 135/226/28
f 135/227/29 108/228/29 109/229/29 110/230/29
f 110/230/27 109/229/27 106/231/27 105/232/27
f 128/233/30 111/234/30 112/235/30 113/236/30
f 113/237/28 112/238/28 114/239/28 115/240/28
f 115/241/29 114/242/29 96/243/29 116/244/29
f 116/244/27 96/243/27 111/245/27 128/246/27
f 136/247/30 117/248/30 118/249/30 134/250/30
f 134/251/28 118/252/28 119/253/28 120/254/28
f 120/255/29 119/256/29 121/257/29 122/258/29
f 122/258/27 121/257/27 117/259/27 136/260/27
f 123/261/2 124/262/2 125/263/2 126/264/2
f 126/265/28 125/266/28 113/267/28 127/268/28
f 127/268/1 113/267/1 128/269/1 129/270/1
f 129/270/27 128/269/27 124/262/27 123/261/27
f 126/271/29 127/213/29 129/216/29 123/272/29
f 113/236/30 125/273/30 124/274/30 128/233/30
f 130/275/2 131/276/2 132/277/2 133/278/2
f 133/279/28 132/280/28 134/281/28 135/282/28
f 135/282/1 134/281/1 136/283/1 110/284/1
f 110/284/27 136/283/27 131/276/27 130/275/27
f 133/285/29 135/227/29 110/230/29 130/286/29
f 134/250/30 132/287/30 131/288/30 136/247/30
