# Blender v2.79 (sub 0) OBJ File: 'street_signs_generic_sign_18x18_top_onpole.blend'
# www.blender.org
o Cube_Cube_front-back.001
v -0.226153 -0.762500 0.444051
v -0.219051 -0.762500 0.457989
v -0.207989 -0.762500 0.469051
v -0.178600 -0.762500 0.478600
v 0.178600 -0.762500 0.478600
v 0.207989 -0.762500 0.469051
v 0.219051 -0.762500 0.457989
v 0.228600 -0.762500 0.071400
v 0.219051 -0.762500 0.042011
v 0.207989 -0.762500 0.030949
v 0.178600 -0.762500 0.021400
v -0.207989 -0.762500 0.030949
v -0.219051 -0.762500 0.042011
v -0.226153 -0.762500 0.055949
v -0.228600 -0.762500 0.071400
v 0.228600 -0.812500 0.428600
v 0.219051 -0.812500 0.457989
v 0.194051 -0.812500 0.476153
v -0.178600 -0.812500 0.478600
v -0.228600 -0.812500 0.428600
v -0.228600 -0.812500 0.071400
v -0.226153 -0.812500 0.055949
v -0.207989 -0.812500 0.030949
v -0.194051 -0.812500 0.023847
v -0.178600 -0.812500 0.021400
v 0.178600 -0.812500 0.021400
v 0.194051 -0.812500 0.023847
v 0.207989 -0.812500 0.030949
v 0.226153 -0.812500 0.055949
v 0.178600 -0.812500 0.478600
v -0.228600 -0.762500 0.428600
v -0.178600 -0.762500 0.021400
v 0.194051 -0.762500 0.023847
v 0.219051 -0.812500 0.042011
v 0.226153 -0.762500 0.055949
v 0.228600 -0.812500 0.071400
v 0.194051 -0.762500 0.476153
v 0.207989 -0.812500 0.469051
v 0.226153 -0.812500 0.444051
v 0.226153 -0.762500 0.444051
v 0.228600 -0.762500 0.428600
v -0.194051 -0.762500 0.476153
v -0.194051 -0.812500 0.476153
v -0.207989 -0.812500 0.469051
v -0.219051 -0.812500 0.457989
v -0.226153 -0.812500 0.444051
v -0.194051 -0.762500 0.023847
v -0.219051 -0.812500 0.042011
v -0.125000 -0.812500 0.062500
v -0.125000 -0.875000 0.062500
v -0.125000 -0.875000 0.437500
v -0.125000 -0.812500 0.437500
v 0.125000 -0.812500 0.062500
v 0.125000 -0.812500 0.437500
v 0.125000 -0.875000 0.437500
v 0.125000 -0.875000 0.062500
v -0.125000 -1.125000 0.062500
v -0.125000 -0.812500 0.062500
v -0.125000 -0.812500 0.125000
v -0.125000 -1.125000 0.125000
v -0.164063 -0.812500 0.125000
v -0.164063 -1.125000 0.125000
v -0.164063 -0.812500 0.062500
v -0.164063 -1.125000 0.062500
v -0.125000 -1.125000 0.375000
v -0.125000 -0.812500 0.375000
v -0.125000 -0.812500 0.437500
v -0.125000 -1.125000 0.437500
v -0.164063 -0.812500 0.437500
v -0.164063 -1.125000 0.437500
v -0.164063 -0.812500 0.375000
v -0.164063 -1.125000 0.375000
v 0.164062 -1.125000 0.062500
v 0.164062 -0.812500 0.062500
v 0.164062 -0.812500 0.125000
v 0.164062 -1.125000 0.125000
v 0.125000 -0.812500 0.125000
v 0.125000 -1.125000 0.125000
v 0.125000 -0.812500 0.062500
v 0.125000 -1.125000 0.062500
v 0.164062 -1.125000 0.375000
v 0.164062 -0.812500 0.375000
v 0.164062 -0.812500 0.437500
v 0.164062 -1.125000 0.437500
v 0.125000 -0.812500 0.437500
v 0.125000 -1.125000 0.437500
v 0.125000 -0.812500 0.375000
v 0.125000 -1.125000 0.375000
v -0.164063 -1.164063 0.062500
v 0.164062 -1.164063 0.062500
v 0.164062 -1.164063 0.125000
v -0.164063 -1.164063 0.125000
v 0.164062 -1.125000 0.125000
v -0.164063 -1.125000 0.125000
v 0.164062 -1.125000 0.062500
v -0.164063 -1.125000 0.062500
v -0.164063 -1.164063 0.375000
v 0.164062 -1.164063 0.375000
v 0.164062 -1.164063 0.437500
v -0.164063 -1.164063 0.437500
v 0.164062 -1.125000 0.437500
v -0.164063 -1.125000 0.437500
v 0.164062 -1.125000 0.375000
v -0.164063 -1.125000 0.375000
vt 0.500000 0.890639
vt 0.497324 0.924433
vt 0.489557 0.954920
vt 0.477460 0.979114
vt 0.462217 0.994648
vt 0.445319 1.000000
vt 0.054681 1.000000
vt 0.037783 0.994648
vt 0.022540 0.979114
vt 0.010443 0.954920
vt 0.002676 0.924433
vt 0.000000 0.890639
vt 0.000000 0.109361
vt 0.002676 0.075567
vt 0.010443 0.045080
vt 0.022540 0.020886
vt 0.037783 0.005353
vt 0.054681 0.000000
vt 0.445319 0.000000
vt 0.462217 0.005353
vt 0.477460 0.020886
vt 0.489557 0.045080
vt 0.497324 0.075567
vt 0.500000 0.109361
vt 0.500000 0.890639
vt 0.502676 0.924433
vt 0.510443 0.954920
vt 0.522540 0.979114
vt 0.537783 0.994648
vt 0.554681 1.000000
vt 0.945319 1.000000
vt 0.962217 0.994648
vt 0.977460 0.979114
vt 0.989557 0.954920
vt 0.997324 0.924433
vt 1.000000 0.890639
vt 1.000000 0.109361
vt 0.997324 0.075567
vt 0.989557 0.045080
vt 0.977460 0.020886
vt 0.962217 0.005353
vt 0.945319 0.000000
vt 0.554681 0.000000
vt 0.537783 0.005353
vt 0.522540 0.020886
vt 0.510443 0.045080
vt 0.502676 0.075567
vt 0.500000 0.109361
vt 0.109361 0.000000
vt 0.109361 0.999996
vt 0.890639 0.999996
vt 0.890639 0.000000
vt 0.109361 0.000000
vt 0.890639 0.000000
vt 0.890639 1.000000
vt 0.109361 1.000000
vt 0.890639 0.000003
vt 0.890639 1.000000
vt 0.109361 1.000000
vt 0.109361 0.000003
vt 0.075567 1.000000
vt 0.075567 0.000003
vt 0.045080 1.000000
vt 0.045080 0.000003
vt 0.045080 1.000000
vt 0.045080 0.000000
vt 0.075567 1.000000
vt 0.075567 0.000000
vt 0.109361 1.000000
vt 0.109361 0.000000
vt 0.075567 0.000000
vt 0.075567 0.999996
vt 0.045080 0.000000
vt 0.045080 0.999996
vt 0.000000 0.000000
vt 0.000000 0.999996
vt 0.954920 1.000000
vt 0.954920 0.000000
vt 0.924433 0.000000
vt 0.924433 1.000000
vt 0.890639 0.000000
vt 0.890639 1.000000
vt 0.924433 0.999996
vt 0.924433 0.000000
vt 0.954920 0.999996
vt 0.954920 0.000000
vt 0.954920 1.000000
vt 0.954920 0.000000
vt 0.924433 1.000000
vt 0.924433 0.000000
vt 0.924433 0.000003
vt 0.924433 1.000000
vt 0.954920 0.000003
vt 0.954920 1.000000
vt 1.000000 0.000003
vt 1.000000 1.000000
vt 0.045080 1.000000
vt 0.045080 0.000000
vt 0.075567 0.000000
vt 0.075567 1.000000
vt 0.843750 0.507812
vt 0.703125 0.507812
vt 0.703125 0.093750
vt 0.843750 0.093750
vt 0.015625 0.507812
vt 0.015625 0.093750
vt 0.156250 0.093750
vt 0.156250 0.507812
vt 0.156250 0.031250
vt 0.703125 0.031250
vt 0.703125 0.578125
vt 0.156250 0.578125
vt 0.312500 0.640625
vt 0.312500 0.992188
vt 0.453125 0.992188
vt 0.453125 0.640625
vt 0.234375 0.640625
vt 0.234375 0.992188
vt 0.312500 0.992188
vt 0.312500 0.640625
vt 0.234375 0.640625
vt 0.234375 0.992188
vt 0.093750 0.992188
vt 0.093750 0.640625
vt 0.015625 0.992188
vt 0.015625 0.640625
vt 0.312500 0.640625
vt 0.312500 0.992188
vt 0.453125 0.992188
vt 0.453125 0.640625
vt 0.234375 0.640625
vt 0.234375 0.992188
vt 0.312500 0.992188
vt 0.312500 0.640625
vt 0.234375 0.640625
vt 0.234375 0.992188
vt 0.093750 0.992188
vt 0.093750 0.640625
vt 0.015625 0.992188
vt 0.015625 0.640625
vt 0.312500 0.640625
vt 0.312500 0.992188
vt 0.453125 0.992188
vt 0.453125 0.640625
vt 0.234375 0.640625
vt 0.234375 0.992188
vt 0.312500 0.992188
vt 0.312500 0.640625
vt 0.234375 0.640625
vt 0.234375 0.992188
vt 0.093750 0.992188
vt 0.093750 0.640625
vt 0.015625 0.992188
vt 0.015625 0.640625
vt 0.312500 0.640625
vt 0.312500 0.992188
vt 0.453125 0.992188
vt 0.453125 0.640625
vt 0.234375 0.640625
vt 0.234375 0.992188
vt 0.312500 0.992188
vt 0.312500 0.640625
vt 0.234375 0.640625
vt 0.234375 0.992188
vt 0.093750 0.992188
vt 0.093750 0.640625
vt 0.015625 0.992188
vt 0.015625 0.640625
vt 0.781250 0.664062
vt 0.781250 0.992188
vt 0.921875 0.992188
vt 0.921875 0.664062
vt 0.484375 0.664062
vt 0.484375 0.992188
vt 0.562500 0.992188
vt 0.562500 0.664062
vt 0.703125 0.992188
vt 0.703125 0.664062
vt 0.234375 0.593750
vt 0.234375 0.640625
vt 0.093750 0.640625
vt 0.093750 0.593750
vt 0.453125 0.640625
vt 0.453125 0.593750
vt 0.312500 0.593750
vt 0.312500 0.640625
vt 0.781250 0.664062
vt 0.781250 0.992188
vt 0.921875 0.992188
vt 0.921875 0.664062
vt 0.484375 0.664062
vt 0.484375 0.992188
vt 0.562500 0.992188
vt 0.562500 0.664062
vt 0.703125 0.992188
vt 0.703125 0.664062
vt 0.234375 0.593750
vt 0.234375 0.640625
vt 0.093750 0.640625
vt 0.093750 0.593750
vt 0.453125 0.640625
vt 0.453125 0.593750
vt 0.312500 0.593750
vt 0.312500 0.640625
vn 0.0000 1.0000 0.0000
vn 0.0000 -1.0000 0.0000
vn 0.0785 0.0000 0.9969
vn -0.0785 0.0000 0.9969
vn -0.9969 0.0000 -0.0785
vn -0.9969 0.0000 0.0785
vn -0.0785 0.0000 -0.9969
vn 0.0785 0.0000 -0.9969
vn 0.3090 0.0000 -0.9511
vn 0.5878 -0.0000 -0.8090
vn 0.8090 -0.0000 -0.5878
vn 0.9511 -0.0000 -0.3090
vn 0.9969 0.0000 -0.0785
vn 0.3090 0.0000 0.9511
vn 0.5878 0.0000 0.8090
vn 0.8090 0.0000 0.5878
vn 0.9511 0.0000 0.3090
vn 0.9969 0.0000 0.0785
vn -0.3090 0.0000 0.9511
vn -0.5878 0.0000 0.8090
vn -0.8090 0.0000 0.5878
vn -0.9511 0.0000 0.3090
vn -0.3090 0.0000 -0.9511
vn -0.5878 0.0000 -0.8090
vn -0.8090 0.0000 -0.5878
vn -0.9511 0.0000 -0.3090
vn -1.0000 0.0000 0.0000
vn 1.0000 0.0000 -0.0000
vn 0.0000 0.0000 1.0000
vn -0.0000 0.0000 -1.0000
g Cube_Cube_front-back.001_Cube_Cube_front-back.001_front-back
s off
f 31/1/1 1/2/1 2/3/1 3/4/1 42/5/1 4/6/1 5/7/1 37/8/1 6/9/1 7/10/1 40/11/1 41/12/1 8/13/1 35/14/1 9/15/1 10/16/1 33/17/1 11/18/1 32/19/1 47/20/1 12/21/1 13/22/1 14/23/1 15/24/1
f 16/25/2 39/26/2 17/27/2 38/28/2 18/29/2 30/30/2 19/31/2 43/32/2 44/33/2 45/34/2 46/35/2 20/36/2 21/37/2 22/38/2 48/39/2 23/40/2 24/41/2 25/42/2 26/43/2 27/44/2 28/45/2 34/46/2 29/47/2 36/48/2
g Cube_Cube_front-back.001_Cube_Cube_front-back.001_edges
s 1
f 30/49/3 5/50/3 4/51/4 19/52/4
f 21/53/5 20/54/6 31/55/6 15/56/5
f 25/57/7 32/58/7 11/59/8 26/60/8
f 26/60/8 11/59/8 33/61/9 27/62/9
f 27/62/9 33/61/9 10/63/10 28/64/10
f 28/64/10 10/63/10 9/65/11 34/66/11
f 34/66/11 9/65/11 35/67/12 29/68/12
f 29/68/12 35/67/12 8/69/13 36/70/13
f 5/50/3 30/49/3 18/71/14 37/72/14
f 37/72/14 18/71/14 38/73/15 6/74/15
f 6/74/15 38/73/15 17/75/16 7/76/16
f 7/77/16 17/78/16 39/79/17 40/80/17
f 40/80/17 39/79/17 16/81/18 41/82/18
f 19/52/4 4/51/4 42/83/19 43/84/19
f 43/84/19 42/83/19 3/85/20 44/86/20
f 44/86/20 3/85/20 2/87/21 45/88/21
f 45/88/21 2/87/21 1/89/22 46/90/22
f 46/90/22 1/89/22 31/55/6 20/54/6
f 32/58/7 25/57/7 24/91/23 47/92/23
f 47/92/23 24/91/23 23/93/24 12/94/24
f 12/94/24 23/93/24 48/95/25 13/96/25
f 13/97/25 48/98/25 22/99/26 14/100/26
f 14/100/26 22/99/26 21/53/5 15/56/5
f 16/81/18 36/70/13 8/69/13 41/82/18
g Cube_Cube_front-back.001_Cube_Cube_front-back.001_pole_mount
f 49/101/27 50/102/27 51/103/27 52/104/27
f 53/105/28 54/106/28 55/107/28 56/108/28
f 51/103/29 55/107/29 54/109/29 52/110/29
f 49/111/30 53/112/30 56/108/30 50/102/30
f 50/102/2 56/108/2 55/107/2 51/103/2
f 57/113/28 58/114/28 59/115/28 60/116/28
f 60/117/29 59/118/29 61/119/29 62/120/29
f 62/121/27 61/122/27 63/123/27 64/124/27
f 64/124/30 63/123/30 58/125/30 57/126/30
f 65/127/28 66/128/28 67/129/28 68/130/28
f 68/131/29 67/132/29 69/133/29 70/134/29
f 70/135/27 69/136/27 71/137/27 72/138/27
f 72/138/30 71/137/30 66/139/30 65/140/30
f 73/141/28 74/142/28 75/143/28 76/144/28
f 76/145/29 75/146/29 77/147/29 78/148/29
f 78/149/27 77/150/27 79/151/27 80/152/27
f 80/152/30 79/151/30 74/153/30 73/154/30
f 81/155/28 82/156/28 83/157/28 84/158/28
f 84/159/29 83/160/29 85/161/29 86/162/29
f 86/163/27 85/164/27 87/165/27 88/166/27
f 88/166/30 87/165/30 82/167/30 81/168/30
f 89/169/2 90/170/2 91/171/2 92/172/2
f 92/173/29 91/174/29 93/175/29 94/176/29
f 94/176/1 93/175/1 95/177/1 96/178/1
f 96/178/30 95/177/30 90/170/30 89/169/30
f 92/179/27 94/180/27 96/181/27 89/182/27
f 93/183/28 91/184/28 90/185/28 95/186/28
f 97/187/2 98/188/2 99/189/2 100/190/2
f 100/191/29 99/192/29 101/193/29 102/194/29
f 102/194/1 101/193/1 103/195/1 104/196/1
f 104/196/30 103/195/30 98/188/30 97/187/30
f 100/197/27 102/198/27 104/199/27 97/200/27
f 101/201/28 99/202/28 98/203/28 103/204/28
