# Blender v2.79 (sub 0) OBJ File: ''
# www.blender.org
g node0_Body
v -0.250000 -0.500000 -0.500000
v -0.250000 -0.500000 -0.250000
v -0.250000 -0.187500 -0.500000
v -0.250000 -0.187500 -0.250000
v 0.250000 -0.187500 -0.500000
v 0.187500 -0.250000 -0.500000
v 0.187500 -0.187500 -0.500000
v 0.250000 -0.500000 -0.500000
v -0.187500 -0.187500 -0.500000
v -0.187500 -0.250000 -0.500000
v -0.500000 -0.500000 -0.250000
v -0.500000 -0.187500 -0.250000
v -0.250000 -0.500000 0.250000
v 0.250000 -0.500000 0.250000
v -0.250000 -0.500000 0.500000
v 0.250000 -0.500000 0.500000
v -0.500000 -0.500000 0.250000
v 0.250000 -0.500000 -0.250000
v 0.500000 -0.500000 -0.250000
v 0.500000 -0.500000 0.250000
v -0.250000 -0.187500 0.187500
v -0.500000 -0.187500 0.250000
v -0.250000 -0.187500 0.250000
v -0.500000 -0.187500 0.187500
v -0.187500 -0.187500 0.250000
v -0.250000 -0.187500 0.500000
v -0.187500 -0.187500 0.500000
v -0.250000 -0.187500 -0.187500
v -0.500000 -0.187500 -0.187500
v 0.250000 -0.187500 0.250000
v 0.187500 -0.187500 0.500000
v 0.250000 -0.187500 0.500000
v 0.187500 -0.187500 0.250000
v -0.187500 -0.187500 -0.250000
v 0.250000 -0.187500 0.187500
v 0.500000 -0.187500 0.250000
v 0.500000 -0.187500 0.187500
v 0.187500 -0.187500 -0.250000
v 0.250000 -0.187500 -0.187500
v 0.250000 -0.187500 -0.250000
v 0.500000 -0.187500 -0.250000
v 0.500000 -0.187500 -0.187500
v -0.187500 -0.250000 -0.250000
v 0.187500 -0.250000 -0.250000
v -0.500000 -0.250000 -0.187500
v -0.500000 -0.250000 0.187500
v -0.187500 -0.250000 0.500000
v 0.187500 -0.250000 0.500000
v 0.500000 -0.250000 0.187500
v 0.500000 -0.250000 -0.187500
v 0.250000 -0.250000 -0.187500
v 0.250000 -0.250000 0.187500
v 0.187500 -0.250000 0.250000
v -0.187500 -0.250000 0.250000
v -0.250000 -0.250000 0.187500
v -0.250000 -0.250000 -0.187500
vt 1.000000 0.000000
vt 0.750000 0.000000
vt 1.000000 0.312500
vt 0.750000 0.312500
vt 0.750000 0.312500
vt 0.687500 0.250000
vt 0.687500 0.312500
vt 0.750000 0.000000
vt 0.312500 0.312500
vt 0.312500 0.250000
vt 0.250000 0.312500
vt 0.250000 0.000000
vt 0.250000 0.000000
vt 0.000000 0.000000
vt 0.250000 0.312500
vt 0.000000 0.312500
vt 0.250000 0.250000
vt 0.750000 0.250000
vt 0.250000 0.000000
vt 0.750000 0.000000
vt 0.000000 0.750000
vt 0.250000 0.750000
vt 0.000000 0.250000
vt 0.750000 0.750000
vt 1.000000 0.750000
vt 1.000000 0.250000
vt 0.250000 1.000000
vt 0.750000 1.000000
vt 0.250000 0.312500
vt 0.000000 0.250000
vt 0.250000 0.250000
vt 0.000000 0.312500
vt 0.312500 0.250000
vt 0.250000 0.000000
vt 0.312500 0.000000
vt 0.250000 0.687500
vt 0.000000 0.750000
vt 0.000000 0.687500
vt 0.250000 0.750000
vt 0.750000 0.250000
vt 0.687500 0.000000
vt 0.750000 0.000000
vt 0.687500 0.250000
vt 0.312500 0.750000
vt 0.750000 0.312500
vt 0.250000 1.000000
vt 1.000000 0.250000
vt 0.312500 1.000000
vt 1.000000 0.312500
vt 0.687500 0.750000
vt 0.750000 0.687500
vt 0.750000 0.750000
vt 1.000000 0.750000
vt 1.000000 0.687500
vt 0.750000 1.000000
vt 0.687500 1.000000
vt 1.000000 0.312500
vt 0.750000 0.312500
vt 1.000000 0.250000
vt 0.750000 0.250000
vt 0.312500 0.750000
vt 0.687500 1.000000
vt 0.312500 1.000000
vt 0.687500 0.750000
vt 0.750000 0.312500
vt 1.000000 0.312500
vt 0.750000 0.250000
vt 1.000000 0.250000
vt 0.750000 0.000000
vt 1.000000 0.000000
vt 0.750000 0.312500
vt 1.000000 0.312500
vt 0.750000 0.312500
vt 0.687500 0.250000
vt 0.687500 0.312500
vt 0.750000 0.000000
vt 0.312500 0.312500
vt 0.312500 0.250000
vt 0.250000 0.312500
vt 0.250000 0.000000
vt 0.000000 0.000000
vt 0.250000 0.000000
vt 0.000000 0.312500
vt 0.250000 0.312500
vt 0.000000 0.000000
vt 0.000000 0.312500
vt 0.250000 0.312500
vt 0.312500 0.250000
vt 0.312500 0.312500
vt 0.687500 0.250000
vt 0.750000 0.312500
vt 0.687500 0.312500
vt 0.000000 0.000000
vt 0.250000 0.000000
vt 0.000000 0.312500
vt 0.250000 0.312500
vt 0.750000 0.000000
vt 1.000000 0.000000
vt 0.750000 0.312500
vt 1.000000 0.312500
vt 0.250000 0.312500
vt 0.312500 0.250000
vt 0.312500 0.312500
vt 0.250000 0.000000
vt 0.687500 0.312500
vt 0.687500 0.250000
vt 0.750000 0.312500
vt 0.750000 0.000000
vt 1.000000 0.000000
vt 1.000000 0.312500
vt 1.000000 0.312500
vt 0.750000 0.312500
vt 1.000000 0.250000
vt 0.750000 0.250000
vt 0.687500 0.312500
vt 0.312500 0.312500
vt 0.687500 0.250000
vt 0.312500 0.250000
vt 0.750000 0.250000
vt 1.000000 0.250000
vt 0.000000 0.312500
vt 0.250000 0.312500
vt 0.000000 0.250000
vt 0.250000 0.250000
vt 0.687500 0.312500
vt 0.312500 0.312500
vt 0.687500 0.250000
vt 0.312500 0.250000
vt 0.250000 0.312500
vt 0.000000 0.312500
vt 0.250000 0.250000
vt 0.000000 0.250000
vt 0.000000 0.250000
vt 0.250000 0.250000
vt 0.312500 0.312500
vt 0.687500 0.312500
vt 0.312500 0.250000
vt 0.687500 0.250000
vt 0.250000 0.312500
vt 0.000000 0.312500
vt 0.250000 0.250000
vt 0.000000 0.250000
vt 0.312500 0.312500
vt 0.687500 0.312500
vt 0.312500 0.250000
vt 0.687500 0.250000
vt 0.250000 0.312500
vt 0.000000 0.687500
vt 0.000000 0.312500
vt 0.250000 0.687500
vt 0.312500 0.000000
vt 0.687500 0.000000
vt 0.750000 0.687500
vt 1.000000 0.312500
vt 1.000000 0.687500
vt 0.750000 0.312500
vn -1.0000 0.0000 0.0000
vn 0.0000 0.0000 -1.0000
vn 0.0000 -1.0000 0.0000
vn 0.0000 1.0000 0.0000
vn 1.0000 0.0000 0.0000
vn 0.0000 0.0000 1.0000
s off
f 1/1/1 2/2/1 3/3/1
f 3/3/1 2/2/1 4/4/1
f 5/5/2 6/6/2 7/7/2
f 5/5/2 8/8/2 6/6/2
f 9/9/2 10/10/2 3/11/2
f 8/8/2 10/10/2 6/6/2
f 10/10/2 1/12/2 3/11/2
f 8/8/2 1/12/2 10/10/2
f 2/13/2 11/14/2 4/15/2
f 4/15/2 11/14/2 12/16/2
f 13/17/3 14/18/3 15/19/3
f 15/19/3 14/18/3 16/20/3
f 11/21/3 2/22/3 17/23/3
f 17/23/3 2/22/3 13/17/3
f 2/22/3 18/24/3 13/17/3
f 13/17/3 18/24/3 14/18/3
f 14/18/3 19/25/3 20/26/3
f 18/24/3 19/25/3 14/18/3
f 1/27/3 8/28/3 2/22/3
f 2/22/3 8/28/3 18/24/3
f 21/29/4 22/30/4 23/31/4
f 21/29/4 24/32/4 22/30/4
f 25/33/4 26/34/4 27/35/4
f 25/33/4 23/31/4 26/34/4
f 25/33/4 21/29/4 23/31/4
f 28/36/4 12/37/4 29/38/4
f 28/36/4 21/29/4 25/33/4
f 4/39/4 12/37/4 28/36/4
f 30/40/4 31/41/4 32/42/4
f 30/40/4 33/43/4 31/41/4
f 34/44/4 4/39/4 28/36/4
f 35/45/4 25/33/4 33/43/4
f 35/45/4 33/43/4 30/40/4
f 3/46/4 4/39/4 34/44/4
f 36/47/4 35/45/4 30/40/4
f 9/48/4 3/46/4 34/44/4
f 37/49/4 35/45/4 36/47/4
f 38/50/4 28/36/4 25/33/4
f 38/50/4 25/33/4 35/45/4
f 38/50/4 34/44/4 28/36/4
f 39/51/4 38/50/4 35/45/4
f 40/52/4 38/50/4 39/51/4
f 41/53/4 39/51/4 42/54/4
f 41/53/4 40/52/4 39/51/4
f 5/55/4 7/56/4 38/50/4
f 5/55/4 38/50/4 40/52/4
f 9/57/5 34/58/5 10/59/5
f 10/59/5 34/58/5 43/60/5
f 43/61/4 6/62/4 10/63/4
f 43/61/4 44/64/4 6/62/4
f 38/65/1 7/66/1 44/67/1
f 44/67/1 7/66/1 6/68/1
f 18/69/5 8/70/5 40/71/5
f 40/71/5 8/70/5 5/72/5
f 12/73/1 45/74/1 29/75/1
f 12/73/1 11/76/1 45/74/1
f 24/77/1 46/78/1 22/79/1
f 11/76/1 46/78/1 45/74/1
f 46/78/1 17/80/1 22/79/1
f 11/76/1 17/80/1 46/78/1
f 17/81/6 13/82/6 22/83/6
f 22/83/6 13/82/6 23/84/6
f 13/82/1 15/85/1 23/84/1
f 23/84/1 15/85/1 26/86/1
f 26/87/6 47/88/6 27/89/6
f 26/87/6 15/19/6 47/88/6
f 15/19/6 48/90/6 47/88/6
f 48/90/6 32/91/6 31/92/6
f 48/90/6 16/20/6 32/91/6
f 15/19/6 16/20/6 48/90/6
f 16/93/5 14/94/5 32/95/5
f 32/95/5 14/94/5 30/96/5
f 14/97/6 20/98/6 30/99/6
f 30/99/6 20/98/6 36/100/6
f 36/101/5 49/102/5 37/103/5
f 36/101/5 20/104/5 49/102/5
f 42/105/5 50/106/5 41/107/5
f 20/104/5 50/106/5 49/102/5
f 50/106/5 19/108/5 41/107/5
f 20/104/5 19/108/5 50/106/5
f 19/109/2 18/69/2 41/110/2
f 41/110/2 18/69/2 40/71/2
f 42/111/6 39/112/6 50/113/6
f 50/113/6 39/112/6 51/114/6
f 39/115/5 35/116/5 51/117/5
f 51/117/5 35/116/5 52/118/5
f 35/45/2 37/49/2 52/119/2
f 52/119/2 37/49/2 49/120/2
f 31/121/1 33/122/1 48/123/1
f 48/123/1 33/122/1 53/124/1
f 33/125/6 25/126/6 53/127/6
f 53/127/6 25/126/6 54/128/6
f 25/129/5 27/130/5 54/131/5
f 54/131/5 27/130/5 47/132/5
f 24/32/2 21/29/2 46/133/2
f 46/133/2 21/29/2 55/134/2
f 21/135/1 28/136/1 55/137/1
f 55/137/1 28/136/1 56/138/1
f 28/139/6 29/140/6 56/141/6
f 56/141/6 29/140/6 45/142/6
f 34/143/2 38/144/2 43/145/2
f 43/145/2 38/144/2 44/146/2
f 55/147/4 45/148/4 46/149/4
f 55/147/4 56/150/4 45/148/4
f 53/127/4 47/151/4 48/152/4
f 53/127/4 54/128/4 47/151/4
f 51/153/4 49/154/4 50/155/4
f 51/153/4 52/156/4 49/154/4
