# Blender v2.79 (sub 0) OBJ File: ''
# www.blender.org
g node0_Body
v -0.500000 -0.125000 0.375000
v -0.500000 -0.062500 0.375000
v 0.500000 -0.125000 0.375000
v 0.500000 -0.062500 0.375000
v 0.187500 -0.187500 0.326797
v 0.500000 -0.172197 0.339286
v 0.250000 -0.187500 0.326797
v 0.500000 -0.217358 0.301029
v -0.187500 -0.187500 0.326797
v -0.500000 -0.172197 0.339286
v -0.250000 -0.187500 0.326797
v -0.187500 -0.208820 0.308594
v 0.187500 -0.208820 0.308594
v 0.500000 -0.260345 0.260345
v 0.250000 -0.229052 0.290401
v -0.187500 -0.229658 0.289841
v 0.187500 -0.229658 0.289841
v 0.187500 -0.250000 0.270552
v -0.500000 -0.217358 0.301029
v -0.187500 -0.250000 0.270552
v 0.500000 -0.301029 0.217358
v 0.250000 -0.268679 0.251919
v 0.250000 -0.306278 0.211453
v -0.500000 -0.260345 0.260345
v -0.250000 -0.229052 0.290401
v 0.500000 -0.339286 0.172197
v 0.250000 -0.341750 0.169109
v -0.500000 -0.301029 0.217358
v -0.250000 -0.268679 0.251919
v -0.250000 -0.306278 0.211453
v 0.500000 -0.375000 0.125000
v 0.250000 -0.375000 0.125000
v -0.500000 -0.339286 0.172197
v -0.250000 -0.341750 0.169109
v -0.500000 -0.375000 0.125000
v -0.250000 -0.375000 0.125000
v -0.500000 -0.062500 0.437500
v 0.500000 -0.062500 0.437500
v -0.500000 -0.500000 -0.500000
v -0.500000 -0.437500 -0.437500
v -0.500000 -0.437500 -0.500000
v -0.500000 -0.437500 -0.250000
v -0.500000 -0.375000 -0.250000
v -0.500000 -0.375000 -0.437500
v -0.500000 -0.437500 -0.125000
v -0.500000 -0.437500 -0.000000
v -0.500000 -0.375000 -0.000000
v -0.500000 -0.375000 -0.125000
v -0.500000 -0.437500 0.062500
v -0.500000 -0.375000 0.062500
v -0.500000 -0.500000 0.500000
v -0.500000 -0.125000 0.375000
v -0.500000 -0.062500 0.437500
v -0.500000 -0.062500 0.375000
v -0.500000 0.000000 0.437500
v -0.500000 0.125000 0.375000
v -0.500000 0.000000 0.375000
v -0.500000 0.125000 0.437500
v -0.500000 0.250000 0.437500
v -0.500000 0.437500 0.375000
v -0.500000 0.250000 0.375000
v -0.500000 0.437500 0.437500
v -0.500000 0.500000 0.500000
v -0.500000 0.500000 0.437500
v 0.500000 -0.437500 -0.437500
v 0.500000 -0.500000 -0.500000
v 0.500000 -0.437500 -0.500000
v 0.500000 -0.437500 -0.250000
v 0.500000 -0.375000 -0.437500
v 0.500000 -0.375000 -0.250000
v 0.500000 -0.437500 -0.125000
v 0.500000 -0.437500 0.000000
v 0.500000 -0.375000 0.000000
v 0.500000 -0.375000 -0.125000
v 0.500000 -0.437500 0.062500
v 0.500000 -0.375000 0.062500
v 0.500000 -0.500000 0.500000
v 0.500000 -0.125000 0.375000
v 0.500000 -0.062500 0.437500
v 0.500000 -0.062500 0.375000
v 0.500000 0.125000 0.437500
v 0.500000 0.000000 0.437500
v 0.500000 0.000000 0.375000
v 0.500000 0.125000 0.375000
v 0.500000 0.437500 0.437500
v 0.500000 0.250000 0.437500
v 0.500000 0.250000 0.375000
v 0.500000 0.437500 0.375000
v 0.500000 0.500000 0.500000
v 0.500000 0.500000 0.437500
v -0.250000 -0.375000 0.062500
v -0.250000 -0.375000 0.000000
v -0.250000 -0.437500 0.062500
v -0.250000 -0.437500 0.000000
v -0.250000 -0.375000 -0.125000
v -0.250000 -0.375000 -0.250000
v -0.250000 -0.437500 -0.125000
v -0.250000 -0.437500 -0.250000
v -0.250000 -0.375000 -0.437500
v -0.250000 -0.437500 -0.500000
v -0.250000 -0.437500 -0.437500
v -0.250000 -0.187500 -0.500000
v -0.187500 -0.187500 -0.500000
v -0.187500 -0.250000 -0.500000
v 0.187500 -0.250000 -0.500000
v 0.187500 -0.187500 -0.500000
v 0.250000 -0.187500 -0.500000
v 0.250000 -0.375000 0.062500
v 0.250000 -0.375000 0.000000
v 0.250000 -0.437500 0.062500
v 0.250000 -0.437500 0.000000
v 0.250000 -0.375000 -0.125000
v 0.250000 -0.375000 -0.250000
v 0.250000 -0.437500 -0.250000
v 0.250000 -0.437500 -0.125000
v 0.250000 -0.375000 -0.437500
v 0.250000 -0.437500 -0.500000
v 0.250000 -0.437500 -0.437500
v -0.500000 0.000000 0.437500
v 0.500000 0.000000 0.437500
v 0.500000 0.000000 0.375000
v -0.500000 0.000000 0.375000
v 0.500000 0.125000 0.375000
v -0.500000 0.125000 0.375000
v -0.500000 0.125000 0.437500
v 0.500000 0.125000 0.437500
v -0.500000 0.250000 0.437500
v -0.500000 0.250000 0.375000
v 0.187500 -0.187500 0.500000
v 0.250000 -0.187500 0.500000
v 0.250000 -0.500000 0.500000
v -0.187500 -0.187500 0.500000
v -0.250000 -0.187500 0.500000
v -0.187500 -0.250000 0.500000
v 0.187500 -0.250000 0.500000
v -0.250000 -0.500000 0.500000
v -0.250000 -0.500000 -0.500000
v -0.500000 -0.375000 -0.000000
v 0.250000 -0.500000 -0.500000
v 0.500000 -0.375000 -0.437500
v 0.500000 -0.437500 -0.250000
v 0.500000 -0.375000 -0.125000
v 0.500000 -0.375000 0.000000
v 0.500000 -0.437500 0.000000
v 0.500000 -0.437500 0.062500
vt 0.000000 0.375000
vt 0.000000 0.437500
vt 1.000000 0.375000
vt 1.000000 0.437500
vt 0.687500 0.312500
vt 1.000000 0.327803
vt 0.750000 0.312500
vt 1.000000 0.282642
vt 0.312500 0.312500
vt 0.000000 0.327803
vt 0.250000 0.312500
vt 0.312500 0.291180
vt 0.687500 0.291180
vt 1.000000 0.239655
vt 0.750000 0.270949
vt 0.312500 0.270342
vt 0.687500 0.270342
vt 0.687500 0.250000
vt 0.000000 0.282642
vt 0.312500 0.250000
vt 1.000000 0.282642
vt 0.750000 0.248081
vt 0.750000 0.288547
vt 0.000000 0.239655
vt 0.250000 0.270949
vt 1.000000 0.327803
vt 0.750000 0.330891
vt 0.000000 0.282642
vt 0.250000 0.248081
vt 0.250000 0.288547
vt 1.000000 0.375000
vt 0.750000 0.375000
vt 0.000000 0.327803
vt 0.250000 0.330891
vt 0.000000 0.375000
vt 0.250000 0.375000
vt 0.250000 0.231321
vt 0.750000 0.231321
vt 0.000000 0.125000
vt 0.000000 0.062500
vt 1.000000 0.125000
vt 1.000000 0.062500
vt 1.000000 0.000000
vt 0.937500 0.062500
vt 1.000000 0.062500
vt 0.750000 0.062500
vt 0.750000 0.125000
vt 0.937500 0.125000
vt 0.625000 0.062500
vt 0.500000 0.062500
vt 0.500000 0.125000
vt 0.625000 0.125000
vt 0.437500 0.062500
vt 0.375000 0.125000
vt 0.437500 0.125000
vt 0.282642 0.198971
vt 0.000000 0.000000
vt 0.239655 0.239655
vt 0.327803 0.160714
vt 0.198971 0.282642
vt 0.160714 0.327803
vt 0.125000 0.375000
vt 0.062500 0.437500
vt 0.125000 0.437500
vt 0.062500 0.500000
vt 0.125000 0.625000
vt 0.125000 0.500000
vt 0.062500 0.625000
vt 0.062500 0.750000
vt 0.125000 0.937500
vt 0.125000 0.750000
vt 0.062500 0.937500
vt 0.000000 1.000000
vt 0.062500 1.000000
vt 0.937500 0.062500
vt 1.000000 0.000000
vt 1.000000 0.062500
vt 0.750000 0.062500
vt 0.937500 0.125000
vt 0.750000 0.125000
vt 0.625000 0.062500
vt 0.500000 0.062500
vt 0.500000 0.125000
vt 0.625000 0.125000
vt 0.375000 0.125000
vt 0.437500 0.062500
vt 0.437500 0.125000
vt 0.000000 0.000000
vt 0.282642 0.198971
vt 0.239655 0.239655
vt 0.327803 0.160714
vt 0.198971 0.282642
vt 0.160714 0.327803
vt 0.125000 0.375000
vt 0.062500 0.437500
vt 0.125000 0.437500
vt 0.062500 0.625000
vt 0.062500 0.500000
vt 0.125000 0.500000
vt 0.125000 0.625000
vt 0.062500 0.937500
vt 0.062500 0.750000
vt 0.125000 0.750000
vt 0.125000 0.937500
vt 0.000000 1.000000
vt 0.062500 1.000000
vt 0.250000 0.437500
vt 0.000000 0.437500
vt 0.437500 0.125000
vt 0.375000 0.125000
vt 0.330891 0.158250
vt 0.288547 0.193722
vt 0.500000 0.125000
vt 0.248081 0.231321
vt 0.209599 0.270949
vt 0.437500 0.062500
vt 0.500000 0.062500
vt 0.625000 0.125000
vt 0.173203 0.312500
vt 0.750000 0.125000
vt 0.625000 0.062500
vt 0.750000 0.062500
vt 0.937500 0.125000
vt 1.000000 0.062500
vt 0.937500 0.062500
vt 1.000000 0.312500
vt 0.250000 1.000000
vt 0.250000 0.173203
vt 0.312500 0.173203
vt 0.312500 1.000000
vt 1.000000 0.312500
vt 0.210159 0.270342
vt 0.229448 0.250000
vt 0.191406 0.291180
vt 0.173203 0.312500
vt 1.000000 0.250000
vt 0.312500 1.000000
vt 0.312500 0.229448
vt 0.687500 0.229448
vt 0.687500 1.000000
vt 1.000000 0.312500
vt 0.229448 0.250000
vt 0.210159 0.270342
vt 0.191406 0.291180
vt 0.173203 0.312500
vt 1.000000 0.250000
vt 0.687500 1.000000
vt 0.687500 0.173203
vt 0.750000 0.173203
vt 0.750000 1.000000
vt 0.437500 0.125000
vt 0.330891 0.158250
vt 0.375000 0.125000
vt 0.288547 0.193722
vt 0.500000 0.125000
vt 0.248081 0.231321
vt 0.209599 0.270949
vt 0.437500 0.062500
vt 0.500000 0.062500
vt 0.625000 0.125000
vt 0.173203 0.312500
vt 1.000000 0.312500
vt 0.750000 0.125000
vt 0.750000 0.062500
vt 0.625000 0.062500
vt 0.937500 0.125000
vt 1.000000 0.062500
vt 0.937500 0.062500
vt 1.000000 0.437500
vt 0.750000 0.437500
vt 0.000000 0.437500
vt 0.000000 0.500000
vt 1.000000 0.437500
vt 1.000000 0.500000
vt 1.000000 0.062500
vt 0.000000 0.062500
vt 1.000000 0.125000
vt 0.000000 0.125000
vt 1.000000 0.500000
vt 0.000000 0.500000
vt 1.000000 0.625000
vt 0.000000 0.625000
vt 0.000000 0.125000
vt 0.000000 0.062500
vt 1.000000 0.125000
vt 1.000000 0.062500
vt 1.000000 0.625000
vt 0.000000 0.625000
vt 1.000000 0.750000
vt 0.000000 0.750000
vt 1.000000 0.062500
vt 0.000000 0.062500
vt 1.000000 0.125000
vt 0.000000 0.125000
vt 1.000000 0.750000
vt 0.000000 0.750000
vt 1.000000 0.937500
vt 0.000000 0.937500
vt 0.000000 0.125000
vt 0.000000 0.062500
vt 1.000000 0.125000
vt 1.000000 0.062500
vt 0.000000 0.937500
vt 0.000000 1.000000
vt 1.000000 0.937500
vt 1.000000 1.000000
vt 0.000000 0.062500
vt 0.000000 0.000000
vt 1.000000 0.062500
vt 1.000000 0.000000
vt 1.000000 1.000000
vt 0.687500 0.312500
vt 0.750000 0.312500
vt 1.000000 0.000000
vt 0.750000 0.000000
vt 0.312500 0.312500
vt 0.250000 0.312500
vt 0.312500 0.250000
vt 0.687500 0.250000
vt 0.250000 0.000000
vt 0.000000 1.000000
vt 0.250000 1.000000
vt 0.250000 0.000000
vt 0.000000 0.000000
vt 0.250000 0.062500
vt 0.000000 0.062500
vt 0.250000 1.000000
vt 0.000000 0.937500
vt 0.250000 0.937500
vt 0.000000 1.000000
vt 0.250000 0.062500
vt 0.000000 0.062500
vt 0.250000 0.125000
vt 0.000000 0.125000
vt 0.250000 0.937500
vt 0.000000 0.750000
vt 0.250000 0.750000
vt 0.000000 0.937500
vt 0.250000 0.125000
vt 0.000000 0.062500
vt 0.250000 0.062500
vt 0.000000 0.125000
vt 0.250000 0.750000
vt 0.000000 0.625000
vt 0.250000 0.625000
vt 0.000000 0.750000
vt 0.250000 0.062500
vt 0.000000 0.062500
vt 0.250000 0.125000
vt 0.000000 0.125000
vt 0.250000 0.625000
vt 0.000000 0.500000
vt 0.250000 0.500000
vt 0.000000 0.625000
vt 0.250000 0.125000
vt 0.000000 0.062500
vt 0.250000 0.062500
vt 0.000000 0.125000
vt 0.250000 0.500000
vt 0.000000 0.500000
vt 0.250000 0.437500
vt 0.000000 0.437500
vt 0.250000 0.062500
vt 0.000000 0.062500
vt 0.250000 0.125000
vt 0.000000 0.125000
vt 0.750000 1.000000
vt 1.000000 1.000000
vt 0.750000 0.062500
vt 0.750000 0.000000
vt 1.000000 1.000000
vt 0.750000 0.937500
vt 1.000000 0.937500
vt 0.750000 1.000000
vt 1.000000 0.062500
vt 0.750000 0.125000
vt 1.000000 0.125000
vt 0.750000 0.062500
vt 1.000000 0.937500
vt 0.750000 0.750000
vt 1.000000 0.750000
vt 0.750000 0.937500
vt 1.000000 0.125000
vt 1.000000 0.062500
vt 1.000000 0.750000
vt 0.750000 0.625000
vt 1.000000 0.625000
vt 0.750000 0.750000
vt 1.000000 0.062500
vt 0.750000 0.125000
vt 1.000000 0.125000
vt 0.750000 0.062500
vt 1.000000 0.625000
vt 0.750000 0.500000
vt 1.000000 0.500000
vt 0.750000 0.625000
vt 1.000000 0.125000
vt 0.750000 0.062500
vt 1.000000 0.062500
vt 0.750000 0.125000
vt 1.000000 0.500000
vt 0.750000 0.437500
vt 1.000000 0.437500
vt 0.750000 0.500000
vt 1.000000 0.062500
vt 0.750000 0.125000
vt 1.000000 0.125000
vt 0.750000 0.062500
vt 0.312500 0.250000
vt 0.250000 0.312500
vt 0.312500 0.312500
vt 0.687500 0.250000
vt 0.750000 0.312500
vt 0.687500 0.312500
vn 0.0000 0.0000 -1.0000
vn 0.0023 0.6034 -0.7974
vn 0.0000 0.6323 -0.7747
vn -0.0014 0.6464 -0.7630
vn 0.0000 0.6107 -0.7919
vn -0.0023 0.6034 -0.7974
vn 0.0000 0.6493 -0.7605
vn -0.0013 0.6874 -0.7263
vn 0.0000 0.6881 -0.7256
vn 0.0000 0.6689 -0.7433
vn 0.0014 0.6464 -0.7630
vn -0.0010 0.7263 -0.6874
vn 0.0007 0.7326 -0.6807
vn 0.0013 0.6874 -0.7263
vn -0.0008 0.7630 -0.6464
vn 0.0004 0.7666 -0.6422
vn -0.0007 0.7326 -0.6807
vn 0.0010 0.7263 -0.6874
vn -0.0004 0.7974 -0.6034
vn 0.0000 0.7985 -0.6019
vn -0.0004 0.7666 -0.6422
vn 0.0008 0.7630 -0.6464
vn 0.0004 0.7974 -0.6034
vn -0.0010 0.6967 -0.7174
vn -0.0012 0.6589 -0.7522
vn 0.0010 0.6967 -0.7174
vn 0.0012 0.6589 -0.7522
vn 0.0000 1.0000 0.0000
vn -1.0000 0.0000 0.0000
vn 1.0000 0.0000 0.0000
vn 0.0000 -1.0000 0.0000
vn 0.0000 0.0000 1.0000
s off
f 1/1/1 2/2/1 3/3/1
f 3/3/1 2/2/1 4/4/1
f 5/5/2 3/3/2 6/6/2
f 5/5/3 6/6/3 7/7/3
f 8/8/4 7/7/4 6/6/4
f 9/9/5 1/1/5 3/3/5
f 9/9/5 3/3/5 5/5/5
f 10/10/3 9/9/3 11/11/3
f 10/10/6 1/1/6 9/9/6
f 12/12/7 5/5/7 13/13/7
f 12/12/7 9/9/7 5/5/7
f 14/14/8 15/15/8 8/8/8
f 16/16/9 17/17/9 18/18/9
f 16/16/10 13/13/10 17/17/10
f 16/16/10 12/12/10 13/13/10
f 19/19/11 10/10/11 11/11/11
f 20/20/9 16/16/9 18/18/9
f 21/21/12 22/22/12 14/14/12
f 23/23/13 22/22/13 21/21/13
f 24/24/14 19/19/14 25/25/14
f 26/26/15 23/23/15 21/21/15
f 27/27/16 23/23/16 26/26/16
f 28/28/17 29/29/17 30/30/17
f 28/28/18 24/24/18 29/29/18
f 31/31/19 27/27/19 26/26/19
f 32/32/20 27/27/20 31/31/20
f 33/33/21 30/30/21 34/34/21
f 33/33/22 28/28/22 30/30/22
f 35/35/23 33/33/23 34/34/23
f 35/35/20 34/34/20 36/36/20
f 25/25/24 29/37/24 24/24/24
f 11/11/25 25/25/25 19/19/25
f 22/38/26 15/15/26 14/14/26
f 15/15/27 7/7/27 8/8/27
f 2/39/28 37/40/28 4/41/28
f 4/41/28 37/40/28 38/42/28
f 39/43/29 40/44/29 41/45/29
f 39/43/29 42/46/29 40/44/29
f 40/44/29 43/47/29 44/48/29
f 42/46/29 43/47/29 40/44/29
f 39/43/29 45/49/29 42/46/29
f 39/43/29 46/50/29 45/49/29
f 45/49/29 47/51/29 48/52/29
f 46/50/29 47/51/29 45/49/29
f 49/53/29 35/54/29 50/55/29
f 28/56/29 51/57/29 24/58/29
f 33/59/29 51/57/29 28/56/29
f 35/54/29 51/57/29 33/59/29
f 49/53/29 51/57/29 35/54/29
f 51/57/29 19/60/29 24/58/29
f 51/57/29 10/61/29 19/60/29
f 51/57/29 52/62/29 10/61/29
f 52/62/29 53/63/29 54/64/29
f 51/57/29 53/63/29 52/62/29
f 55/65/29 56/66/29 57/67/29
f 55/65/29 58/68/29 56/66/29
f 59/69/29 60/70/29 61/71/29
f 59/69/29 62/72/29 60/70/29
f 62/72/29 63/73/29 64/74/29
f 59/69/29 63/73/29 62/72/29
f 51/57/29 63/73/29 53/63/29
f 53/63/29 63/73/29 55/65/29
f 55/65/29 63/73/29 58/68/29
f 58/68/29 63/73/29 59/69/29
f 39/43/29 51/57/29 49/53/29
f 39/43/29 49/53/29 46/50/29
f 65/75/30 66/76/30 67/77/30
f 68/78/30 65/75/30 69/79/30
f 68/78/30 66/76/30 65/75/30
f 70/80/30 68/78/30 69/79/30
f 71/81/30 66/76/30 68/78/30
f 72/82/30 66/76/30 71/81/30
f 73/83/30 71/81/30 74/84/30
f 73/83/30 72/82/30 71/81/30
f 31/85/30 75/86/30 76/87/30
f 77/88/30 21/89/30 14/90/30
f 77/88/30 26/91/30 21/89/30
f 77/88/30 31/85/30 26/91/30
f 77/88/30 75/86/30 31/85/30
f 8/92/30 77/88/30 14/90/30
f 6/93/30 77/88/30 8/92/30
f 78/94/30 77/88/30 6/93/30
f 79/95/30 78/94/30 80/96/30
f 79/95/30 77/88/30 78/94/30
f 81/97/30 82/98/30 83/99/30
f 81/97/30 83/99/30 84/100/30
f 85/101/30 86/102/30 87/103/30
f 85/101/30 87/103/30 88/104/30
f 89/105/30 85/101/30 90/106/30
f 89/105/30 86/102/30 85/101/30
f 89/105/30 77/88/30 79/95/30
f 89/105/30 79/95/30 82/98/30
f 89/105/30 82/98/30 81/97/30
f 89/105/30 81/97/30 86/102/30
f 77/88/30 66/76/30 75/86/30
f 75/86/30 66/76/30 72/82/30
f 91/107/28 50/108/28 36/36/28
f 50/108/28 35/35/28 36/36/28
f 91/109/29 36/110/29 34/111/29
f 91/109/29 34/111/29 30/112/29
f 92/113/29 30/112/29 29/114/29
f 92/113/29 29/114/29 25/115/29
f 92/113/29 93/116/29 91/109/29
f 92/113/29 94/117/29 93/116/29
f 92/113/29 91/109/29 30/112/29
f 95/118/29 25/115/29 11/119/29
f 95/118/29 92/113/29 25/115/29
f 96/120/29 97/121/29 95/118/29
f 96/120/29 98/122/29 97/121/29
f 99/123/29 100/124/29 101/125/29
f 102/126/29 99/123/29 96/120/29
f 102/126/29 95/118/29 11/119/29
f 102/126/29 96/120/29 95/118/29
f 102/126/29 100/124/29 99/123/29
f 102/127/28 11/128/28 9/129/28
f 103/130/28 102/127/28 9/129/28
f 103/131/30 16/132/30 20/133/30
f 103/131/30 12/134/30 16/132/30
f 103/131/30 9/135/30 12/134/30
f 104/136/30 103/131/30 20/133/30
f 104/137/28 20/138/28 18/139/28
f 105/140/28 104/137/28 18/139/28
f 106/141/29 18/142/29 17/143/29
f 106/141/29 17/143/29 13/144/29
f 106/141/29 13/144/29 5/145/29
f 106/141/29 105/146/29 18/142/29
f 106/147/28 5/148/28 7/149/28
f 107/150/28 106/147/28 7/149/28
f 108/151/30 27/152/30 32/153/30
f 108/151/30 23/154/30 27/152/30
f 109/155/30 22/156/30 23/154/30
f 109/155/30 15/157/30 22/156/30
f 109/155/30 23/154/30 108/151/30
f 110/158/30 109/155/30 108/151/30
f 111/159/30 109/155/30 110/158/30
f 112/160/30 7/161/30 15/157/30
f 112/160/30 15/157/30 109/155/30
f 107/162/30 7/161/30 112/160/30
f 107/162/30 112/160/30 113/163/30
f 114/164/30 112/160/30 115/165/30
f 114/164/30 113/163/30 112/160/30
f 116/166/30 107/162/30 113/163/30
f 117/167/30 116/166/30 118/168/30
f 117/167/30 107/162/30 116/166/30
f 76/169/28 32/32/28 31/31/28
f 108/170/28 32/32/28 76/169/28
f 37/171/1 119/172/1 38/173/1
f 38/173/1 119/172/1 120/174/1
f 120/175/31 119/176/31 121/177/31
f 119/176/31 122/178/31 121/177/31
f 121/179/1 122/180/1 123/181/1
f 122/180/1 124/182/1 123/181/1
f 124/183/28 125/184/28 123/185/28
f 123/185/28 125/184/28 126/186/28
f 126/187/1 125/188/1 86/189/1
f 125/188/1 127/190/1 86/189/1
f 86/191/31 127/192/31 87/193/31
f 127/192/31 128/194/31 87/193/31
f 87/195/1 128/196/1 88/197/1
f 128/196/1 60/198/1 88/197/1
f 60/199/28 62/200/28 88/201/28
f 88/201/28 62/200/28 85/202/28
f 62/203/1 64/204/1 85/205/1
f 85/205/1 64/204/1 90/206/1
f 64/207/28 63/208/28 90/209/28
f 90/209/28 63/208/28 89/210/28
f 89/211/32 129/212/32 130/213/32
f 130/213/32 77/214/32 89/211/32
f 130/213/32 131/215/32 77/214/32
f 63/73/32 132/216/32 89/211/32
f 89/211/32 132/216/32 129/212/32
f 63/73/32 133/217/32 132/216/32
f 129/212/32 134/218/32 135/219/32
f 132/216/32 134/218/32 129/212/32
f 133/217/32 51/57/32 136/220/32
f 63/73/32 51/57/32 133/217/32
f 136/220/31 39/221/31 137/222/31
f 51/57/31 39/221/31 136/220/31
f 137/223/1 39/224/1 100/225/1
f 39/224/1 41/226/1 100/225/1
f 100/227/28 40/228/28 101/229/28
f 41/230/28 40/228/28 100/227/28
f 101/231/1 40/232/1 99/233/1
f 40/232/1 44/234/1 99/233/1
f 99/235/28 43/236/28 96/237/28
f 44/238/28 43/236/28 99/235/28
f 96/239/32 42/240/32 98/241/32
f 43/242/32 42/240/32 96/239/32
f 98/243/28 45/244/28 97/245/28
f 42/246/28 45/244/28 98/243/28
f 97/247/1 45/248/1 95/249/1
f 45/248/1 48/250/1 95/249/1
f 95/251/28 138/252/28 92/253/28
f 48/254/28 138/252/28 95/251/28
f 92/255/32 46/256/32 94/257/32
f 138/258/32 46/256/32 92/255/32
f 94/259/28 46/260/28 93/261/28
f 46/260/28 49/262/28 93/261/28
f 93/263/1 49/264/1 91/265/1
f 49/264/1 50/266/1 91/265/1
f 77/214/31 139/267/31 66/268/31
f 131/215/31 139/267/31 77/214/31
f 66/76/1 117/269/1 67/77/1
f 139/270/1 117/269/1 66/76/1
f 67/271/28 118/272/28 65/273/28
f 117/274/28 118/272/28 67/271/28
f 65/275/1 116/276/1 140/277/1
f 118/278/1 116/276/1 65/275/1
f 140/279/28 113/280/28 70/281/28
f 116/282/28 113/280/28 140/279/28
f 70/283/32 114/164/32 141/284/32
f 113/163/32 114/164/32 70/283/32
f 141/285/28 115/286/28 71/287/28
f 114/288/28 115/286/28 141/285/28
f 71/289/1 112/290/1 142/291/1
f 115/292/1 112/290/1 71/289/1
f 142/293/28 109/294/28 143/295/28
f 112/296/28 109/294/28 142/293/28
f 143/297/32 111/298/32 144/299/32
f 109/300/32 111/298/32 143/297/32
f 144/301/28 110/302/28 145/303/28
f 111/304/28 110/302/28 144/301/28
f 145/305/1 108/306/1 76/307/1
f 110/308/1 108/306/1 145/305/1
f 104/309/1 100/225/1 102/310/1
f 103/311/1 104/309/1 102/310/1
f 117/269/1 100/225/1 104/309/1
f 105/312/1 117/269/1 104/309/1
f 107/313/1 105/312/1 106/314/1
f 107/313/1 117/269/1 105/312/1
f 129/212/32 135/219/32 130/213/32
f 135/219/32 131/215/32 130/213/32
f 133/217/32 134/218/32 132/216/32
f 135/219/32 134/218/32 131/215/32
f 134/218/32 136/220/32 131/215/32
f 133/217/32 136/220/32 134/218/32
f 136/220/31 139/267/31 131/215/31
f 136/220/31 137/222/31 139/267/31
f 139/270/1 100/225/1 117/269/1
f 137/223/1 100/225/1 139/270/1
