# Blender v2.79 (sub 0) OBJ File: ''
# www.blender.org
g node0_Body
v 0.500000 -0.500000 -0.500000
v 0.437500 -0.500000 -0.500000
v 0.500000 -0.187500 -0.500000
v 0.437500 -0.187500 -0.500000
v 0.437500 -0.187500 0.437500
v 0.437500 -0.500000 0.437500
v -0.500000 -0.187500 0.437500
v -0.500000 -0.500000 0.437500
v -0.500000 -0.500000 0.500000
v -0.500000 -0.187500 0.500000
v 0.500000 -0.187500 0.500000
v 0.500000 -0.500000 0.500000
vt 1.000000 0.000000
vt 0.937500 0.000000
vt 1.000000 0.312500
vt 0.937500 0.312500
vt 1.000000 0.000000
vt 0.062500 0.312500
vt 1.000000 0.312500
vt 0.062500 0.000000
vt 0.937500 0.000000
vt 0.000000 0.312500
vt 0.937500 0.312500
vt 0.000000 0.000000
vt 0.062500 0.000000
vt 0.000000 0.000000
vt 0.062500 0.312500
vt 0.000000 0.312500
vt 1.000000 0.312500
vt 1.000000 0.000000
vt 0.000000 0.000000
vt 0.000000 0.312500
vt 0.000000 0.062500
vt 0.937500 0.062500
vt 0.937500 1.000000
vt 1.000000 1.000000
vt 0.937500 0.062500
vt 0.000000 0.062500
vt 0.000000 0.000000
vt 1.000000 0.000000
vt 1.000000 1.000000
vt 0.937500 1.000000
vn 0.0000 0.0000 -1.0000
vn -1.0000 0.0000 0.0000
vn 0.0000 0.0000 1.0000
vn 1.0000 0.0000 0.0000
vn 0.0000 -1.0000 0.0000
vn 0.0000 1.0000 0.0000
s off
f 1/1/1 2/2/1 3/3/1
f 3/3/1 2/2/1 4/4/1
f 2/5/2 5/6/2 4/7/2
f 2/5/2 6/8/2 5/6/2
f 6/9/1 7/10/1 5/11/1
f 6/9/1 8/12/1 7/10/1
f 8/13/2 9/14/2 7/15/2
f 7/15/2 9/14/2 10/16/2
f 9/14/3 11/17/3 10/16/3
f 9/14/3 12/18/3 11/17/3
f 12/19/4 3/3/4 11/20/4
f 12/19/4 1/1/4 3/3/4
f 8/21/5 6/22/5 9/14/5
f 6/22/5 12/18/5 9/14/5
f 2/23/5 1/24/5 6/22/5
f 6/22/5 1/24/5 12/18/5
f 5/25/6 7/26/6 10/27/6
f 11/28/6 5/25/6 10/27/6
f 3/29/6 4/30/6 5/25/6
f 3/29/6 5/25/6 11/28/6
